<svg width="400" height="362" viewBox="0 0 400 362" fill="none" xmlns="http://www.w3.org/2000/svg">
<path d="M187.225 266.334H5.37754C3.95209 266.331 2.58574 265.764 1.5778 264.756C0.569851 263.748 0.00248987 262.382 0 260.956V5.33045C0.0148652 3.91318 0.587686 2.55887 1.5943 1.56108C2.60091 0.563284 3.9602 0.00239992 5.37754 0H187.225C188.649 0.00249489 190.015 0.570157 191.021 1.57837C192.028 2.58658 192.593 3.95296 192.593 5.37754V260.956C192.593 262.381 192.028 263.747 191.021 264.756C190.015 265.764 188.649 266.331 187.225 266.334ZM5.37754 0.188356C4.01453 0.190845 2.70807 0.733398 1.74428 1.69719C0.78049 2.66098 0.237933 3.96744 0.235444 5.33045V260.956C0.237933 262.319 0.78049 263.626 1.74428 264.59C2.70807 265.553 4.01453 266.096 5.37754 266.098H187.225C188.587 266.096 189.892 265.553 190.855 264.589C191.817 263.625 192.358 262.319 192.358 260.956V5.33045C192.358 3.96831 191.817 2.66183 190.855 1.69777C189.892 0.733708 188.587 0.19085 187.225 0.188356H5.37754Z" fill="#F5F5F5"/>
<path d="M390.931 266.334H209.074C207.65 266.331 206.284 265.764 205.278 264.756C204.271 263.747 203.706 262.381 203.706 260.956V5.33045C203.718 3.91404 204.289 2.55973 205.294 1.56167C206.299 0.563616 207.658 0.00242638 209.074 0H390.931C392.347 0.00242638 393.706 0.563616 394.711 1.56167C395.716 2.55973 396.287 3.91404 396.299 5.33045V260.956C396.299 262.381 395.734 263.747 394.727 264.756C393.721 265.764 392.355 266.331 390.931 266.334ZM209.074 0.188356C207.712 0.19085 206.407 0.733708 205.444 1.69777C204.482 2.66183 203.941 3.96831 203.941 5.33045V260.956C203.941 262.319 204.482 263.625 205.444 264.589C206.407 265.553 207.712 266.096 209.074 266.098H390.931C392.295 266.096 393.602 265.554 394.568 264.59C395.533 263.627 396.077 262.32 396.082 260.956V5.33045C396.077 3.96658 395.533 2.66013 394.568 1.69661C393.602 0.733087 392.295 0.190835 390.931 0.188356H209.074Z" fill="#F5F5F5"/>
<path d="M52.1748 314.063H13.3643V314.298H52.1748V314.063Z" fill="#E6E6E6"/>
<path d="M131.284 312.179H92.3604V312.415H131.284V312.179Z" fill="#E6E6E6"/>
<path d="M181.932 312.179H172.515V312.415H181.932V312.179Z" fill="#E6E6E6"/>
<path d="M87.8012 320.222H44.2441V320.458H87.8012V320.222Z" fill="#E6E6E6"/>
<path d="M238.458 313.941H218.115V314.176H238.458V313.941Z" fill="#E6E6E6"/>
<path d="M273.143 313.941H246.839V314.176H273.143V313.941Z" fill="#E6E6E6"/>
<path d="M400 317.924H341.195V318.16H400V317.924Z" fill="#E6E6E6"/>
<path d="M7.69475 41.6923H98.3217C109.934 41.6923 112.731 25.4373 101.769 21.6231L101.345 21.4819C113.475 11.3766 86.8603 -9.93576 57.9573 19.5983C60.2081 9.75676 34.5165 13.3167 26.6527 26.737C23.8556 17.9314 -0.639962 33.2164 7.69475 41.6923Z" fill="#E6E6E6"/>
<path d="M240.144 35.9006H291.386C291.386 35.9006 303.393 31.38 301.839 19.4007C300.285 7.42129 282.156 17.4041 282.156 17.4041C282.156 17.4041 287.618 0.687593 270.064 5.42472C252.509 10.1618 250.795 26.7371 250.795 26.7371C250.795 26.7371 227.74 22.7157 240.144 35.9006Z" fill="#EBEBEB"/>
<path d="M374.657 239.597L344.52 239.484C343.939 239.483 343.362 239.596 342.825 239.818C342.287 240.04 341.799 240.366 341.388 240.778C340.976 241.189 340.65 241.677 340.428 242.215C340.206 242.753 340.093 243.329 340.094 243.91V254.534C340.094 255.71 339.627 256.838 338.795 257.67C337.963 258.502 336.835 258.969 335.658 258.969H291.385C290.21 258.969 289.084 258.503 288.252 257.673C287.42 256.844 286.952 255.718 286.95 254.543V215.506C286.947 214.925 286.83 214.35 286.605 213.814C286.381 213.278 286.053 212.791 285.64 212.382C285.227 211.973 284.738 211.649 284.2 211.429C283.662 211.208 283.086 211.096 282.504 211.099H273.087C272.505 211.099 271.928 210.984 271.391 210.761C270.853 210.538 270.365 210.211 269.953 209.799C269.542 209.387 269.216 208.898 268.994 208.36C268.773 207.822 268.659 207.245 268.66 206.663V185.36C268.658 184.185 268.189 183.06 267.358 182.23C266.526 181.4 265.399 180.934 264.224 180.934H248.817C247.642 180.934 246.515 181.4 245.684 182.23C244.852 183.06 244.384 184.185 244.381 185.36V191.632C244.383 192.214 244.269 192.791 244.047 193.329C243.825 193.867 243.499 194.356 243.088 194.768C242.677 195.18 242.189 195.507 241.651 195.73C241.113 195.953 240.537 196.068 239.955 196.068H238.505C237.924 196.068 237.349 195.954 236.812 195.731C236.276 195.508 235.788 195.182 235.378 194.771C234.968 194.36 234.643 193.872 234.421 193.335C234.2 192.798 234.086 192.223 234.088 191.642V168.455C234.088 167.872 233.973 167.294 233.749 166.756C233.526 166.217 233.198 165.727 232.785 165.315C232.372 164.903 231.882 164.577 231.343 164.355C230.804 164.132 230.226 164.018 229.643 164.02H214.367C213.19 164.022 212.063 164.49 211.23 165.321C210.397 166.152 209.927 167.279 209.922 168.455V191.68C209.923 192.26 209.81 192.836 209.588 193.373C209.367 193.91 209.042 194.398 208.631 194.809C208.221 195.22 207.734 195.546 207.197 195.769C206.661 195.991 206.086 196.106 205.505 196.106H200.739C199.566 196.106 198.44 195.639 197.61 194.809C196.779 193.979 196.313 192.853 196.313 191.68V144.873V121.423H195.371V135.87C195.287 135.747 195.202 135.625 195.108 135.512L159.923 115.311C159.188 114.501 158.765 115.311 158.765 114.228V85.3155L156.344 83.5826L112.448 52.052V39.5264H111.506V51.3833L111.327 51.2515V191.689C111.327 192.272 111.212 192.85 110.989 193.389C110.765 193.927 110.438 194.417 110.025 194.829C109.612 195.241 109.122 195.567 108.583 195.79C108.043 196.012 107.465 196.126 106.882 196.125H101.147C100.565 196.126 99.989 196.012 99.4514 195.79C98.9138 195.568 98.4254 195.242 98.0141 194.831C97.6028 194.42 97.2768 193.931 97.0548 193.394C96.8328 192.856 96.7192 192.28 96.7204 191.698L95.336 139.27C95.3212 138.766 95.1992 138.272 94.9781 137.819L86.3892 119.926H85.7487V99.621C85.75 99.1503 85.6583 98.6839 85.479 98.2486C85.2997 97.8133 85.0363 97.4177 84.7039 97.0844C84.3715 96.7511 83.9765 96.4866 83.5417 96.3062C83.1069 96.1257 82.6408 96.0329 82.17 96.0329H80.4277V81.6802H79.4859V96.0329H78.5442C77.5925 96.0329 76.6799 96.4109 76.007 97.0838C75.334 97.7567 74.956 98.6694 74.956 99.621V100.563H70.9346V99.621C70.9359 99.1503 70.8442 98.6839 70.6649 98.2486C70.4856 97.8133 70.2222 97.4177 69.8898 97.0844C69.5573 96.7511 69.1624 96.4866 68.7276 96.3062C68.2928 96.1257 67.8267 96.0329 67.3559 96.0329H65.8302V81.6802H64.8884V96.0329H63.7771C62.8255 96.0329 61.9128 96.4109 61.2399 97.0838C60.567 97.7567 60.189 98.6694 60.189 99.621V119.86H59.5486L50.9596 137.753C50.7385 138.206 50.6165 138.7 50.6017 139.204L49.189 191.576C49.1903 192.158 49.0767 192.735 48.8548 193.273C48.6329 193.811 48.3071 194.3 47.8959 194.712C47.4848 195.124 46.9964 195.451 46.4588 195.674C45.9211 195.897 45.3448 196.012 44.7627 196.012H36.6446C35.4723 196.014 34.3489 196.482 33.5208 197.311C32.6927 198.141 32.2277 199.266 32.2277 200.438V206.541C32.2277 207.123 32.1129 207.699 31.8899 208.237C31.6668 208.774 31.3399 209.263 30.9279 209.674C30.5159 210.085 30.0268 210.411 29.4887 210.633C28.9506 210.855 28.374 210.968 27.7919 210.967H22.0377C20.9933 210.961 19.9808 211.326 19.1805 211.997C18.3802 212.668 17.8441 213.601 17.6678 214.631L2.2039 295.764C2.15194 296.041 2.12359 296.321 2.11914 296.603C2.1266 297.779 2.59922 298.905 3.43381 299.734C4.2684 300.564 5.39719 301.029 6.57374 301.029H374.61C375.542 301.029 374.657 239.597 374.657 239.597Z" fill="#F0F0F0"/>
<path d="M339.256 49.7539C338.399 43.1615 332.663 44.6966 332.663 44.6966C332.663 44.6966 335.686 35.4954 326.024 38.1042C323.376 38.7727 320.974 40.1843 319.102 42.1726C317.212 44.2345 316.175 46.9362 316.2 49.7328C316.224 52.5294 317.308 55.2126 319.234 57.241C322.059 60.1417 326.08 64.1819 333.577 60.0664C335.649 59.021 340.103 56.3463 339.256 49.7539Z" fill="#F0F0F0"/>
<path d="M344.407 79.8813C344.407 80.7456 344.15 81.5905 343.67 82.3091C343.19 83.0277 342.508 83.5878 341.709 83.9185C340.911 84.2493 340.032 84.3358 339.184 84.1672C338.337 83.9986 337.558 83.5824 336.947 82.9713C336.336 82.3601 335.92 81.5815 335.751 80.7338C335.582 79.8862 335.669 79.0075 336 78.2091C336.33 77.4106 336.89 76.7281 337.609 76.2479C338.328 75.7678 339.173 75.5115 340.037 75.5115C340.611 75.5102 341.18 75.6224 341.711 75.8416C342.241 76.0608 342.724 76.3826 343.13 76.7886C343.536 77.1946 343.857 77.6769 344.077 78.2076C344.296 78.7383 344.408 79.3071 344.407 79.8813Z" fill="#F5F5F5"/>
<path d="M356.895 99.3196H332.126V145.306H356.895V99.3196Z" fill="#EBEBEB"/>
<path d="M349.991 99.3196H325.223V145.306H349.991V99.3196Z" fill="#F5F5F5"/>
<path d="M358.939 89.2991H321.983V99.3196H358.939V89.2991Z" fill="#F5F5F5"/>
<path d="M358.93 89.2991H353.241V99.3196H358.93V89.2991Z" fill="#EBEBEB"/>
<path d="M379.196 176.441H211.202V301.132H379.196V176.441Z" fill="#E6E6E6"/>
<path d="M296.621 81.407L201.577 176.441H391.656L296.621 81.407Z" fill="#F5F5F5"/>
<path d="M391.656 176.441H201.577V187.404H391.656V176.441Z" fill="#E0E0E0"/>
<path d="M31.4555 106.147C31.2234 106.147 30.9936 106.193 30.7794 106.282C30.5651 106.372 30.3705 106.502 30.2068 106.667C30.0432 106.831 29.9137 107.026 29.8257 107.241C29.7378 107.456 29.6931 107.686 29.6944 107.918V320.326H33.226V107.89C33.2186 107.425 33.0288 106.982 32.6976 106.656C32.3663 106.33 31.9202 106.147 31.4555 106.147Z" fill="#E0E0E0"/>
<path d="M33.6586 158.943C46.355 158.943 56.6474 148.651 56.6474 135.955C56.6474 123.258 46.355 112.966 33.6586 112.966C20.9623 112.966 10.6699 123.258 10.6699 135.955C10.6699 148.651 20.9623 158.943 33.6586 158.943Z" fill="#E0E0E0"/>
<path d="M36.4936 158.943C49.1899 158.943 59.4823 148.651 59.4823 135.955C59.4823 123.258 49.1899 112.966 36.4936 112.966C23.7973 112.966 13.5049 123.258 13.5049 135.955C13.5049 148.651 23.7973 158.943 36.4936 158.943Z" fill="#FAFAFA"/>
<path d="M51.082 131.82V131.754C51.0337 131.247 50.8009 130.775 50.4277 130.428C50.0544 130.08 49.5668 129.882 49.0572 129.871H22.3485C22.1069 129.868 21.8675 129.917 21.6456 130.013C21.4238 130.108 21.2244 130.249 21.0604 130.427C20.8963 130.604 20.7711 130.814 20.6929 131.042C20.6147 131.271 20.5852 131.514 20.6062 131.754H20.9641L21.4914 137.838H21.143L21.548 142.462H26.6241C26.6241 142.462 26.5582 141.916 26.5299 141.615C26.4925 141.269 26.5289 140.92 26.6369 140.59C26.7449 140.259 26.9219 139.956 27.1561 139.699C27.3904 139.443 27.6766 139.239 27.9957 139.102C28.3148 138.964 28.6594 138.896 29.0068 138.902C29.7445 138.917 30.4514 139.201 30.9944 139.7C31.5373 140.2 31.8789 140.881 31.9546 141.615C31.9546 141.916 32.0582 142.462 32.0582 142.462H40.5341C40.5341 142.462 40.5341 141.916 40.5341 141.615C40.4967 141.269 40.5331 140.92 40.6411 140.59C40.7491 140.259 40.9261 139.956 41.1603 139.699C41.3946 139.443 41.6808 139.239 41.9999 139.102C42.319 138.964 42.6636 138.896 43.011 138.902C43.7487 138.917 44.4556 139.201 44.9986 139.7C45.5415 140.2 45.8831 140.881 45.9588 141.615C45.9588 141.916 46.0153 142.462 46.0153 142.462H52.1085L51.4681 135.05H50.6676L50.3851 131.764L51.082 131.82ZM25.0231 141.52H22.4615L21.6139 131.801H24.1661L25.0231 141.52ZM28.9315 135.098H25.6353L25.3433 131.801H28.6301L28.9315 135.098ZM34.2525 135.098H30.9374L30.6549 131.801H33.9606L34.2525 135.098ZM39.5547 135.098H36.2585L35.9665 131.801H39.2722L39.5547 135.098ZM44.8757 135.098H41.5701L41.2876 131.801H44.5838L44.8757 135.098ZM49.7824 141.52H47.2302L46.3826 131.801H48.9348L49.7824 141.52Z" fill="#E0E0E0"/>
<path d="M29.0911 139.552C28.8163 139.548 28.5438 139.602 28.2916 139.711C28.0393 139.82 27.8131 139.982 27.6279 140.185C27.4427 140.388 27.3027 140.628 27.2173 140.889C27.1318 141.15 27.1028 141.426 27.1322 141.699C27.1919 142.281 27.4625 142.82 27.8928 143.216C28.3231 143.612 28.8834 143.836 29.4678 143.847C29.7454 143.857 30.0218 143.807 30.2782 143.7C30.5346 143.593 30.765 143.432 30.9536 143.229C31.1423 143.025 31.2847 142.783 31.3712 142.519C31.4577 142.255 31.4863 141.975 31.455 141.699C31.3946 141.113 31.12 140.57 30.6838 140.174C30.2476 139.777 29.6804 139.556 29.0911 139.552ZM29.3736 142.783C29.0816 142.775 28.8025 142.66 28.5891 142.461C28.3757 142.261 28.2427 141.99 28.2153 141.699C28.1977 141.566 28.2091 141.43 28.2485 141.301C28.2879 141.173 28.3545 141.054 28.4438 140.953C28.533 140.852 28.6429 140.771 28.7659 140.717C28.889 140.662 29.0223 140.634 29.157 140.635C29.4494 140.638 29.7306 140.748 29.9476 140.944C30.1645 141.14 30.302 141.409 30.3342 141.699C30.355 141.836 30.3455 141.976 30.3064 142.108C30.2672 142.241 30.1994 142.363 30.1078 142.466C30.0161 142.569 29.9028 142.651 29.7759 142.706C29.6491 142.761 29.5117 142.787 29.3736 142.783Z" fill="#E0E0E0"/>
<path d="M43.0014 139.552C42.7262 139.546 42.4529 139.6 42.2 139.708C41.947 139.817 41.7201 139.978 41.5346 140.181C41.3491 140.385 41.2092 140.625 41.1243 140.887C41.0395 141.149 41.0116 141.426 41.0425 141.699C41.1003 142.282 41.3702 142.822 41.801 143.218C42.2317 143.614 42.7931 143.838 43.3781 143.847C43.6556 143.861 43.9326 143.813 44.1895 143.707C44.4463 143.601 44.6766 143.44 44.8638 143.235C45.0511 143.03 45.1906 142.786 45.2724 142.52C45.3542 142.255 45.3762 141.974 45.337 141.699C45.2773 141.118 45.0067 140.579 44.5764 140.183C44.1461 139.787 43.5858 139.563 43.0014 139.552ZM43.2839 142.782C42.9909 142.775 42.7106 142.661 42.4957 142.461C42.2807 142.262 42.1458 141.991 42.1161 141.699C42.0986 141.566 42.11 141.43 42.1494 141.301C42.1888 141.173 42.2554 141.054 42.3446 140.953C42.4339 140.852 42.5438 140.771 42.6668 140.717C42.7899 140.662 42.9232 140.634 43.0579 140.635C43.3493 140.638 43.6293 140.748 43.8447 140.945C44.06 141.141 44.1957 141.41 44.2257 141.699C44.2462 141.834 44.2371 141.972 44.199 142.103C44.161 142.234 44.0949 142.356 44.0053 142.459C43.9157 142.562 43.8048 142.644 43.6802 142.7C43.5557 142.756 43.4204 142.784 43.2839 142.782Z" fill="#E0E0E0"/>
<path d="M60.8008 217.522V234.022H136.256V217.522H60.8008ZM68.4762 231.526H62.9386V220.178H68.4762V231.526ZM81.6611 225.706H76.1329V220.178H81.6611V225.706ZM94.8459 225.706H89.3177V220.178H94.8459V225.706ZM108.031 225.706H102.371V220.178H107.908L108.031 225.706ZM121.216 225.706H115.678V220.178H121.216V225.706ZM134.4 231.526H128.872V220.178H134.4V231.526Z" fill="#E6E6E6"/>
<path d="M81.6144 216.024H70.3037V217.522H81.6144V216.024Z" fill="#E6E6E6"/>
<path d="M126.781 216.024H115.471V217.522H126.781V216.024Z" fill="#E6E6E6"/>
<path d="M73.7319 236.687C73.7319 237.182 73.585 237.667 73.3097 238.079C73.0345 238.49 72.6432 238.812 72.1855 239.001C71.7277 239.191 71.224 239.24 70.7381 239.144C70.2521 239.047 69.8058 238.808 69.4554 238.458C69.1051 238.108 68.8665 237.661 68.7698 237.175C68.6732 236.69 68.7228 236.186 68.9124 235.728C69.102 235.27 69.4231 234.879 69.835 234.604C70.247 234.329 70.7313 234.182 71.2268 234.182C71.8912 234.182 72.5284 234.446 72.9982 234.915C73.468 235.385 73.7319 236.022 73.7319 236.687Z" fill="#E6E6E6"/>
<path d="M83.2527 236.687C83.2546 237.184 83.1087 237.672 82.8335 238.086C82.5583 238.501 82.1663 238.825 81.707 239.017C81.2477 239.208 80.7418 239.259 80.2534 239.164C79.765 239.068 79.3161 238.829 78.9635 238.478C78.6109 238.126 78.3704 237.678 78.2726 237.19C78.1749 236.702 78.2241 236.196 78.4141 235.736C78.6042 235.276 78.9265 234.883 79.3402 234.606C79.7539 234.329 80.2404 234.182 80.7382 234.182C81.4034 234.182 82.0416 234.445 82.5129 234.915C82.9842 235.384 83.2502 236.021 83.2527 236.687Z" fill="#E6E6E6"/>
<path d="M118.899 236.687C118.901 237.184 118.755 237.672 118.48 238.086C118.205 238.501 117.813 238.825 117.353 239.017C116.894 239.208 116.388 239.259 115.9 239.164C115.411 239.068 114.963 238.829 114.61 238.478C114.257 238.126 114.017 237.678 113.919 237.19C113.821 236.702 113.871 236.196 114.061 235.736C114.251 235.276 114.573 234.883 114.987 234.606C115.4 234.329 115.887 234.182 116.385 234.182C117.05 234.182 117.688 234.445 118.159 234.915C118.631 235.384 118.897 236.021 118.899 236.687Z" fill="#E6E6E6"/>
<path d="M128.383 236.687C128.384 237.185 128.238 237.672 127.963 238.087C127.687 238.502 127.295 238.826 126.835 239.017C126.375 239.209 125.868 239.26 125.38 239.163C124.891 239.066 124.442 238.826 124.09 238.474C123.738 238.122 123.498 237.673 123.401 237.184C123.305 236.696 123.355 236.189 123.547 235.73C123.738 235.27 124.062 234.877 124.477 234.602C124.892 234.326 125.379 234.18 125.877 234.182C126.542 234.182 127.179 234.446 127.649 234.915C128.119 235.385 128.383 236.022 128.383 236.687Z" fill="#E6E6E6"/>
<path d="M136.755 217.522V234.022H212.21V217.522H136.755ZM144.468 231.526H138.93V220.178H144.468V231.526ZM157.606 225.706H152.002V220.178H157.53L157.606 225.706ZM170.791 225.706H165.187V220.178H170.715L170.791 225.706ZM183.975 225.706H178.372V220.178H183.91L183.975 225.706ZM197.16 225.706H191.623V220.178H197.16V225.706ZM210.345 231.526H204.817V220.178H210.345V231.526Z" fill="#E6E6E6"/>
<path d="M157.569 216.024H146.258V217.522H157.569V216.024Z" fill="#E6E6E6"/>
<path d="M202.736 216.024H191.425V217.522H202.736V216.024Z" fill="#E6E6E6"/>
<path d="M149.686 236.687C149.686 237.182 149.539 237.667 149.264 238.079C148.989 238.49 148.597 238.812 148.14 239.001C147.682 239.191 147.178 239.24 146.692 239.144C146.206 239.047 145.76 238.808 145.41 238.458C145.059 238.108 144.821 237.661 144.724 237.175C144.627 236.69 144.677 236.186 144.866 235.728C145.056 235.27 145.377 234.879 145.789 234.604C146.201 234.329 146.685 234.182 147.181 234.182C147.845 234.182 148.482 234.446 148.952 234.915C149.422 235.385 149.686 236.022 149.686 236.687Z" fill="#E6E6E6"/>
<path d="M159.178 236.687C159.18 237.184 159.034 237.672 158.759 238.086C158.484 238.501 158.092 238.825 157.633 239.017C157.173 239.208 156.668 239.259 156.179 239.164C155.691 239.068 155.242 238.829 154.889 238.478C154.537 238.126 154.296 237.678 154.198 237.19C154.101 236.702 154.15 236.196 154.34 235.736C154.53 235.276 154.852 234.883 155.266 234.606C155.68 234.329 156.166 234.182 156.664 234.182C157.329 234.182 157.967 234.445 158.439 234.915C158.91 235.384 159.176 236.021 159.178 236.687Z" fill="#E6E6E6"/>
<path d="M194.853 236.687C194.855 237.184 194.709 237.672 194.434 238.086C194.159 238.501 193.767 238.825 193.308 239.017C192.848 239.208 192.342 239.259 191.854 239.164C191.366 239.068 190.917 238.829 190.564 238.478C190.211 238.126 189.971 237.678 189.873 237.19C189.775 236.702 189.825 236.196 190.015 235.736C190.205 235.276 190.527 234.883 190.941 234.606C191.354 234.329 191.841 234.182 192.339 234.182C193.004 234.182 193.642 234.445 194.113 234.915C194.585 235.384 194.851 236.021 194.853 236.687Z" fill="#E6E6E6"/>
<path d="M204.337 236.687C204.339 237.185 204.192 237.672 203.917 238.087C203.641 238.502 203.249 238.826 202.789 239.017C202.329 239.209 201.823 239.26 201.334 239.163C200.845 239.066 200.396 238.826 200.044 238.474C199.692 238.122 199.452 237.673 199.355 237.184C199.259 236.696 199.309 236.189 199.501 235.73C199.692 235.27 200.016 234.877 200.431 234.602C200.846 234.326 201.333 234.18 201.832 234.182C202.496 234.182 203.133 234.446 203.603 234.915C204.073 235.385 204.337 236.022 204.337 236.687Z" fill="#E6E6E6"/>
<path d="M211.202 301.029H32.2744L42.116 239.211H211.202V301.029Z" fill="#E6E6E6"/>
<path d="M198.15 361.51C298.997 361.51 380.75 356.737 380.75 350.849C380.75 344.961 298.997 340.188 198.15 340.188C97.302 340.188 15.5488 344.961 15.5488 350.849C15.5488 356.737 97.302 361.51 198.15 361.51Z" fill="#F5F5F5"/>
<path d="M64.2295 190.041C64.2295 190.041 71.3776 239.955 83.2345 264.055C95.5718 289.078 120.453 329.574 120.453 329.574L126.839 326.598C126.839 326.598 118.174 292.289 98.7173 258.451C90.6557 229.256 86.5778 180.717 86.5778 180.717L64.2295 190.041Z" fill="#FFB573"/>
<path opacity="0.8" d="M64.2295 190.041C64.2295 190.041 71.3776 239.955 83.2345 264.055C95.5718 289.078 120.453 329.574 120.453 329.574L126.839 326.598C126.839 326.598 118.174 292.289 98.7173 258.451C90.6557 229.256 86.5778 180.717 86.5778 180.717L64.2295 190.041Z" fill="#263238"/>
<path d="M64.2194 182.516C64.2194 182.516 52.8616 230.801 53.4361 257.622C54.0389 285.518 59.4635 332.738 59.4635 332.738H66.508C66.508 332.738 73.1569 297.987 69.8324 259.092C89.1106 219.594 94.0455 185.633 94.0455 185.633L64.2194 182.516Z" fill="#FFB573"/>
<path opacity="0.8" d="M64.2194 182.516C64.2194 182.516 52.8616 230.801 53.4361 257.622C54.0389 285.518 59.4635 332.738 59.4635 332.738H66.508C66.508 332.738 73.1569 297.987 69.8324 259.092C89.1106 219.594 94.0455 185.633 94.0455 185.633L64.2194 182.516Z" fill="#263238"/>
<path d="M62.7689 177.609C60.3203 180.576 56.9864 182.657 53.7279 184.682C51.342 186.151 48.9688 187.623 46.608 189.099C44.1594 190.615 41.5507 192.179 38.6783 192.141C35.8059 192.103 33.2537 186.829 33.9694 185.774C38.0002 179.644 47.5121 173.23 50.7236 168.568C51.3134 167.415 51.7988 166.211 52.1739 164.971C52.1739 162.993 52.4 155.459 52.4 155.459C51.703 143.941 55.1405 131.491 57.7398 129.362C61.5069 126.283 63.5317 124.173 66.2158 127.253C67.9769 129.306 65.2081 149.45 65.3305 159.81C65.3305 160.111 66.018 164.858 66.1122 166.101C66.5737 172.392 65.2175 174.652 62.7689 177.609Z" fill="#407BFF"/>
<path opacity="0.2" d="M62.7689 177.609C60.3203 180.576 56.9864 182.657 53.7279 184.682C51.342 186.151 48.9688 187.623 46.608 189.099C44.1594 190.615 41.5507 192.179 38.6783 192.141C35.8059 192.103 33.2537 186.829 33.9694 185.774C38.0002 179.644 47.5121 173.23 50.7236 168.568C51.3134 167.415 51.7988 166.211 52.1739 164.971C52.1739 162.993 52.4 155.459 52.4 155.459C51.703 143.941 55.1405 131.491 57.7398 129.362C61.5069 126.283 63.5317 124.173 66.2158 127.253C67.9769 129.306 65.2081 149.45 65.3305 159.81C65.3305 160.111 66.018 164.858 66.1122 166.101C66.5737 172.392 65.2175 174.652 62.7689 177.609Z" fill="black"/>
<path d="M34.1205 188.477L27.0195 188.798L30.9844 196.143C30.9844 196.143 34.9493 194.128 36.1547 191.058L34.1205 188.477Z" fill="#FFB573"/>
<path d="M22.9697 192.301L25.6632 198.291L30.9466 196.115L26.9723 188.807L22.9697 192.301Z" fill="#FFB573"/>
<path d="M30.8809 185.417L36.0135 195.654L41.5512 195.098L34.2242 181.311L30.8809 185.417Z" fill="#407BFF"/>
<path opacity="0.4" d="M30.8809 185.417L36.0135 195.654L41.5512 195.098L34.2242 181.311L30.8809 185.417Z" fill="white"/>
<path d="M67.2428 334.848C67.6726 335.743 67.8763 336.729 67.8361 337.72C67.7702 341.337 67.3746 350.905 67.3746 350.905H66.527C66.527 350.905 66.3387 346.196 65.9243 343.814C65.5099 341.431 64.9825 343.428 63.5228 345.904C62.063 348.381 58.2959 350.773 52.796 350.905C46.3448 351.056 43.7361 350.773 45.6102 349.21C47.4844 347.647 51.76 346.639 51.76 346.639C51.76 346.639 57.9475 338.022 58.0322 331.938C58.117 325.421 65.6794 332.032 67.2899 331.222C67.8455 331.335 66.9885 334.302 67.2428 334.848Z" fill="#263238"/>
<path d="M128.458 328.19C129.223 328.823 129.824 329.63 130.21 330.544C131.679 333.85 135.362 342.693 135.362 342.693L134.589 343.051C134.589 343.051 132.433 338.86 131.048 336.873C129.664 334.886 130.031 336.92 129.758 339.783C129.485 342.646 127.074 346.375 122.149 348.852C116.366 351.678 113.88 352.563 114.916 350.35C115.952 348.137 119.408 345.424 119.408 345.424C119.408 345.424 121.376 334.999 118.881 329.414C116.197 323.471 125.85 326.269 126.961 324.846C127.46 324.762 127.941 327.813 128.458 328.19Z" fill="#263238"/>
<path d="M46.0058 167.127L37.8971 196.369C37.3132 198.488 36.7481 200.852 37.7653 202.792C39.3192 205.759 43.4159 205.966 46.7592 205.759L62.2797 204.817C64.9825 204.657 68.1187 204.243 69.5219 201.926C70.3601 200.542 70.3224 198.809 70.2471 197.217C69.8327 187.919 69.0008 178.655 67.7514 169.425C67.0262 164.067 65.4252 157.634 59.0588 157.615C52.3345 157.587 47.7857 160.742 46.0058 167.127Z" fill="#263238"/>
<path opacity="0.1" d="M46.0058 167.127L37.8971 196.369C37.3132 198.488 36.7481 200.852 37.7653 202.792C39.3192 205.759 43.4159 205.966 46.7592 205.759L62.2797 204.817C64.9825 204.657 68.1187 204.243 69.5219 201.926C70.3601 200.542 70.3224 198.809 70.2471 197.217C69.8327 187.919 69.0008 178.655 67.7514 169.425C67.0262 164.067 65.4252 157.634 59.0588 157.615C52.3345 157.587 47.7857 160.742 46.0058 167.127Z" fill="#FAFAFA"/>
<path d="M96.0895 247.687C91.8609 248.28 87.962 250.964 76.962 251.303H76.3028C75.8413 251.303 75.361 251.303 74.8619 251.303C71.9141 251.303 55.1976 249.42 52.1934 247.47C56.6574 220.695 62.0726 191.067 62.9767 185.652L63.7113 181.263L63.3346 179.756V179.37L78.337 179.917L95.2231 180.538C95.2231 180.538 108.003 201.625 96.0895 247.687Z" fill="#263238"/>
<path d="M62.5343 126.349C65.3596 125.586 70.2003 124.361 74.6267 123.57C79.8204 122.731 85.0661 122.252 90.3261 122.139C93.66 121.998 96.9185 122.139 99.5272 122.252C100.173 122.295 100.802 122.482 101.367 122.799C101.931 123.115 102.419 123.554 102.793 124.082C103.167 124.611 103.419 125.216 103.53 125.854C103.641 126.492 103.609 127.147 103.436 127.771C96.344 153.114 95.2327 164.396 94.9596 177.478L63.9281 176.536C63.5744 176.523 63.2366 176.386 62.9745 176.148C62.7125 175.91 62.5432 175.587 62.4966 175.236C60.9804 164.161 57.9761 155.11 57.7124 148.612C57.4897 142.32 58.0528 136.024 59.3888 129.871C59.5173 129.043 59.8826 128.27 60.4408 127.645C60.9989 127.02 61.726 126.57 62.5343 126.349Z" fill="#407BFF"/>
<path opacity="0.1" d="M62.5343 126.349C65.3596 125.586 70.2003 124.361 74.6267 123.57C79.8204 122.731 85.0661 122.252 90.3261 122.139C93.66 121.998 96.9185 122.139 99.5272 122.252C100.173 122.295 100.802 122.482 101.367 122.799C101.931 123.115 102.419 123.554 102.793 124.082C103.167 124.611 103.419 125.216 103.53 125.854C103.641 126.492 103.609 127.147 103.436 127.771C96.344 153.114 95.2327 164.396 94.9596 177.478L64.0317 176.536C63.6496 176.523 63.2844 176.375 63.0014 176.118C62.7185 175.861 62.5362 175.512 62.4872 175.133C60.9615 164.114 57.9761 155.092 57.7124 148.612C57.4897 142.32 58.0528 136.024 59.3888 129.871C59.5173 129.043 59.8826 128.27 60.4408 127.645C60.9989 127.02 61.726 126.57 62.5343 126.349Z" fill="black"/>
<path d="M50.8936 164.594L49.123 163.944C51.824 156.408 53.8874 148.658 55.2917 140.776C57.0434 131.82 58.0134 126.885 64.7094 125.557L65.0673 127.441C59.605 128.515 58.8327 132.479 57.1375 141.172C55.7074 149.139 53.6189 156.973 50.8936 164.594Z" fill="#263238"/>
<path opacity="0.1" d="M50.8936 164.594L49.123 163.944C51.824 156.408 53.8874 148.658 55.2917 140.776C57.0434 131.82 58.0134 126.885 64.7094 125.557L65.0673 127.441C59.605 128.515 58.8327 132.479 57.1375 141.172C55.7074 149.139 53.6189 156.973 50.8936 164.594Z" fill="#FAFAFA"/>
<path d="M103.614 124.173C102.802 123.472 101.825 122.988 100.775 122.765C99.7256 122.543 98.6366 122.589 97.6096 122.9C96.5826 123.211 95.6508 123.777 94.9009 124.544C94.151 125.312 93.6073 126.256 93.3203 127.29C92.2844 130.492 99.9128 159.461 99.9128 159.471C99.9128 163.238 111.129 168.889 111.129 168.889C114.802 164.029 105.676 125.915 103.614 124.173Z" fill="#407BFF"/>
<path d="M93.9981 142.604C92.9528 139.778 90.636 133.186 87.66 133.082C85.8612 133.016 82.2071 133.336 81.3501 134.966C80.4931 136.595 81.5008 142.34 83.4879 151.673C84.684 157.323 87.4716 163.812 91.1916 168.229C94.9117 172.646 99.4416 175.763 105.102 174.596C107.72 174.049 110.291 172.458 111.214 169.953C114.039 162.23 107.87 158.105 103.614 154.884C98.4433 150.938 96.1736 148.48 93.9981 142.604Z" fill="#407BFF"/>
<path d="M94.9874 122.129L93.8195 123.909C89.3179 130.803 79.4575 139.364 75.794 140.023C75.0841 138.038 73.9085 136.252 72.3659 134.815C71.381 135.217 70.4881 135.814 69.7417 136.572C68.9953 137.33 68.411 138.232 68.0243 139.223C65.2649 134.062 65.9524 127.808 66.9413 124.748C68.8248 124.324 70.7743 123.9 72.6579 123.57C77.8519 122.735 83.0976 122.26 88.3573 122.148C90.5648 122.006 92.779 121.999 94.9874 122.129Z" fill="#407BFF"/>
<path opacity="0.2" d="M94.9874 122.129L93.8195 123.909C89.3179 130.803 79.4575 139.364 75.794 140.023C75.0841 138.038 73.9085 136.252 72.3659 134.815C71.381 135.217 70.4881 135.814 69.7417 136.572C68.9953 137.33 68.411 138.232 68.0243 139.223C65.2649 134.062 65.9524 127.808 66.9413 124.748C68.8248 124.324 70.7743 123.9 72.6579 123.57C77.8519 122.735 83.0976 122.26 88.3573 122.148C90.5648 122.006 92.779 121.999 94.9874 122.129Z" fill="white"/>
<path d="M54.755 95.4678C55.2635 99.0748 54.755 105.639 49.9331 112.834C43.7174 122.054 57.3354 127.902 66.3953 127.243C74.4381 126.659 92.2847 118.692 95.3643 112.118C98.4439 105.545 90.2128 105.526 87.67 93.6596C85.1272 81.7932 76.1898 83.4696 68.891 83.4601C58.88 81.247 53.7096 88.0937 54.755 95.4678Z" fill="#263238"/>
<path d="M72.7799 118.08C74.9177 120.971 76.4905 124.39 73.1283 128.213C72.4017 129.007 71.9753 130.03 71.9229 131.105C71.9229 132.819 72.8646 134.495 78.5153 131.189C86.6334 126.414 85.9553 121.018 85.9553 121.018C81.689 119.728 79.1368 110.762 78.148 105.639L72.7799 118.08Z" fill="#FFB573"/>
<path opacity="0.2" d="M77.6684 113.333C78.29 115.518 75.9732 118.984 74.2215 120.378C73.8153 119.567 73.3362 118.794 72.79 118.07L75.945 110.715C76.6893 111.463 77.2755 112.354 77.6684 113.333Z" fill="black"/>
<path d="M79.9848 92.2468C78.4533 89.6501 75.9559 87.7654 73.0387 87.0047C70.1214 86.2441 67.0217 86.6695 64.4172 88.1878C56.7606 92.6236 57.3351 105.036 60.151 112.212C63.2306 120.189 73.6372 121.206 78.9865 113.955C82.6029 109.123 82.1509 105.601 81.5105 97.2759C81.3956 95.5045 80.8735 93.7835 79.9848 92.2468Z" fill="#FFB573"/>
<path d="M68.91 101.834C68.8042 101.796 68.6909 101.784 68.5795 101.799C68.4682 101.814 68.3619 101.855 68.2696 101.919C68.1953 102.002 68.1427 102.102 68.1164 102.211C68.0901 102.319 68.091 102.432 68.1189 102.54L67.422 102.635C67.3669 102.414 67.373 102.182 67.4398 101.964C67.5066 101.747 67.6314 101.551 67.8009 101.399C67.9704 101.247 68.1781 101.144 68.4017 101.101C68.6254 101.058 68.8564 101.077 69.0701 101.156C69.9694 101.394 70.7603 101.932 71.3115 102.682L70.7182 103.04C70.259 102.456 69.6256 102.033 68.91 101.834Z" fill="#263238"/>
<path d="M61.3662 103.332C61.343 103.231 61.2993 103.136 61.2377 103.054C61.1761 102.971 61.098 102.902 61.0083 102.851C60.8145 102.776 60.5993 102.776 60.4055 102.851C60.1967 102.934 60.018 103.078 59.8935 103.265C59.7689 103.452 59.7044 103.672 59.7086 103.897L59.0117 103.849C59.0137 103.491 59.1246 103.141 59.3298 102.847C59.535 102.552 59.8247 102.327 60.1607 102.201C60.2386 102.163 60.3208 102.135 60.4055 102.117C60.7463 102.03 61.1075 102.08 61.412 102.256C61.7164 102.432 61.94 102.72 62.0348 103.058L61.3662 103.332Z" fill="#263238"/>
<path d="M64.5117 108.558C64.1174 108.716 63.6936 108.787 63.2693 108.766C62.8451 108.745 62.4304 108.632 62.0537 108.436C62.8632 106.981 63.4685 105.422 63.8525 103.802L64.5117 108.558Z" fill="#ED893E"/>
<path d="M70.897 108.238C70.9082 108.215 70.9146 108.189 70.9159 108.163C70.9172 108.137 70.9134 108.111 70.9046 108.087C70.8959 108.062 70.8824 108.04 70.8649 108.021C70.8474 108.001 70.8264 107.986 70.8028 107.975C70.754 107.952 70.6982 107.949 70.6472 107.966C70.5962 107.984 70.554 108.021 70.5297 108.069C70.1175 108.806 69.5348 109.435 68.8304 109.902C68.126 110.369 67.3202 110.66 66.4801 110.753C66.4312 110.766 66.3884 110.796 66.3592 110.837C66.3299 110.878 66.3161 110.928 66.32 110.979C66.3234 111.004 66.3318 111.028 66.3446 111.049C66.3574 111.071 66.3744 111.089 66.3946 111.104C66.4148 111.119 66.4377 111.13 66.4621 111.136C66.4865 111.142 66.5118 111.143 66.5366 111.139C66.8554 111.104 67.1706 111.041 67.4784 110.951C68.1996 110.748 68.8732 110.403 69.4601 109.938C70.047 109.472 70.5354 108.894 70.897 108.238Z" fill="#263238"/>
<path d="M56.2991 90.0242C53.4738 93.6501 58.3239 97.9163 59.0208 95.6749C60.1415 91.9549 63.3342 91.079 63.3153 87.9617C63.2777 83.0457 59.1433 86.4078 56.2991 90.0242Z" fill="#263238"/>
<path d="M70.0681 97.1063C70.0993 97.0643 70.1218 97.0166 70.1344 96.9659C70.1471 96.9152 70.1495 96.8625 70.1416 96.8108C70.1337 96.7591 70.1157 96.7096 70.0885 96.6649C70.0614 96.6203 70.0256 96.5814 69.9834 96.5507C68.1657 95.1851 65.5947 95.9762 65.4817 96.0138C65.4322 96.0299 65.3864 96.0556 65.3468 96.0894C65.3073 96.1232 65.2748 96.1644 65.2512 96.2108C65.2035 96.3044 65.1949 96.4131 65.2274 96.513C65.2599 96.6129 65.3307 96.6958 65.4243 96.7435C65.5179 96.7912 65.6266 96.7997 65.7265 96.7673C65.7265 96.7673 67.9868 96.0327 69.4936 97.1722C69.5603 97.2219 69.6412 97.2488 69.7244 97.2488C69.8075 97.2488 69.8884 97.2219 69.9551 97.1722L70.0681 97.1063Z" fill="#263238"/>
<path d="M57.8247 99.7056C58.0939 99.283 58.4616 98.932 58.8963 98.6827C59.331 98.4333 59.8196 98.2932 60.3204 98.2741C60.3736 98.2754 60.4265 98.2662 60.4761 98.247C60.5257 98.2278 60.571 98.199 60.6095 98.1622C60.648 98.1255 60.6789 98.0815 60.7004 98.0329C60.7218 97.9842 60.7335 97.9318 60.7347 97.8786C60.736 97.8259 60.7267 97.7734 60.7074 97.7243C60.6881 97.6753 60.6591 97.6305 60.6223 97.5928C60.5854 97.5551 60.5414 97.5251 60.4928 97.5046C60.4442 97.4842 60.392 97.4736 60.3392 97.4736C59.7051 97.4947 59.0852 97.6673 58.5314 97.9769C57.9776 98.2866 57.506 98.7243 57.156 99.2536C57.1264 99.2965 57.1059 99.345 57.0956 99.3961C57.0852 99.4472 57.0853 99.4998 57.0959 99.5508C57.1065 99.6019 57.1272 99.6502 57.157 99.693C57.1867 99.7358 57.2249 99.7721 57.269 99.7998C57.3274 99.8347 57.3941 99.8531 57.4621 99.8531C57.5301 99.8531 57.5968 99.8347 57.6551 99.7998C57.7177 99.7808 57.7755 99.7487 57.8247 99.7056Z" fill="#263238"/>
<path d="M68.0621 90.58C69.3185 90.8148 70.5069 91.3262 71.5412 92.0771C72.5756 92.8281 73.4299 93.7997 74.0423 94.9216C74.4969 96.0381 75.0818 97.097 75.7846 98.0765C76.5663 98.9523 79.1844 102.541 80.1168 103.247C81.0491 103.953 80.7195 101.175 81.6048 100.638C82.5537 100.214 83.4617 99.7031 84.3171 99.1125C84.8346 98.6189 85.2287 98.0105 85.4675 97.3365C85.7064 96.6624 85.7833 95.9416 85.6921 95.2323C85.5026 93.8096 84.955 92.4583 84.1005 91.3051C82.9644 89.6445 81.5084 88.2273 79.8177 87.1364C78.1271 86.0455 76.2358 85.3029 74.2545 84.9521C72.2733 84.6013 70.242 84.6493 68.2796 85.0934C66.3171 85.5374 64.463 86.3685 62.8258 87.538C61.771 88.2915 58.7856 91.4747 61.4602 91.8608C62.2701 91.9738 63.6828 90.919 64.5116 90.6836C65.6745 90.3987 66.8845 90.3634 68.0621 90.58Z" fill="#263238"/>
<path d="M84.5521 102.465C82.0752 99.4891 78.6377 99.1312 75.5864 98.811C74.1293 98.7727 72.6934 98.4529 71.3578 97.8693C68.4289 96.2117 67.0068 91.6441 66.8184 90.1655C66.6921 89.5607 66.414 88.9979 66.0104 88.53C65.6068 88.0621 65.0909 87.7046 64.5111 87.4909C64.0272 87.4187 63.5331 87.4593 63.0675 87.6096C62.6019 87.7599 62.1774 88.0158 61.827 88.3573C61.2054 89.0919 61.1395 90.2409 61.6387 91.776L61.196 91.9172C60.631 90.222 60.7251 88.9224 61.4691 88.0465C61.8761 87.6495 62.3688 87.3513 62.9093 87.175C63.4498 86.9986 64.0236 86.9488 64.5864 87.0294C65.2684 87.2574 65.8773 87.6628 66.3507 88.2041C66.824 88.7453 67.1448 89.4028 67.2799 90.109C67.4588 91.4652 68.8527 95.9104 71.5932 97.4549C72.8733 97.9972 74.2438 98.2943 75.6334 98.3307C78.6189 98.6415 82.32 99.0276 84.9193 102.145L84.5521 102.465Z" fill="#263238"/>
<path opacity="0.1" d="M84.5521 102.465C82.0752 99.4891 78.6377 99.1312 75.5864 98.811C74.1293 98.7727 72.6934 98.4529 71.3578 97.8693C68.4289 96.2117 67.0068 91.6441 66.8184 90.1655C66.6921 89.5607 66.414 88.9979 66.0104 88.53C65.6068 88.0621 65.0909 87.7046 64.5111 87.4909C64.0272 87.4187 63.5331 87.4593 63.0675 87.6096C62.6019 87.7599 62.1774 88.0158 61.827 88.3573C61.2054 89.0919 61.1395 90.2409 61.6387 91.776L61.196 91.9172C60.631 90.222 60.7251 88.9224 61.4691 88.0465C61.8761 87.6495 62.3688 87.3513 62.9093 87.175C63.4498 86.9986 64.0236 86.9488 64.5864 87.0294C65.2684 87.2574 65.8773 87.6628 66.3507 88.2041C66.824 88.7453 67.1448 89.4028 67.2799 90.109C67.4588 91.4652 68.8527 95.9104 71.5932 97.4549C72.8733 97.9972 74.2438 98.2943 75.6334 98.3307C78.6189 98.6415 82.32 99.0276 84.9193 102.145L84.5521 102.465Z" fill="white"/>
<path d="M84.8257 102.493C84.7273 101.774 84.3483 101.122 83.7713 100.681C83.1943 100.24 82.4663 100.045 81.7461 100.139C79.6742 100.45 78.7324 103.237 78.7324 105.064C78.7324 107.08 80.2393 108.568 82.0569 107.438C83.4197 106.566 84.384 105.192 84.741 103.614C84.844 103.25 84.8728 102.869 84.8257 102.493Z" fill="#FFB573"/>
<path d="M83.7708 104.791C83.6525 105.14 83.4348 105.446 83.1445 105.672C82.8542 105.898 82.504 106.034 82.1372 106.064C81.7704 106.093 81.4031 106.014 81.0805 105.837C80.758 105.66 80.4944 105.392 80.3223 105.067C80.1501 104.742 80.0771 104.373 80.112 104.007C80.147 103.641 80.2886 103.293 80.5191 103.006C80.7497 102.719 81.0592 102.506 81.4095 102.393C81.7597 102.28 82.1353 102.273 82.4899 102.371C82.7334 102.445 82.9598 102.567 83.156 102.729C83.3523 102.891 83.5147 103.09 83.6337 103.315C83.7527 103.54 83.8261 103.786 83.8496 104.039C83.8732 104.293 83.8464 104.548 83.7708 104.791Z" fill="white"/>
<path d="M83.4146 106.217L81.959 105.777L80.7819 109.674L82.2375 110.113L83.4146 106.217Z" fill="white"/>
<path d="M82.8477 103.69C82.8348 103.736 82.8127 103.779 82.7828 103.816C82.7529 103.854 82.7157 103.885 82.6735 103.908C82.6314 103.931 82.585 103.945 82.5373 103.949C82.4896 103.954 82.4414 103.949 82.3957 103.934C82.3045 103.906 82.2285 103.842 82.1843 103.757C82.1402 103.672 82.1315 103.573 82.1602 103.482C82.1889 103.391 82.2527 103.315 82.3375 103.271C82.4223 103.227 82.5211 103.218 82.6123 103.247C82.7017 103.275 82.7764 103.337 82.8205 103.42C82.8645 103.503 82.8743 103.6 82.8477 103.69Z" fill="#263238"/>
<path d="M86.1917 111.609L72.5324 123.601C72.0086 124.061 71.9567 124.858 72.4166 125.382L77.6481 131.341C78.1079 131.865 78.9053 131.916 79.4291 131.457L93.0884 119.465C93.6122 119.005 93.664 118.208 93.2042 117.684L87.9727 111.725C87.5128 111.201 86.7155 111.149 86.1917 111.609Z" fill="#407BFF"/>
<path d="M85.3533 130.897L87.6607 124.173L79.373 125.209C79.373 125.209 79.7968 129.635 82.1984 131.896L85.3533 130.897Z" fill="#FFB573"/>
<path d="M85.2963 117.581L79.3066 119.474L79.4008 125.19L87.6602 124.173L85.2963 117.581Z" fill="#FFB573"/>
<path d="M89.9209 129.908L78.5254 132.14L78.8079 137.33L92.1058 134.391L89.9209 129.908Z" fill="#407BFF"/>
<path opacity="0.4" d="M89.9209 129.908L78.5254 132.14L78.8079 137.33L92.1058 134.391L89.9209 129.908Z" fill="white"/>
<path d="M94.7139 180.943L79.0711 180.312L77.762 180.256L74.381 180.114H73.0814L63.8991 179.738C63.6165 179.691 63.3717 179.568 63.3717 179.389L63.2021 176.489C63.2021 176.291 63.447 176.131 63.7672 176.14L72.893 176.366H73.9855L78.4777 176.498H79.5419L94.6103 176.922C94.7135 176.917 94.8161 176.939 94.9085 176.985C95.0008 177.031 95.0798 177.1 95.1377 177.185L95.2696 180.472C95.3638 180.736 95.0812 180.953 94.7139 180.943Z" fill="#407BFF"/>
<path opacity="0.2" d="M94.7139 180.943L79.0711 180.312L77.762 180.256L74.381 180.114H73.0814L63.8991 179.738C63.6165 179.691 63.3717 179.568 63.3717 179.389L63.2021 176.489C63.2021 176.291 63.447 176.131 63.7672 176.14L72.893 176.366H73.9855L78.4777 176.498H79.5419L94.6103 176.922C94.7135 176.917 94.8161 176.939 94.9085 176.985C95.0008 177.031 95.0798 177.1 95.1377 177.185L95.2696 180.472C95.3638 180.736 95.0812 180.953 94.7139 180.943Z" fill="white"/>
<path d="M68.1843 180.246H69.192C69.2304 180.258 69.2708 180.26 69.3104 180.255C69.35 180.249 69.388 180.235 69.4218 180.214C69.4557 180.193 69.4846 180.164 69.5067 180.131C69.5287 180.097 69.5434 180.06 69.5499 180.02L69.2673 175.914C69.2673 175.792 69.0884 175.669 68.8812 175.66L67.8735 175.613C67.6663 175.613 67.5156 175.707 67.5156 175.829L67.7982 179.954C67.8238 180.037 67.8749 180.11 67.9442 180.163C68.0134 180.215 68.0974 180.244 68.1843 180.246Z" fill="#263238"/>
<path d="M85.6072 181.16H86.549C86.5843 181.17 86.6212 181.172 86.6575 181.167C86.6937 181.161 86.7284 181.148 86.7595 181.129C86.7905 181.109 86.8171 181.084 86.8376 181.053C86.8581 181.023 86.8721 180.989 86.8786 180.953L86.6149 176.828C86.6149 176.715 86.436 176.592 86.2476 176.592H85.3058C85.1175 176.592 84.9668 176.668 84.9668 176.799L85.2399 180.906C85.2587 181.075 85.4188 181.141 85.6072 181.16Z" fill="#263238"/>
<path opacity="0.4" d="M72.0554 142.783C72.7315 142.783 73.2797 142.234 73.2797 141.558C73.2797 140.882 72.7315 140.334 72.0554 140.334C71.3792 140.334 70.8311 140.882 70.8311 141.558C70.8311 142.234 71.3792 142.783 72.0554 142.783Z" fill="white"/>
<path opacity="0.4" d="M74.014 155.007C74.014 155.249 73.9422 155.486 73.8077 155.687C73.6732 155.888 73.482 156.045 73.2583 156.138C73.0345 156.231 72.7884 156.255 72.5509 156.208C72.3134 156.16 72.0952 156.044 71.924 155.872C71.7528 155.701 71.6362 155.483 71.589 155.246C71.5417 155.008 71.566 154.762 71.6586 154.538C71.7513 154.315 71.9082 154.123 72.1095 153.989C72.3109 153.854 72.5476 153.782 72.7897 153.782C73.1144 153.782 73.4259 153.911 73.6555 154.141C73.8851 154.371 74.014 154.682 74.014 155.007Z" fill="white"/>
<path d="M271.777 174.483C271.777 174.483 272.258 179.841 281.732 183.222C291.206 186.603 288.145 180.444 288.145 180.444C283.794 177.477 284.011 174.238 285.584 171.111C285.964 170.324 286.395 169.563 286.874 168.832L282.73 161.599L279.688 156.297C278.925 162.07 276.703 172.26 271.777 174.483Z" fill="#7F3E3B"/>
<path d="M301.538 154.121C301.933 154.216 302.15 154.8 302.028 155.402C301.905 156.005 301.481 156.429 301.086 156.344C300.69 156.259 300.483 155.666 300.596 155.054C300.709 154.442 301.142 154.027 301.538 154.121Z" fill="#263238"/>
<path d="M298.797 152.285C298.728 152.214 298.689 152.12 298.689 152.021C298.689 151.923 298.728 151.828 298.797 151.757C299.195 151.322 299.689 150.986 300.241 150.777C300.792 150.568 301.384 150.491 301.971 150.552C302.019 150.56 302.064 150.577 302.105 150.603C302.146 150.629 302.181 150.662 302.209 150.702C302.237 150.741 302.257 150.785 302.268 150.832C302.279 150.879 302.28 150.928 302.272 150.976C302.264 151.023 302.247 151.069 302.221 151.11C302.196 151.151 302.162 151.186 302.123 151.214C302.083 151.242 302.039 151.262 301.992 151.273C301.945 151.284 301.896 151.285 301.848 151.277C301.385 151.234 300.919 151.296 300.483 151.46C300.048 151.623 299.655 151.882 299.334 152.219C299.293 152.264 299.242 152.299 299.184 152.318C299.126 152.338 299.064 152.343 299.004 152.332C298.932 152.333 298.861 152.317 298.797 152.285Z" fill="#263238"/>
<path d="M299.399 160.281C299.777 160.514 300.201 160.662 300.642 160.714C301.083 160.766 301.53 160.721 301.952 160.582C301.321 158.926 300.915 157.194 300.746 155.43L299.399 160.281Z" fill="#630F0F"/>
<path d="M282.721 143.074C284.353 140.945 286.764 139.551 289.423 139.198C292.082 138.845 294.773 139.562 296.904 141.191C303.497 145.966 302.244 157.352 299.249 163.709C298.501 165.374 297.312 166.803 295.81 167.842C294.308 168.88 292.551 169.488 290.729 169.599C288.906 169.711 287.088 169.322 285.471 168.474C283.854 167.627 282.499 166.353 281.553 164.792C278.587 160.083 279.623 155.628 280.725 148.019C280.938 146.222 281.627 144.515 282.721 143.074Z" fill="#7F3E3B"/>
<path d="M295.878 152.426C297.705 153.453 297.846 157.135 297.422 159.301C296.933 161.722 295.2 163.068 293.834 161.128C292.78 159.526 292.262 157.629 292.355 155.713C292.459 153.246 294.051 151.4 295.878 152.426Z" fill="#7F3E3B"/>
<path d="M299.033 163.944C298.806 163.944 298.582 163.894 298.377 163.797C298.172 163.701 297.991 163.56 297.846 163.386C297.702 163.212 297.597 163.008 297.54 162.788C297.483 162.569 297.475 162.34 297.516 162.117V162.013L297.978 162.108V162.211C297.946 162.381 297.956 162.555 298.007 162.72C298.057 162.884 298.147 163.034 298.268 163.156C298.39 163.279 298.539 163.37 298.703 163.422C298.868 163.473 299.042 163.485 299.211 163.454L299.287 163.925L299.033 163.944Z" fill="black"/>
<path d="M304.429 145.532C303.646 146.81 302.595 147.902 301.349 148.734C301.106 148.9 300.847 149.041 300.577 149.158C298.938 149.912 297.121 150.1 295.774 148.885C296.057 150.004 295.968 151.184 295.52 152.247C294.967 153.633 294.13 154.888 293.062 155.93C293.394 154.999 293.453 153.992 293.231 153.029C293.045 152.422 292.664 151.892 292.148 151.522C291.858 151.302 291.525 151.144 291.17 151.059C290.816 150.974 290.447 150.962 290.088 151.026C289.729 151.09 289.387 151.227 289.084 151.429C288.78 151.631 288.522 151.894 288.325 152.2C288.039 152.782 287.871 153.414 287.831 154.06C287.791 154.707 287.878 155.355 288.089 155.967C288.518 157.175 288.703 158.455 288.635 159.734C288.438 161.006 287.345 162.258 286.074 162.051C285.872 162.477 285.579 162.853 285.216 163.154C284.853 163.455 284.429 163.673 283.974 163.793C283.43 163.963 282.855 164.005 282.293 163.915C281.731 163.825 281.197 163.606 280.734 163.275C280.55 163.138 280.386 162.976 280.244 162.795C279.7 163.374 278.977 163.753 278.191 163.869C277.705 163.954 277.206 163.934 276.728 163.811C276.249 163.687 275.803 163.464 275.418 163.155C275.033 162.845 274.718 162.458 274.495 162.017C274.272 161.577 274.145 161.094 274.123 160.601C273.285 160.717 272.434 160.534 271.719 160.084C271.003 159.634 270.469 158.946 270.211 158.141C269.954 157.336 269.988 156.466 270.309 155.684C270.63 154.902 271.217 154.259 271.966 153.867C271.168 153.532 270.495 152.954 270.042 152.216C269.59 151.478 269.38 150.616 269.444 149.752C269.507 148.889 269.84 148.067 270.396 147.403C270.952 146.738 271.702 146.265 272.54 146.05C271.062 144.035 272.54 141.125 274.255 140.221C274.407 140.143 274.568 140.083 274.735 140.042C275.025 139.967 275.33 139.967 275.62 140.042H275.761C275.912 140.09 276.055 140.159 276.185 140.249C276.219 140.259 276.255 140.259 276.289 140.249C276.715 139.762 277.102 139.243 277.447 138.695L277.607 138.469C277.673 138.395 277.733 138.317 277.786 138.234C278.511 137.292 279.208 136.35 279.227 136.821C279.144 135.369 279.504 133.925 280.26 132.682C281.016 131.439 282.131 130.455 283.459 129.86C284.787 129.266 286.264 129.089 287.695 129.353C289.126 129.617 290.442 130.31 291.47 131.34C292.035 130.648 292.782 130.128 293.628 129.839C294.473 129.55 295.382 129.503 296.252 129.704C297.122 129.905 297.919 130.346 298.552 130.976C299.185 131.606 299.629 132.401 299.833 133.271C302.545 132.385 305.569 134.627 306.303 137.386C307.038 140.145 306.002 143.131 304.429 145.532Z" fill="#263238"/>
<path d="M328.491 322.586L335.263 320.241L337.57 336.995L330.799 339.331L328.491 322.586Z" fill="#7F3E3B"/>
<path opacity="0.2" d="M329.621 331.731L336.496 330.149L335.206 320.769L328.435 323.104L329.621 331.731Z" fill="black"/>
<path d="M339.218 336.666C341.506 337.824 345.311 338.398 351.14 338.22C352.487 338.22 353.269 341.045 350.349 341.761C347.43 342.476 341.628 343.814 339.5 344.247C336.938 344.765 335.592 345.189 333.962 345.678C333.59 345.791 333.199 345.829 332.812 345.79C332.425 345.751 332.05 345.636 331.708 345.451C331.365 345.267 331.063 345.016 330.818 344.714C330.573 344.412 330.39 344.064 330.28 343.691C330.222 343.457 330.196 343.216 330.205 342.976C330.205 342.976 330.704 337.165 330.977 337.108L336.948 334.641C337.372 334.584 337.88 336.27 339.218 336.666Z" fill="#7F3E3B"/>
<path d="M259.676 240.548C259.844 247.014 261.184 253.396 263.631 259.384C268.557 271.193 298.948 268.745 312.246 268.18C311.304 284.454 326.184 328.632 326.184 328.632L338.257 325.421C338.257 325.421 332.541 284.086 332.823 261.597C333.115 241.066 285.735 239.079 285.735 239.079L259.676 240.548Z" fill="#407BFF"/>
<path opacity="0.3" d="M259.676 240.548C259.844 247.014 261.184 253.396 263.631 259.384C268.557 271.193 298.948 268.745 312.246 268.18C311.304 284.454 326.014 328.114 326.014 328.114L338.257 324.583C338.257 324.583 332.541 284.086 332.861 261.559C333.153 241.028 285.772 239.041 285.772 239.041L259.676 240.548Z" fill="white"/>
<path d="M322.944 322.624L338.851 318.386L339.397 325.232L324.574 329.951L322.944 322.624Z" fill="#407BFF"/>
<path d="M356.292 326.626L362.705 323.415L367.895 339.331L361.491 342.542L356.292 326.626Z" fill="#7F3E3B"/>
<path d="M369.11 338.295C371.399 339.453 375.203 340.028 381.033 339.849C382.38 339.849 383.161 342.674 380.242 343.39C377.322 344.106 371.521 345.443 369.393 345.876C365.927 346.573 361.322 348.089 361.114 345.038C361.114 345.038 360.596 338.785 360.87 338.738L366.831 336.27C367.264 336.195 367.669 337.334 369.11 338.295Z" fill="#7F3E3B"/>
<path opacity="0.2" d="M358.684 333.859L365.098 330.648L362.423 322.436L356.01 325.647L358.684 333.859Z" fill="black"/>
<path d="M275.168 239.522C275.168 239.522 273.765 252.706 277.796 262.341C282.731 274.141 319.846 265.59 334.481 269.131C335.178 292.129 355.2 330.874 355.2 330.874L367.151 325.459C367.151 325.459 360.304 290.17 353.797 259.534C352.12 236.64 300.172 238.467 299.861 238.523L275.168 239.522Z" fill="#407BFF"/>
<path opacity="0.5" d="M275.168 239.521C275.168 239.521 273.765 252.706 277.796 262.341C282.731 274.141 319.846 265.59 334.481 269.131C335.178 292.129 355.2 330.874 355.2 330.874L367.151 325.458C367.151 325.458 360.304 290.17 353.797 259.534C352.045 235.114 292.242 237.986 291.932 237.996L275.168 239.521Z" fill="white"/>
<path d="M351.847 325.845L367.329 319.751L368.789 325.807L354.173 333.134L351.847 325.845Z" fill="#407BFF"/>
<path d="M344.953 236.32L289.567 232.769L294.888 197.858L350.274 201.399L344.953 236.32Z" fill="#407BFF"/>
<path d="M344.021 239.013L289.398 235.519C289.038 235.503 288.686 235.411 288.365 235.248C288.044 235.085 287.761 234.855 287.536 234.575C287.31 234.294 287.147 233.968 287.058 233.62C286.968 233.271 286.953 232.907 287.015 232.553L292.327 197.858C292.453 197.104 292.85 196.423 293.443 195.943C294.036 195.462 294.785 195.215 295.548 195.249L350.171 198.743C350.531 198.757 350.884 198.849 351.206 199.011C351.528 199.174 351.811 199.403 352.037 199.684C352.263 199.965 352.425 200.292 352.515 200.641C352.604 200.99 352.617 201.355 352.553 201.709L347.27 236.404C347.144 237.163 346.743 237.848 346.143 238.329C345.544 238.81 344.788 239.054 344.021 239.013Z" fill="#407BFF"/>
<path d="M344.953 236.32L289.567 232.769L294.888 197.858L350.274 201.399L344.953 236.32Z" fill="#407BFF"/>
<path opacity="0.9" d="M344.953 236.32L289.567 232.769L294.888 197.858L350.274 201.399L344.953 236.32Z" fill="white"/>
<path d="M342.956 211.165L332.785 210.515L333.652 204.827L343.823 205.476L342.956 211.165Z" fill="#407BFF"/>
<path d="M341.252 222.381L331.081 221.732L331.948 216.043L342.119 216.693L341.252 222.381Z" fill="#407BFF"/>
<path d="M339.538 233.607L329.367 232.958L330.234 227.269L340.405 227.919L339.538 233.607Z" fill="#407BFF"/>
<path opacity="0.1" d="M338.323 197.924L324.912 237.704L328.547 237.93L341.836 198.15L338.323 197.924Z" fill="white"/>
<path opacity="0.1" d="M343.936 198.281L330.525 238.062L337.749 238.524L351.037 198.743L343.936 198.281Z" fill="white"/>
<path d="M296.15 226.431L296.094 226.751L325.449 228.635L325.505 228.305L296.15 226.431Z" fill="#407BFF"/>
<path d="M326.061 224.594L296.753 222.72L299.814 202.585L329.131 204.459L326.061 224.594Z" fill="#407BFF"/>
<path d="M297.035 230.754C296.843 230.745 296.654 230.695 296.483 230.607C296.311 230.519 296.16 230.396 296.04 230.246C295.919 230.095 295.833 229.92 295.785 229.734C295.738 229.547 295.73 229.352 295.764 229.162C295.829 228.758 296.04 228.392 296.358 228.135C296.677 227.878 297.079 227.747 297.487 227.768C297.68 227.776 297.868 227.825 298.04 227.912C298.211 227.998 298.362 228.121 298.483 228.27C298.603 228.42 298.69 228.594 298.738 228.781C298.785 228.967 298.793 229.161 298.759 229.351C298.694 229.755 298.483 230.122 298.165 230.381C297.847 230.64 297.445 230.773 297.035 230.754Z" fill="#407BFF"/>
<path d="M311.031 226.13L296.377 225.197L296.565 223.907L311.229 224.849L311.031 226.13Z" fill="#407BFF"/>
<path d="M324.969 231.686L319.309 231.319L319.497 230.029L325.166 230.396L324.969 231.686Z" fill="#407BFF"/>
<path d="M325.694 227.072L324.395 226.987L324.592 225.697L325.883 225.781L325.694 227.072Z" fill="#407BFF"/>
<path d="M323.5 226.93L322.2 226.845L322.398 225.555L323.688 225.64L323.5 226.93Z" fill="#407BFF"/>
<path d="M321.305 226.789L320.006 226.704L320.204 225.414L321.494 225.499L321.305 226.789Z" fill="#407BFF"/>
<path opacity="0.2" d="M311.031 226.13L296.377 225.197L296.565 223.907L311.229 224.849L311.031 226.13Z" fill="white"/>
<path opacity="0.2" d="M325.505 228.305L296.15 226.431L296.094 226.751L325.449 228.635L325.505 228.305Z" fill="black"/>
<path d="M326.721 237.629L345.123 239.051C345.217 241.217 344.181 241.923 343.051 241.829L337.165 241.358L333.238 241.028L327.126 240.558L299.014 238.674V235.98L326.721 237.629Z" fill="#407BFF"/>
<path opacity="0.4" d="M326.721 237.629L345.123 239.051C345.217 241.217 344.181 241.923 343.051 241.829L337.165 241.358L333.238 241.028L327.126 240.558L299.014 238.674V235.98L326.721 237.629Z" fill="black"/>
<path d="M319.638 216.759C319.638 216.759 319.638 216.759 319.638 216.712H319.591L318.593 216.655L318.64 216.128H318.715V215.695H318.64L318.706 213.322H318.659C318.339 213.135 317.979 213.027 317.609 213.006C317.239 212.984 316.87 213.051 316.53 213.199H316.474L316.267 215.572H316.201V216.006H316.276V216.533L315.278 216.467H315.231C315.231 216.467 315.231 216.467 315.231 216.514C315.221 216.873 315.237 217.231 315.278 217.588C314.878 217.397 314.466 217.233 314.044 217.098C313.804 217.015 313.559 216.949 313.309 216.9C313.192 216.775 313.104 216.626 313.05 216.464C312.996 216.301 312.979 216.129 312.999 215.958C313.051 215.738 313.127 215.523 313.225 215.318H313.178C313.681 215.207 314.147 214.966 314.528 214.619C314.91 214.272 315.194 213.831 315.353 213.34C315.507 213.242 315.634 213.106 315.72 212.945C316.097 212.945 316.445 212.257 316.493 211.391C316.54 210.524 316.304 209.893 315.956 209.78C316.081 209.46 316.134 209.116 316.111 208.772C316.088 208.429 315.99 208.095 315.824 207.793C315.372 207.059 314.392 206.607 312.914 206.447C311.03 206.258 309.797 206.597 309.147 207.445C308.915 207.761 308.752 208.122 308.668 208.505C308.584 208.887 308.58 209.283 308.657 209.667C308.433 210.044 308.31 210.472 308.299 210.911C308.252 211.777 308.516 212.493 308.892 212.549C309.034 212.86 309.222 213.058 309.448 213.067C309.525 213.069 309.6 213.053 309.67 213.022C309.74 212.991 309.803 212.946 309.853 212.888C309.972 213.478 310.249 214.025 310.654 214.47C310.68 215.299 310.406 216.108 309.881 216.75C309.228 216.821 308.591 217.003 307.998 217.286C307.183 217.625 306.419 218.075 305.728 218.624C304.89 219.989 305.229 223.276 305.229 223.276L318.32 224.114L318.225 220.705C318.138 220.428 318.024 220.16 317.886 219.905C319.026 219.716 319.666 218.671 319.77 216.787L319.638 216.759ZM309.684 208.744C309.684 208.801 309.684 208.857 309.618 208.914C309.577 208.904 309.535 208.904 309.495 208.914C309.402 208.917 309.312 208.942 309.23 208.986C309.148 209.03 309.078 209.092 309.024 209.168C308.994 208.693 309.134 208.222 309.42 207.84C309.966 207.162 311.068 206.899 312.678 207.068C313.14 207.053 313.6 207.14 314.025 207.322C314.449 207.504 314.829 207.778 315.136 208.123C315.335 208.475 315.389 208.89 315.287 209.281H315.174H315.118C314.997 208.861 314.789 208.47 314.506 208.136C314.224 207.801 313.874 207.531 313.479 207.341C312.787 207.024 311.997 206.993 311.282 207.256C310.568 207.519 309.986 208.054 309.665 208.744H309.684ZM315.334 217.691C315.285 217.339 315.266 216.983 315.278 216.627L316.154 216.674L316.106 218.162C315.867 217.983 315.611 217.825 315.344 217.691H315.334ZM317.566 219.688C317.219 219.204 316.807 218.769 316.342 218.398C316.646 218.545 316.978 218.625 317.316 218.633C317.654 218.641 317.99 218.577 318.301 218.445H318.348L318.489 216.872L319.365 216.919C319.205 218.605 318.621 219.518 317.566 219.688Z" fill="#407BFF"/>
<path opacity="0.2" d="M319.638 216.759C319.638 216.759 319.638 216.759 319.638 216.712H319.591L318.593 216.655L318.64 216.128H318.715V215.695H318.64L318.706 213.322H318.659C318.339 213.135 317.979 213.027 317.609 213.006C317.239 212.984 316.87 213.051 316.53 213.199H316.474L316.267 215.572H316.201V216.006H316.276V216.533L315.278 216.467H315.231C315.231 216.467 315.231 216.467 315.231 216.514C315.221 216.873 315.237 217.231 315.278 217.588C314.878 217.397 314.466 217.233 314.044 217.098C313.804 217.015 313.559 216.949 313.309 216.9C313.192 216.775 313.104 216.626 313.05 216.464C312.996 216.301 312.979 216.129 312.999 215.958C313.051 215.738 313.127 215.523 313.225 215.318H313.178C313.681 215.207 314.147 214.966 314.528 214.619C314.91 214.272 315.194 213.831 315.353 213.34C315.507 213.242 315.634 213.106 315.72 212.945C316.097 212.945 316.445 212.257 316.493 211.391C316.54 210.524 316.304 209.893 315.956 209.78C316.081 209.46 316.134 209.116 316.111 208.772C316.088 208.429 315.99 208.095 315.824 207.793C315.372 207.059 314.392 206.607 312.914 206.447C311.03 206.258 309.797 206.597 309.147 207.445C308.915 207.761 308.752 208.122 308.668 208.505C308.584 208.887 308.58 209.283 308.657 209.667C308.433 210.044 308.31 210.472 308.299 210.911C308.252 211.777 308.516 212.493 308.892 212.549C309.034 212.86 309.222 213.058 309.448 213.067C309.525 213.069 309.6 213.053 309.67 213.022C309.74 212.991 309.803 212.946 309.853 212.888C309.972 213.478 310.249 214.025 310.654 214.47C310.68 215.299 310.406 216.108 309.881 216.75C309.228 216.821 308.591 217.003 307.998 217.286C307.183 217.625 306.419 218.075 305.728 218.624C304.89 219.989 305.229 223.276 305.229 223.276L318.32 224.114L318.225 220.705C318.138 220.428 318.024 220.16 317.886 219.905C319.026 219.716 319.666 218.671 319.77 216.787L319.638 216.759ZM309.684 208.744C309.684 208.801 309.684 208.857 309.618 208.914C309.577 208.904 309.535 208.904 309.495 208.914C309.402 208.917 309.312 208.942 309.23 208.986C309.148 209.03 309.078 209.092 309.024 209.168C308.994 208.693 309.134 208.222 309.42 207.84C309.966 207.162 311.068 206.899 312.678 207.068C313.14 207.053 313.6 207.14 314.025 207.322C314.449 207.504 314.829 207.778 315.136 208.123C315.335 208.475 315.389 208.89 315.287 209.281H315.174H315.118C314.997 208.861 314.789 208.47 314.506 208.136C314.224 207.801 313.874 207.531 313.479 207.341C312.787 207.024 311.997 206.993 311.282 207.256C310.568 207.519 309.986 208.054 309.665 208.744H309.684ZM315.334 217.691C315.285 217.339 315.266 216.983 315.278 216.627L316.154 216.674L316.106 218.162C315.867 217.983 315.611 217.825 315.344 217.691H315.334ZM317.566 219.688C317.219 219.204 316.807 218.769 316.342 218.398C316.646 218.545 316.978 218.625 317.316 218.633C317.654 218.641 317.99 218.577 318.301 218.445H318.348L318.489 216.872L319.365 216.919C319.205 218.605 318.621 219.518 317.566 219.688Z" fill="black"/>
<path opacity="0.2" d="M345.122 239.051V239.804C345.133 240.08 345.084 240.355 344.981 240.611C344.877 240.867 344.721 241.098 344.521 241.289C344.322 241.48 344.085 241.627 343.825 241.72C343.565 241.813 343.288 241.85 343.013 241.829L337.127 241.358L326.23 240.595L326.72 237.629L345.122 239.051Z" fill="black"/>
<path d="M270.412 173.541L288.306 175.829C288.306 175.829 286.479 171.168 280.112 170.442C278.366 170.18 276.583 170.323 274.901 170.86C273.219 171.398 271.683 172.315 270.412 173.541Z" fill="#407BFF"/>
<path d="M257.547 204.167C258.263 218.294 257.961 232.732 259.675 240.52L263.979 241.669C271.522 243.681 279.448 243.772 287.034 241.933L299.814 238.825C299.739 225.414 300.897 199.27 301.518 186.274C301.628 184.026 300.983 181.806 299.686 179.967C298.389 178.127 296.515 176.774 294.361 176.121C293.127 175.745 292.025 175.434 291.347 175.283C286.022 174.306 280.645 173.633 275.243 173.268C272.552 173.063 269.851 173.003 267.153 173.089L265.816 173.145C263.791 173.23 260.58 175.255 259.958 177.167C257.378 185.031 257.123 195.663 257.547 204.167Z" fill="#407BFF"/>
<path d="M257.547 204.167C258.263 218.294 257.961 232.732 259.675 240.52L263.979 241.669C271.522 243.681 279.448 243.772 287.034 241.933L299.814 238.825C299.739 225.414 300.897 199.27 301.518 186.274C301.628 184.026 300.983 181.806 299.686 179.967C298.389 178.127 296.515 176.774 294.361 176.121C293.127 175.745 292.025 175.434 291.347 175.283C286.022 174.306 280.645 173.633 275.243 173.268C272.552 173.063 269.851 173.003 267.153 173.089L265.816 173.145C263.791 173.23 260.58 175.255 259.958 177.167C257.378 185.031 257.123 195.663 257.547 204.167Z" fill="#263238"/>
<path d="M298.383 178.466C298.797 184.55 299.325 190.766 299.89 196.869C300.191 199.929 300.521 202.981 300.916 205.994C301.312 209.008 301.745 212.012 302.329 214.894C302.621 216.335 302.932 217.719 303.271 219.076C303.459 219.744 303.657 220.375 303.855 220.959C303.968 221.232 304.071 221.571 304.175 221.788L304.326 222.146C304.344 222.192 304.36 222.239 304.373 222.287C304.325 222.194 304.268 222.105 304.203 222.023C304.015 221.788 303.94 221.835 303.996 221.854C304.121 221.985 304.26 222.102 304.41 222.202C304.877 222.507 305.369 222.771 305.88 222.993C307.15 223.538 308.449 224.015 309.769 224.425C315.373 226.139 322.135 229.266 328.124 230.594L327.691 235.962C321.212 236.216 307.641 233.918 302.612 231.705C301.64 231.411 300.695 231.036 299.786 230.584C299.235 230.306 298.704 229.991 298.195 229.642C297.222 228.972 296.412 228.094 295.821 227.071L295.624 226.685L295.275 225.979C295.021 225.499 294.87 225.103 294.672 224.651C294.315 223.775 293.994 222.937 293.731 222.099C293.194 220.451 292.789 218.831 292.337 217.201C290.879 210.898 289.791 204.514 289.078 198.083C288.72 194.919 288.419 191.783 288.136 188.6C287.854 185.417 287.628 182.29 287.496 179.06L298.383 178.466Z" fill="#7F3E3B"/>
<path d="M325.223 235.255C326.042 237.563 333.944 237.139 333.944 237.139L333.228 229.718L326.146 230.989L325.223 235.255Z" fill="#7F3E3B"/>
<path d="M333.229 229.68L333.944 237.101L338.747 237.826L337.551 232.618L333.229 229.68Z" fill="#7F3E3B"/>
<path d="M284.66 182.102C283.304 186.698 284.717 200.532 287.137 207.012L303.618 205.269C303.618 205.269 305.577 186.519 301.838 181.075C295.83 172.383 286.676 175.038 284.66 182.102Z" fill="#263238"/>
<path d="M367.104 336.185L360.399 338.766C360.252 338.819 360.13 338.924 360.055 339.061C359.981 339.198 359.959 339.358 359.994 339.51L361.566 349.502C361.608 349.669 361.682 349.826 361.785 349.964C361.888 350.102 362.017 350.218 362.165 350.305C362.313 350.393 362.477 350.45 362.648 350.474C362.818 350.498 362.992 350.488 363.158 350.444L363.299 350.397C366.2 349.238 367.547 348.513 371.248 347.148C373.517 346.3 380.844 344.746 383.698 342.985C386.552 341.224 384.96 338.276 383.613 338.785C379.291 340.339 373.31 339.199 369.675 336.741C369.204 336.543 367.565 335.997 367.104 336.185Z" fill="#263238"/>
<path d="M370.626 339.99L370.692 340.075C370.862 340.17 371.053 340.22 371.248 340.22C371.442 340.22 371.634 340.17 371.804 340.075C371.912 340.025 372.006 339.947 372.075 339.85C372.144 339.752 372.187 339.638 372.199 339.519C372.321 338.455 369.929 336.515 369.694 336.317C369.661 336.293 369.622 336.28 369.581 336.28C369.54 336.28 369.501 336.293 369.468 336.317C369.436 336.337 369.409 336.365 369.391 336.398C369.373 336.431 369.364 336.468 369.364 336.506C369.496 337.56 369.798 339.444 370.626 339.99ZM369.835 336.901C370.777 337.692 371.898 338.869 371.822 339.444C371.818 339.497 371.797 339.548 371.764 339.59C371.73 339.632 371.685 339.663 371.634 339.679C371.522 339.744 371.396 339.778 371.267 339.778C371.138 339.778 371.011 339.744 370.899 339.679C370.428 339.406 370.014 338.399 369.845 336.901H369.835Z" fill="#407BFF"/>
<path d="M369.712 336.807C370.579 337.4 372.444 338.069 373.206 337.655C373.343 337.575 373.448 337.452 373.506 337.305C373.564 337.158 373.571 336.996 373.527 336.845C373.5 336.693 373.436 336.549 373.341 336.428C373.245 336.306 373.122 336.21 372.98 336.148C371.926 335.526 369.618 336.28 369.524 336.308C369.489 336.312 369.455 336.326 369.427 336.347C369.399 336.369 369.377 336.397 369.364 336.43C369.36 336.465 369.364 336.499 369.375 336.532C369.386 336.565 369.405 336.594 369.43 336.619L369.712 336.807ZM372.849 336.487C372.921 336.532 372.983 336.593 373.03 336.664C373.077 336.736 373.108 336.817 373.122 336.901C373.178 337.155 373.122 337.24 373.009 337.287C372.491 337.579 370.89 337.099 370.033 336.543C370.814 336.336 372.152 336.082 372.792 336.458H372.849V336.487Z" fill="#407BFF"/>
<path d="M336.751 334.066L329.895 336.119C329.748 336.155 329.619 336.242 329.531 336.365C329.442 336.487 329.401 336.638 329.415 336.788L329.697 346.319C329.725 346.478 329.785 346.63 329.873 346.765C329.962 346.899 330.078 347.015 330.213 347.103C330.348 347.191 330.5 347.251 330.659 347.278C330.818 347.305 330.981 347.299 331.138 347.261H331.279C334.246 346.319 335.64 345.754 339.416 344.652C341.724 343.974 349.06 342.928 352.055 341.431C355.05 339.934 353.863 337.089 352.497 337.457C350.213 337.976 347.844 338.002 345.548 337.531C343.253 337.06 341.085 336.103 339.19 334.726C338.427 334.351 337.599 334.127 336.751 334.066Z" fill="#263238"/>
<path d="M341.158 338.144L341.243 338.21C341.429 338.261 341.625 338.265 341.812 338.22C342 338.176 342.173 338.085 342.317 337.956C342.414 337.884 342.49 337.788 342.538 337.677C342.586 337.566 342.604 337.445 342.59 337.325C342.486 336.261 339.764 334.876 339.454 334.735C339.422 334.713 339.384 334.701 339.345 334.701C339.307 334.701 339.269 334.713 339.237 334.735C339.209 334.761 339.188 334.793 339.176 334.83C339.165 334.866 339.163 334.905 339.171 334.942C339.538 336.016 340.235 337.786 341.158 338.144ZM339.717 335.319C340.8 335.893 342.166 336.797 342.213 337.372C342.217 337.426 342.206 337.48 342.181 337.529C342.156 337.577 342.118 337.617 342.072 337.645C341.977 337.732 341.862 337.795 341.737 337.828C341.613 337.861 341.482 337.863 341.356 337.833C340.847 337.664 340.226 336.769 339.746 335.338L339.717 335.319Z" fill="#407BFF"/>
<path d="M339.585 335.225C340.527 335.62 342.514 335.875 343.183 335.309C343.297 335.2 343.373 335.056 343.397 334.899C343.42 334.742 343.392 334.582 343.314 334.443C343.251 334.304 343.157 334.181 343.04 334.083C342.922 333.985 342.784 333.915 342.636 333.878C341.468 333.501 339.378 334.735 339.293 334.82C339.258 334.831 339.226 334.852 339.203 334.88C339.18 334.908 339.165 334.943 339.161 334.98C339.166 335.014 339.178 335.046 339.196 335.075C339.213 335.104 339.237 335.13 339.265 335.149L339.585 335.225ZM342.58 334.283C342.66 334.313 342.734 334.36 342.795 334.42C342.857 334.48 342.905 334.552 342.938 334.631C343.041 334.867 342.938 334.961 342.938 335.027C342.504 335.422 340.837 335.3 339.877 334.942C340.593 334.575 341.845 334 342.561 334.264H342.617L342.58 334.283Z" fill="#407BFF"/>
<path d="M291.885 150.241C292.592 150.68 293.204 151.256 293.686 151.936C294.167 152.615 294.507 153.384 294.686 154.197C294.866 155.01 294.88 155.851 294.729 156.669C294.579 157.488 294.265 158.268 293.808 158.964C293.351 159.66 292.759 160.257 292.067 160.72C291.375 161.183 290.598 161.503 289.78 161.661C288.963 161.819 288.122 161.811 287.308 161.639C286.493 161.467 285.721 161.133 285.038 160.657C283.427 159.716 282.043 155.892 283.945 153.02C285.848 150.147 289.022 148.358 291.885 150.241Z" fill="#407BFF"/>
<path d="M285.584 141.219C283.973 139.505 281.656 137.452 278.991 136.802C278.991 136.802 276.947 139.543 276.712 139.684C276.552 139.599 281.242 141.492 282.928 143.508C284.92 146.035 286.503 148.861 287.618 151.88L290.518 150.119C289.587 146.809 287.897 143.762 285.584 141.219Z" fill="#407BFF"/>
<g opacity="0.3">
<path d="M285.584 141.219C283.974 139.505 281.657 137.452 278.992 136.802C278.992 136.802 276.948 139.543 276.713 139.684C276.553 139.599 281.243 141.492 282.929 143.508C284.921 146.035 286.504 148.861 287.619 151.88L290.519 150.119C289.588 146.809 287.898 143.762 285.584 141.219Z" fill="black"/>
</g>
<path opacity="0.3" d="M292.666 152.379C294.361 153.556 294.549 156.278 293.099 158.491C291.648 160.705 289.068 161.609 287.354 160.478C285.64 159.348 285.96 156.551 287.42 154.329C288.88 152.106 290.961 151.211 292.666 152.379Z" fill="black"/>
<path d="M287.571 158.972L293.363 154.347L293.533 155.43L288.494 159.574L287.571 158.972Z" fill="#263238"/>
<path d="M280.433 296.659L273.351 348.862H275.893L285.076 296.659H280.433Z" fill="#263238"/>
<path d="M271.815 195.644C266.541 192.376 257.463 192.97 251.737 195.352C246.011 197.735 241.311 202.114 237.422 206.946C223.389 224.378 218.784 254.637 222.824 276.637C224.265 284.539 226.864 292.44 231.969 298.646C236.207 303.788 241.952 307.49 247.923 310.456C258.664 315.914 270.522 318.815 282.57 318.932C294.646 319.003 306.462 315.428 316.474 308.676C323.604 303.713 329.584 296.81 332.343 288.579C335.103 280.348 334.293 271.033 329.235 263.98C324.696 257.651 317.124 254.43 309.646 252.283C308.855 252.066 308.055 251.859 307.245 251.689C294.22 248.864 284.52 231.422 282.683 218.219C282.702 218.153 279.086 200.156 271.815 195.644Z" fill="#407BFF"/>
<path d="M248.544 306.143L239.475 352.478H242.733L254.477 306.143H248.544Z" fill="#263238"/>
<path d="M303.402 306.143L312.471 352.478H309.222L297.469 306.143H303.402Z" fill="#263238"/>
<path d="M128.007 63.7394H127.856C127.739 63.6986 127.642 63.614 127.586 63.5034C127.53 63.3928 127.519 63.2648 127.555 63.1461C128.605 59.881 129.931 56.7114 131.52 53.6718C131.546 53.6129 131.585 53.5601 131.632 53.5166C131.68 53.4732 131.736 53.4399 131.797 53.4191C131.858 53.3982 131.923 53.3901 131.987 53.3953C132.052 53.4005 132.114 53.4189 132.171 53.4493C132.228 53.4797 132.278 53.5215 132.318 53.5721C132.359 53.6227 132.388 53.681 132.404 53.7434C132.421 53.8058 132.425 53.8709 132.415 53.9347C132.405 53.9986 132.383 54.0598 132.349 54.1145C130.788 57.1067 129.484 60.2257 128.45 63.438C128.416 63.5281 128.356 63.6055 128.277 63.6595C128.197 63.7135 128.103 63.7415 128.007 63.7394Z" fill="#407BFF"/>
<path d="M132.282 114.661C132.199 114.659 132.119 114.635 132.048 114.592C131.977 114.549 131.918 114.488 131.877 114.416C124.626 101.429 122.46 84.9198 125.935 69.1074C125.966 68.9872 126.042 68.8834 126.147 68.817C126.252 68.7505 126.378 68.7264 126.5 68.7495C126.56 68.7629 126.618 68.7881 126.669 68.8238C126.72 68.8595 126.763 68.9049 126.796 68.9575C126.83 69.01 126.852 69.0686 126.863 69.1299C126.873 69.1912 126.872 69.254 126.858 69.3146C123.43 84.901 125.558 101.165 132.697 113.955C132.728 114.008 132.749 114.068 132.757 114.129C132.765 114.191 132.76 114.253 132.743 114.313C132.727 114.373 132.698 114.429 132.659 114.477C132.621 114.526 132.572 114.566 132.518 114.595C132.447 114.64 132.366 114.663 132.282 114.661Z" fill="#407BFF"/>
<path d="M119.192 97.2571C119.086 97.2581 118.983 97.2233 118.899 97.1584C118.815 97.0934 118.756 97.0021 118.73 96.8993C115.683 83.8052 117.35 70.056 123.439 58.0699C123.497 57.9606 123.596 57.8786 123.714 57.8416C123.832 57.8046 123.96 57.8156 124.07 57.8721C124.125 57.8999 124.174 57.9385 124.214 57.9855C124.254 58.0325 124.284 58.0871 124.302 58.1459C124.321 58.2047 124.327 58.2666 124.321 58.328C124.315 58.3893 124.297 58.4489 124.268 58.5031C118.299 70.295 116.676 83.8126 119.682 96.6827C119.696 96.7433 119.697 96.806 119.687 96.8673C119.676 96.9286 119.654 96.9872 119.62 97.0398C119.587 97.0923 119.544 97.1377 119.493 97.1734C119.442 97.2091 119.385 97.2344 119.324 97.2477L119.192 97.2571Z" fill="#407BFF"/>
<path d="M124.127 110.16C124.043 110.161 123.96 110.139 123.887 110.098C123.815 110.057 123.754 109.997 123.712 109.924C122.512 107.766 121.483 105.518 120.633 103.2C120.602 103.141 120.585 103.076 120.582 103.01C120.578 102.944 120.589 102.877 120.613 102.816C120.637 102.754 120.673 102.698 120.721 102.651C120.768 102.604 120.824 102.568 120.886 102.545C120.948 102.521 121.014 102.511 121.081 102.516C121.147 102.52 121.211 102.538 121.27 102.568C121.329 102.599 121.38 102.642 121.422 102.694C121.463 102.746 121.492 102.806 121.508 102.87C122.347 105.143 123.361 107.347 124.541 109.463C124.58 109.534 124.6 109.615 124.599 109.697C124.597 109.779 124.574 109.859 124.533 109.929C124.491 110 124.431 110.058 124.36 110.098C124.289 110.139 124.208 110.16 124.127 110.16Z" fill="#407BFF"/>
<path d="M111.958 73.2608H111.845C111.724 73.2296 111.619 73.152 111.554 73.0446C111.489 72.9373 111.468 72.8086 111.497 72.6863C112.32 69.1167 113.589 65.6646 115.273 62.4116C115.297 62.3494 115.334 62.2929 115.381 62.2458C115.428 62.1988 115.484 62.1622 115.546 62.1386C115.609 62.115 115.675 62.1048 115.742 62.1087C115.808 62.1127 115.873 62.1307 115.932 62.1615C115.991 62.1923 116.043 62.2353 116.084 62.2876C116.125 62.3399 116.154 62.4003 116.171 62.4648C116.187 62.5294 116.189 62.5966 116.177 62.6621C116.165 62.7276 116.14 62.7899 116.102 62.8448C114.473 66.0304 113.246 69.4057 112.448 72.8935C112.424 73.0031 112.361 73.1003 112.271 73.1676C112.181 73.2349 112.07 73.268 111.958 73.2608Z" fill="#407BFF"/>
<path d="M115.961 105.667C115.879 105.667 115.798 105.645 115.727 105.603C115.656 105.562 115.597 105.503 115.556 105.432C111.231 97.3418 109.452 88.1337 110.452 79.0149C110.463 78.89 110.524 78.7747 110.62 78.6943C110.716 78.614 110.84 78.5751 110.965 78.5864C111.09 78.5976 111.205 78.658 111.286 78.7543C111.366 78.8505 111.405 78.9748 111.394 79.0996C110.41 88.0282 112.146 97.0457 116.376 104.97C116.437 105.079 116.452 105.207 116.419 105.327C116.385 105.447 116.305 105.549 116.197 105.611C116.124 105.648 116.043 105.667 115.961 105.667Z" fill="#407BFF"/>
<path d="M269.188 101.9H269.065C269.005 101.885 268.949 101.858 268.9 101.82C268.851 101.783 268.81 101.736 268.779 101.682C268.748 101.629 268.729 101.57 268.721 101.508C268.714 101.447 268.719 101.385 268.736 101.326C273.101 85.5439 271.394 68.6995 263.951 54.1143C263.922 54.0594 263.904 53.9991 263.898 53.9371C263.892 53.875 263.898 53.8124 263.916 53.7528C263.935 53.6932 263.965 53.6379 264.005 53.59C264.045 53.5421 264.094 53.5027 264.149 53.4739C264.259 53.4174 264.387 53.4064 264.505 53.4434C264.623 53.4804 264.722 53.5624 264.78 53.6717C272.335 68.4679 274.069 85.5584 269.64 101.57C269.61 101.666 269.549 101.75 269.468 101.81C269.387 101.869 269.288 101.901 269.188 101.9Z" fill="#407BFF"/>
<path d="M264.018 114.661C263.935 114.663 263.853 114.64 263.783 114.595C263.728 114.566 263.68 114.526 263.641 114.477C263.602 114.429 263.574 114.373 263.557 114.313C263.54 114.253 263.536 114.191 263.544 114.129C263.552 114.067 263.572 114.008 263.604 113.955C264.863 111.693 265.961 109.345 266.891 106.929C266.912 106.871 266.944 106.818 266.986 106.772C267.028 106.727 267.078 106.691 267.134 106.665C267.19 106.64 267.251 106.626 267.313 106.624C267.375 106.623 267.436 106.633 267.493 106.656C267.552 106.678 267.605 106.711 267.651 106.754C267.696 106.797 267.732 106.848 267.758 106.905C267.783 106.962 267.797 107.023 267.799 107.086C267.8 107.148 267.789 107.21 267.766 107.268C266.822 109.727 265.705 112.115 264.423 114.416C264.383 114.488 264.324 114.549 264.253 114.592C264.182 114.635 264.101 114.659 264.018 114.661Z" fill="#407BFF"/>
<path d="M278.464 87.5568C278.34 87.5472 278.225 87.4898 278.142 87.3966C278.059 87.3035 278.016 87.182 278.021 87.0577C278.649 77.1639 276.6 67.2836 272.088 58.456C272.047 58.3483 272.047 58.2293 272.088 58.1215C272.129 58.0138 272.208 57.9248 272.31 57.8714C272.412 57.8181 272.531 57.804 272.642 57.8319C272.754 57.8598 272.852 57.9277 272.917 58.0228C277.513 66.9993 279.602 77.0497 278.963 87.1142C278.954 87.2383 278.896 87.3538 278.803 87.4363C278.71 87.5189 278.588 87.5621 278.464 87.5568Z" fill="#407BFF"/>
<path d="M272.173 110.159C272.091 110.16 272.011 110.139 271.94 110.098C271.869 110.058 271.809 110 271.767 109.929C271.725 109.859 271.703 109.779 271.701 109.697C271.7 109.615 271.72 109.534 271.759 109.463C274.522 104.451 276.398 98.9993 277.306 93.3488C277.326 93.2239 277.395 93.1121 277.497 93.0379C277.6 92.9637 277.727 92.9333 277.852 92.9533C277.977 92.9732 278.089 93.042 278.163 93.1445C278.237 93.2469 278.268 93.3746 278.248 93.4995C277.326 99.2593 275.414 104.816 272.597 109.924C272.554 109.998 272.493 110.059 272.418 110.1C272.343 110.142 272.259 110.162 272.173 110.159Z" fill="#407BFF"/>
<path d="M283.616 70.5577C283.516 70.5572 283.418 70.5238 283.338 70.4626C283.258 70.4014 283.201 70.3157 283.174 70.2187C282.407 67.6653 281.401 65.1901 280.17 62.8257C280.142 62.7695 280.126 62.7084 280.123 62.646C280.119 62.5836 280.128 62.5211 280.149 62.4621C280.169 62.403 280.201 62.3486 280.243 62.3019C280.284 62.2553 280.335 62.2172 280.391 62.19C280.447 62.1628 280.508 62.147 280.571 62.1434C280.633 62.1398 280.696 62.1485 280.755 62.169C280.814 62.1896 280.868 62.2216 280.915 62.2631C280.961 62.3047 280.999 62.3551 281.027 62.4114C282.293 64.8168 283.321 67.3401 284.097 69.9456C284.132 70.0654 284.12 70.1945 284.062 70.3053C284.004 70.4161 283.905 70.4999 283.786 70.5389L283.616 70.5577Z" fill="#407BFF"/>
<path d="M280.339 105.667C280.257 105.668 280.176 105.648 280.103 105.611C279.995 105.549 279.915 105.447 279.882 105.327C279.848 105.207 279.864 105.079 279.925 104.97C284.539 96.7109 286.178 86.502 284.539 76.2367C284.523 76.1123 284.554 75.9863 284.628 75.8846C284.702 75.783 284.811 75.7135 284.935 75.6905C285.058 75.6741 285.183 75.7061 285.283 75.7799C285.383 75.8537 285.451 75.9634 285.472 76.086C287.139 86.568 285.472 96.984 280.763 105.432C280.72 105.506 280.658 105.567 280.583 105.608C280.509 105.65 280.424 105.67 280.339 105.667Z" fill="#407BFF"/>
<path d="M179.531 15.3227C179.469 15.3307 179.407 15.3265 179.346 15.3103C179.286 15.2941 179.23 15.2661 179.18 15.2281C179.081 15.1512 179.015 15.0379 178.999 14.913C178.983 14.7881 179.017 14.6619 179.094 14.5621C179.171 14.4623 179.284 14.3972 179.409 14.3809C190.13 11.4052 201.42 11.1237 212.277 13.5616C212.337 13.5749 212.395 13.6002 212.446 13.6359C212.497 13.6716 212.54 13.717 212.573 13.7695C212.607 13.8221 212.629 13.8807 212.64 13.942C212.65 14.0033 212.648 14.066 212.635 14.1267C212.622 14.187 212.598 14.2443 212.563 14.2952C212.529 14.346 212.484 14.3894 212.432 14.4228C212.38 14.4561 212.322 14.4788 212.262 14.4894C212.201 14.5 212.139 14.4983 212.079 14.4845C201.378 12.0858 190.251 12.3607 179.682 15.285L179.531 15.3227Z" fill="#407BFF"/>
<path d="M167.185 20.3801C167.083 20.3771 166.984 20.3411 166.905 20.2774C166.825 20.2137 166.768 20.1259 166.742 20.0271C166.717 19.9283 166.724 19.8239 166.763 19.7296C166.802 19.6354 166.871 19.5563 166.958 19.5043C169.25 18.2241 171.629 17.1069 174.078 16.161C174.194 16.1181 174.323 16.1227 174.436 16.1738C174.549 16.2249 174.637 16.3184 174.681 16.4341C174.704 16.4909 174.715 16.5517 174.714 16.613C174.713 16.6742 174.7 16.7346 174.675 16.7907C174.651 16.8468 174.615 16.8974 174.571 16.9397C174.527 16.982 174.475 17.015 174.417 17.0368C172.01 17.9658 169.672 19.0641 167.42 20.3236C167.347 20.3611 167.266 20.3805 167.185 20.3801Z" fill="#407BFF"/>
<path d="M198.122 150.872C235.155 150.872 265.176 120.851 265.176 83.818C265.176 46.7849 235.155 16.7637 198.122 16.7637C161.089 16.7637 131.067 46.7849 131.067 83.818C131.067 120.851 161.089 150.872 198.122 150.872Z" fill="#407BFF"/>
<path opacity="0.9" d="M198.122 150.872C235.155 150.872 265.176 120.851 265.176 83.818C265.176 46.7849 235.155 16.7637 198.122 16.7637C161.089 16.7637 131.067 46.7849 131.067 83.818C131.067 120.851 161.089 150.872 198.122 150.872Z" fill="white"/>
<path d="M198.282 152.219C184.834 152.219 171.688 148.231 160.506 140.76C149.324 133.288 140.609 122.669 135.462 110.244C130.316 97.8193 128.969 84.1476 131.593 70.9576C134.216 57.7676 140.692 45.6519 150.202 36.1424C159.711 26.633 171.827 20.157 185.017 17.5334C198.207 14.9097 211.879 16.2563 224.303 21.4027C236.728 26.5492 247.348 35.2644 254.819 46.4463C262.291 57.6283 266.278 70.7746 266.278 84.223C266.258 102.251 259.088 119.534 246.341 132.281C233.593 145.029 216.31 152.199 198.282 152.219ZM198.282 18.1104C185.206 18.1104 172.424 21.9878 161.552 29.2524C150.68 36.5169 142.206 46.8423 137.202 58.9228C132.198 71.0033 130.889 84.2963 133.44 97.1209C135.991 109.946 142.288 121.726 151.534 130.972C160.78 140.218 172.56 146.514 185.384 149.065C198.209 151.616 211.502 150.307 223.582 145.303C235.663 140.299 245.988 131.825 253.253 120.953C260.517 110.081 264.395 97.2988 264.395 84.223C264.365 66.7015 257.389 49.9067 244.996 37.5207C232.603 25.1346 215.804 18.168 198.282 18.1481V18.1104Z" fill="#407BFF"/>
<mask id="mask0_273_121755" style="mask-type:luminance" maskUnits="userSpaceOnUse" x="131" y="16" width="135" height="135">
<path d="M198.123 150.872C235.156 150.872 265.177 120.851 265.177 83.818C265.177 46.7849 235.156 16.7637 198.123 16.7637C161.09 16.7637 131.068 46.7849 131.068 83.818C131.068 120.851 161.09 150.872 198.123 150.872Z" fill="white"/>
</mask>
<g mask="url(#mask0_273_121755)">
<path d="M163.616 59.9817C163.418 59.4919 158.907 47.8893 165.311 38.9518C170.189 32.1051 179.852 28.9596 194.054 29.5906C205.44 30.0991 213.172 33.1317 217.024 38.6034C221.657 45.1958 219.246 52.9749 218.333 55.9038L218.229 56.2522L213.727 54.8772L213.84 54.51C214.631 51.9672 216.468 46.034 213.172 41.3251C210.205 37.106 203.697 34.7327 193.837 34.2995C181.359 33.7438 173.033 36.183 169.153 41.6924C164.247 48.5674 167.957 58.164 167.995 58.2582L163.616 59.9817Z" fill="#263238"/>
<path d="M212.88 65.9621C212.88 72.7523 215.319 78.2617 218.323 78.2617C221.328 78.2617 223.776 72.7523 223.776 65.9621C223.776 59.1719 221.337 53.6531 218.323 53.6531C215.31 53.6531 212.88 59.1625 212.88 65.9621Z" fill="#263238"/>
<path opacity="0.2" d="M212.88 65.9621C212.88 72.7523 215.319 78.2617 218.323 78.2617C221.328 78.2617 223.776 72.7523 223.776 65.9621C223.776 59.1719 221.337 53.6531 218.323 53.6531C215.31 53.6531 212.88 59.1625 212.88 65.9621Z" fill="white"/>
<path d="M213.981 82.0193C217.908 82.0193 221.092 74.8302 221.092 65.962C221.092 57.0939 217.908 49.9048 213.981 49.9048C210.055 49.9048 206.871 57.0939 206.871 65.962C206.871 74.8302 210.055 82.0193 213.981 82.0193Z" fill="#263238"/>
<path d="M226.196 118.777C226.196 118.777 220.432 114.35 207.511 110.922C199.864 108.888 191.802 108.605 183.892 108.963C175.981 109.321 168.042 111.092 161.185 115.028C158.191 116.742 146.588 122.723 146.588 126.16L146.767 126.923C158.137 140.471 174.398 148.978 192.011 150.592C209.623 152.206 227.16 146.796 240.803 135.54C236.546 125.209 231.009 123.363 226.196 118.777Z" fill="#407BFF"/>
<path d="M200.627 95.788C197.905 102.898 197.133 110.593 210.308 113.814C210.308 113.814 216.694 123.617 195.918 125.115C173.749 126.65 173.212 111.77 173.212 111.77C181.923 105.997 180.492 88.7435 178.702 79.3352L200.627 95.788Z" fill="#FF8B7B"/>
<path opacity="0.2" d="M184.024 95.9763C184.354 100.101 191.031 106.778 198.97 103.077C199.261 101.301 199.741 99.5618 200.402 97.8881L187.414 88.1501C186.953 89.1013 183.92 93.7255 184.024 95.9763Z" fill="black"/>
<path d="M170.312 58.8987C171.866 75.0219 171.932 84.5527 180.398 92.586C193.065 104.697 212.824 96.5697 216.186 80.3429C219.152 65.6701 216.186 41.7302 200.081 35.8252C196.545 34.5084 192.731 34.1172 189.001 34.6889C185.271 35.2605 181.749 36.776 178.769 39.0914C175.79 41.4068 173.451 44.4453 171.976 47.9186C170.501 51.3918 169.938 55.1844 170.34 58.9364L170.312 58.8987Z" fill="#FF8B7B"/>
<path d="M165.715 69.8422C166.196 71.8138 167.062 73.6705 168.265 75.3049C169.468 76.9393 170.983 78.3188 172.722 79.3636C177.365 82.123 181.095 78.3088 180.982 73.195C180.887 68.5708 178.316 61.63 173.061 60.9519C167.806 60.2738 164.548 65.0015 165.715 69.8422Z" fill="#FF8B7B"/>
<path d="M195.024 62.581C195.024 63.8995 195.806 64.9449 196.644 64.8978C197.482 64.8507 198.169 63.7959 198.132 62.468C198.094 61.1401 197.35 60.1042 196.578 60.0665C195.806 60.0288 194.901 61.3096 195.024 62.581Z" fill="#263238"/>
<path d="M209.885 62.0912C209.885 63.4191 210.648 64.4645 211.43 64.4739C212.211 64.4833 212.955 63.3626 212.908 62.0347C212.861 60.7068 212.127 59.6708 211.26 59.7085C210.394 59.7462 209.866 60.7539 209.885 62.0912Z" fill="#263238"/>
<path d="M205.186 62.8918C206.902 66.8589 209.148 70.5751 211.863 73.9389C210.982 74.6282 209.959 75.1141 208.868 75.3616C207.777 75.6091 206.645 75.6121 205.553 75.3704L205.186 62.8918Z" fill="#FF5652"/>
<path d="M214.773 55.1034C214.925 54.9691 215.019 54.7801 215.033 54.5773C215.047 54.3746 214.98 54.1745 214.848 54.0203C214.73 53.8779 214.561 53.7868 214.377 53.7661C213.165 53.5575 211.92 53.6436 210.748 54.0174C209.576 54.3911 208.511 55.0414 207.643 55.9133C207.507 56.0654 207.435 56.2649 207.444 56.4692C207.453 56.6734 207.541 56.866 207.69 57.0058C207.847 57.1377 208.05 57.2027 208.254 57.1869C208.458 57.171 208.648 57.0755 208.783 56.921C209.473 56.226 210.32 55.7067 211.252 55.4068C212.185 55.1069 213.176 55.0352 214.142 55.1976C214.247 55.2296 214.359 55.2378 214.468 55.2215C214.577 55.2053 214.681 55.1649 214.773 55.1034Z" fill="#263238"/>
<path d="M199.883 56.8833C199.983 56.8603 200.078 56.8173 200.161 56.757C200.243 56.6968 200.313 56.6204 200.366 56.5325C200.419 56.4446 200.453 56.3469 200.468 56.2454C200.482 56.1439 200.475 56.0405 200.449 55.9415C200.404 55.7651 200.301 55.609 200.157 55.4989C199.176 54.7555 198.031 54.2587 196.818 54.0505C195.605 53.8424 194.36 53.9289 193.187 54.3028C193.005 54.3711 192.855 54.5067 192.769 54.6819C192.683 54.857 192.668 55.0584 192.726 55.2446C192.804 55.437 192.954 55.5913 193.144 55.6741C193.334 55.7569 193.549 55.7616 193.743 55.6873C194.675 55.3869 195.666 55.3156 196.632 55.4796C197.597 55.6435 198.509 56.0378 199.29 56.629C199.363 56.7143 199.454 56.7817 199.557 56.8258C199.66 56.8699 199.772 56.8896 199.883 56.8833Z" fill="#263238"/>
<path d="M209.734 80.5407C209.734 80.5407 204.752 78.902 191.077 78.271C193.111 83.4508 196.445 87.6887 203.452 88.0278C210.459 88.3668 209.734 80.5407 209.734 80.5407Z" fill="#263238"/>
<path d="M199.855 83.8464C202.71 83.8276 205.482 84.807 207.691 86.6152C207.113 87.1061 206.443 87.4758 205.72 87.7023C204.997 87.9288 204.235 88.0075 203.481 87.9337C200.634 87.9604 197.868 86.9797 195.674 85.1649C196.248 84.6776 196.913 84.31 197.631 84.0836C198.35 83.8572 199.106 83.7765 199.855 83.8464Z" fill="#FF5652"/>
<path d="M209.103 80.3617C209.072 80.9163 208.869 81.4476 208.523 81.8826C208.178 82.3175 207.706 82.635 207.173 82.7915C203.056 82.5609 198.971 81.9301 194.977 80.9079C194.257 80.7522 193.584 80.43 193.012 79.9672C192.439 79.5043 191.984 78.9137 191.681 78.2427C197.542 78.4055 203.374 79.1149 209.103 80.3617Z" fill="white"/>
<path d="M222.684 134.928L216.214 125.51C216.057 125.286 215.82 125.13 215.552 125.076C215.284 125.021 215.005 125.072 214.773 125.218L203.726 132.235L202.615 127.234C202.576 127.073 202.485 126.929 202.355 126.827C202.225 126.724 202.064 126.669 201.899 126.669H199.94C199.753 126.671 199.575 126.746 199.443 126.878C199.311 127.01 199.236 127.189 199.234 127.375L198.979 144.76L193.027 150.618C194.713 150.741 196.408 150.825 198.122 150.825C199.836 150.825 201.758 150.741 203.547 150.59C205.336 150.439 207.38 150.204 209.254 149.893C211.549 148.521 213.663 146.867 215.545 144.967V144.902L222.59 136.152C222.733 135.984 222.819 135.776 222.835 135.556C222.852 135.336 222.799 135.116 222.684 134.928Z" fill="#FF8B7B"/>
<path d="M170.19 82.0193C174.116 82.0193 177.3 74.8302 177.3 65.962C177.3 57.0939 174.116 49.9048 170.19 49.9048C166.263 49.9048 163.079 57.0939 163.079 65.962C163.079 74.8302 166.263 82.0193 170.19 82.0193Z" fill="#263238"/>
<path d="M171.291 65.9621C171.291 72.7523 168.852 78.2617 165.838 78.2617C162.824 78.2617 160.395 72.7523 160.395 65.9621C160.395 59.1719 162.834 53.6531 165.838 53.6531C168.842 53.6531 171.291 59.1625 171.291 65.9621Z" fill="#263238"/>
<path opacity="0.2" d="M171.291 65.9621C171.291 72.7523 168.852 78.2617 165.838 78.2617C162.824 78.2617 160.395 72.7523 160.395 65.9621C160.395 59.1719 162.834 53.6531 165.838 53.6531C168.842 53.6531 171.291 59.1625 171.291 65.9621Z" fill="white"/>
<path d="M234.032 131.161C222.731 131.161 216.685 122.421 216.393 105.874C216.393 105.625 216.492 105.385 216.668 105.208C216.845 105.032 217.085 104.933 217.334 104.933C217.584 104.933 217.824 105.032 218 105.208C218.177 105.385 218.276 105.625 218.276 105.874C218.549 121.423 223.851 129.306 234.032 129.306C244.392 129.306 249.534 121.64 249.779 105.874C249.779 105.625 249.878 105.385 250.054 105.208C250.231 105.032 250.471 104.933 250.72 104.933C250.97 104.933 251.21 105.032 251.386 105.208C251.563 105.385 251.662 105.625 251.662 105.874C251.408 122.685 245.475 131.161 234.032 131.161Z" fill="#263238"/>
<path d="M250.72 106.826H217.334C217.085 106.826 216.845 106.726 216.668 106.55C216.492 106.373 216.393 106.134 216.393 105.884C216.393 105.634 216.492 105.395 216.668 105.218C216.845 105.041 217.085 104.942 217.334 104.942H250.72C250.97 104.942 251.21 105.041 251.386 105.218C251.563 105.395 251.662 105.634 251.662 105.884C251.662 106.134 251.563 106.373 251.386 106.55C251.21 106.726 250.97 106.826 250.72 106.826Z" fill="#263238"/>
<path d="M243.196 99.1407H224.859L225.424 79.3069L225.801 79.128C228.349 77.8283 231.168 77.1506 234.028 77.1506C236.887 77.1506 239.707 77.8283 242.254 79.128L242.64 79.3069L243.196 99.1407Z" fill="#263238"/>
<g opacity="0.1">
<path d="M243.195 99.1407H224.858L225.423 79.3069L225.8 79.128C228.348 77.8283 231.167 77.1506 234.027 77.1506C236.886 77.1506 239.706 77.8283 242.253 79.128L242.639 79.3069L243.195 99.1407Z" fill="#FAFAFA"/>
</g>
<path d="M224.859 99.1406H243.196L242.64 118.918L242.254 119.116C239.705 120.411 236.887 121.086 234.028 121.086C231.169 121.086 228.35 120.411 225.801 119.116L225.462 118.918L224.859 99.1406Z" fill="#263238"/>
<path d="M243.751 97.5491H224.369V100.883H243.751V97.5491Z" fill="#263238"/>
<path opacity="0.12" d="M243.751 97.5491H224.369V100.883H243.751V97.5491Z" fill="white"/>
<path d="M236.311 108.427C235.953 108.87 235.472 109.197 234.929 109.368C234.385 109.538 233.804 109.543 233.257 109.383C232.711 109.223 232.224 108.905 231.858 108.468C231.492 108.031 231.264 107.496 231.203 106.93C231.141 106.364 231.248 105.792 231.511 105.287C231.774 104.782 232.181 104.366 232.68 104.092C233.179 103.818 233.748 103.697 234.316 103.747C234.883 103.796 235.423 104.012 235.868 104.368C236.464 104.848 236.845 105.545 236.928 106.306C237.011 107.067 236.789 107.829 236.311 108.427Z" fill="#263238"/>
<path opacity="0.2" d="M234.061 109.5C235.652 109.5 236.942 108.21 236.942 106.618C236.942 105.027 235.652 103.737 234.061 103.737C232.469 103.737 231.179 105.027 231.179 106.618C231.179 108.21 232.469 109.5 234.061 109.5Z" fill="white"/>
<path d="M235.294 105.262C235.294 105.425 235.23 105.58 235.115 105.695C235 105.81 234.844 105.874 234.682 105.874C234.519 105.874 234.362 105.81 234.246 105.696C234.13 105.581 234.063 105.425 234.061 105.262C234.063 105.098 234.129 104.941 234.245 104.825C234.361 104.709 234.518 104.643 234.682 104.641C234.845 104.643 235.001 104.71 235.116 104.826C235.23 104.942 235.294 105.099 235.294 105.262Z" fill="#407BFF"/>
<path d="M234.032 155.807C233.782 155.807 233.542 155.708 233.366 155.532C233.189 155.355 233.09 155.115 233.09 154.866V130.219C233.09 129.97 233.189 129.73 233.366 129.553C233.542 129.377 233.782 129.278 234.032 129.278C234.281 129.278 234.521 129.377 234.698 129.553C234.874 129.73 234.973 129.97 234.973 130.219V154.847C234.976 154.972 234.953 155.097 234.907 155.213C234.861 155.329 234.792 155.435 234.704 155.525C234.617 155.614 234.512 155.685 234.396 155.734C234.281 155.782 234.157 155.807 234.032 155.807Z" fill="#263238"/>
</g>
</svg>
