<svg width="320" height="300" viewBox="0 0 320 300" fill="none" xmlns="http://www.w3.org/2000/svg">
<path d="M320 244.736H0V244.896H320V244.736Z" fill="#EBEBEB"/>
<path d="M287.936 255.034H266.739V255.194H287.936V255.034Z" fill="#EBEBEB"/>
<path d="M211.981 256.774H206.419V256.934H211.981V256.774Z" fill="#EBEBEB"/>
<path d="M266.099 249.095H253.817V249.255H266.099V249.095Z" fill="#EBEBEB"/>
<path d="M61.2158 250.17H33.5742V250.33H61.2158V250.17Z" fill="#EBEBEB"/>
<path d="M70.9692 250.17H66.918V250.33H70.9692V250.17Z" fill="#EBEBEB"/>
<path d="M144.096 252.871H84.1406V253.031H144.096V252.871Z" fill="#EBEBEB"/>
<path d="M151.68 216.192H28.1021C27.134 216.19 26.2061 215.805 25.5222 215.12C24.8382 214.434 24.4541 213.506 24.4541 212.538V38.8226C24.4625 37.8601 24.8504 36.9397 25.5334 36.2615C26.2165 35.5832 27.1395 35.2018 28.1021 35.2002H151.68C152.649 35.2002 153.578 35.5852 154.264 36.2705C154.949 36.9559 155.334 37.8854 155.334 38.8546V212.538C155.334 213.507 154.949 214.437 154.264 215.122C153.578 215.807 152.649 216.192 151.68 216.192ZM28.1021 35.3282C27.1764 35.3299 26.2893 35.6988 25.6353 36.3539C24.9814 37.0091 24.6141 37.8969 24.6141 38.8226V212.538C24.6141 213.463 24.9814 214.351 25.6353 215.006C26.2893 215.662 27.1764 216.03 28.1021 216.032H151.68C152.606 216.03 153.494 215.662 154.149 215.007C154.804 214.352 155.172 213.464 155.174 212.538V38.8226C155.172 37.8963 154.804 37.0085 154.149 36.3535C153.494 35.6986 152.606 35.3299 151.68 35.3282H28.1021Z" fill="#EBEBEB"/>
<path d="M290.118 216.192H166.534C165.566 216.19 164.637 215.805 163.952 215.12C163.267 214.435 162.882 213.506 162.88 212.538V38.8226C162.89 37.8595 163.279 36.9391 163.963 36.2611C164.647 35.583 165.571 35.2018 166.534 35.2002H290.118C291.08 35.2035 292.001 35.5856 292.683 36.2637C293.364 36.9418 293.751 37.8612 293.76 38.8226V212.538C293.76 213.505 293.377 214.432 292.694 215.117C292.011 215.802 291.085 216.189 290.118 216.192ZM166.534 35.3282C165.608 35.3299 164.72 35.6986 164.065 36.3535C163.41 37.0085 163.042 37.8963 163.04 38.8226V212.538C163.042 213.464 163.41 214.352 164.065 215.007C164.72 215.662 165.608 216.03 166.534 216.032H290.118C291.045 216.03 291.932 215.662 292.587 215.007C293.242 214.352 293.611 213.464 293.613 212.538V38.8226C293.611 37.8963 293.242 37.0085 292.587 36.3535C291.932 35.6986 291.045 35.3299 290.118 35.3282H166.534Z" fill="#EBEBEB"/>
<path d="M38.9502 126.01H85.875L85.875 48.4226H38.9502L38.9502 126.01Z" fill="#F5F5F5"/>
<path d="M38.9436 48.416H38.0156V126.003H38.9436V48.416Z" fill="#E0E0E0"/>
<path d="M43.7121 122.592H81.1201L81.1201 51.8339H43.7121L43.7121 122.592Z" fill="#FAFAFA"/>
<path d="M96.9473 153.242H143.872V75.6545H96.9473V153.242Z" fill="#F5F5F5"/>
<path d="M96.9475 75.6611H96.0195V153.248H96.9475V75.6611Z" fill="#E0E0E0"/>
<path d="M101.709 149.831H139.117V79.0722H101.709V149.831Z" fill="#FAFAFA"/>
<path d="M66.6884 224.685C67.8532 203.565 64.7684 169.645 61.434 157.875C60.9924 156.32 60.4932 154.515 59.7316 154.279C57.5556 153.587 56.5764 156.999 56.8452 158.176C58.1252 163.847 59.322 177.92 60.4932 202.4C61.0756 214.56 60.4932 222.931 62.0548 224.691L66.6884 224.685Z" fill="#E6E6E6"/>
<path d="M63.2196 177.613C66.2788 167.725 105.46 157.568 94.1636 168.205C91.354 170.855 78.2724 177.837 72.9028 185.178C68.73 190.88 64.5124 200.474 63.3988 205.792C62.9124 194.605 61.1844 184.205 63.2196 177.613Z" fill="#E6E6E6"/>
<path d="M67.6796 190.151C74.502 175.104 96.3196 172.403 90.4572 180.346C88.1532 183.463 79.7052 187.021 74.3292 194.362C70.1564 200.064 65.9388 209.651 64.8316 214.976C64.3388 203.783 64.8316 196.435 67.6796 190.151Z" fill="#E6E6E6"/>
<path d="M59.1037 188.871C51.0269 169.517 21.8493 167.975 29.6125 176.967C32.5629 180.391 42.8733 186.656 50.6621 194.733C56.7165 201.005 63.5389 211.373 65.8621 217.133C64.3581 205.261 62.3613 196.679 59.1037 188.871Z" fill="#E6E6E6"/>
<path d="M62.4961 167.213C69.7281 153.959 91.6161 152.538 85.3633 159.789C82.9121 162.643 74.9377 166.259 69.7281 173.383C65.6769 178.912 60.8129 186.131 59.7313 191.303C59.2577 180.435 59.2897 173.095 62.4961 167.213Z" fill="#E6E6E6"/>
<path d="M56.1986 167.475C50.4962 159.232 24.9602 150.17 31.5906 157.632C38.573 165.46 43.533 164.115 50.1506 170.951C55.2706 176.263 61.0306 185.069 63.0146 189.895C61.7282 179.84 60.2818 173.363 56.1986 167.475Z" fill="#E6E6E6"/>
<path d="M62.9761 157.984C66.5985 151.469 81.5361 146.676 77.6385 151.674C74.9185 155.143 71.6545 157.524 68.1921 162.247C65.5105 165.92 61.8625 170.535 61.1521 173.959C60.8321 166.759 60.8001 161.869 62.9761 157.984Z" fill="#E6E6E6"/>
<path d="M57.0812 159.955C53.4332 155.911 33.9196 146.311 38.3996 152.474C40.1468 154.899 47.59 160.794 52.6012 166.003C56.4988 170.035 60.774 173.325 62.2652 176.992C61.2796 169.37 60.7356 163.994 57.0812 159.955Z" fill="#E6E6E6"/>
<path d="M62.0803 174.151C56.7491 168.25 17.8819 160.647 27.8723 167.162C31.2899 169.389 46.3171 173.216 53.6451 180.813C59.3347 186.707 61.3827 196.487 63.5651 201.843C69.3123 192.429 67.4179 180.058 62.0803 174.151Z" fill="#E6E6E6"/>
<path d="M55.4238 223.827L55.923 241.485C55.9742 244.838 56.755 244.736 57.7022 244.736H70.2654C71.2062 244.736 71.987 244.838 72.0446 241.485L72.5438 223.827C72.6014 220.192 71.7886 217.126 70.7646 217.126H57.203C56.179 217.126 55.3662 220.192 55.4238 223.827Z" fill="#F5F5F5"/>
<path d="M54.6747 220.346H73.2923C73.4144 220.353 73.5351 220.316 73.6326 220.243C73.73 220.169 73.7977 220.062 73.8235 219.943L74.2651 216.563C74.2682 216.494 74.2563 216.425 74.2303 216.36C74.2043 216.296 74.1649 216.238 74.1145 216.19C74.0642 216.142 74.0042 216.105 73.9385 216.083C73.8729 216.06 73.8031 216.051 73.7339 216.058H54.2267C54.1578 216.052 54.0884 216.062 54.0232 216.085C53.9581 216.108 53.8985 216.144 53.8484 216.192C53.7983 216.24 53.7587 216.297 53.7324 216.361C53.7061 216.425 53.6935 216.494 53.6955 216.563L54.1371 219.943C54.1642 220.063 54.2332 220.169 54.3317 220.243C54.4302 220.317 54.5518 220.353 54.6747 220.346Z" fill="#F5F5F5"/>
<path d="M186.157 145.639H172.064V240.461H186.157V145.639Z" fill="#F0F0F0"/>
<path d="M281.6 240.461H174.771V244.736H281.6V240.461Z" fill="#F0F0F0"/>
<path d="M186.157 240.461H284.308V145.639H186.157V240.461Z" fill="#F5F5F5"/>
<path d="M184.697 141.907H170.291V145.638H184.697V141.907Z" fill="#F0F0F0"/>
<path d="M184.698 145.639H286.08V141.907H184.698V145.639Z" fill="#FAFAFA"/>
<path d="M279.168 190.407H191.296V153.536H279.168V190.407ZM192.128 189.6H278.362V154.343H192.102L192.128 189.6Z" fill="#E0E0E0"/>
<path d="M279.168 232.563H191.296V196.205H279.168V232.563ZM192.128 231.757H278.362V197.011H192.102L192.128 231.757Z" fill="#E0E0E0"/>
<path d="M252.34 160.787H218.125C217.723 160.786 217.339 160.625 217.055 160.341C216.77 160.057 216.61 159.672 216.608 159.271C216.61 158.869 216.77 158.484 217.055 158.2C217.339 157.916 217.723 157.756 218.125 157.754H252.34C252.741 157.756 253.126 157.916 253.41 158.2C253.694 158.484 253.855 158.869 253.856 159.271C253.855 159.672 253.694 160.057 253.41 160.341C253.126 160.625 252.741 160.786 252.34 160.787Z" fill="#E0E0E0"/>
<path d="M252.346 200.422H218.125C217.287 200.422 216.608 201.101 216.608 201.939C216.608 202.777 217.287 203.456 218.125 203.456H252.346C253.184 203.456 253.863 202.777 253.863 201.939C253.863 201.101 253.184 200.422 252.346 200.422Z" fill="#E0E0E0"/>
<path d="M230.662 141.869H271.366L274.669 105.575H233.965L230.662 141.869Z" fill="#E6E6E6"/>
<path d="M229.28 141.869H269.984L273.287 105.575H232.583L229.28 141.869Z" fill="#F0F0F0"/>
<path d="M266.33 137.85L268.902 109.594H236.237L233.664 137.85H266.33Z" fill="white"/>
<path d="M221.235 115.367L218.822 141.869H238.329L240.742 115.367H221.235Z" fill="#E6E6E6"/>
<path d="M220.224 115.367L217.812 141.869H237.319L239.732 115.367H220.224Z" fill="#F0F0F0"/>
<path d="M222.892 118.298L221.011 138.938H234.656L236.531 118.298H222.892Z" fill="white"/>
<path d="M160 273.639C228.533 273.639 284.089 270.395 284.089 266.394C284.089 262.393 228.533 259.149 160 259.149C91.467 259.149 35.9102 262.393 35.9102 266.394C35.9102 270.395 91.467 273.639 160 273.639Z" fill="#F5F5F5"/>
<path d="M189.645 72.781C189.056 71.2889 188.171 69.9311 187.045 68.7894C185.918 67.6476 184.572 66.7454 183.088 66.1368C181.603 65.5283 180.011 65.226 178.407 65.2482C176.803 65.2704 175.22 65.6165 173.754 66.2658C168.301 68.6722 165.344 75.6674 167.398 81.2546C168.424 84.0756 170.483 86.402 173.158 87.7634C174.271 88.2966 175.215 89.1272 175.885 90.1634L177.574 92.8642C178.129 93.7482 178.974 94.4109 179.965 94.7381C180.956 95.0652 182.03 95.0363 183.002 94.6562L187.264 92.973C188.234 92.5867 189.038 91.874 189.538 90.9579C190.038 90.0418 190.203 88.9799 190.003 87.9554L189.363 84.717C189.158 83.5705 189.275 82.3895 189.702 81.3058C190.742 78.5556 190.722 75.5169 189.645 72.781Z" fill="#279EFF"/>
<path d="M183.565 100.045C183.292 100.044 183.022 99.9874 182.771 99.8784C182.53 99.7763 182.312 99.6269 182.129 99.4389C181.947 99.2509 181.804 99.0282 181.709 98.784C181.522 98.2957 181.534 97.7535 181.744 97.2744C181.954 96.7954 182.343 96.4181 182.829 96.224L188.48 93.9904C188.968 93.8017 189.511 93.8135 189.991 94.0233C190.47 94.2331 190.847 94.6238 191.04 95.1104C191.141 95.3515 191.194 95.6104 191.194 95.872C191.194 96.1336 191.141 96.3925 191.04 96.6336C190.83 97.1182 190.436 97.5 189.946 97.696L184.32 99.904C184.08 100.001 183.823 100.049 183.565 100.045ZM189.21 94.4704C189.041 94.4696 188.873 94.5022 188.717 94.5664L183.04 96.8C182.791 96.8962 182.576 97.0646 182.422 97.2837C182.269 97.5027 182.185 97.7625 182.18 98.0297C182.175 98.297 182.25 98.5596 182.395 98.784C182.541 99.0085 182.749 99.1845 182.995 99.2896C183.159 99.3593 183.335 99.3952 183.514 99.3952C183.692 99.3952 183.868 99.3593 184.032 99.2896L189.683 97.0624C189.848 96.9966 189.997 96.8988 190.124 96.7746C190.25 96.6505 190.35 96.5025 190.419 96.3392C190.491 96.1768 190.527 96.0014 190.527 95.824C190.527 95.6466 190.491 95.4712 190.419 95.3088C190.317 95.0534 190.14 94.8349 189.912 94.6818C189.683 94.5288 189.414 94.4484 189.139 94.4512L189.21 94.4704Z" fill="#263238"/>
<path d="M186.445 103.488C186.273 103.486 186.104 103.452 185.945 103.386C185.653 103.247 185.424 103.002 185.305 102.701L185.209 102.452C185.149 102.3 185.12 102.139 185.122 101.976C185.125 101.813 185.159 101.653 185.224 101.503C185.289 101.354 185.383 101.219 185.5 101.106C185.617 100.993 185.755 100.904 185.907 100.845L189.433 99.4499C189.74 99.3384 190.079 99.3485 190.378 99.4782C190.678 99.6079 190.917 99.8474 191.046 100.148L191.142 100.397C191.26 100.703 191.253 101.043 191.122 101.343C190.992 101.644 190.748 101.881 190.445 102.004L186.88 103.399C186.741 103.455 186.594 103.485 186.445 103.488ZM189.869 100C189.794 100.002 189.72 100.018 189.651 100.045L186.125 101.44C186.051 101.469 185.984 101.511 185.927 101.565C185.871 101.62 185.825 101.685 185.794 101.757C185.762 101.829 185.745 101.906 185.744 101.985C185.742 102.064 185.756 102.142 185.785 102.215L185.881 102.464C185.91 102.538 185.954 102.605 186.008 102.662C186.063 102.719 186.129 102.764 186.201 102.796C186.274 102.827 186.352 102.844 186.431 102.845C186.51 102.847 186.589 102.833 186.662 102.804L190.189 101.408C190.262 101.38 190.33 101.336 190.387 101.281C190.444 101.227 190.49 101.161 190.521 101.088C190.552 101.016 190.567 100.939 190.567 100.861C190.567 100.783 190.552 100.706 190.521 100.634L190.425 100.384C190.378 100.275 190.3 100.181 190.202 100.113C190.103 100.045 189.988 100.006 189.869 100Z" fill="#263238"/>
<path d="M175.942 84.1345C175.506 84.1353 175.078 84.0171 174.703 83.7926C174.329 83.568 174.023 83.2457 173.819 82.8603C173.614 82.4749 173.518 82.041 173.542 81.6052C173.565 81.1694 173.707 80.7483 173.952 80.3872C174.197 80.026 174.536 79.7385 174.932 79.5555C175.328 79.3726 175.767 79.3011 176.201 79.3489C176.634 79.3966 177.047 79.5617 177.394 79.8264C177.741 80.0912 178.009 80.4455 178.17 80.8513L179.053 83.0849L176.819 83.9617C176.541 84.0749 176.243 84.1335 175.942 84.1345ZM175.942 79.9745C175.682 79.9717 175.424 80.0267 175.188 80.1356C174.951 80.2444 174.742 80.4044 174.575 80.604C174.408 80.8035 174.287 81.0377 174.221 81.2896C174.155 81.5415 174.146 81.8048 174.194 82.0607C174.243 82.3165 174.347 82.5585 174.5 82.7691C174.653 82.9797 174.851 83.1537 175.079 83.2786C175.308 83.4035 175.561 83.4762 175.821 83.4914C176.081 83.5066 176.341 83.4639 176.582 83.3665L178.221 82.7265L177.581 81.0945C177.448 80.7679 177.221 80.4888 176.927 80.2936C176.634 80.0984 176.288 79.9961 175.936 80.0001L175.942 79.9745Z" fill="white"/>
<path d="M183.021 94.8739L178.228 82.7203L182.637 80.9795L187.431 93.1331L186.836 93.3699L182.272 81.8115L179.053 83.0851L183.616 94.6371L183.021 94.8739Z" fill="white"/>
<path d="M182.272 81.8115L181.395 79.5779C181.22 79.1363 181.18 78.6528 181.281 78.1887C181.381 77.7245 181.616 77.3004 181.958 76.9702C182.299 76.64 182.73 76.4184 183.198 76.3336C183.665 76.2487 184.147 76.3043 184.582 76.4935C185.018 76.6826 185.388 76.9966 185.645 77.3959C185.902 77.7952 186.034 78.2618 186.026 78.7366C186.018 79.2114 185.869 79.6731 185.598 80.0632C185.328 80.4534 184.947 80.7544 184.505 80.9283L182.272 81.8115ZM183.622 76.9347C183.403 76.9377 183.186 76.9811 182.982 77.0627C182.767 77.1473 182.571 77.2737 182.404 77.4346C182.238 77.5955 182.105 77.7876 182.014 78C181.922 78.2123 181.874 78.4407 181.871 78.672C181.868 78.9033 181.91 79.1328 181.996 79.3475L182.636 80.9795L184.268 80.3395C184.65 80.1898 184.967 79.9117 185.166 79.5532C185.364 79.1946 185.431 78.778 185.355 78.3753C185.279 77.9726 185.065 77.609 184.75 77.3472C184.435 77.0854 184.038 76.9417 183.628 76.9411L183.622 76.9347Z" fill="white"/>
<path d="M192.212 112.314C189.808 112.317 187.409 112.122 185.037 111.731L185.146 111.091C187.473 111.475 189.827 111.668 192.186 111.667L192.212 112.314Z" fill="#279EFF"/>
<path d="M205.44 118.944L205.779 118.253C206.959 115.625 207.197 112.671 206.451 109.888C203.961 110.781 201.388 111.424 198.771 111.808L198.675 111.168C201.358 110.767 203.991 110.089 206.534 109.146L206.854 109.031L206.95 109.351C207.763 112.128 207.657 115.093 206.65 117.805C214.515 114.675 222.726 103.565 222.726 90.3297C222.726 78.5793 209.024 69.0177 192.179 69.0177C175.334 69.0177 161.638 78.5793 161.638 90.3297C161.638 98.8737 168.915 106.573 180.198 109.939L180.013 110.579C168.493 107.13 161.018 99.1937 161.018 90.3553C161.018 78.2529 175.008 68.4033 192.198 68.4033C209.389 68.4033 223.386 78.2529 223.386 90.3553C223.386 104.269 214.426 115.898 206.17 118.695L205.44 118.944Z" fill="#279EFF"/>
<path d="M223.207 73.8078L201.887 77.617C200.356 77.8906 199.337 79.3534 199.611 80.8844L201.88 93.5857C202.153 95.1167 203.616 96.136 205.147 95.8625L226.467 92.0533C227.998 91.7798 229.018 90.3169 228.744 88.7859L226.475 76.0847C226.201 74.5537 224.738 73.5343 223.207 73.8078Z" fill="#279EFF"/>
<path d="M218.086 84.1536L210.534 81.4272L211.949 89.3248L218.086 84.1536Z" fill="white"/>
<path d="M137.767 189.869H83.3922C82.2646 189.869 81.3506 190.783 81.3506 191.91V194.809C81.3506 195.937 82.2646 196.851 83.3922 196.851H137.767C138.894 196.851 139.808 195.937 139.808 194.809V191.91C139.808 190.783 138.894 189.869 137.767 189.869Z" fill="#279EFF"/>
<path d="M137.152 262.553H138.771L136.909 196.851H134.662L137.152 262.553Z" fill="#279EFF"/>
<path opacity="0.3" d="M137.152 262.553H138.771L136.909 196.851H134.662L137.152 262.553Z" fill="white"/>
<path d="M122.221 262.553H120.602L122.47 196.851H124.71L122.221 262.553Z" fill="#279EFF"/>
<path opacity="0.3" d="M122.221 262.553H120.602L122.47 196.851H124.71L122.221 262.553Z" fill="white"/>
<path d="M98.9378 262.553H100.563L98.6946 196.851H96.4482L98.9378 262.553Z" fill="#279EFF"/>
<path opacity="0.3" d="M98.9378 262.553H100.563L98.6946 196.851H96.4482L98.9378 262.553Z" fill="white"/>
<path d="M84.0123 262.553H82.3867L84.2555 196.851H86.4955L84.0123 262.553Z" fill="#279EFF"/>
<path opacity="0.3" d="M84.0123 262.553H82.3867L84.2555 196.851H86.4955L84.0123 262.553Z" fill="white"/>
<path d="M154.439 245.856L160.211 243.904L155.463 230.425L149.696 232.377L154.439 245.856Z" fill="#FFC3BD"/>
<path d="M159.782 241.677L153.459 244.48C153.407 244.498 153.359 244.528 153.319 244.566C153.279 244.605 153.248 244.651 153.228 244.703C153.208 244.755 153.199 244.81 153.203 244.866C153.206 244.921 153.222 244.975 153.248 245.024L155.648 249.901C155.798 250.156 156.035 250.349 156.316 250.444C156.597 250.54 156.903 250.531 157.177 250.419C159.36 249.414 160.339 248.832 163.123 247.609C164.838 246.861 168.288 245.523 170.425 244.147C172.563 242.771 170.886 240.787 169.837 241.184C167.347 242.131 163.206 242.093 160.941 241.606C160.556 241.51 160.152 241.534 159.782 241.677Z" fill="#263238"/>
<path opacity="0.2" d="M149.696 232.384L155.469 230.425L158.176 238.137L152.307 239.814L149.696 232.384Z" fill="black"/>
<path d="M113.549 171.642C113.549 171.642 142.349 176.838 144.672 186.298C149.235 204.998 159.526 234.246 159.526 234.246L148.57 237.446C148.57 237.446 132.902 203.904 130.931 192.614C114.771 192.614 95.0911 193.894 92.5311 187.059C90.2847 180.992 91.0847 171.667 91.0847 171.667L113.549 171.642Z" fill="#263238"/>
<path d="M147.968 239.36L160.768 235.136L159.673 229.356L145.715 234.272L147.968 239.36Z" fill="#279EFF"/>
<path d="M129.35 247.904L135.725 248.39L131.981 232.659L126.035 234.003L129.35 247.904Z" fill="#FFC3BD"/>
<path d="M135.564 246.854L128.697 246.092C128.642 246.082 128.585 246.084 128.531 246.098C128.476 246.112 128.425 246.137 128.382 246.172C128.338 246.208 128.302 246.252 128.277 246.302C128.252 246.352 128.238 246.407 128.236 246.464L127.878 251.891C127.89 252.184 128.003 252.465 128.198 252.685C128.392 252.906 128.657 253.052 128.947 253.1C131.334 253.324 132.48 253.305 135.5 253.638C137.356 253.843 141.017 254.412 143.558 254.278C146.099 254.144 145.638 251.59 144.524 251.417C141.894 250.988 138.336 248.889 136.614 247.334C136.323 247.068 135.956 246.9 135.564 246.854Z" fill="#263238"/>
<path opacity="0.2" d="M126.035 234.01L131.981 232.666L133.869 240.614L127.859 241.67L126.035 234.01Z" fill="black"/>
<path d="M98.56 171.642C98.56 171.642 133.574 176.883 131.968 190.138C129.658 209.248 135.59 236.89 135.59 236.89L124.358 238.899C124.358 238.899 116.102 204.544 116.038 193.082C104.646 193.082 84.7424 193.894 82.1952 187.034C79.9488 180.966 80.7488 171.642 80.7488 171.642H98.56Z" fill="#263238"/>
<path d="M123.584 240.768L136.761 237.9L136.275 232.044L121.875 235.468L123.584 240.768Z" fill="#279EFF"/>
<path d="M117.031 134.81C117.965 138.47 118.88 142.163 119.776 145.843C120.672 149.523 121.549 153.21 122.477 156.845L123.175 159.552L123.533 160.883L123.719 161.523V161.606V161.645C123.719 161.645 123.719 161.587 123.687 161.562C123.638 161.431 123.578 161.304 123.507 161.184L123.411 161.037L123.341 160.941L123.213 160.8C123.079 160.672 123.059 160.691 123.091 160.723C123.16 160.794 123.238 160.857 123.322 160.909C123.604 161.099 123.899 161.268 124.205 161.414C124.896 161.754 125.703 162.054 126.528 162.387C129.856 163.622 133.53 164.672 137.101 165.805L136.538 169.888C134.573 169.911 132.607 169.834 130.65 169.658C128.658 169.494 126.677 169.216 124.717 168.826C123.665 168.621 122.626 168.352 121.607 168.019C121.018 167.831 120.443 167.605 119.885 167.341C119.542 167.181 119.21 166.997 118.893 166.79C118.452 166.509 118.046 166.176 117.683 165.798C117.568 165.67 117.459 165.549 117.331 165.382L117.152 165.139L116.973 164.838C116.841 164.613 116.728 164.378 116.634 164.134L116.531 163.84L116.282 163.136L115.802 161.741C115.488 160.813 115.162 159.885 114.899 158.963C113.741 155.264 112.685 151.584 111.699 147.878C110.714 144.173 109.779 140.474 108.922 136.723L117.031 134.81Z" fill="#FFC3BD"/>
<path d="M108.032 130.381C111.546 126.464 117.114 129.203 119.463 137.971C120.602 142.234 120.244 144.461 120.244 144.461L108.122 148.198C105.517 142.438 103.252 135.718 108.032 130.381Z" fill="#279EFF"/>
<g opacity="0.2">
<path d="M108.032 130.381C111.546 126.464 117.114 129.203 119.463 137.971C120.602 142.234 120.244 144.461 120.244 144.461L108.122 148.198C105.517 142.438 103.252 135.718 108.032 130.381Z" fill="black"/>
</g>
<path d="M143.456 164.16L142.368 163.827C141.709 163.628 141.017 163.565 140.333 163.642L137.997 163.917C137.244 164.096 136.537 164.432 135.923 164.902C135.309 165.373 134.801 165.969 134.432 166.65L133.639 168.198C134.035 171.053 139.821 170.118 139.821 170.118H145.28L145.101 166.24C145.074 165.766 144.901 165.313 144.607 164.94C144.313 164.568 143.911 164.296 143.456 164.16Z" fill="#FFC3BD"/>
<path d="M147.2 157.913C147.045 158.965 146.602 159.953 145.92 160.768C145.338 161.619 144.736 162.464 144.128 163.328C142.906 164.998 141.658 166.643 140.288 168.211C140.228 168.279 140.145 168.322 140.056 168.333C139.966 168.345 139.875 168.322 139.8 168.271C139.726 168.22 139.672 168.144 139.65 168.056C139.628 167.968 139.638 167.875 139.68 167.795C140.627 165.939 141.696 164.173 142.79 162.419C143.341 161.544 143.904 160.676 144.48 159.814C144.977 158.872 145.723 158.084 146.637 157.536C146.704 157.494 146.782 157.473 146.861 157.474C146.941 157.474 147.018 157.498 147.085 157.54C147.152 157.583 147.205 157.644 147.239 157.715C147.273 157.787 147.286 157.867 147.277 157.945L147.2 157.913Z" fill="#263238"/>
<path d="M108.845 126.585L102.016 124.665L93.2289 124.256C91.8964 124.193 90.5802 124.57 89.4828 125.329C88.3854 126.087 87.5677 127.185 87.1553 128.454C85.4785 133.574 83.9553 140.947 82.8161 147.328C81.4645 155.364 80.7774 163.498 80.7617 171.648H113.549C114.221 153.44 116.365 144.544 117.632 138.099C118.004 136.19 117.731 134.211 116.856 132.473C115.982 130.736 114.555 129.338 112.8 128.499L108.845 126.585Z" fill="#279EFF"/>
<path d="M99.6865 127.865C100.519 130.003 103.738 134.572 107.482 136.358C109.562 134.854 110.01 131.571 110.323 130.035L99.6865 127.865Z" fill="white"/>
<path d="M110.324 130.035C110.566 129.19 110.465 128.284 110.042 127.513C109.511 126.681 109.645 125.728 110.176 124.748C110.598 123.969 111.125 123.251 111.744 122.617L107.45 117.593L103.949 113.536C103.648 117.331 103.354 122.035 100.359 124.979C99.3027 126.022 99.0787 126.336 99.6867 127.865C100.519 130.003 103.527 132.985 107.239 134.771C108.043 134.227 108.73 133.528 109.26 132.715C109.79 131.901 110.151 130.99 110.324 130.035Z" fill="#FFC3BD"/>
<path opacity="0.2" d="M110.426 121.753L108 117.817C107.955 117.92 107.898 118.029 107.84 118.144C107.622 118.631 107.446 119.136 107.315 119.654C106.874 121.401 108.358 123.897 109.984 125.088C110.054 124.979 110.112 124.864 110.176 124.749C110.59 124.01 111.081 123.317 111.642 122.681C111.674 122.657 111.708 122.635 111.744 122.617L110.426 121.753Z" fill="black"/>
<path d="M118.899 112.345C119.462 115.974 124.659 106.636 121.753 104.588C118.208 102.08 117.836 105.44 118.899 112.345Z" fill="#263238"/>
<path d="M104.109 107.609C103.776 113.504 103.27 116.928 105.978 120.333C110.048 125.453 117.862 123.763 120.019 118.125C121.939 113.043 122.176 104.262 116.512 101.152C110.848 98.0413 104.442 101.721 104.109 107.609Z" fill="#FFC3BD"/>
<path d="M115.724 104.07C115.724 104.07 119.494 107.769 122.182 106.24C124.87 104.71 125.414 100.749 122.182 97.2798C120.627 95.6094 118.272 93.9774 113.651 94.0798C114.015 94.4349 114.452 94.7077 114.931 94.8798C114.931 94.8798 109.068 93.9006 104.985 95.5838C105.312 96.0759 105.751 96.4837 106.265 96.7742C102.291 96.4734 98.4252 98.0542 101.145 101.785C97.542 102.137 96.7356 106.745 98.6556 109.785C100.576 112.825 100.915 115.104 103.481 116.486C103.481 112.345 104.435 111.366 104.435 111.366C106.284 110.579 108.416 106.637 107.987 104.646C111.942 106.24 116.16 106.765 115.724 104.07Z" fill="#263238"/>
<path d="M102.093 101.651C100.838 100.757 99.8641 99.5254 99.283 98.0991C98.8222 100.16 100.953 102.509 100.953 102.509L102.093 101.651Z" fill="#263238"/>
<path d="M101.165 110.829C101.209 112.178 101.739 113.467 102.656 114.458C103.879 115.738 105.543 114.65 105.856 113.005C106.112 111.526 105.485 109.267 103.936 108.602C102.388 107.936 101.12 109.178 101.165 110.829Z" fill="#FFC3BD"/>
<path d="M113.76 110.649C113.664 111.136 113.837 111.59 114.15 111.667C114.464 111.744 114.79 111.411 114.899 110.924C115.008 110.438 114.822 109.984 114.509 109.907C114.195 109.83 113.856 110.169 113.76 110.649Z" fill="#263238"/>
<path d="M119.2 111.949C119.097 112.435 119.277 112.883 119.59 112.96C119.904 113.037 120.23 112.704 120.339 112.218C120.448 111.731 120.256 111.277 119.942 111.206C119.629 111.136 119.296 111.462 119.2 111.949Z" fill="#263238"/>
<path d="M117.388 111.91C117.53 113.304 117.857 114.673 118.361 115.981C117.465 116.435 116.339 115.75 116.339 115.75L117.388 111.91Z" fill="#ED847E"/>
<path d="M115.334 118.47C114.77 118.352 114.237 118.121 113.765 117.791C113.293 117.461 112.893 117.039 112.588 116.55C112.576 116.533 112.568 116.514 112.564 116.494C112.559 116.473 112.56 116.452 112.564 116.432C112.569 116.411 112.578 116.392 112.59 116.376C112.603 116.359 112.619 116.345 112.637 116.335C112.655 116.325 112.675 116.319 112.696 116.317C112.717 116.316 112.738 116.318 112.757 116.326C112.777 116.333 112.795 116.344 112.81 116.358C112.825 116.373 112.837 116.39 112.844 116.41C113.184 116.932 113.638 117.37 114.173 117.689C114.708 118.009 115.308 118.202 115.929 118.253C115.948 118.253 115.967 118.258 115.984 118.266C116 118.275 116.015 118.287 116.028 118.301C116.04 118.316 116.048 118.332 116.054 118.351C116.059 118.369 116.06 118.388 116.057 118.406C116.056 118.425 116.052 118.444 116.044 118.461C116.035 118.479 116.024 118.494 116.009 118.507C115.995 118.519 115.978 118.529 115.96 118.534C115.942 118.54 115.923 118.543 115.904 118.541C115.713 118.529 115.522 118.505 115.334 118.47Z" fill="#263238"/>
<path d="M113.043 108.691C112.998 108.673 112.959 108.645 112.928 108.608C112.879 108.548 112.856 108.472 112.864 108.395C112.871 108.319 112.908 108.248 112.966 108.198C113.313 107.899 113.728 107.69 114.174 107.59C114.621 107.489 115.085 107.501 115.526 107.622C115.599 107.647 115.659 107.7 115.694 107.769C115.728 107.838 115.733 107.917 115.709 107.99C115.684 108.063 115.631 108.124 115.562 108.158C115.493 108.192 115.414 108.197 115.341 108.173C114.993 108.085 114.63 108.082 114.281 108.164C113.932 108.247 113.609 108.412 113.337 108.646C113.297 108.68 113.248 108.702 113.196 108.71C113.145 108.718 113.092 108.711 113.043 108.691Z" fill="#263238"/>
<path d="M119.872 108.8C119.863 108.753 119.863 108.705 119.872 108.659C119.895 108.586 119.944 108.524 120.011 108.485C120.077 108.447 120.156 108.436 120.231 108.454C120.672 108.572 121.077 108.795 121.412 109.105C121.746 109.415 122 109.803 122.151 110.233C122.161 110.27 122.165 110.308 122.161 110.346C122.156 110.384 122.145 110.421 122.126 110.454C122.108 110.487 122.083 110.517 122.053 110.54C122.023 110.564 121.989 110.582 121.952 110.592C121.916 110.603 121.877 110.606 121.84 110.602C121.802 110.598 121.765 110.586 121.732 110.567C121.698 110.549 121.669 110.524 121.645 110.494C121.622 110.464 121.604 110.43 121.594 110.393C121.471 110.057 121.267 109.755 121 109.515C120.734 109.275 120.412 109.104 120.064 109.017C120.017 109 119.975 108.971 119.941 108.933C119.908 108.895 119.884 108.849 119.872 108.8Z" fill="#263238"/>
<path d="M94.5982 133.043C93.3694 136.55 92.1406 140.205 91.0462 143.789C90.4894 145.581 89.9838 147.379 89.5294 149.152C89.089 150.854 88.7471 152.581 88.5054 154.323C88.5054 154.515 88.4542 154.726 88.4478 154.912V155.193C88.4478 155.283 88.4478 155.417 88.4478 155.373C88.4478 155.328 88.3966 155.411 88.4478 155.545C88.6101 156.034 88.874 156.484 89.2222 156.864C90.3216 158.081 91.5686 159.156 92.9342 160.064C96.0162 162.142 99.2341 164.01 102.566 165.657L101.197 169.6C99.2134 169.167 97.2579 168.616 95.3406 167.949C93.3873 167.279 91.4802 166.482 89.6318 165.561C87.6049 164.573 85.7299 163.299 84.0638 161.779C83.0053 160.803 82.1523 159.626 81.555 158.317C81.1823 157.475 80.9655 156.573 80.915 155.654C80.915 155.366 80.915 155.264 80.915 155.11V154.662C80.915 154.361 80.915 154.086 80.915 153.798C81.0252 151.667 81.2926 149.547 81.715 147.456C82.099 145.433 82.579 143.475 83.0974 141.529C84.1358 137.665 85.377 133.858 86.8158 130.125L94.5982 133.043Z" fill="#FFC3BD"/>
<path d="M92.8004 124.217C99.0596 124.16 100.244 129.03 96.8388 136.749C95.536 139.538 93.9444 142.182 92.09 144.64L81.7412 139.142C83.1236 132.979 85.6516 124.281 92.8004 124.217Z" fill="#279EFF"/>
<path d="M110.08 165.043L107.789 163.763C107.414 163.557 106.984 163.477 106.56 163.532L103.808 163.916C101.958 164.108 100.608 165.523 99.6032 166.752L98.432 168.185C98.3744 171.078 105.683 170.4 105.683 170.4L112.083 170.316L111.885 167.795C111.834 167.223 111.643 166.672 111.328 166.192C111.013 165.712 110.584 165.317 110.08 165.043Z" fill="#FFC3BD"/>
<path d="M246.618 168.89H73.376V176.998H246.618V168.89Z" fill="#279EFF"/>
<path opacity="0.3" d="M129.568 168.89H73.376V176.998H129.568V168.89Z" fill="white"/>
<path d="M78.0158 176.999H75.3662V266.394H78.0158V176.999Z" fill="#279EFF"/>
<path opacity="0.7" d="M78.0158 176.999H75.3662V266.394H78.0158V176.999Z" fill="white"/>
<path d="M127.584 176.999H124.935V266.394H127.584V176.999Z" fill="#279EFF"/>
<path opacity="0.7" d="M127.584 176.999H124.935V266.394H127.584V176.999Z" fill="white"/>
<path d="M195.066 176.999H192.416V266.394H195.066V176.999Z" fill="#279EFF"/>
<path opacity="0.7" d="M195.066 176.999H192.416V266.394H195.066V176.999Z" fill="white"/>
<path d="M244.634 176.999H241.984V266.394H244.634V176.999Z" fill="#279EFF"/>
<path opacity="0.7" d="M244.634 176.999H241.984V266.394H244.634V176.999Z" fill="white"/>
<path d="M227.84 133.05H180.48C179.668 133.079 178.89 133.383 178.274 133.912C177.658 134.441 177.24 135.164 177.088 135.962L172.147 165.971C172.071 166.329 172.078 166.699 172.166 167.054C172.254 167.409 172.421 167.739 172.655 168.02C172.89 168.301 173.184 168.525 173.517 168.676C173.851 168.826 174.213 168.899 174.579 168.89H221.939C222.753 168.862 223.533 168.557 224.15 168.027C224.768 167.496 225.187 166.771 225.337 165.971L230.278 135.962C230.354 135.604 230.348 135.233 230.259 134.878C230.171 134.523 230.003 134.193 229.768 133.912C229.533 133.632 229.237 133.408 228.903 133.259C228.569 133.109 228.206 133.038 227.84 133.05Z" fill="#263238"/>
<path d="M197.766 166.931H153.178C152.884 166.931 152.646 167.169 152.646 167.462V168.358C152.646 168.652 152.884 168.89 153.178 168.89H197.766C198.06 168.89 198.298 168.652 198.298 168.358V167.462C198.298 167.169 198.06 166.931 197.766 166.931Z" fill="#263238"/>
<path opacity="0.2" d="M227.84 133.05H181.516C180.705 133.079 179.927 133.383 179.311 133.912C178.695 134.441 178.276 135.164 178.124 135.962L173.184 165.971C173.107 166.329 173.112 166.7 173.2 167.055C173.288 167.411 173.455 167.742 173.689 168.023C173.923 168.304 174.219 168.528 174.552 168.678C174.886 168.829 175.25 168.901 175.616 168.89H221.907C222.721 168.862 223.501 168.557 224.118 168.027C224.736 167.496 225.155 166.771 225.305 165.971L230.246 135.962C230.321 135.606 230.315 135.239 230.229 134.886C230.142 134.534 229.977 134.205 229.746 133.925C229.514 133.645 229.223 133.421 228.893 133.27C228.563 133.118 228.203 133.043 227.84 133.05Z" fill="white"/>
<path d="M105.254 166.931C105.254 166.931 120.505 169.203 127.865 166.202C131.308 167.859 143.571 168.678 147.84 166.931C146.521 168.461 143.424 168.89 143.424 168.89H111.251C108.16 168.89 105.798 167.539 105.254 166.931Z" fill="#279EFF"/>
<path opacity="0.7" d="M105.254 166.931C105.254 166.931 120.505 169.203 127.865 166.202C131.308 167.859 143.571 168.678 147.84 166.931C146.521 168.461 143.424 168.89 143.424 168.89H111.251C108.16 168.89 105.798 167.539 105.254 166.931Z" fill="white"/>
</svg>
