<svg width="336" height="300" viewBox="0 0 336 300" fill="none" xmlns="http://www.w3.org/2000/svg">
<path d="M311.639 66.8119C313.549 66.0565 315.169 64.8165 316.299 63.2452C317.43 61.674 318.021 59.8404 318 57.9714C318 52.6968 313.562 48.3995 308.032 48.3737C302.502 48.3478 298.006 52.6127 297.984 57.8873C297.943 59.7723 298.527 61.6258 299.662 63.2141C300.797 64.8024 302.431 66.0543 304.36 66.8119C288.962 68.8894 289.664 83.8717 289.664 83.8717L326.075 84.0205C326.075 84.0205 326.906 68.8764 311.639 66.8119Z" fill="#EBEBEB"/>
<path d="M253.296 109.198C256.48 105.771 255.958 100.683 252.13 97.8329C248.302 94.9828 242.619 95.4503 239.435 98.8772C236.252 102.304 236.774 107.392 240.602 110.243C244.43 113.093 250.113 112.625 253.296 109.198Z" fill="#E0E0E0"/>
<path d="M252.45 95.2103C252.292 95.5988 252.009 95.9366 251.637 96.1811C251.264 96.4255 250.819 96.5656 250.358 96.5836C249.897 96.6016 249.44 96.4967 249.045 96.2822C248.65 96.0677 248.335 95.7532 248.14 95.3784C247.945 95.0037 247.878 94.5856 247.949 94.177C248.019 93.7683 248.223 93.3875 248.535 93.0827C248.847 92.778 249.253 92.5628 249.702 92.4646C250.15 92.3664 250.621 92.3895 251.055 92.531C251.637 92.7206 252.111 93.1095 252.372 93.6119C252.634 94.1144 252.662 94.6894 252.45 95.2103Z" fill="#EBEBEB"/>
<path d="M203.524 166.293L234.528 176.39C235.901 176.837 237.019 177.754 237.637 178.94C238.255 180.125 238.321 181.481 237.822 182.71L237.449 183.629L196.091 170.159L196.465 169.241C196.964 168.012 197.988 167.011 199.312 166.458C200.636 165.905 202.151 165.845 203.524 166.293Z" fill="#E0E0E0"/>
<path d="M212.54 156.997C212.54 156.997 208.362 159.69 204.777 159.91C203.717 159.954 202.674 160.158 201.69 160.512C201.151 160.687 200.68 160.997 200.331 161.404C199.981 161.811 199.768 162.298 199.717 162.809C199.362 165.016 203.772 166.369 203.772 166.369L221.063 171.999L225.451 161.204L212.54 156.997Z" fill="#EBEBEB"/>
<path d="M236.193 176.93C236.193 176.93 238.477 177.908 239.807 176.16C240.172 175.679 240.376 175.115 240.396 174.535C240.417 173.954 240.253 173.379 239.923 172.879C239.391 172.081 238.733 171.355 237.971 170.724C235.376 168.497 234.104 164.032 234.104 164.032L221.2 159.825L216.812 170.627" fill="#EBEBEB"/>
<path d="M211.456 153.606L212.511 156.991L234.183 164.052L237.559 162.11L211.456 153.606Z" fill="#E0E0E0"/>
<path d="M244.566 131.936L228.101 126.604C227.156 126.298 226.112 126.736 225.77 127.583L225.524 128.191C225.182 129.038 225.671 129.972 226.617 130.279L243.081 135.61C244.027 135.916 245.071 135.478 245.413 134.632L245.659 134.023C246.001 133.177 245.511 132.242 244.566 131.936Z" fill="#EBEBEB"/>
<path d="M244.231 129.719L229.592 124.952C228.999 124.759 228.344 125.032 228.128 125.563L227.972 125.946C227.757 126.477 228.063 127.064 228.655 127.257L243.295 132.024C243.887 132.218 244.543 131.944 244.758 131.413L244.914 131.03C245.13 130.499 244.824 129.912 244.231 129.719Z" fill="#EBEBEB"/>
<path d="M244.786 126.02L231.817 121.797C231.465 121.682 231.075 121.845 230.946 122.16L230.853 122.391C230.724 122.707 230.906 123.056 231.259 123.171L244.227 127.395C244.58 127.51 244.97 127.347 245.098 127.031L245.192 126.8C245.32 126.484 245.138 126.135 244.786 126.02Z" fill="#EBEBEB"/>
<path d="M228.718 131.433C228.718 131.433 221.562 148.409 211.456 153.586L224.54 157.851L234.516 133.304L228.718 131.433Z" fill="#EBEBEB"/>
<path d="M239.908 135.077C239.908 135.077 233.54 152.325 237.559 162.11L224.135 157.742L234.089 133.194L239.908 135.077Z" fill="#EBEBEB"/>
<path d="M259.542 106.73C257.734 103.495 254.33 105.223 252.963 105.818C251.597 106.413 249.667 105.553 249.255 103.54C248.908 101.883 247.882 101.527 247.433 101.43C246.985 101.333 245.988 100.925 244.542 102C242.778 103.294 240.682 102.854 240.06 101.611C239.438 100.369 238.065 97.081 234.371 98.5306C234.371 98.5306 237.443 106.802 235.614 113.746C233.786 120.69 232.434 123.777 230.894 125.395L236.742 127.298L237.111 127.421L242.959 129.324C242.923 127.214 244.101 124.075 247.679 117.674C251.257 111.274 259.542 106.73 259.542 106.73Z" fill="#EBEBEB"/>
<path d="M234.595 176.432C234.559 176.523 227.554 174.322 218.959 171.52C210.364 168.717 203.41 166.381 203.446 166.291C203.483 166.2 210.48 168.4 219.082 171.203C227.684 174.005 234.631 176.348 234.595 176.432Z" fill="#E0E0E0"/>
<path d="M234.313 164.09C234.277 164.181 229.369 162.66 223.354 160.699C217.34 158.738 212.511 157.081 212.511 156.991C212.511 156.9 217.456 158.421 223.477 160.382C229.499 162.343 234.349 164.006 234.313 164.09Z" fill="#E0E0E0"/>
<path d="M237.559 162.11C237.559 162.2 231.653 160.362 224.446 158.02C217.239 155.677 211.434 153.696 211.434 153.606C211.434 153.515 217.34 155.353 224.547 157.702C231.754 160.052 237.595 162 237.559 162.11Z" fill="#E0E0E0"/>
<path d="M242.287 135.854C242.287 135.938 238.73 134.876 234.415 133.472C230.099 132.068 226.644 130.883 226.673 130.767C226.701 130.65 230.236 131.75 234.545 133.155C238.853 134.559 242.323 135.763 242.287 135.854Z" fill="#E0E0E0"/>
<path d="M243.783 132.178C243.747 132.268 240.219 131.2 235.911 129.796C231.602 128.392 228.133 127.207 228.169 127.097C228.205 126.987 231.725 128.075 236.041 129.479C240.356 130.883 243.812 132.094 243.783 132.178Z" fill="#E0E0E0"/>
<path d="M244 129.641C244 129.725 240.761 128.767 236.843 127.492C232.925 126.217 229.788 125.111 229.824 125.026C232.246 125.633 234.633 126.35 236.973 127.175C239.36 127.89 241.706 128.713 244 129.641Z" fill="#E0E0E0"/>
<path d="M244.209 127.44C241.982 126.899 239.788 126.251 237.638 125.499C235.445 124.843 233.293 124.082 231.19 123.22C233.419 123.759 235.612 124.408 237.761 125.162C239.956 125.814 242.109 126.575 244.209 127.44Z" fill="#E0E0E0"/>
<path d="M244.846 125.952C242.615 125.413 240.419 124.765 238.267 124.01C236.075 123.353 233.922 122.593 231.819 121.732C234.05 122.271 236.246 122.919 238.397 123.674C240.591 124.33 242.743 125.09 244.846 125.952Z" fill="#E0E0E0"/>
<path d="M234.356 98.5303C234.356 98.5303 234.45 98.4721 234.646 98.3944L235.014 98.2585L235.549 98.1485C235.789 98.1184 236.03 98.1011 236.272 98.0967C236.546 98.1081 236.818 98.1494 237.082 98.2196C237.726 98.4109 238.297 98.7608 238.73 99.2293C239.245 99.7811 239.667 100.398 239.98 101.061C240.121 101.418 240.335 101.75 240.609 102.038C240.916 102.314 241.309 102.502 241.737 102.575C242.205 102.65 242.686 102.63 243.145 102.518C243.603 102.406 244.029 102.205 244.39 101.928C244.814 101.601 245.305 101.35 245.836 101.19C246.408 101.022 247.031 101.062 247.571 101.3C247.849 101.358 248.11 101.468 248.337 101.624C248.571 101.783 248.771 101.978 248.93 102.2C249.221 102.623 249.416 103.094 249.501 103.585C249.576 104.006 249.755 104.407 250.023 104.76C250.292 105.112 250.644 105.407 251.055 105.623C251.437 105.815 251.876 105.899 252.313 105.863C252.728 105.798 253.128 105.667 253.491 105.475C254.207 105.15 254.971 104.919 255.761 104.789C256.429 104.683 257.116 104.744 257.749 104.963C258.006 105.061 258.249 105.187 258.471 105.339C258.648 105.472 258.812 105.617 258.963 105.772L259.288 106.167L259.476 106.478C259.57 106.652 259.621 106.743 259.606 106.75C259.592 106.756 259.527 106.672 259.411 106.517L259.194 106.219L258.855 105.856C258.699 105.719 258.535 105.59 258.363 105.468C258.154 105.331 257.926 105.22 257.684 105.138C257.085 104.949 256.441 104.909 255.819 105.022C255.063 105.166 254.333 105.403 253.65 105.727L253.064 105.986C252.837 106.081 252.592 106.138 252.342 106.154C251.841 106.201 251.337 106.11 250.896 105.895C250.435 105.661 250.039 105.338 249.735 104.95C249.431 104.561 249.228 104.117 249.139 103.65C248.958 102.769 248.51 101.837 247.404 101.598C246.952 101.406 246.435 101.376 245.959 101.514C245.479 101.651 245.035 101.87 244.65 102.161C244.248 102.47 243.774 102.694 243.262 102.816C242.75 102.938 242.214 102.955 241.694 102.866C241.199 102.774 240.747 102.548 240.4 102.219C240.233 102.062 240.094 101.883 239.988 101.689L239.727 101.151C239.437 100.506 239.042 99.9018 238.556 99.3587C238.162 98.9138 237.64 98.5736 237.046 98.375C236.811 98.3036 236.569 98.2559 236.323 98.2326C236.104 98.219 235.884 98.219 235.665 98.2326L235.144 98.3103L234.768 98.4138C234.639 98.4729 234.5 98.5123 234.356 98.5303Z" fill="#E0E0E0"/>
<path d="M100.625 127.201C102.582 126.145 104.687 125.327 106.885 124.768L108.179 119.221L118.646 119.053L120.15 124.561C122.37 125.047 124.507 125.798 126.504 126.793L131.795 123.693L139.328 130.204L136.053 135.045C137.233 136.797 138.147 138.682 138.771 140.65L144.966 141.808L145.154 151.179L139.002 152.525C138.455 154.513 137.614 156.426 136.501 158.214L139.971 162.951L132.699 169.695L127.292 166.757C125.335 167.815 123.23 168.636 121.032 169.197L119.738 174.743L109.271 174.905L107.767 169.404C105.547 168.915 103.41 168.162 101.413 167.165L96.1215 170.271L88.5891 163.76L91.871 158.92C90.6878 157.166 89.7713 155.279 89.1458 153.308L82.9507 152.156L82.77 142.785L88.9144 141.433C89.4614 139.447 90.3026 137.536 91.4156 135.75L87.9458 131.013L95.2179 124.269L100.625 127.201ZM106.206 139.692C104.665 141.124 103.634 142.933 103.241 144.889C102.849 146.846 103.113 148.863 104 150.686C104.887 152.508 106.358 154.054 108.226 155.129C110.095 156.204 112.277 156.758 114.497 156.723C116.717 156.688 118.876 156.064 120.701 154.931C122.525 153.798 123.934 152.206 124.748 150.356C125.563 148.507 125.747 146.483 125.277 144.54C124.807 142.597 123.705 140.822 122.109 139.439C121.047 138.52 119.793 137.796 118.418 137.311C117.044 136.826 115.576 136.588 114.099 136.612C112.621 136.635 111.164 136.919 109.809 137.448C108.455 137.976 107.23 138.739 106.206 139.692Z" fill="#E0E0E0"/>
<path d="M29.4726 227.132C30.8281 226.401 32.2868 225.835 33.8099 225.45L34.699 221.625L41.9277 221.515L42.9687 225.307C44.4979 225.647 45.9707 226.165 47.3493 226.848L50.9998 224.712L56.19 229.197L53.9057 232.543C54.7206 233.757 55.3503 235.063 55.778 236.426L60.0502 237.222L60.1803 243.694L55.937 244.626C55.5624 245.996 54.9837 247.315 54.2166 248.548L56.6093 251.816L51.5925 256.469L47.8625 254.444C46.5064 255.172 45.0478 255.736 43.5253 256.12L42.6362 259.945L35.4074 260.061L34.3665 256.262C32.8362 255.926 31.363 255.408 29.9859 254.722L26.3715 256.864L21.1813 252.373L23.4439 249.033C22.6275 247.819 21.9954 246.513 21.5644 245.15L17.2922 244.354L17.1621 237.882L21.4054 236.95C21.7813 235.58 22.3598 234.261 23.1258 233.028L20.7331 229.792L25.7498 225.139L29.4799 227.165L29.4726 227.132ZM33.3255 235.74C32.2597 236.726 31.5447 237.974 31.2708 239.324C30.997 240.675 31.1767 242.067 31.7872 243.326C32.3977 244.585 33.4115 245.654 34.7005 246.397C35.9894 247.14 37.4956 247.524 39.0284 247.5C40.5611 247.477 42.0517 247.047 43.3114 246.265C44.5711 245.482 45.5434 244.383 46.1053 243.106C46.6672 241.829 46.7934 240.432 46.468 239.091C46.1425 237.75 45.3801 236.525 44.2771 235.572C42.7985 234.296 40.8154 233.598 38.7625 233.629C36.7096 233.661 34.7544 234.42 33.3255 235.74Z" fill="#EBEBEB"/>
<path d="M25.6847 84.5062C26.5057 84.0582 27.3909 83.712 28.3159 83.4772L28.8581 81.1474L33.2604 81.0762L33.8965 83.3931C34.8287 83.6002 35.7258 83.918 36.5639 84.338L38.7904 83.0436L41.9638 85.7877L40.5831 87.8198C41.0754 88.5532 41.4593 89.3407 41.7252 90.1626L44.3348 90.648L44.4071 94.5894L41.8264 95.1589C41.5948 95.9934 41.2399 96.7965 40.771 97.547L42.2168 99.5403L39.159 102.381L36.8964 101.165C36.073 101.607 35.1884 101.951 34.2652 102.187L33.723 104.524L29.3207 104.588L28.6846 102.278C27.7502 102.071 26.8507 101.753 26.01 101.333L23.7835 102.627L20.6173 99.8704L21.998 97.8318C21.4943 97.102 21.1051 96.3137 20.8414 95.489L18.2319 95.0036L18.1523 91.0557L20.7402 90.4927C20.9695 89.6564 21.3219 88.8512 21.7884 88.0981L20.3427 86.1048L23.4004 83.2701L25.6775 84.5062H25.6847ZM28.0268 89.7549C27.3774 90.3571 26.942 91.1181 26.7757 91.9418C26.6094 92.7655 26.7196 93.6148 27.0923 94.3824C27.4651 95.15 28.0837 95.8015 28.87 96.2543C29.6563 96.7072 30.5749 96.9412 31.5096 96.9267C32.4444 96.9123 33.3534 96.65 34.1217 96.173C34.89 95.6961 35.4831 95.0259 35.826 94.2472C36.1689 93.4685 36.2462 92.6162 36.0482 91.7982C35.8501 90.9802 35.3856 90.2331 34.7134 89.6514C33.8106 88.8726 32.5997 88.4461 31.3462 88.4655C30.0927 88.4849 28.8989 88.9486 28.0268 89.7549Z" fill="#EBEBEB"/>
<path d="M167.997 16.3835C168.625 20.1462 167.992 23.9911 166.177 27.4314C164.363 30.8716 161.449 33.7524 157.804 35.7089C154.16 37.6654 149.949 38.6096 145.704 38.422C141.46 38.2344 137.374 36.9233 133.962 34.6549C130.551 32.3864 127.968 29.2626 126.541 25.6791C125.114 22.0955 124.907 18.2135 125.946 14.5244C126.985 10.8354 129.223 7.50538 132.377 4.9561C135.532 2.40681 139.46 0.752926 143.665 0.203887C149.287 -0.535413 155.008 0.753209 159.57 3.78678C164.132 6.82035 167.163 11.3509 167.997 16.3835Z" fill="#F5F5F5"/>
<path d="M162.944 17.0307C163.417 19.899 162.928 22.8285 161.541 25.4482C160.153 28.0679 157.928 30.2602 155.148 31.7475C152.368 33.2347 149.158 33.9501 145.924 33.8031C142.69 33.6561 139.577 32.6534 136.979 30.9217C134.382 29.19 132.416 26.8074 131.332 24.0753C130.248 21.3432 130.093 18.3846 130.888 15.5738C131.683 12.7631 133.391 10.2267 135.797 8.28557C138.203 6.34448 141.197 5.08602 144.402 4.66948C146.526 4.39084 148.691 4.48957 150.772 4.96002C152.854 5.43047 154.811 6.26344 156.533 7.41133C158.255 8.55922 159.708 9.99956 160.807 11.6501C161.907 13.3006 162.633 15.1289 162.944 17.0307Z" fill="#EBEBEB"/>
<path d="M162.865 16.5905C162.556 16.0548 162.314 15.4905 162.142 14.9079C161.525 13.3959 160.65 11.9789 159.547 10.7076C158.79 9.84079 157.93 9.05082 156.981 8.35188C155.887 7.55809 154.684 6.89258 153.402 6.3715C151.99 5.79952 150.493 5.41368 148.957 5.22598C148.145 5.12731 147.325 5.08404 146.506 5.09655C145.663 5.11594 144.822 5.18948 143.991 5.31659C143.161 5.45216 142.345 5.64253 141.547 5.88611C140.773 6.12423 140.022 6.41636 139.299 6.75981C137.929 7.41056 136.67 8.23445 135.562 9.20617C134.559 10.0885 133.687 11.0825 132.967 12.1638C132.345 13.1128 131.841 14.1197 131.463 15.1667C130.919 16.7008 130.643 18.301 130.646 19.9106C130.72 20.5107 130.72 21.1161 130.646 21.7162C130.353 21.1589 130.196 20.5523 130.184 19.9365C129.984 18.2627 130.136 16.5704 130.632 14.9467C130.973 13.8218 131.458 12.736 132.078 11.7108C132.805 10.5289 133.707 9.4404 134.759 8.47485C136.55 6.83536 138.739 5.58839 141.157 4.8312C142.015 4.55779 142.894 4.34148 143.788 4.18402C144.684 4.04827 145.59 3.97256 146.499 3.9575C147.384 3.94367 148.269 3.99563 149.145 4.11283C149.988 4.21911 150.819 4.38796 151.631 4.61763C152.411 4.83016 153.172 5.09407 153.908 5.4072C156.458 6.48908 158.652 8.14342 160.277 10.2093C161.367 11.5749 162.162 13.1116 162.619 14.7396C162.853 15.3328 162.936 15.9649 162.865 16.5905Z" fill="#E0E0E0"/>
<path d="M149.983 27.5602L150.438 30.0842L147.923 30.4401L147.482 27.9873C145.238 28.2483 142.958 27.9364 140.904 27.0877L141.793 24.1495C143.397 24.8455 145.175 25.1555 146.954 25.0491L146.282 21.2889C143.39 21.0818 140.123 20.7 139.545 17.4835C139.118 15.0954 140.687 12.772 144.605 11.8012L144.164 9.3031L146.672 8.94067L147.113 11.3935C148.928 11.227 150.762 11.4488 152.462 12.0407L151.682 14.9724C150.391 14.5177 149.013 14.2977 147.626 14.3252L148.349 18.1501C151.241 18.3313 154.457 18.7261 155.028 21.8973C155.397 24.2725 153.85 26.57 149.983 27.5602ZM145.696 17.9754L145.118 14.7847C143.838 15.2442 143.426 15.9756 143.556 16.7263C143.687 17.477 144.532 17.82 145.696 17.9754ZM150.959 22.7839C150.814 21.9944 150.012 21.6708 148.87 21.4896L149.426 24.5896C150.662 24.1495 151.11 23.5023 150.959 22.7839Z" fill="#E0E0E0"/>
<path d="M237.899 282.272C238.398 285.3 237.883 288.393 236.418 291.159C234.954 293.924 232.606 296.239 229.671 297.809C226.737 299.379 223.348 300.135 219.933 299.98C216.519 299.825 213.233 298.767 210.491 296.939C207.748 295.112 205.673 292.596 204.528 289.712C203.384 286.828 203.22 283.705 204.059 280.738C204.897 277.771 206.7 275.093 209.24 273.044C211.779 270.994 214.94 269.665 218.323 269.225C220.566 268.93 222.851 269.034 225.049 269.53C227.246 270.026 229.313 270.905 231.131 272.117C232.949 273.328 234.483 274.849 235.644 276.592C236.805 278.334 237.571 280.265 237.899 282.272Z" fill="#F5F5F5"/>
<path d="M233.829 282.797C234.209 285.103 233.817 287.459 232.701 289.567C231.585 291.674 229.796 293.437 227.561 294.633C225.325 295.83 222.744 296.406 220.142 296.288C217.541 296.17 215.037 295.365 212.948 293.972C210.858 292.58 209.277 290.664 208.404 288.467C207.531 286.27 207.406 283.891 208.044 281.63C208.683 279.369 210.055 277.329 211.989 275.767C213.923 274.205 216.331 273.192 218.909 272.856C220.618 272.631 222.359 272.71 224.034 273.088C225.708 273.466 227.283 274.136 228.669 275.059C230.054 275.982 231.223 277.141 232.109 278.468C232.994 279.796 233.579 281.267 233.829 282.797Z" fill="#EBEBEB"/>
<path d="M233.764 282.435C233.525 281.999 233.333 281.544 233.193 281.075C232.7 279.859 231.997 278.719 231.111 277.697C229.807 276.19 228.109 274.992 226.167 274.209C225.613 273.982 225.04 273.793 224.453 273.646C223.843 273.483 223.22 273.364 222.588 273.29C221.937 273.206 221.28 273.172 220.622 273.186C219.944 273.2 219.267 273.258 218.598 273.361C217.931 273.469 217.273 273.623 216.632 273.821C216.01 274.01 215.405 274.244 214.825 274.519C214.261 274.788 213.72 275.093 213.205 275.432C212.714 275.754 212.25 276.109 211.818 276.493C210.297 277.828 209.164 279.474 208.514 281.289C208.075 282.521 207.856 283.808 207.863 285.101C207.916 285.583 207.916 286.069 207.863 286.551C207.62 286.105 207.489 285.617 207.48 285.12C207.325 283.774 207.447 282.414 207.842 281.108C208.622 278.573 210.308 276.336 212.642 274.74C213.188 274.368 213.766 274.035 214.369 273.743C214.994 273.441 215.644 273.183 216.314 272.973C217.006 272.757 217.717 272.59 218.439 272.474C219.156 272.365 219.881 272.302 220.608 272.287C221.319 272.277 222.03 272.32 222.733 272.416C223.411 272.501 224.081 272.635 224.735 272.817C225.364 272.992 225.978 273.208 226.571 273.465C227.662 273.933 228.678 274.53 229.593 275.238C230.383 275.857 231.089 276.556 231.697 277.322C232.57 278.426 233.208 279.666 233.576 280.978C233.757 281.446 233.821 281.943 233.764 282.435Z" fill="#E0E0E0"/>
<path d="M223.405 291.255L223.767 293.287L221.75 293.572L221.396 291.631C219.59 291.836 217.757 291.583 216.104 290.899L216.827 288.537C218.117 289.095 219.547 289.343 220.977 289.255L220.434 286.233C218.107 286.065 215.483 285.754 215.02 283.172C214.673 281.23 215.938 279.379 219.068 278.596L218.714 276.59L220.731 276.299L221.085 278.273C222.544 278.136 224.018 278.311 225.386 278.784L224.772 281.159C223.733 280.8 222.624 280.63 221.511 280.661L222.061 283.735C224.388 283.884 226.976 284.201 227.432 286.751C227.764 288.608 226.521 290.459 223.405 291.255ZM219.957 283.547L219.495 280.959C218.461 281.327 218.128 281.916 218.237 282.512C218.345 283.107 219.018 283.424 219.957 283.547ZM224.215 287.43C224.099 286.783 223.449 286.537 222.531 286.388L222.979 288.887C223.969 288.524 224.316 287.993 224.215 287.411V287.43Z" fill="#E0E0E0"/>
<path d="M304.396 154.519C304.396 154.519 304.396 153.871 304.324 152.661C304.324 152.046 304.28 151.283 304.251 150.377C304.222 149.471 304.201 148.435 304.071 147.218C303.94 146.002 303.854 144.694 303.724 143.219C303.594 141.743 303.297 140.151 303.059 138.417C302.415 134.43 301.549 130.475 300.463 126.567C300.189 125.46 299.777 124.347 299.43 123.188L298.866 121.441L298.584 120.548L298.251 119.655L296.856 115.985C296.632 115.338 296.358 114.736 296.076 114.108C295.794 113.481 295.519 112.814 295.237 112.199C292.77 106.619 289.796 101.23 286.346 96.0843C277.936 83.5095 266.931 72.4817 253.918 63.5892C238.109 52.8136 219.703 45.4996 200.172 42.2322L196.218 41.585L192.199 41.1255C189.517 40.7631 186.784 40.6595 184.038 40.4783C182.664 40.3683 181.276 40.3942 179.888 40.3489L177.806 40.3036C177.084 40.3036 176.411 40.2647 175.71 40.3036C172.913 40.3812 170.093 40.3683 167.26 40.6207C161.511 40.9879 155.797 41.7036 150.157 42.7629C147.308 43.3518 144.431 43.9019 141.598 44.7044C138.706 45.3516 135.938 46.29 133.089 47.1378C121.536 50.8977 110.649 56.1289 100.763 62.6702C95.6859 66.0743 90.8749 69.7849 86.363 73.7759C81.8214 77.8894 77.6087 82.2838 73.7561 86.9267L70.9152 90.5056L68.2478 94.214C67.3297 95.4372 66.5635 96.7509 65.7249 98.0194L64.4888 99.961L63.3467 101.903L62.2118 103.889C61.8287 104.537 61.4889 105.216 61.1275 105.902L59.0673 109.986C58.4553 111.375 57.8384 112.769 57.2167 114.167L56.7541 115.215L56.3493 116.283L55.5397 118.438L54.7373 120.58L54.0144 122.761L53.2915 124.942L52.9518 126.043L52.6626 127.149C52.2867 128.629 51.906 130.111 51.5205 131.595C51.2265 133.097 50.9277 134.607 50.6241 136.126C48.4026 148.305 48.4026 160.726 50.6241 172.905C50.9277 174.413 51.2241 175.915 51.5277 177.435C51.8313 178.956 52.2506 180.406 52.6626 181.882L52.9518 182.995C53.053 183.364 53.1759 183.726 53.2915 184.088L54.0144 186.276L54.7373 188.457L55.5397 190.573L56.3493 192.715L56.7541 193.783L57.2167 194.832L59.0601 199.019L61.1275 203.103L61.6407 204.119L62.2118 205.115L63.3467 207.096L64.4888 209.076L65.7249 211.018C66.5635 212.312 67.3225 213.607 68.2478 214.823C69.1731 216.04 70.026 217.295 70.9079 218.532L73.7561 222.111C77.6059 226.763 81.8188 231.167 86.363 235.287C90.8765 239.277 95.6874 242.987 100.763 246.393C105.768 249.689 111.024 252.668 116.492 255.311C121.862 257.858 127.416 260.079 133.118 261.958C135.967 262.805 138.764 263.724 141.634 264.391C144.46 265.174 147.345 265.718 150.185 266.333C155.829 267.389 161.545 268.103 167.296 268.468C170.122 268.721 172.949 268.708 175.746 268.785C176.469 268.818 177.141 268.785 177.843 268.785L179.924 268.74C181.312 268.695 182.7 268.74 184.074 268.611C186.821 268.404 189.553 268.3 192.235 267.964L196.254 267.504L200.208 266.857C219.739 263.589 238.145 256.275 253.954 245.5C266.965 236.603 277.97 225.573 286.382 212.998C289.826 207.853 292.797 202.466 295.266 196.89L296.105 194.981C296.386 194.333 296.661 193.731 296.885 193.097L298.28 189.434C298.389 189.13 298.505 188.832 298.613 188.541C298.721 188.25 298.808 187.946 298.902 187.648C299.09 187.059 299.271 186.47 299.459 185.894C299.806 184.742 300.218 183.629 300.492 182.516C301.578 178.609 302.444 174.656 303.088 170.672C303.326 168.938 303.586 167.339 303.753 165.87C303.919 164.401 303.998 163.061 304.1 161.871C304.201 160.68 304.259 159.625 304.28 158.712C304.302 157.8 304.331 157.043 304.353 156.428C304.396 155.205 304.425 154.577 304.425 154.577C304.425 154.577 304.425 155.224 304.425 156.428C304.425 157.043 304.389 157.806 304.367 158.712C304.345 159.618 304.331 160.654 304.208 161.871C304.085 163.087 303.998 164.401 303.875 165.877C303.753 167.352 303.456 168.944 303.225 170.685C302.572 174.658 301.694 178.598 300.594 182.49C300.319 183.603 299.914 184.716 299.56 185.875C299.379 186.451 299.198 187.04 299.01 187.629L298.729 188.528C298.613 188.819 298.505 189.117 298.389 189.415L297.023 193.065C296.799 193.712 296.524 194.32 296.242 194.948C295.96 195.576 295.685 196.243 295.403 196.89C292.943 202.479 289.977 207.88 286.534 213.037C278.127 225.647 267.114 236.709 254.084 245.629C238.25 256.443 219.81 263.79 200.237 267.083L196.276 267.73L192.249 268.196C189.56 268.559 186.813 268.662 184.059 268.844C182.686 268.954 181.298 268.928 179.903 268.98L177.814 269.031C177.091 269.031 176.418 269.064 175.717 269.031C172.913 268.947 170.079 268.96 167.245 268.714C161.48 268.349 155.749 267.636 150.091 266.579C147.2 265.983 144.352 265.433 141.511 264.637C138.619 263.99 135.822 263.051 132.974 262.197C121.382 258.423 110.46 253.17 100.546 246.6C95.4513 243.186 90.6211 239.467 86.0883 235.468C81.534 231.333 77.3093 226.917 73.4452 222.253C72.491 221.062 71.5441 219.865 70.5537 218.667L67.8791 214.946C66.9611 213.723 66.1948 212.403 65.3491 211.128L64.1057 209.186L62.9636 207.199L61.8287 205.213L61.3227 204.261L60.8022 203.245L58.7348 199.148C58.1203 197.75 57.4987 196.353 56.8842 194.948L56.4216 193.9L56.0168 192.825L55.1999 190.677L54.3686 188.535L53.6457 186.341L52.9229 184.153C52.8072 183.784 52.6843 183.422 52.5831 183.053L52.294 181.94C51.9108 180.451 51.5711 178.963 51.1518 177.474C50.7326 175.986 50.5518 174.465 50.2482 172.944C48.0162 160.729 48.0162 148.27 50.2482 136.054C50.5446 134.54 50.8482 133.039 51.1518 131.524C51.4554 130.01 51.8747 128.547 52.294 127.065L52.5759 125.952L52.9229 124.852L53.6457 122.658L54.3686 120.47L55.1782 118.322L55.9951 116.173L56.3999 115.099L56.8625 114.05C57.477 112.646 58.0986 111.248 58.7131 109.85C59.3275 108.452 60.0938 107.119 60.7805 105.76C61.113 105.067 61.5034 104.401 61.872 103.741L63.0142 101.754L64.1563 99.7668L65.3924 97.8253C66.2382 96.5309 67.0044 95.2365 67.9297 94.0069L70.5971 90.2921L73.4886 86.7002C77.351 82.0386 81.5758 77.6268 86.1317 73.4976C90.6659 69.4984 95.496 65.7773 100.589 62.3596C110.494 55.8093 121.401 50.5695 132.974 46.8013C135.822 45.9535 138.634 45.0345 141.504 44.3614C144.345 43.5848 147.236 43.067 150.084 42.4199C155.743 41.3784 161.474 40.68 167.238 40.3294C170.072 40.0835 172.905 40.0965 175.71 40.0188C176.433 40.0188 177.112 40.0188 177.806 40.0188L179.903 40.0641C181.291 40.1159 182.679 40.0641 184.059 40.2C186.806 40.4071 189.553 40.5107 192.242 40.8472L196.269 41.3132L200.23 41.9604C219.804 45.2414 238.246 52.5849 254.077 63.4016C267.105 72.3217 278.117 83.3804 286.526 95.9873C289.973 101.155 292.942 106.566 295.403 112.167C295.685 112.814 295.96 113.461 296.242 114.076C296.524 114.691 296.799 115.325 297.015 115.959C297.497 117.215 297.96 118.44 298.403 119.635C298.519 119.933 298.627 120.231 298.736 120.528L299.018 121.422C299.206 122.017 299.394 122.599 299.574 123.175C299.921 124.34 300.333 125.454 300.608 126.56C301.687 130.475 302.541 134.437 303.167 138.43C303.398 140.164 303.659 141.769 303.818 143.238C303.977 144.707 304.049 146.047 304.15 147.244C304.251 148.442 304.295 149.49 304.309 150.403C304.324 151.315 304.353 152.072 304.367 152.687C304.389 153.891 304.396 154.519 304.396 154.519Z" fill="#263238"/>
<path d="M249.682 183.046C252.356 183.176 254.366 180.393 253.845 178.037C253.325 175.681 251.012 173.934 248.532 173.015C246.053 172.096 243.349 171.818 240.754 171.222C236.888 170.315 233.268 168.712 230.116 166.511C226.964 164.31 224.346 161.557 222.422 158.421C221.043 156.029 219.911 153.529 219.039 150.952C215.389 137.187 210.365 117.506 209.1 109.837C205.904 90.0395 200.266 68.2941 168.662 70.3198C168.662 70.3198 147.648 73.8599 139.588 87.3536C132.497 99.2165 136.588 134.993 135.648 160.764L142.537 164.479L143.607 164.537C144.404 167.173 145.689 169.672 147.41 171.928C153.699 179.959 162.265 186.412 171.546 191.628C190.341 202.171 212.75 207.924 234.805 205.944C239.46 205.523 244.202 204.74 248.25 202.708C252.298 200.676 255.681 197.11 256.296 192.961C256.91 188.813 254.185 184.172 249.682 183.046Z" fill="#263238"/>
<path d="M164.455 77.6979L166.436 76.0088L187.825 83.6909C189.318 83.7649 190.725 84.3382 191.768 85.297C192.811 86.2559 193.414 87.5305 193.457 88.8683L193.269 151.192C193.269 155.418 192.351 159.081 189.503 162.447L186.503 165.993C179.657 174.083 165.583 173.416 160.168 164.505C159.849 163.999 159.606 163.457 159.445 162.893C159.307 162.436 159.201 161.971 159.127 161.502C158.491 156.486 158.455 152.137 158.455 152.137C158.072 146.636 157.949 144.371 157.942 144.429C157.935 144.487 144.858 143.076 141.316 128.042C139.552 120.561 139.87 110.271 140.383 100.142C141.012 86.1502 151.87 77.685 164.455 77.6979Z" fill="#FFBF9D"/>
<path d="M168.835 110.426C168.858 110.933 169.101 111.412 169.513 111.76C169.926 112.109 170.474 112.299 171.04 112.29C171.32 112.301 171.599 112.262 171.861 112.174C172.124 112.086 172.363 111.952 172.566 111.779C172.768 111.606 172.93 111.398 173.04 111.168C173.151 110.937 173.208 110.689 173.209 110.439C173.188 109.931 172.946 109.45 172.533 109.1C172.121 108.751 171.572 108.56 171.004 108.569C170.724 108.558 170.445 108.598 170.182 108.687C169.92 108.775 169.681 108.911 169.478 109.084C169.276 109.257 169.114 109.466 169.004 109.696C168.893 109.927 168.836 110.175 168.835 110.426Z" fill="#263238"/>
<path d="M146.751 110.426C146.774 110.927 147.012 111.401 147.417 111.749C147.821 112.096 148.36 112.29 148.92 112.29C149.199 112.3 149.478 112.26 149.74 112.172C150.002 112.084 150.241 111.949 150.443 111.777C150.646 111.604 150.807 111.396 150.918 111.167C151.029 110.937 151.087 110.689 151.089 110.439C151.068 109.931 150.825 109.45 150.413 109.1C150.001 108.751 149.452 108.56 148.884 108.569C148.607 108.562 148.331 108.605 148.072 108.695C147.814 108.785 147.578 108.921 147.379 109.094C147.181 109.267 147.023 109.474 146.915 109.703C146.807 109.932 146.751 110.178 146.751 110.426Z" fill="#263238"/>
<path d="M142.567 104.168C142.848 104.414 144.432 103.249 146.766 103.145C149.101 103.042 150.88 104.019 151.104 103.747C151.219 103.63 150.923 103.184 150.15 102.731C149.103 102.149 147.881 101.871 146.651 101.935C145.434 101.985 144.266 102.382 143.318 103.067C142.646 103.592 142.429 104.064 142.567 104.168Z" fill="#263238"/>
<path d="M166.277 104.401C166.587 104.614 168.033 103.307 170.346 102.996C172.66 102.685 174.532 103.482 174.741 103.197C174.843 103.067 174.496 102.653 173.672 102.271C172.564 101.788 171.317 101.623 170.101 101.799C168.898 101.962 167.784 102.463 166.92 103.229C166.291 103.805 166.139 104.29 166.277 104.401Z" fill="#263238"/>
<path d="M158.115 119.616C158.115 119.493 156.67 119.337 154.284 119.176C153.684 119.143 153.113 119.066 152.99 118.703C152.911 118.154 153.02 117.597 153.301 117.105L154.841 112.956C156.966 107.054 158.455 102.213 158.209 102.135C157.964 102.058 156.005 106.782 153.872 112.684C153.366 114.14 152.875 115.525 152.426 116.852C152.088 117.516 152.022 118.265 152.238 118.968C152.335 119.153 152.478 119.315 152.656 119.441C152.834 119.568 153.043 119.657 153.265 119.7C153.599 119.766 153.942 119.794 154.284 119.784C156.641 119.79 158.115 119.732 158.115 119.616Z" fill="#263238"/>
<path d="M157.884 144.448C165.875 144.201 173.633 141.972 180.293 138.009C180.293 138.009 175.175 148.765 158.151 148.105L157.884 144.448Z" fill="#FF9A6C"/>
<path d="M159.388 124.612C159.804 124.092 160.362 123.675 161.008 123.401C161.654 123.126 162.368 123.004 163.082 123.046C163.599 123.063 164.107 123.175 164.576 123.373C165.044 123.571 165.463 123.851 165.807 124.198C166.139 124.532 166.349 124.95 166.407 125.395C166.465 125.839 166.369 126.289 166.132 126.683C165.779 127.076 165.302 127.366 164.764 127.514C164.226 127.663 163.65 127.664 163.111 127.518C161.985 127.219 160.938 126.722 160.031 126.055C159.751 125.901 159.506 125.701 159.308 125.466C159.215 125.354 159.162 125.22 159.154 125.081C159.146 124.941 159.185 124.803 159.265 124.683" fill="#FF9A6C"/>
<path d="M165.077 120.755C164.693 120.755 164.816 123.02 162.734 124.729C160.653 126.437 157.942 126.314 157.935 126.631C157.935 126.774 158.563 127.046 159.706 127.02C161.193 126.975 162.615 126.459 163.718 125.563C164.778 124.706 165.423 123.513 165.518 122.237C165.561 121.286 165.243 120.735 165.077 120.755Z" fill="#263238"/>
<path d="M164.043 96.2331C164.368 96.7638 166.631 96.1748 169.392 96.0972C172.153 96.0195 174.452 96.3819 174.741 95.8254C174.857 95.56 174.387 95.0876 173.404 94.6604C172.109 94.155 170.702 93.9203 169.29 93.9741C167.879 94.0279 166.5 94.3689 165.257 94.9711C164.325 95.4629 163.898 95.9872 164.043 96.2331Z" fill="#263238"/>
<path d="M142.899 95.1782C143.34 95.6377 144.923 95.0747 146.853 94.9582C148.783 94.8417 150.467 95.12 150.8 94.6087C150.951 94.3563 150.662 93.8903 149.925 93.4761C148.933 92.9805 147.799 92.7596 146.666 92.8414C145.534 92.9232 144.454 93.304 143.564 93.9356C142.906 94.4599 142.703 94.9582 142.899 95.1782Z" fill="#263238"/>
<path d="M193.001 115.487C193.001 115.487 181.037 118.82 174.264 92.3757C171.944 83.3151 162.583 76.0084 162.583 76.0084L166.378 74.9858C166.378 74.9858 189.979 80.9399 190.377 81.2053C190.775 81.4706 196.333 92.1362 196.333 92.1362L193.001 115.487Z" fill="#263238"/>
<path d="M190.052 114.503C189.994 113.37 191.302 110.62 192.538 110.413C195.835 109.798 201.842 109.765 202.326 117.331C202.977 127.686 191.259 126.12 191.215 125.822C191.172 125.524 190.261 118.399 190.052 114.503Z" fill="#FFBF9D"/>
<path d="M194.498 121.732C194.541 121.693 194.707 121.848 195.054 121.971C195.544 122.128 196.083 122.109 196.558 121.92C197.751 121.46 198.669 119.674 198.604 117.81C198.579 116.922 198.332 116.051 197.881 115.26C197.751 114.945 197.537 114.663 197.259 114.437C196.981 114.212 196.646 114.05 196.283 113.966C196.048 113.923 195.804 113.955 195.592 114.057C195.381 114.158 195.216 114.323 195.127 114.522C194.989 114.82 195.076 115.021 195.018 115.04C194.96 115.059 194.758 114.878 194.823 114.451C194.875 114.2 195.02 113.972 195.235 113.804C195.541 113.575 195.935 113.461 196.334 113.487C196.807 113.551 197.255 113.721 197.634 113.983C198.014 114.244 198.312 114.588 198.502 114.982C199.052 115.85 199.355 116.825 199.384 117.823C199.442 119.907 198.372 121.92 196.731 122.437C196.426 122.533 196.101 122.566 195.779 122.535C195.458 122.504 195.149 122.408 194.874 122.256C194.534 121.978 194.454 121.751 194.498 121.732Z" fill="#FF9A6C"/>
<path d="M202.753 153.548C202.576 152.35 202.492 151.144 202.5 149.936C202.552 146.643 202.927 143.36 203.62 140.125C204.032 138.073 204.48 135.828 204.965 133.42C205.489 130.853 205.834 128.259 205.999 125.654C206.194 122.786 205.951 119.907 205.276 117.098C204.899 115.622 204.354 114.184 203.649 112.807C202.909 111.396 201.993 110.065 200.917 108.84C198.748 106.452 196.327 104.257 193.688 102.284C191.158 100.343 188.736 98.401 186.582 96.4271C182.745 92.9487 179.271 89.1643 176.202 85.1208C174.129 82.4014 172.251 79.5676 170.578 76.6362C169.985 75.6007 169.551 74.7853 169.269 74.2222C169.132 73.9504 169.024 73.7433 168.951 73.575C168.91 73.5048 168.876 73.4311 168.85 73.355C168.9 73.4203 168.944 73.4896 168.98 73.5621C169.067 73.7088 169.183 73.9245 169.327 74.2093C169.624 74.7594 170.05 75.5683 170.686 76.5974C172.4 79.5004 174.304 82.3098 176.39 85.0108C179.474 89.0251 182.956 92.7831 186.792 96.2394C188.96 98.181 191.36 100.123 193.89 102.064C196.562 104.042 199.012 106.249 201.206 108.652C202.298 109.895 203.227 111.245 203.974 112.678C204.689 114.073 205.239 115.53 205.615 117.027C206.282 119.861 206.513 122.764 206.302 125.654C206.123 128.26 205.766 130.853 205.232 133.42C204.733 135.828 204.271 138.073 203.852 140.118C203.138 143.342 202.729 146.613 202.63 149.897C202.63 151.062 202.63 151.968 202.709 152.577L202.76 153.276C202.771 153.366 202.768 153.458 202.753 153.548Z" fill="#455A64"/>
<path d="M206.468 154.525C206.288 153.328 206.203 152.121 206.215 150.913C206.269 147.618 206.646 144.332 207.343 141.096C207.755 139.044 208.203 136.798 208.687 134.391C209.208 131.823 209.554 129.23 209.721 126.625C209.917 123.757 209.674 120.878 208.998 118.069C208.622 116.592 208.077 115.155 207.372 113.778C206.632 112.367 205.715 111.036 204.639 109.811C202.457 107.423 200.024 105.227 197.375 103.255C194.844 101.313 192.423 99.3717 190.269 97.3978C186.43 93.9208 182.955 90.1362 179.888 86.0915C177.816 83.3721 175.938 80.5383 174.264 77.6069C173.672 76.5714 173.238 75.756 172.956 75.1929L172.631 74.5457C172.593 74.4748 172.561 74.4012 172.537 74.3257L172.667 74.5328C172.746 74.6881 172.862 74.8887 173.014 75.18C173.31 75.7365 173.737 76.539 174.373 77.5681C176.086 80.4711 177.991 83.2805 180.076 85.9815C183.159 89.9955 186.637 93.7535 190.471 97.2101C192.64 99.1517 195.04 101.093 197.577 103.035C200.249 105.013 202.699 107.219 204.892 109.623C205.982 110.867 206.911 112.217 207.661 113.649C208.375 115.043 208.925 116.501 209.302 117.998C209.965 120.832 210.196 123.734 209.989 126.625C209.809 129.23 209.452 131.824 208.919 134.391C208.42 136.798 207.957 139.044 207.538 141.089C206.824 144.314 206.415 147.588 206.316 150.875C206.316 152.033 206.316 152.939 206.389 153.547C206.389 153.845 206.432 154.078 206.439 154.246C206.464 154.337 206.474 154.431 206.468 154.525Z" fill="#455A64"/>
<path d="M123.858 169.417C118.878 172.264 113.312 176.879 110.673 181.616C105.902 190.198 72.4405 213.251 71.1321 218.836C68.1249 242.684 97.5892 242.374 109.517 229.618C115.69 223.017 129.294 198.281 129.294 198.281L123.858 169.417Z" fill="#455A64"/>
<path d="M85.9512 206.293C85.9512 206.293 108.071 174.413 112.408 169.954C119.052 163.132 130.596 160.401 130.596 160.401L133.082 202.203C133.234 201.627 110.225 227.954 110.225 227.954C110.225 227.954 88.7342 213.658 85.9512 206.293Z" fill="#455A64"/>
<path d="M99.6927 174.038L75.6428 215.153C74.4704 217.121 74.16 219.409 74.7723 221.571C75.3846 223.732 76.8755 225.612 78.9535 226.841L79.0547 226.9C88.2786 232.122 100.502 227.023 102.534 217.425L110.998 179.001L99.6927 174.038Z" fill="#FFBF9D"/>
<path d="M123.092 138.261L107.659 171.255L111.172 172.575L126.135 139.213L123.092 138.261Z" fill="#455A64"/>
<path d="M147.967 124.978C148.802 115.783 141.773 107.768 132.266 107.075C122.76 106.383 114.377 113.276 113.541 122.471C112.706 131.666 119.735 139.681 129.241 140.373C138.748 141.065 147.131 134.173 147.967 124.978Z" fill="#FFBF9D"/>
<path d="M148.024 123.732C147.913 123.389 147.855 123.034 147.851 122.677C147.851 122.502 147.851 122.308 147.8 122.101C147.749 121.894 147.721 121.661 147.67 121.408C147.586 120.836 147.461 120.27 147.294 119.713C146.884 118.2 146.242 116.745 145.386 115.39C144.296 113.635 142.844 112.082 141.106 110.814C139.069 109.318 136.65 108.296 134.065 107.837C133.368 107.721 132.663 107.647 131.955 107.617C131.593 107.617 131.232 107.572 130.863 107.578L129.757 107.643C129.576 107.643 129.388 107.643 129.201 107.675L128.644 107.759C128.275 107.824 127.921 107.869 127.523 107.94C126.766 108.11 126.022 108.326 125.297 108.588C124.55 108.849 123.825 109.158 123.128 109.513C122.774 109.701 122.406 109.914 122.087 110.115C121.731 110.306 121.393 110.523 121.075 110.762C120.4 111.24 119.762 111.759 119.167 112.315C118.571 112.902 118.02 113.525 117.519 114.179C116.461 115.533 115.64 117.024 115.083 118.6C114.517 120.243 114.206 121.948 114.158 123.667C114.155 125.38 114.418 127.086 114.938 128.734C115.448 130.307 116.226 131.8 117.244 133.161C118.177 134.467 119.345 135.626 120.7 136.591C121.014 136.826 121.345 137.042 121.69 137.238C122.037 137.439 122.369 137.659 122.716 137.84C123.415 138.196 124.139 138.51 124.885 138.779C125.605 139.039 126.344 139.255 127.097 139.426C127.466 139.504 127.82 139.549 128.217 139.607L128.767 139.698C128.955 139.698 129.143 139.698 129.323 139.737L130.429 139.801C130.798 139.801 131.152 139.801 131.521 139.762C132.232 139.738 132.94 139.666 133.639 139.549C136.245 139.094 138.689 138.079 140.759 136.591C142.535 135.329 144.033 133.782 145.176 132.029C146.071 130.678 146.755 129.223 147.207 127.705C147.392 127.152 147.535 126.587 147.634 126.016C147.684 125.764 147.742 125.537 147.778 125.324L147.851 124.748C147.862 124.389 147.93 124.034 148.053 123.693C148.14 124.045 148.162 124.408 148.118 124.767C148.118 124.942 148.118 125.143 148.118 125.356C148.118 125.57 148.068 125.809 148.039 126.068C147.975 126.661 147.866 127.249 147.713 127.828C147.338 129.427 146.7 130.967 145.819 132.398C144.689 134.28 143.165 135.949 141.33 137.316C139.167 138.967 136.578 140.111 133.798 140.643C133.055 140.783 132.301 140.874 131.543 140.914C131.16 140.914 130.769 140.966 130.379 140.966L129.193 140.914C128.998 140.914 128.796 140.914 128.601 140.876L128.008 140.791C127.61 140.733 127.205 140.688 126.801 140.61C125.155 140.256 123.571 139.701 122.095 138.96C121.719 138.766 121.372 138.539 120.989 138.313C120.61 138.098 120.25 137.858 119.912 137.594C118.44 136.568 117.172 135.328 116.16 133.925C115.054 132.459 114.211 130.847 113.659 129.149C112.467 125.571 112.523 121.753 113.818 118.205C114.42 116.506 115.31 114.899 116.456 113.441C117.004 112.74 117.603 112.072 118.249 111.442C118.898 110.848 119.588 110.293 120.316 109.778C120.663 109.52 121.027 109.283 121.408 109.067C121.784 108.853 122.131 108.626 122.536 108.419C123.294 108.044 124.082 107.717 124.892 107.442C125.674 107.175 126.476 106.958 127.292 106.795C127.69 106.717 128.095 106.678 128.499 106.614L129.092 106.536C129.291 106.516 129.492 106.505 129.692 106.504L130.87 106.452C131.268 106.452 131.651 106.491 132.034 106.504C132.79 106.546 133.542 106.639 134.282 106.782C137.02 107.31 139.565 108.445 141.685 110.083C144.859 112.546 147.014 115.895 147.8 119.59C147.936 120.17 148.025 120.758 148.068 121.35C148.068 121.609 148.125 121.842 148.133 122.062C148.14 122.282 148.133 122.476 148.133 122.651C148.161 123.014 148.125 123.379 148.024 123.732Z" fill="#263238"/>
<path d="M136.068 126.334C136.109 127.19 135.782 128.029 135.154 128.677C134.527 129.324 133.645 129.732 132.692 129.815C132.231 129.841 131.769 129.782 131.335 129.643C130.9 129.504 130.501 129.287 130.163 129.005C129.825 128.724 129.555 128.384 129.368 128.005C129.181 127.627 129.082 127.219 129.077 126.806C129.038 125.95 129.365 125.112 129.993 124.465C130.62 123.817 131.501 123.409 132.453 123.324C132.914 123.299 133.376 123.357 133.811 123.497C134.245 123.636 134.644 123.853 134.982 124.134C135.32 124.416 135.59 124.756 135.777 125.134C135.964 125.512 136.063 125.92 136.068 126.334Z" fill="#263238"/>
<path d="M137.282 117.7C136.848 118.147 134.181 116.283 130.393 116.354C126.605 116.425 123.844 118.295 123.432 117.849C123.229 117.655 123.677 116.846 124.877 115.979C126.473 114.868 128.43 114.254 130.451 114.231C132.43 114.2 134.362 114.773 135.93 115.856C137.101 116.697 137.499 117.493 137.282 117.7Z" fill="#263238"/>
<path d="M121.357 134.423C121.271 134.553 120.085 134.022 118.654 132.566C116.774 130.582 115.563 128.16 115.162 125.583C114.748 122.958 115.148 120.283 116.319 117.849C117.23 116.017 118.184 115.144 118.314 115.26C118.444 115.377 117.823 116.406 117.194 118.198C116.365 120.518 116.118 122.973 116.471 125.388C116.861 127.759 117.85 130.019 119.362 131.996C120.541 133.485 121.488 134.261 121.357 134.423Z" fill="white"/>
<path d="M125.991 137.012C125.966 137.112 125.908 137.203 125.824 137.273C125.74 137.342 125.634 137.387 125.521 137.401C125.17 137.461 124.807 137.403 124.502 137.239C124.178 137.087 123.923 136.84 123.779 136.54C123.723 136.448 123.698 136.343 123.707 136.239C123.716 136.134 123.758 136.034 123.829 135.951C124.118 135.718 124.639 135.86 125.123 136.087C125.608 136.313 126.02 136.656 125.991 137.012Z" fill="white"/>
<path d="M102.375 168.899C102.375 168.899 109.314 152.435 110.326 151.58C111.338 150.726 121.581 143.024 121.581 143.024C122.652 142.869 123.749 143.004 124.733 143.413C125.738 143.937 128.181 147.393 129.157 148.81C129.288 149.002 129.375 149.215 129.414 149.437C129.452 149.66 129.441 149.886 129.381 150.105L128.268 153.341C128.268 153.341 129.605 155.224 129.287 156.577C129.064 157.466 128.693 158.321 128.188 159.113C128.87 160.292 129.035 161.656 128.651 162.938C128.131 164.14 127.124 165.122 125.832 165.689C125.832 165.689 125.037 169.119 124.935 169.766C124.834 170.413 121.061 171.954 120.671 171.857C120.28 171.759 117.533 170.711 117.533 170.711C117.533 170.711 116.261 176.238 114.671 177.487C113.609 178.261 112.345 178.781 110.998 179.001L109.032 187.81L96.8374 179.474L102.375 168.899Z" fill="#FFBF9D"/>
<path d="M119.188 163.941C120.318 164.184 121.426 164.498 122.506 164.88C123.616 165.186 124.706 165.545 125.774 165.954C124.625 165.788 123.501 165.51 122.42 165.126C121.305 164.818 120.224 164.422 119.188 163.941Z" fill="#FF9A6C"/>
<path d="M119.283 157.068C119.744 157.079 120.202 157.135 120.649 157.236C121.487 157.385 122.637 157.618 123.887 157.922C125.138 158.227 126.266 158.57 127.068 158.822C127.511 158.941 127.938 159.104 128.34 159.307C127.888 159.238 127.443 159.134 127.01 158.997C126.193 158.783 125.066 158.485 123.815 158.175C122.565 157.864 121.43 157.605 120.613 157.418C120.157 157.342 119.712 157.225 119.283 157.068Z" fill="#FF9A6C"/>
<path d="M117.959 151.716C118.462 151.651 118.972 151.64 119.477 151.684C120.691 151.725 121.899 151.846 123.092 152.046C124.292 152.243 125.476 152.516 126.634 152.861C127.125 152.983 127.598 153.157 128.044 153.379C127.553 153.298 127.069 153.183 126.598 153.036C125.701 152.816 124.429 152.531 123.056 152.298C121.682 152.065 120.388 151.942 119.441 151.865C118.944 151.847 118.449 151.798 117.959 151.716Z" fill="#FF9A6C"/>
<path d="M125.593 152.564C125.264 151.796 125.162 150.964 125.297 150.15C124.888 150.187 124.475 150.142 124.089 150.018C123.702 149.894 123.352 149.693 123.063 149.432C122.42 150.156 121.56 151.16 120.895 151.884L125.593 152.564Z" fill="#455A64"/>
<path d="M125.774 166.375L129.345 204.267C129.345 204.267 135.909 242.264 135.424 244.949C134.94 247.635 129.056 260.734 129.056 260.734C154.458 269.931 192.553 273.523 226.47 259.886L217.904 242.251L227.446 163.352L192.929 152.797C192.929 152.797 190.847 164.058 174.308 162.809C157.768 161.56 158.065 153.386 158.065 153.386L128.723 160.9L125.774 166.375Z" fill="#455A64"/>
<path d="M256.983 243.467C256.983 243.467 235.882 163.941 226.557 163.294L219.56 223.612L232.759 257.265C241.766 253.078 250.036 248.548 256.983 243.467Z" fill="#455A64"/>
<path d="M225.118 178.477C225.227 178.477 224.302 188.075 223.051 199.892C221.8 211.71 220.716 221.288 220.608 221.282C220.499 221.275 221.432 211.684 222.675 199.86C223.918 188.036 225.017 178.464 225.118 178.477Z" fill="#263238"/>
<path d="M126.229 177.791C126.275 177.928 126.302 178.069 126.309 178.212C126.352 178.523 126.41 178.924 126.475 179.429C126.605 180.522 126.793 182.017 127.017 183.894C127.465 187.674 128.065 192.89 128.803 198.637C129.54 204.384 130.306 209.594 130.914 213.348C131.224 215.198 131.47 216.706 131.636 217.794L131.832 219.004C131.865 219.144 131.88 219.288 131.875 219.431C131.821 219.297 131.782 219.158 131.759 219.017C131.687 218.706 131.6 218.311 131.492 217.82C131.268 216.778 130.979 215.263 130.639 213.386C129.959 209.633 129.193 204.436 128.42 198.676C127.646 192.916 127.118 187.674 126.735 183.92C126.562 182.056 126.417 180.535 126.316 179.435C126.28 178.937 126.244 178.529 126.222 178.218C126.204 178.076 126.206 177.933 126.229 177.791Z" fill="#263238"/>
<path d="M154.255 155.295L157.631 150.467L175.399 163.32L192.77 148.144L198.307 154.415L177.279 174.588L154.255 155.295Z" fill="#455A64"/>
<path d="M174.814 164.44C174.785 164.701 174.734 164.961 174.662 165.216C174.539 165.715 174.351 166.446 174.069 167.352C173.286 169.828 172.275 172.241 171.048 174.568L170.925 174.807L170.751 174.594C169.306 172.846 167.773 170.924 166.103 168.912C162.85 164.983 159.836 161.475 157.638 158.938L155.036 155.942L154.313 155.12C154.154 154.926 154.075 154.822 154.089 154.816C154.193 154.893 154.288 154.98 154.371 155.075L155.094 155.858C155.737 156.544 156.663 157.547 157.79 158.796C160.038 161.288 163.089 164.783 166.349 168.711C168.019 170.724 169.58 172.652 170.975 174.413H170.679C171.916 172.112 172.962 169.732 173.809 167.294C174.12 166.394 174.344 165.676 174.532 165.184C174.603 164.929 174.698 164.68 174.814 164.44Z" fill="#263238"/>
<path d="M197.454 155.263C197.414 155.363 197.361 155.459 197.295 155.547L196.789 156.33C196.334 156.978 195.661 157.968 194.772 159.133C192.465 162.165 189.914 165.041 187.139 167.74C185.295 169.526 183.459 171.138 181.797 172.504L181.674 172.601L181.558 172.497C179.899 170.973 178.516 169.226 177.459 167.32C177.083 166.621 176.823 166.025 176.664 165.663C176.574 165.464 176.504 165.258 176.455 165.048C176.581 165.229 176.685 165.423 176.765 165.624C176.953 166.006 177.243 166.556 177.64 167.235C178.742 169.101 180.145 170.811 181.804 172.309H181.565C183.213 170.937 185.028 169.319 186.857 167.54C189.619 164.85 192.191 162.008 194.555 159.029C195.466 157.884 196.175 156.945 196.666 156.292L197.223 155.528C197.367 155.34 197.44 155.256 197.454 155.263Z" fill="#263238"/>
<path d="M175.616 267.032C175.515 267.032 175.428 244.6 175.428 216.939C175.428 189.279 175.515 166.847 175.616 166.847C175.717 166.847 175.804 189.272 175.804 216.939C175.804 244.607 175.717 267.032 175.616 267.032Z" fill="#263238"/>
<path d="M184.457 236.193C184.457 236.284 177.228 234.899 168.38 233.067C159.532 231.236 152.361 229.708 152.39 229.618C152.419 229.527 159.619 230.912 168.467 232.737C177.315 234.562 184.479 236.103 184.457 236.193Z" fill="#263238"/>
<path d="M101.927 229.663C101.862 229.624 102.649 228.841 103.488 227.391C103.992 226.541 104.406 225.651 104.724 224.731C105.512 222.477 105.729 220.094 105.36 217.755C105.219 216.802 104.977 215.864 104.637 214.952C104.052 213.393 103.445 212.513 103.51 212.48C103.69 212.661 103.841 212.864 103.958 213.082C104.126 213.322 104.273 213.573 104.399 213.833C104.585 214.171 104.749 214.519 104.89 214.875C105.275 215.792 105.554 216.742 105.722 217.709C105.914 218.899 105.963 220.103 105.866 221.301C105.741 222.499 105.474 223.681 105.071 224.828C104.729 225.76 104.281 226.658 103.734 227.508C103.528 227.835 103.303 228.152 103.062 228.459C102.887 228.686 102.696 228.902 102.49 229.106C102.136 229.488 101.948 229.682 101.927 229.663Z" fill="#263238"/>
<path d="M268.259 136.76C267.905 142.877 269.63 148.948 273.207 154.169C276.785 159.391 282.046 163.52 288.298 166.009C294.55 168.499 301.497 169.234 308.225 168.116C314.952 166.999 321.143 164.081 325.981 159.749C330.819 155.417 334.076 149.874 335.323 143.85C336.57 137.827 335.747 131.607 332.965 126.01C330.182 120.414 325.57 115.704 319.737 112.502C313.903 109.301 307.123 107.758 300.29 108.076C291.935 108.466 284.037 111.614 278.122 116.911C272.207 122.208 268.693 129.279 268.259 136.76Z" fill="white"/>
<path d="M268.064 138.261C268.064 138.261 268.064 138.093 268.064 137.769C268.064 137.446 268.064 136.941 268.115 136.326L268.158 135.265C268.202 134.87 268.281 134.449 268.353 133.97C268.485 132.907 268.705 131.853 269.011 130.819C269.774 127.958 271.022 125.218 272.712 122.696C275.168 118.982 278.477 115.776 282.42 113.291C286.362 110.807 290.849 109.1 295.584 108.284C297.016 108.042 298.465 107.891 299.921 107.831C300.644 107.831 301.367 107.74 302.14 107.746L304.396 107.844C304.779 107.844 305.162 107.844 305.538 107.908L306.673 108.064C307.432 108.174 308.205 108.251 308.972 108.394C310.515 108.699 312.033 109.094 313.518 109.578C315.036 110.068 316.515 110.652 317.942 111.325C318.665 111.675 319.388 112.083 320.068 112.458C320.789 112.844 321.477 113.277 322.128 113.752C323.49 114.654 324.785 115.636 326.002 116.691C327.204 117.803 328.322 118.986 329.349 120.231C331.475 122.781 333.125 125.622 334.236 128.644C336.588 134.898 336.588 141.67 334.236 147.924C333.127 150.945 331.479 153.786 329.357 156.337C328.329 157.581 327.208 158.762 326.002 159.871C324.789 160.929 323.497 161.913 322.135 162.815C321.481 163.281 320.79 163.702 320.068 164.077C319.345 164.459 318.665 164.867 317.942 165.21C315.097 166.533 312.072 167.518 308.943 168.142C308.176 168.284 307.403 168.362 306.644 168.472L305.509 168.627C305.133 168.672 304.75 168.666 304.367 168.692L302.112 168.789C301.389 168.789 300.63 168.731 299.892 168.705C298.436 168.642 296.987 168.489 295.555 168.245C290.813 167.432 286.319 165.727 282.37 163.241C278.42 160.755 275.106 157.546 272.647 153.826C270.961 151.3 269.716 148.559 268.953 145.697C268.647 144.665 268.427 143.614 268.296 142.552C268.223 142.092 268.144 141.665 268.1 141.258L268.057 140.196C268.057 139.549 268.057 139.096 268.006 138.753C267.956 138.41 268.006 138.261 268.006 138.261C268.006 138.261 268.006 138.429 268.064 138.753C268.122 139.077 268.129 139.575 268.173 140.19C268.173 140.507 268.223 140.837 268.245 141.245C268.267 141.652 268.389 142.054 268.462 142.507C268.62 143.563 268.861 144.607 269.185 145.633C269.979 148.462 271.246 151.167 272.944 153.658C275.401 157.321 278.697 160.477 282.614 162.918C286.531 165.36 290.981 167.032 295.671 167.825C297.075 168.056 298.495 168.2 299.921 168.258C300.644 168.258 301.367 168.349 302.09 168.336L304.309 168.232C304.685 168.232 305.032 168.232 305.43 168.168L306.55 168.012C307.273 167.902 308.061 167.825 308.813 167.682C310.332 167.379 311.826 166.985 313.287 166.504C314.789 166.019 316.252 165.444 317.668 164.783C318.391 164.433 319.056 164.032 319.757 163.663C320.465 163.292 321.141 162.874 321.781 162.414C324.525 160.65 326.923 158.492 328.88 156.026C330.973 153.523 332.599 150.732 333.694 147.762C336.007 141.613 336.007 134.955 333.694 128.806C332.603 125.834 330.984 123.039 328.901 120.528C327.891 119.304 326.793 118.141 325.612 117.046C324.414 116.007 323.142 115.038 321.803 114.147C321.162 113.688 320.485 113.271 319.779 112.898C319.056 112.523 318.398 112.121 317.689 111.778C316.277 111.112 314.813 110.536 313.309 110.057C311.848 109.576 310.353 109.182 308.834 108.879C308.111 108.737 307.323 108.659 306.579 108.549L305.458 108.394C305.083 108.348 304.736 108.348 304.331 108.329L302.112 108.225C301.389 108.225 300.666 108.277 299.943 108.297C298.517 108.357 297.097 108.504 295.692 108.737C291.005 109.526 286.557 111.195 282.642 113.635C278.727 116.074 275.434 119.229 272.98 122.891C271.282 125.381 270.015 128.086 269.221 130.916C268.898 131.939 268.657 132.981 268.498 134.035C268.426 134.495 268.332 134.915 268.281 135.329C268.23 135.744 268.23 136.067 268.209 136.384C268.165 136.997 268.129 137.476 268.1 137.821C268.064 138.093 268.064 138.261 268.064 138.261Z" fill="#263238"/>
<path d="M318.607 128.793H288.138V152.053H318.607V128.793Z" fill="#E0E0E0"/>
<path d="M318.608 152.053C318.608 152.053 318.608 151.897 318.608 151.612C318.608 151.328 318.608 150.894 318.608 150.363C318.608 149.257 318.608 147.658 318.564 145.632C318.564 141.562 318.521 135.769 318.485 128.806L318.644 128.948H288.182C288.239 128.889 288.299 128.833 288.363 128.78V134.999C288.363 137.04 288.363 139.038 288.363 140.992C288.363 144.875 288.363 148.597 288.363 152.033L288.196 151.884L310.186 151.962L316.425 152.001H318.08H318.665H318.535H318.123H316.497L310.295 152.04L288.196 152.111H288.03V151.962C288.03 148.525 288.03 144.843 288.03 140.921C288.03 138.966 288.03 136.969 288.03 134.928V128.799C287.864 128.948 288.261 128.592 288.225 128.631H318.687H318.846V128.773C318.81 135.789 318.781 141.613 318.767 145.704C318.767 147.716 318.767 149.302 318.723 150.402C318.723 150.924 318.723 151.332 318.723 151.625C318.622 151.923 318.608 152.053 318.608 152.053Z" fill="#263238"/>
<path d="M291.29 136.76H289.938C288.964 136.76 288.03 136.413 287.342 135.797C286.653 135.18 286.266 134.344 286.266 133.472V128.074H294.941V133.472C294.941 134.341 294.557 135.174 293.873 135.79C293.189 136.406 292.26 136.755 291.29 136.76Z" fill="#279EFF"/>
<path d="M291.29 136.76C291.29 136.727 291.608 136.76 292.15 136.611C292.916 136.425 293.595 136.023 294.088 135.465C294.422 135.068 294.649 134.608 294.753 134.119C294.818 133.53 294.835 132.937 294.803 132.346C294.803 131.052 294.803 129.634 294.803 128.107L294.984 128.269H286.309L286.49 128.107C286.49 129.79 286.49 131.343 286.49 132.792C286.49 133.142 286.49 133.498 286.49 133.809C286.525 134.119 286.608 134.424 286.736 134.715C286.972 135.225 287.354 135.671 287.842 136.009C288.561 136.502 289.452 136.752 290.358 136.714C290.689 136.709 291.02 136.729 291.348 136.773C291.02 136.817 290.689 136.836 290.358 136.831C289.412 136.913 288.466 136.683 287.697 136.184C287.161 135.827 286.739 135.349 286.476 134.799C286.329 134.487 286.234 134.158 286.194 133.822C286.158 133.472 286.194 133.135 286.194 132.78C286.194 131.349 286.194 129.777 286.194 128.094V127.932H295.259V128.094C295.259 129.621 295.259 131.045 295.259 132.333C295.282 132.94 295.253 133.548 295.172 134.152C295.047 134.673 294.787 135.161 294.413 135.575C293.889 136.168 293.15 136.578 292.324 136.734C292.107 136.774 291.887 136.796 291.666 136.799L291.29 136.76Z" fill="#263238"/>
<path d="M299.921 136.76H298.562C297.589 136.758 296.656 136.411 295.968 135.795C295.28 135.179 294.892 134.343 294.89 133.472V128.074H303.565V133.472C303.563 134.339 303.179 135.17 302.497 135.786C301.815 136.401 300.89 136.751 299.921 136.76Z" fill="#279EFF"/>
<path d="M299.922 136.76C299.922 136.727 300.232 136.76 300.775 136.611C301.549 136.419 302.232 136.005 302.719 135.433C303.053 135.035 303.282 134.575 303.391 134.087C303.453 133.498 303.47 132.905 303.442 132.314C303.442 131.019 303.442 129.602 303.442 128.075L303.623 128.236H294.948L295.136 128.075C295.136 129.757 295.136 131.311 295.136 132.76C295.136 133.11 295.136 133.466 295.136 133.776C295.168 134.087 295.249 134.392 295.375 134.682C295.616 135.19 295.997 135.635 296.481 135.977C297.201 136.468 298.091 136.718 298.996 136.682C299.33 136.677 299.664 136.697 299.994 136.74C299.664 136.784 299.33 136.804 298.996 136.799C298.051 136.88 297.105 136.65 296.336 136.151C295.799 135.794 295.378 135.317 295.114 134.767C294.974 134.453 294.879 134.125 294.833 133.789C294.833 133.44 294.833 133.103 294.833 132.747C294.833 131.317 294.833 129.744 294.833 128.062V127.9H303.774V128.062C303.774 129.589 303.774 131.013 303.774 132.301C303.799 132.908 303.767 133.516 303.68 134.119C303.567 134.638 303.319 135.125 302.958 135.543C302.432 136.137 301.69 136.547 300.861 136.702C300.645 136.743 300.425 136.765 300.203 136.766C300.11 136.778 300.015 136.776 299.922 136.76Z" fill="#263238"/>
<path d="M308.545 136.76H307.193C306.219 136.76 305.285 136.413 304.597 135.797C303.908 135.18 303.521 134.344 303.521 133.472V128.074H312.195V133.472C312.195 134.341 311.812 135.174 311.128 135.79C310.444 136.406 309.515 136.755 308.545 136.76Z" fill="#279EFF"/>
<path d="M308.545 136.76C308.545 136.727 308.856 136.76 309.405 136.611C310.179 136.417 310.861 136.004 311.35 135.433C311.684 135.036 311.912 134.575 312.015 134.087C312.08 133.498 312.097 132.905 312.066 132.313C312.066 131.019 312.066 129.602 312.066 128.074L312.246 128.236H303.572L303.753 128.074C303.753 129.757 303.753 131.31 303.753 132.76C303.753 133.109 303.753 133.465 303.753 133.776C303.785 134.087 303.865 134.391 303.991 134.682C304.232 135.192 304.616 135.637 305.104 135.977C305.822 136.469 306.71 136.719 307.613 136.682C307.925 136.686 308.237 136.712 308.545 136.76C308.215 136.804 307.881 136.823 307.548 136.818C306.743 136.89 305.933 136.732 305.235 136.365C304.538 135.999 303.988 135.443 303.666 134.779C303.524 134.466 303.432 134.137 303.391 133.802C303.355 133.452 303.391 133.116 303.391 132.76C303.391 131.33 303.391 129.757 303.391 128.074V127.913H312.456V128.074C312.456 129.602 312.456 131.026 312.456 132.313C312.479 132.921 312.45 133.529 312.369 134.132C312.244 134.653 311.984 135.141 311.61 135.556C311.086 136.149 310.347 136.558 309.521 136.714C309.305 136.755 309.084 136.777 308.863 136.779L308.545 136.76Z" fill="#263238"/>
<path d="M317.176 136.76H315.817C314.844 136.758 313.911 136.411 313.223 135.795C312.534 135.179 312.147 134.343 312.145 133.472V128.074H320.819V133.472C320.818 134.339 320.434 135.17 319.752 135.786C319.07 136.401 318.145 136.751 317.176 136.76Z" fill="#279EFF"/>
<path d="M317.176 136.76C317.176 136.727 317.487 136.76 318.029 136.611C318.687 136.453 319.281 136.133 319.744 135.687C320.207 135.24 320.52 134.686 320.646 134.087C320.709 133.498 320.724 132.905 320.69 132.314C320.69 131.019 320.69 129.602 320.69 128.075L320.87 128.236H312.16L312.348 128.075C312.348 129.757 312.348 131.311 312.348 132.76C312.348 133.11 312.348 133.466 312.348 133.776C312.386 134.087 312.468 134.391 312.593 134.682C312.835 135.19 313.215 135.635 313.699 135.977C314.42 136.469 315.31 136.719 316.215 136.682C316.549 136.677 316.882 136.697 317.213 136.74C316.882 136.784 316.549 136.804 316.215 136.799C315.27 136.88 314.324 136.65 313.555 136.151C313.018 135.794 312.597 135.317 312.333 134.767C312.189 134.454 312.095 134.125 312.051 133.789C312.051 133.44 312.051 133.103 312.051 132.747C312.051 131.317 312.051 129.744 312.051 128.062V127.9H321.116V128.062C321.116 129.589 321.116 131.013 321.116 132.301C321.137 132.908 321.105 133.516 321.022 134.119C320.901 134.642 320.64 135.13 320.263 135.543C319.739 136.136 319 136.546 318.174 136.702C317.958 136.743 317.737 136.765 317.516 136.766C317.404 136.784 317.288 136.782 317.176 136.76Z" fill="#263238"/>
<path d="M314.928 139.711H306.427V152.059H314.928V139.711Z" fill="white"/>
<path d="M314.928 139.711C314.962 140.001 314.977 140.293 314.971 140.584C314.971 141.232 314.971 142.06 315.022 143.115C315.022 145.348 315.073 148.441 315.109 152.053V152.208H314.928H306.434C306.47 152.247 306.073 151.891 306.239 152.04V151.179C306.239 150.894 306.239 150.603 306.239 150.318V148.622C306.239 147.503 306.239 146.422 306.239 145.387C306.239 143.309 306.239 141.4 306.239 139.717V139.581H306.391L312.637 139.652H314.321C314.509 139.648 314.698 139.658 314.885 139.685C314.678 139.695 314.47 139.695 314.263 139.685L312.543 139.717L306.391 139.788L306.535 139.659C306.535 141.342 306.535 143.251 306.535 145.328C306.535 146.37 306.535 147.451 306.535 148.564V150.35C306.535 150.635 306.535 150.926 306.535 151.211V152.072L306.348 151.904H314.841L314.668 152.059C314.704 148.487 314.733 145.432 314.755 143.218C314.755 142.157 314.791 141.277 314.805 140.63C314.805 140.358 314.805 140.131 314.805 139.937C314.805 139.743 314.928 139.717 314.928 139.711Z" fill="#263238"/>
<path d="M300.514 139.161H292.902V147.555H300.514V139.161Z" fill="white"/>
<path d="M300.514 147.555C300.482 147.34 300.468 147.124 300.471 146.908C300.471 146.461 300.471 145.879 300.427 145.173C300.427 143.698 300.355 141.62 300.341 139.154L300.507 139.303H292.902L293.09 139.135V140.28C293.09 140.662 293.09 141.038 293.09 141.413V143.588C293.09 144.998 293.09 146.319 293.09 147.522L292.938 147.38L298.411 147.458H299.972C300.165 147.456 300.359 147.467 300.55 147.49C300.38 147.505 300.208 147.505 300.037 147.49L298.512 147.529C297.189 147.529 295.266 147.581 292.938 147.6H292.779V147.458C292.779 146.254 292.779 144.934 292.779 143.523C292.779 142.817 292.779 142.093 292.779 141.348V139.07C292.606 139.219 293.003 138.863 292.967 138.902H300.572H300.745V139.051C300.745 141.581 300.688 143.698 300.659 145.167C300.659 145.859 300.659 146.461 300.615 146.869C300.599 147.099 300.565 147.328 300.514 147.555Z" fill="#263238"/>
<path d="M313.743 144.196H312.478V147.561H313.743V144.196Z" fill="#E0E0E0"/>
<path d="M100.033 95.2904C118.575 93.205 131.718 78.0568 129.389 61.456C127.06 44.8552 110.14 33.0881 91.5977 35.1735C73.0554 37.2589 59.9122 52.4071 62.2415 69.0079C64.5708 85.6087 81.4905 97.3758 100.033 95.2904Z" fill="white"/>
<path d="M61.9805 65.2328C61.9805 65.2328 61.9805 65.071 61.9805 64.7409C61.9805 64.4109 61.9805 63.9255 62.0383 63.3042C62.0383 62.9806 62.0383 62.657 62.0889 62.2363C62.1395 61.8157 62.219 61.4274 62.2841 60.942C62.3491 60.4566 62.4431 59.9841 62.5298 59.4599C62.6405 58.8994 62.7829 58.3443 62.9563 57.7967C63.7302 54.9492 64.983 52.2236 66.6719 49.7133C68.8848 46.3604 71.8009 43.4222 75.2596 41.0605L76.7054 40.0768C77.2186 39.7726 77.7608 39.4878 78.2957 39.1901C78.8306 38.8924 79.3656 38.5429 79.9511 38.3294L81.7149 37.5657L82.6113 37.1839L83.551 36.8732L85.4666 36.226C86.11 36.0319 86.7895 35.9024 87.4617 35.7406C88.1376 35.5608 88.8258 35.4203 89.5219 35.32C90.9397 35.0796 92.3745 34.9282 93.8158 34.8669C94.5387 34.8669 95.2615 34.7763 96.035 34.7828L98.2831 34.8863C98.659 34.8863 99.0422 34.8864 99.4181 34.9446L100.553 35.0999C101.276 35.2099 102.078 35.2876 102.844 35.43C104.383 35.7344 105.897 36.13 107.377 36.6143L108.512 36.9832L109.076 37.1709L109.618 37.4104L111.786 38.3553C112.509 38.7047 113.189 39.106 113.904 39.4878C114.251 39.682 114.627 39.8567 114.953 40.0768L115.957 40.724C117.336 41.6365 118.645 42.6311 119.875 43.701L121.61 45.4031L122.044 45.8367L122.434 46.2962L123.215 47.2282L123.996 48.1666L124.719 49.1697L125.405 50.1728L125.745 50.6841C125.854 50.8589 125.94 51.0401 126.041 51.2148C126.425 51.9267 126.808 52.6451 127.198 53.3635C127.588 54.0818 127.813 54.8649 128.123 55.6157C129.241 58.725 129.834 61.9666 129.88 65.2328C129.837 68.4972 129.245 71.7371 128.123 74.8435C127.813 75.6007 127.509 76.3514 127.198 77.1022C126.887 77.8529 126.425 78.5389 126.041 79.2508L125.752 79.7815L125.405 80.2863L124.726 81.2959L124.039 82.2991L123.251 83.2375L122.47 84.1694L122.08 84.6354L121.646 85.0625L119.875 86.7646C118.66 87.8172 117.368 88.7966 116.008 89.6964L115.01 90.3435C114.678 90.5701 114.288 90.7383 113.955 90.939C113.232 91.3143 112.553 91.722 111.837 92.0715L109.668 93.0164L109.126 93.2494C108.938 93.3206 108.75 93.3788 108.562 93.4371L107.427 93.806C105.947 94.2894 104.433 94.6851 102.895 94.9903C102.129 95.1327 101.363 95.2104 100.604 95.3204L99.4687 95.4757C99.0928 95.521 98.7458 95.5145 98.3337 95.5404L96.0856 95.6375C95.3627 95.6375 94.5965 95.5857 93.8664 95.5598C92.4253 95.4958 90.9908 95.3444 89.5725 95.1068C88.8769 95.0012 88.189 94.8586 87.5123 94.6797C86.8401 94.5179 86.1606 94.3949 85.51 94.1943L83.6016 93.5471L82.6619 93.2365L81.7655 92.8546L80.0017 92.0909C79.4162 91.8515 78.8957 91.5085 78.3463 91.2302C77.7969 90.9519 77.2692 90.6542 76.756 90.35L75.3102 89.3663C71.8493 87.0041 68.9328 84.0634 66.7225 80.707C65.0336 78.1905 63.7832 75.4582 63.0142 72.6042C62.8696 72.0153 62.6527 71.4717 62.5877 70.941C62.5226 70.4103 62.4214 69.9184 62.3419 69.4589C62.2624 68.9994 62.1901 68.5723 62.1467 68.1646C62.1034 67.7568 62.1467 67.4203 62.0961 67.1032C62.0961 66.456 62.0528 65.9965 62.0383 65.66C62.0238 65.3234 62.0383 65.1681 62.0383 65.1681C62.0383 65.1681 62.0383 65.3364 62.0817 65.66C62.125 65.9835 62.1395 66.4754 62.1829 67.0967C62.1829 67.4138 62.2262 67.7439 62.2479 68.1581C62.2696 68.5723 62.3853 68.9671 62.4648 69.4524C62.5443 69.9378 62.6311 70.4038 62.725 70.928C62.8382 71.4871 62.9854 72.0402 63.166 72.5848C63.952 75.4185 65.2146 78.1288 66.9105 80.6228C69.1242 83.9436 72.0327 86.8507 75.4765 89.1851L76.9223 90.1623C77.4355 90.46 77.9704 90.7383 78.5053 91.0296C79.0403 91.3208 79.568 91.6768 80.1463 91.8839L81.8956 92.6346L82.7848 93.0099L83.7245 93.3141L85.6184 93.9613C86.2618 94.149 86.934 94.272 87.5991 94.4338C88.2689 94.6077 88.9496 94.746 89.6376 94.848C91.0459 95.084 92.4711 95.2311 93.9025 95.288C94.6254 95.288 95.3483 95.3786 96.0712 95.3657L98.3048 95.2621C98.6735 95.2621 99.0277 95.2621 99.4253 95.1974L100.553 95.0421C101.276 94.9321 102.064 94.8544 102.816 94.7185C104.34 94.414 105.84 94.0184 107.305 93.5342L108.425 93.1717L108.982 92.9841L109.524 92.7511L111.692 91.8062C112.415 91.4632 113.08 91.0619 113.789 90.6866C114.129 90.4924 114.512 90.3241 114.83 90.0976L115.82 89.4504C117.162 88.5572 118.437 87.5865 119.637 86.5446C120.201 85.9794 120.772 85.4163 121.35 84.8554L121.777 84.4283L122.167 83.9688L122.933 83.0498L123.707 82.1178L124.386 81.1276L125.066 80.131L125.405 79.6327L125.687 79.102L126.837 76.9792L127.747 74.7464C128.854 71.673 129.439 68.4682 129.482 65.2393C129.437 62.0105 128.852 58.8059 127.747 55.7321L126.829 53.4994C126.446 52.7875 126.107 52.082 125.687 51.3766C125.593 51.2019 125.499 51.0206 125.398 50.8459L125.058 50.3476L124.386 49.3509L123.707 48.3607L122.919 47.4482L122.145 46.5292L121.762 46.0697L121.328 45.6425L119.622 43.9599C118.421 42.916 117.144 41.9452 115.798 41.054L114.808 40.4068C114.483 40.1868 114.085 40.0185 113.767 39.8179C113.044 39.4425 112.386 39.0413 111.671 38.6983L109.502 37.7598L108.96 37.5269C108.779 37.4557 108.584 37.4039 108.403 37.3392L107.283 36.9703C105.817 36.4911 104.317 36.0977 102.794 35.7924C102.071 35.65 101.276 35.5724 100.531 35.4623L99.4036 35.307C99.0349 35.2617 98.6807 35.2682 98.2831 35.2423L96.0567 35.1388C95.3338 35.1388 94.611 35.197 93.8881 35.2164C92.4593 35.2762 91.0368 35.4233 89.6304 35.6565C88.9422 35.7578 88.2614 35.8961 87.5919 36.0707C86.9268 36.2325 86.2473 36.3555 85.604 36.5496L83.71 37.1968L82.7775 37.501L81.8884 37.8828L80.1173 38.5559C79.5318 38.7889 79.0186 39.1319 78.4692 39.4037C77.9198 39.6755 77.3993 39.9732 76.8861 40.2774L75.4404 41.2482C71.9945 43.5824 69.0836 46.4895 66.8671 49.8104C65.1699 52.3061 63.9072 55.0187 63.1226 57.8549C62.9412 58.3972 62.794 58.9482 62.6817 59.5052C62.5901 60.0316 62.5033 60.5235 62.4214 60.9808C62.3419 61.4403 62.2552 61.861 62.2046 62.2752C62.154 62.6894 62.1612 63.013 62.1395 63.3301L62.0455 64.7409C62.0022 65.071 61.9805 65.2328 61.9805 65.2328Z" fill="#263238"/>
<path d="M98.189 66.5597C99.3079 66.1168 100.258 65.3908 100.922 64.4709C101.586 63.551 101.935 62.4774 101.926 61.3822C101.978 60.6633 101.866 59.9425 101.595 59.2641C101.324 58.5856 100.902 57.9639 100.353 57.4372C99.8036 56.9106 99.14 56.49 98.4027 56.2014C97.6654 55.9129 96.87 55.7624 96.0654 55.7593C95.2607 55.7562 94.4639 55.9006 93.7238 56.1834C92.9838 56.4663 92.3162 56.8817 91.7622 57.4042C91.2082 57.9266 90.7794 58.5451 90.5023 59.2214C90.2251 59.8977 90.1055 60.6176 90.1507 61.3369C90.1295 62.4453 90.4742 63.5346 91.1416 64.4683C91.809 65.402 92.7694 66.1385 93.9024 66.5856C84.8448 67.8087 85.2279 76.6234 85.2279 76.6234L106.654 76.714C106.654 76.714 107.145 67.7699 98.189 66.5597Z" fill="#279EFF"/>
<path d="M111.454 60.5733C112.154 60.2977 112.75 59.8444 113.166 59.2693C113.582 58.6942 113.801 58.0226 113.796 57.3374C113.827 56.8866 113.755 56.4347 113.584 56.0097C113.413 55.5848 113.147 55.1957 112.802 54.8664C112.456 54.5372 112.039 54.2748 111.576 54.0954C111.113 53.916 110.614 53.8235 110.109 53.8235C109.605 53.8235 109.105 53.916 108.642 54.0954C108.179 54.2748 107.762 54.5372 107.417 54.8664C107.071 55.1957 106.805 55.5848 106.634 56.0097C106.463 56.4347 106.391 56.8866 106.423 57.3374C106.407 58.0312 106.622 58.7135 107.04 59.2977C107.458 59.8819 108.061 60.3417 108.772 60.6186C103.097 61.3888 103.35 66.9092 103.35 66.9092L116.774 66.961C116.774 66.961 117.078 61.337 111.454 60.5733Z" fill="#279EFF"/>
<path d="M82.9584 60.5733C83.6591 60.2977 84.2544 59.8444 84.6706 59.2693C85.0868 58.6942 85.3058 58.0226 85.3005 57.3374C85.332 56.8866 85.2601 56.4347 85.0891 56.0097C84.9181 55.5848 84.6516 55.1957 84.3062 54.8664C83.9608 54.5372 83.5437 54.2748 83.0806 54.0954C82.6176 53.916 82.1184 53.8235 81.6138 53.8235C81.1093 53.8235 80.6101 53.916 80.147 54.0954C79.684 54.2748 79.2669 54.5372 78.9214 54.8664C78.576 55.1957 78.3096 55.5848 78.1386 56.0097C77.9676 56.4347 77.8956 56.8866 77.9272 57.3374C77.9115 58.0312 78.1264 58.7135 78.5447 59.2977C78.963 59.8819 79.5658 60.3417 80.2765 60.6186C74.602 61.3888 74.8622 66.9092 74.8622 66.9092L88.2787 66.961C88.2787 66.961 88.5823 61.337 82.9584 60.5733Z" fill="#279EFF"/>
<path d="M261.891 52.4408C266.272 36.1759 255.097 19.8105 236.93 15.8876C218.763 11.9647 200.483 21.9699 196.102 38.2348C191.72 54.4997 202.895 70.8652 221.062 74.7881C239.23 78.7109 257.509 68.7057 261.891 52.4408Z" fill="white"/>
<path d="M195.155 45.3322C195.155 45.3322 195.155 45.1704 195.155 44.8403C195.155 44.5103 195.191 44.0184 195.213 43.3971C195.213 43.08 195.213 42.7499 195.256 42.3357C195.3 41.9215 195.379 41.5203 195.452 41.0414C195.583 39.9797 195.803 38.9283 196.109 37.8961C196.869 35.0332 198.114 32.2917 199.803 29.7674C202.262 26.0478 205.576 22.8386 209.526 20.3527C213.475 17.8668 217.969 16.1609 222.711 15.3482C224.143 15.1044 225.592 14.9509 227.048 14.8887C227.771 14.8887 228.494 14.7981 229.268 14.8045L231.523 14.9081C231.899 14.9081 232.282 14.9081 232.665 14.9663L233.8 15.1216C234.559 15.2317 235.332 15.3093 236.091 15.4517C239.223 16.0739 242.251 17.0595 245.098 18.3835C245.821 18.7265 246.508 19.1342 247.224 19.516C247.944 19.9037 248.632 20.3362 249.284 20.8104C250.646 21.7146 251.941 22.6983 253.158 23.7551C254.359 24.8601 255.475 26.0364 256.498 27.2758C258.621 29.8273 260.271 32.6681 261.385 35.6892C262.509 38.8062 263.104 42.0569 263.149 45.3322C263.103 48.6054 262.509 51.8539 261.385 54.9688C260.273 57.9907 258.623 60.8318 256.498 63.3822C255.471 64.6271 254.353 65.8097 253.151 66.9223C251.933 67.977 250.639 68.9585 249.277 69.8605C248.626 70.336 247.937 70.7686 247.216 71.1548C246.494 71.5302 245.814 71.9379 245.091 72.2874C243.638 72.9458 242.136 73.5124 240.595 73.983C239.108 74.4695 237.587 74.8673 236.041 75.1739C235.282 75.3098 234.508 75.3874 233.749 75.4974L232.614 75.6528C232.231 75.6981 231.848 75.6981 231.472 75.7175L229.217 75.8146C228.494 75.8146 227.728 75.7563 226.998 75.7369C225.542 75.6722 224.093 75.5187 222.66 75.2774C217.918 74.4643 213.423 72.7576 209.473 70.2705C205.524 67.7834 202.21 64.5728 199.753 60.8517C198.065 58.3291 196.819 55.5899 196.059 52.7295C195.752 51.695 195.533 50.6415 195.401 49.5777C195.329 49.1182 195.242 48.6976 195.206 48.2834C195.17 47.8692 195.206 47.5391 195.162 47.222C195.162 46.5748 195.119 46.1282 195.105 45.7788C195.09 45.4293 195.105 45.2869 195.105 45.2869C195.105 45.2869 195.105 45.4552 195.162 45.7788C195.22 46.1023 195.22 46.6007 195.271 47.2155C195.271 47.5326 195.314 47.8627 195.343 48.2769C195.372 48.6911 195.48 49.0794 195.56 49.5713C195.715 50.6255 195.957 51.6681 196.283 52.6907C197.074 55.5198 198.339 58.2255 200.035 60.7158C202.489 64.3784 205.784 67.5336 209.7 69.9733C213.616 72.413 218.065 74.0818 222.754 74.8697C224.156 75.1026 225.574 75.2496 226.998 75.3098C227.721 75.3098 228.443 75.3939 229.166 75.381L231.393 75.2774C231.761 75.2774 232.116 75.2774 232.513 75.2127L233.634 75.0574C234.357 74.9473 235.144 74.8697 235.896 74.7273C237.416 74.4271 238.911 74.0336 240.371 73.5494C241.874 73.0676 243.338 72.4923 244.751 71.8279C245.474 71.4849 246.139 71.0837 246.841 70.7083C247.547 70.3353 248.224 69.9179 248.865 69.4592C250.204 68.5682 251.476 67.5997 252.674 66.5598C253.855 65.465 254.953 64.3019 255.963 63.078C258.073 60.5756 259.718 57.7849 260.835 54.8134C261.939 51.7485 262.522 48.5523 262.563 45.3322C262.523 42.112 261.94 38.9156 260.835 35.851C259.744 32.8781 258.124 30.0828 256.036 27.5735C255.03 26.3465 253.931 25.1831 252.746 24.0916C251.553 23.0503 250.282 22.0817 248.944 21.1922C248.303 20.7336 247.627 20.3162 246.92 19.9432C246.197 19.5743 245.539 19.173 244.831 18.8235C242.029 17.5232 239.053 16.5489 235.976 15.9242C235.253 15.7882 234.465 15.7041 233.713 15.5941L232.593 15.4388C232.224 15.3935 231.87 15.3999 231.472 15.3741L229.253 15.2705C228.53 15.2705 227.807 15.3223 227.084 15.3482C225.658 15.4058 224.238 15.5507 222.834 15.7818C217.691 16.6347 212.845 18.5591 208.687 21.3993C205.247 23.7282 202.336 26.6259 200.114 29.9357C198.419 32.426 197.154 35.1316 196.362 37.9608C196.036 38.9853 195.794 40.0302 195.639 41.0867C195.56 41.5397 195.466 41.9604 195.423 42.381C195.379 42.8017 195.372 43.1188 195.35 43.436C195.3 44.0831 195.264 44.5297 195.242 44.8792C195.22 45.2286 195.155 45.3322 195.155 45.3322Z" fill="#263238"/>
<path d="M243.609 33.2686H220.803V56.8002H243.609V33.2686Z" fill="#279EFF"/>
<g opacity="0.3">
<path d="M243.609 33.2686H220.803V56.8002H243.609V33.2686Z" fill="black"/>
</g>
<path d="M229.81 33.2686H210.184V56.8002H229.81V33.2686Z" fill="#279EFF"/>
<path d="M243.609 56.7937C243.492 56.6644 243.393 56.5232 243.313 56.3731L242.525 55.1175L239.684 50.4837L230.475 35.1519C230.193 34.6859 229.918 34.2264 229.665 33.7928L230.019 33.7151C230.019 40.187 229.976 45.921 229.961 50.1213C229.961 52.1728 229.911 53.8426 229.896 55.0399C229.896 55.59 229.896 56.0365 229.896 56.3342C229.895 56.4901 229.883 56.6457 229.86 56.8002C229.828 56.6466 229.816 56.4903 229.824 56.3342C229.824 56.0042 229.824 55.5576 229.824 55.0399C229.824 53.8426 229.788 52.1728 229.766 50.1213C229.766 45.921 229.766 40.1546 229.708 33.7151C229.708 33.6705 229.728 33.6277 229.763 33.5962C229.799 33.5646 229.847 33.5469 229.896 33.5469C229.93 33.5488 229.963 33.5581 229.992 33.5739C230.021 33.5896 230.045 33.6115 230.063 33.6375L230.872 34.9901L240.009 50.3801C241.144 52.3217 242.077 53.9267 242.742 55.0657C243.045 55.5964 243.284 56.0236 243.465 56.3601C243.528 56.5002 243.577 56.6454 243.609 56.7937Z" fill="#263238"/>
<path d="M243.61 33.2686C243.481 33.6004 243.324 33.9228 243.14 34.2329C242.822 34.8412 242.337 35.7149 241.73 36.8216C240.516 38.9767 238.774 41.9279 236.786 45.1573C234.798 48.3868 232.976 51.2991 231.646 53.396L230.056 55.8747C229.871 56.1859 229.661 56.4845 229.427 56.7678C229.565 56.4394 229.732 56.1213 229.926 55.8164L231.415 53.273C232.687 51.1438 234.48 48.2185 236.475 44.9891L241.535 36.7051C242.157 35.6826 242.663 34.8347 243.053 34.1876C243.211 33.8687 243.398 33.5615 243.61 33.2686Z" fill="#263238"/>
<path d="M227.128 49.2864H222.22V54.3474H227.128V49.2864Z" fill="white"/>
<path d="M241.578 239.196C241.218 245.314 242.937 251.386 246.511 256.612C250.084 261.837 255.343 265.969 261.593 268.463C267.844 270.957 274.792 271.696 281.521 270.583C288.25 269.469 294.444 266.554 299.285 262.224C304.126 257.894 307.387 252.351 308.637 246.328C309.887 240.304 309.068 234.083 306.288 228.484C303.508 222.886 298.897 218.174 293.064 214.97C287.231 211.767 280.45 210.221 273.616 210.539C265.265 210.928 257.37 214.071 251.455 219.363C245.539 224.655 242.021 231.72 241.578 239.196Z" fill="white"/>
<path d="M241.535 240.769C241.535 240.769 241.535 240.607 241.535 240.277C241.535 239.947 241.535 239.455 241.585 238.834C241.585 238.517 241.585 238.186 241.636 237.772C241.686 237.358 241.759 236.957 241.824 236.478C241.954 235.416 242.176 234.364 242.489 233.333C243.245 230.469 244.491 227.727 246.183 225.204C248.639 221.484 251.951 218.274 255.9 215.788C259.848 213.302 264.342 211.596 269.083 210.785C270.515 210.541 271.965 210.387 273.421 210.325C274.143 210.325 274.866 210.235 275.647 210.241L277.902 210.345C278.278 210.345 278.661 210.345 279.037 210.403L280.179 210.558C280.902 210.668 281.705 210.746 282.471 210.888C284.014 211.193 285.533 211.589 287.018 212.073C288.545 212.563 290.033 213.147 291.471 213.82C292.194 214.163 292.916 214.571 293.596 214.953C294.316 215.328 295.004 215.75 295.656 216.215C297.02 217.117 298.315 218.101 299.531 219.159C300.734 220.268 301.852 221.449 302.878 222.693C305.003 225.243 306.653 228.084 307.764 231.106C310.111 237.361 310.111 244.131 307.764 250.386C306.65 253.407 305 256.247 302.878 258.799C301.851 260.044 300.732 261.227 299.531 262.339C298.313 263.394 297.019 264.376 295.656 265.278C295.003 265.75 294.315 266.183 293.596 266.572C292.873 266.947 292.15 267.355 291.427 267.705C289.991 268.378 288.503 268.96 286.974 269.445C285.49 269.931 283.971 270.329 282.428 270.636C281.661 270.772 280.888 270.85 280.129 270.96L278.994 271.115C278.618 271.16 278.235 271.16 277.852 271.18L275.596 271.277C274.874 271.277 274.115 271.219 273.377 271.199C271.922 271.134 270.473 270.98 269.04 270.74C264.299 269.925 259.806 268.218 255.857 265.731C251.909 263.244 248.597 260.034 246.139 256.314C244.448 253.793 243.202 251.054 242.445 248.192C242.134 247.158 241.911 246.104 241.78 245.04C241.715 244.581 241.629 244.16 241.593 243.746C241.556 243.332 241.556 243.002 241.542 242.684C241.542 242.07 241.506 241.591 241.491 241.241C241.477 240.892 241.491 240.749 241.491 240.749C241.491 240.749 241.491 240.918 241.549 241.241C241.607 241.565 241.614 242.063 241.658 242.678C241.658 242.995 241.708 243.325 241.73 243.739C241.752 244.153 241.874 244.542 241.947 245.001C242.102 246.056 242.344 247.098 242.67 248.121C243.458 250.951 244.723 253.657 246.421 256.146C248.876 259.807 252.169 262.962 256.084 265.402C259.998 267.841 264.446 269.511 269.134 270.3C270.538 270.533 271.958 270.68 273.384 270.74C274.107 270.74 274.83 270.824 275.553 270.811L277.772 270.707C278.148 270.707 278.495 270.707 278.9 270.643L280.02 270.487C280.743 270.377 281.524 270.3 282.276 270.157C285.375 269.544 288.373 268.576 291.196 267.277C291.919 266.934 292.584 266.533 293.285 266.158C293.994 265.785 294.673 265.367 295.316 264.909C298.053 263.142 300.449 260.987 302.408 258.527C304.493 256.017 306.114 253.222 307.208 250.25C309.516 244.098 309.516 237.439 307.208 231.287C306.116 228.316 304.498 225.521 302.415 223.01C301.405 221.786 300.306 220.623 299.126 219.528C297.928 218.488 296.656 217.52 295.316 216.629C294.677 216.169 294 215.751 293.292 215.38C292.569 215.011 291.912 214.61 291.203 214.26C289.788 213.599 288.324 213.024 286.823 212.539C285.361 212.059 283.867 211.666 282.348 211.361C281.625 211.225 280.837 211.141 280.093 211.031L278.972 210.875C278.596 210.83 278.249 210.836 277.852 210.811L275.625 210.707C274.902 210.707 274.18 210.759 273.457 210.785C272.031 210.843 270.61 210.988 269.206 211.218C264.52 212.011 260.074 213.682 256.16 216.121C252.245 218.56 248.951 221.713 246.494 225.372C244.795 227.861 243.53 230.567 242.742 233.397C242.416 234.422 242.175 235.467 242.019 236.523C241.947 236.976 241.853 237.397 241.802 237.818C241.752 238.238 241.752 238.555 241.73 238.872C241.686 239.487 241.65 239.966 241.621 240.316C241.593 240.665 241.535 240.769 241.535 240.769Z" fill="#263238"/>
<path d="M268.534 230.601C269.538 230.06 270.617 229.64 271.744 229.352L272.409 226.505L277.78 226.421L278.553 229.242C279.692 229.495 280.788 229.883 281.813 230.394L284.531 228.802L288.392 232.142L286.714 234.627C287.321 235.525 287.79 236.491 288.11 237.5L291.283 238.096L291.384 242.904L288.225 243.597C287.947 244.617 287.517 245.599 286.946 246.516L288.724 248.949L284.994 252.405L282.218 250.897C281.213 251.442 280.131 251.864 279.001 252.153L278.344 254.994L272.973 255.078L272.199 252.256C271.06 252.008 269.963 251.623 268.939 251.111L266.221 252.703L262.354 249.37L264.038 246.885C263.432 245.985 262.963 245.016 262.643 244.005L259.462 243.416L259.368 238.607L262.527 237.915C262.804 236.894 263.235 235.912 263.807 234.996L262.028 232.562L265.758 229.1L268.534 230.608V230.601ZM271.426 237.009C270.628 237.744 270.092 238.675 269.887 239.684C269.681 240.693 269.814 241.733 270.269 242.674C270.725 243.614 271.482 244.413 272.445 244.968C273.408 245.523 274.533 245.809 275.678 245.791C276.823 245.773 277.936 245.451 278.876 244.866C279.817 244.281 280.542 243.459 280.96 242.504C281.377 241.55 281.469 240.505 281.224 239.504C280.978 238.503 280.406 237.589 279.58 236.879C279.032 236.407 278.385 236.037 277.677 235.789C276.969 235.541 276.214 235.421 275.454 235.435C274.694 235.448 273.944 235.596 273.248 235.87C272.552 236.143 271.923 236.537 271.397 237.028L271.426 237.009Z" fill="#279EFF"/>
<path d="M90.5195 267.193C90.1633 273.311 91.8872 279.382 95.4637 284.604C99.0402 289.827 104.301 293.956 110.553 296.447C116.804 298.938 123.752 299.674 130.48 298.557C137.208 297.44 143.4 294.523 148.238 290.192C153.077 285.86 156.335 280.316 157.582 274.293C158.829 268.269 158.008 262.049 155.226 256.452C152.443 250.855 147.831 246.145 141.998 242.943C136.164 239.741 129.383 238.198 122.55 238.516C114.197 238.908 106.301 242.055 100.386 247.35C94.4714 252.646 90.9565 259.714 90.5195 267.193Z" fill="white"/>
<path d="M90.4761 268.785C90.4761 268.785 90.4761 268.617 90.4761 268.293C90.4761 267.97 90.5122 267.465 90.5339 266.85C90.5339 266.526 90.5339 266.203 90.5773 265.782C90.6206 265.362 90.7001 264.973 90.7724 264.488C90.9028 263.424 91.1227 262.37 91.4302 261.336C92.1903 258.489 93.4337 255.763 95.1169 253.253C97.574 249.531 100.887 246.32 104.837 243.833C108.787 241.346 113.282 239.639 118.025 238.827C119.457 238.586 120.906 238.433 122.362 238.367C123.085 238.367 123.808 238.277 124.581 238.29L126.837 238.387C127.212 238.387 127.559 238.387 127.979 238.452L129.114 238.6C129.836 238.717 130.646 238.795 131.405 238.931C134.535 239.56 137.561 240.546 140.412 241.862C141.135 242.212 141.822 242.619 142.537 242.995C143.259 243.38 143.947 243.813 144.598 244.289C147.391 246.074 149.833 248.261 151.826 250.761C153.95 253.312 155.6 256.153 156.713 259.174C159.065 265.429 159.065 272.2 156.713 278.454C155.602 281.476 153.952 284.317 151.826 286.867C149.833 289.368 147.391 291.555 144.598 293.339C143.949 293.817 143.26 294.25 142.537 294.634C141.814 295.016 141.135 295.417 140.412 295.766C137.565 297.09 134.537 298.076 131.405 298.698C130.682 298.834 129.873 298.918 129.114 299.028L127.979 299.177C127.596 299.222 127.212 299.222 126.837 299.242L124.581 299.345C123.858 299.345 123.092 299.287 122.362 299.261C120.906 299.196 119.457 299.043 118.025 298.802C113.275 297.986 108.774 296.272 104.824 293.774C100.873 291.277 97.5638 288.052 95.1169 284.318C93.427 281.796 92.1811 279.057 91.423 276.195C91.1154 275.161 90.8955 274.108 90.7652 273.044C90.6929 272.584 90.6062 272.163 90.57 271.749C90.5339 271.335 90.57 271.005 90.5266 270.681C90.5266 270.067 90.4833 269.588 90.4688 269.238C90.4544 268.889 90.4688 268.753 90.4688 268.753C90.4688 268.753 90.4688 268.915 90.5266 269.238C90.5845 269.562 90.5845 270.06 90.6351 270.675C90.6351 270.992 90.6785 271.322 90.7074 271.736C90.7363 272.151 90.8447 272.545 90.9242 273.031C91.0794 274.087 91.321 275.132 91.6471 276.157C92.4385 278.984 93.7034 281.687 95.3988 284.175C97.8537 287.838 101.148 290.993 105.064 293.433C108.98 295.872 113.43 297.541 118.119 298.329C119.52 298.565 120.938 298.712 122.362 298.769C123.085 298.769 123.808 298.853 124.531 298.847L126.757 298.743C127.126 298.743 127.48 298.743 127.878 298.679L128.998 298.523C129.721 298.407 130.509 298.329 131.261 298.193C132.794 297.884 134.303 297.487 135.778 297.002C137.281 296.515 138.744 295.938 140.159 295.274C140.882 294.931 141.547 294.53 142.248 294.161C142.955 293.786 143.631 293.366 144.272 292.906C145.615 292.019 146.888 291.05 148.082 290.006C149.264 288.913 150.363 287.75 151.371 286.524C153.454 284.013 155.072 281.218 156.164 278.247C158.467 272.094 158.467 265.437 156.164 259.284C155.073 256.314 153.452 253.521 151.364 251.013C149.41 248.55 147.013 246.394 144.272 244.632C143.633 244.171 142.957 243.754 142.248 243.383C141.525 243.008 140.868 242.607 140.159 242.264C138.744 241.6 137.281 241.022 135.778 240.536C134.317 240.057 132.822 239.664 131.304 239.358C130.581 239.222 129.793 239.144 129.041 239.034L127.921 238.879C127.552 238.833 127.198 238.833 126.8 238.814L124.581 238.711C123.858 238.711 123.135 238.762 122.413 238.782C120.986 238.842 119.566 238.989 118.162 239.222C113.004 240.069 108.143 241.993 103.972 244.839C100.531 247.168 97.6211 250.066 95.3988 253.376C93.7045 255.867 92.4396 258.572 91.6471 261.401C91.321 262.425 91.0794 263.47 90.9242 264.527C90.8447 264.98 90.7507 265.4 90.7074 265.789C90.664 266.177 90.6568 266.533 90.6351 266.85C90.5845 267.465 90.5483 267.937 90.5266 268.287C90.505 268.636 90.4761 268.785 90.4761 268.785Z" fill="#263238"/>
<path d="M126.62 281.664V285.405H122.102V281.8C118.343 281.567 114.765 280.59 112.589 279.244L115.032 274.325C117.628 275.803 120.631 276.607 123.707 276.648C126.793 276.648 128.001 275.872 128.001 274.707C128.001 270.973 113.023 273.697 113.023 264.941C113.023 261.232 115.994 258.1 122.087 257.427V253.725H126.605V257.362C129.284 257.515 131.893 258.193 134.246 259.349L131.947 264.3C129.718 263.166 127.21 262.541 124.646 262.481C121.524 262.481 120.396 263.426 120.396 264.604C120.396 268.209 135.33 265.51 135.33 274.202C135.345 277.794 132.49 280.894 126.62 281.664Z" fill="#279EFF"/>
<path d="M75.5893 173.204C83.1993 157.923 75.5319 140.012 58.4635 133.199C41.3951 126.385 21.3893 133.25 13.7792 148.531C6.16916 163.813 13.8367 181.724 30.905 188.537C47.9734 195.35 67.9793 188.485 75.5893 173.204Z" fill="white"/>
<path d="M78.5124 160.88C78.5124 160.88 78.5124 160.712 78.4691 160.388C78.4257 160.064 78.4112 159.573 78.3679 158.951C78.3679 158.634 78.3245 158.304 78.3028 157.89C78.2811 157.476 78.1655 157.081 78.0859 156.596L77.8257 155.12C77.7099 154.564 77.5627 154.013 77.3848 153.47C76.5871 150.641 75.3148 147.938 73.6114 145.451C71.4014 142.134 68.5008 139.227 65.067 136.889L63.6213 135.918C63.108 135.62 62.5659 135.342 62.0382 135.051C61.5105 134.76 60.9755 134.404 60.39 134.197L58.6407 133.446L57.7515 133.07L56.819 132.766L54.9251 132.119C54.2817 131.925 53.6022 131.808 52.9372 131.64C52.2683 131.465 51.5874 131.328 50.8987 131.232C49.493 130.994 48.0702 130.845 46.641 130.786C45.9181 130.786 45.1952 130.702 44.4724 130.715L42.2459 130.812C41.87 130.812 41.523 130.812 41.1182 130.883L39.9978 131.032C39.2749 131.148 38.487 131.226 37.7352 131.362C36.2119 131.667 34.7124 132.061 33.2461 132.54L32.1257 132.909L31.5691 133.096L31.0269 133.329L28.8583 134.268C28.1354 134.617 27.4704 135.018 26.762 135.394C26.4222 135.588 26.0391 135.756 25.7283 135.976L24.7307 136.623C23.3625 137.529 22.0633 138.515 20.8416 139.575L19.1646 141.29L18.7308 141.71L18.3477 142.17L17.5743 143.095L16.8008 144.021L16.1213 145.011L15.449 146.008L15.1093 146.512C15.0008 146.681 14.9141 146.862 14.8201 147.037C14.437 147.742 14.0611 148.448 13.678 149.159C13.2948 149.871 13.0708 150.648 12.7599 151.392C10.4469 157.561 10.4469 164.238 12.7599 170.406L13.6707 172.639C14.0539 173.351 14.437 174.057 14.8129 174.762L15.102 175.293L15.4418 175.791L16.1213 176.788L16.8008 177.784L17.5743 178.71L18.3405 179.635L18.7308 180.095L19.1573 180.515C19.7356 181.079 20.2995 181.642 20.8706 182.205C22.0708 183.247 23.3458 184.217 24.6873 185.11L25.6777 185.758C26.0102 185.984 26.4005 186.152 26.7186 186.347C27.4415 186.722 28.1065 187.123 28.8149 187.473L30.9835 188.411L31.5257 188.644C31.7064 188.715 31.9016 188.767 32.0823 188.832L33.2028 189.201C34.6691 189.68 36.1686 190.073 37.6918 190.379C38.4147 190.514 39.2098 190.592 39.9544 190.709L41.0821 190.864C41.4507 190.903 41.805 190.903 42.2025 190.929L44.4362 191.026C45.1591 191.026 45.882 190.974 46.6048 190.955C48.034 190.896 49.4568 190.746 50.8625 190.508C51.5514 190.413 52.2324 190.276 52.9011 190.1C53.5733 189.932 54.2456 189.816 54.889 189.621L56.7829 188.974L57.7226 188.67L58.6117 188.295L60.3611 187.544C60.9394 187.304 61.4599 186.968 62.002 186.69C62.5442 186.411 63.0719 186.12 63.5851 185.822L65.0309 184.852C68.4769 182.518 71.3899 179.614 73.6114 176.296C75.3084 173.802 76.5711 171.092 77.3558 168.258C77.5076 167.675 77.7245 167.132 77.7968 166.608L78.057 165.132C78.1365 164.672 78.2233 164.252 78.2739 163.838C78.3245 163.423 78.3173 163.093 78.3389 162.776L78.4401 161.339C78.4401 161.016 78.4835 160.854 78.4835 160.854C78.4835 160.854 78.4835 161.016 78.4835 161.339C78.4835 161.663 78.4835 162.155 78.4257 162.783C78.4257 163.1 78.4257 163.43 78.3751 163.844C78.3245 164.258 78.245 164.659 78.1727 165.138C78.1004 165.617 78.0209 166.09 77.9341 166.62C77.8474 167.151 77.6522 167.695 77.5076 168.284C76.74 171.138 75.4894 173.871 73.7993 176.386C71.5867 179.741 68.6707 182.682 65.2116 185.046L63.7658 186.03C63.2526 186.334 62.7104 186.612 62.1755 186.91C61.6406 187.207 61.1057 187.557 60.5201 187.777L58.7563 188.534L57.86 188.922L56.9202 189.233L55.0118 189.88C54.3613 190.074 53.6818 190.197 53.0095 190.366C52.3327 190.542 51.6447 190.683 50.9493 190.786C49.5315 191.027 48.0968 191.178 46.6554 191.239C45.9326 191.239 45.2097 191.33 44.4362 191.323L42.1881 191.22C41.8122 191.22 41.4652 191.22 41.0532 191.155L39.9183 191.006C39.1954 190.89 38.393 190.812 37.6267 190.676C36.0862 190.371 34.5697 189.975 33.0871 189.492L31.9594 189.123L31.3956 188.929L30.8462 188.696L28.6776 187.751C27.9547 187.402 27.268 186.994 26.5596 186.618C26.2126 186.418 25.8367 186.25 25.5042 186.023L24.5066 185.376C23.1448 184.476 21.8527 183.494 20.6392 182.438L18.9116 180.736L18.4778 180.308L18.0803 179.842L17.3068 178.91L16.5044 177.94L15.7815 176.943L15.102 175.933L14.755 175.429L14.4659 174.891C14.0828 174.18 13.6924 173.461 13.3093 172.743C12.9262 172.024 12.6949 171.241 12.384 170.484C10.0419 164.249 10.0419 157.498 12.384 151.263C12.6949 150.506 13.0057 149.755 13.3093 149.004C13.6129 148.253 14.0828 147.567 14.4659 146.855C14.5671 146.681 14.6538 146.5 14.755 146.325L15.102 145.82L15.7888 144.81L16.4755 143.807L17.2562 142.869L18.0586 141.937L18.4489 141.477L18.8827 141.05L20.6175 139.342C21.822 138.288 23.1044 137.309 24.456 136.41L25.4608 135.763C25.7861 135.536 26.1837 135.368 26.509 135.167C27.2318 134.792 27.9113 134.384 28.627 134.035L30.8317 133.09L31.3739 132.857L31.9377 132.663L33.0654 132.294C34.548 131.81 36.0645 131.415 37.6051 131.109C38.3641 130.974 39.1376 130.896 39.8966 130.779L41.0821 130.611C41.458 130.566 41.8411 130.566 42.217 130.546L44.4651 130.443C45.188 130.443 45.9109 130.501 46.6843 130.527C48.1254 130.591 49.5599 130.743 50.9782 130.98C51.6737 131.083 52.3616 131.224 53.0384 131.401C53.7107 131.569 54.3902 131.692 55.0335 131.886L56.9491 132.533L57.8889 132.844L58.7852 133.226L60.549 133.989C61.1039 134.241 61.6444 134.518 62.1683 134.818C62.7104 135.116 63.2526 135.394 63.7658 135.698L65.2116 136.682C68.6723 139.044 71.5887 141.985 73.7993 145.341C75.4894 147.857 76.74 150.589 77.5076 153.444C77.6522 154.033 77.8691 154.576 77.9341 155.107C77.9992 155.638 78.1004 156.13 78.1727 156.589C78.245 157.049 78.3317 157.469 78.3751 157.883C78.4185 158.298 78.3751 158.628 78.4257 158.945C78.4257 159.592 78.4691 160.052 78.4835 160.388C78.498 160.725 78.5124 160.88 78.5124 160.88Z" fill="#263238"/>
<path d="M50.8409 148.668C50.8409 149.534 50.5539 150.381 50.0162 151.102C49.4784 151.822 48.7141 152.384 47.8199 152.715C46.9256 153.047 45.9416 153.134 44.9923 152.965C44.043 152.796 43.171 152.378 42.4866 151.766C41.8022 151.153 41.3361 150.372 41.1473 149.522C40.9584 148.672 41.0553 147.791 41.4257 146.991C41.7962 146.19 42.4234 145.506 43.2282 145.025C44.033 144.543 44.9792 144.286 45.9471 144.286C47.245 144.286 48.4898 144.748 49.4076 145.569C50.3253 146.391 50.8409 147.506 50.8409 148.668Z" fill="#279EFF"/>
<path d="M45.9471 144.286C46.6497 144.286 47.2193 143.776 47.2193 143.147C47.2193 142.518 46.6497 142.008 45.9471 142.008C45.2444 142.008 44.6748 142.518 44.6748 143.147C44.6748 143.776 45.2444 144.286 45.9471 144.286Z" fill="#279EFF"/>
<path d="M38.0101 175.836H54C54.6308 175.836 55.2357 176.061 55.6817 176.46C56.1277 176.859 56.3783 177.401 56.3783 177.965V179.04H35.6318V177.965C35.6318 177.401 35.8824 176.859 36.3284 176.46C36.7744 176.061 37.3793 175.836 38.0101 175.836Z" fill="#279EFF"/>
<path d="M38.6172 175.895L39.8533 177.441H52.3807L53.7035 175.895H38.6172Z" fill="#279EFF"/>
<path d="M49.8071 161.43H42.0868C41.492 161.43 41.0098 161.862 41.0098 162.394V162.517C41.0098 163.05 41.492 163.482 42.0868 163.482H49.8071C50.402 163.482 50.8842 163.05 50.8842 162.517V162.394C50.8842 161.862 50.402 161.43 49.8071 161.43Z" fill="#279EFF"/>
<path d="M42.8315 161.708C42.8315 161.708 42.7014 171.565 38.6172 175.895H46.1784V161.708H42.8315Z" fill="#279EFF"/>
<path d="M49.2942 161.708C49.2942 161.708 49.6195 171.565 53.7037 175.895H45.9473V161.708H49.2942Z" fill="#279EFF"/>
<path d="M53.2189 147.845C51.6358 146.499 50.2479 147.942 49.6768 148.493C49.1058 149.043 47.9419 148.9 47.313 147.949C46.7926 147.159 46.1926 147.146 45.9468 147.172C45.701 147.198 45.101 147.172 44.5806 147.949C43.9517 148.9 42.7879 149.023 42.2168 148.493C41.6457 147.962 40.2578 146.551 38.6675 147.845C38.6675 147.845 41.9566 151.56 42.4626 155.405C42.9686 159.249 42.918 161.054 42.4626 162.122H49.4311C48.9757 161.054 48.925 159.249 49.4311 155.405C49.9371 151.56 53.2189 147.845 53.2189 147.845Z" fill="#279EFF"/>
<path d="M53.8335 175.895C53.8335 175.985 50.3926 176.063 46.1421 176.063C41.8917 176.063 38.458 175.985 38.458 175.895C38.458 175.804 41.8989 175.726 46.1421 175.726C50.3854 175.726 53.8335 175.798 53.8335 175.895Z" fill="#263238"/>
<path d="M49.6554 163.462C48.3971 163.629 47.1236 163.685 45.8531 163.631C44.5826 163.685 43.3091 163.629 42.0508 163.462C43.3091 163.296 44.5826 163.24 45.8531 163.294C47.1236 163.24 48.3971 163.296 49.6554 163.462Z" fill="#263238"/>
<path d="M50.4145 161.812C48.9991 161.984 47.5697 162.047 46.1423 162C44.7155 162.054 43.2861 161.998 41.8701 161.831C43.2861 161.665 44.7155 161.608 46.1423 161.663C47.5685 161.603 48.9978 161.652 50.4145 161.812Z" fill="#263238"/>
<path d="M52.106 147.347C51.9112 147.331 51.7152 147.331 51.5204 147.347C50.9872 147.455 50.4911 147.677 50.0747 147.995C49.7622 148.214 49.4166 148.393 49.0482 148.525C48.8203 148.611 48.5718 148.643 48.3263 148.618C48.0808 148.593 47.8465 148.512 47.6458 148.383C47.2822 148.087 46.9416 147.769 46.6266 147.432C46.473 147.286 46.2668 147.194 46.0445 147.171C45.8222 147.149 45.5982 147.197 45.4122 147.309C45.001 147.569 44.6292 147.875 44.3062 148.221C44.1312 148.41 43.9096 148.561 43.6588 148.661C43.408 148.761 43.1347 148.807 42.8604 148.797C42.3969 148.714 41.9715 148.509 41.6388 148.208C41.3706 147.982 41.0598 147.8 40.7207 147.671C40.2179 147.512 39.6694 147.512 39.1665 147.671C38.8051 147.775 38.6316 147.897 38.6099 147.872C38.5882 147.846 38.74 147.697 39.1159 147.548C39.649 147.333 40.2526 147.306 40.8075 147.47C41.1819 147.598 41.5291 147.781 41.8339 148.014C42.1279 148.269 42.4963 148.444 42.8966 148.519C43.1137 148.515 43.3271 148.468 43.5211 148.381C43.7151 148.293 43.8846 148.168 44.017 148.014C44.3588 147.642 44.7552 147.313 45.1953 147.037C45.4577 146.894 45.7649 146.833 46.07 146.862C46.3641 146.902 46.6355 147.027 46.8435 147.218C47.241 147.554 47.4796 147.936 47.8193 148.156C47.9748 148.26 48.1575 148.327 48.3499 148.349C48.5422 148.372 48.7379 148.35 48.9181 148.286C49.2647 148.172 49.5928 148.017 49.894 147.826C50.3401 147.503 50.8786 147.299 51.4482 147.237C51.9252 147.192 52.1204 147.341 52.106 147.347Z" fill="#263238"/>
</svg>
