<svg width="336" height="224" viewBox="0 0 336 224" fill="none" xmlns="http://www.w3.org/2000/svg">
<path d="M336 196.848H0V196.998H336V196.848Z" fill="#EBEBEB"/>
<path d="M302.333 206.522H280.076V206.672H302.333V206.522Z" fill="#EBEBEB"/>
<path d="M222.58 208.157H216.74V208.308H222.58V208.157Z" fill="#EBEBEB"/>
<path d="M279.404 200.942H266.509V201.092H279.404V200.942Z" fill="#EBEBEB"/>
<path d="M64.2769 201.952H35.2532V202.103H64.2769V201.952Z" fill="#EBEBEB"/>
<path d="M74.5182 201.952H70.2644V202.103H74.5182V201.952Z" fill="#EBEBEB"/>
<path d="M151.301 204.49H88.3479V204.64H151.301V204.49Z" fill="#EBEBEB"/>
<path d="M159.264 170.032H29.5076C28.4911 170.031 27.5169 169.668 26.7987 169.025C26.0806 168.381 25.6772 167.509 25.6772 166.599V3.40305C25.6861 2.49879 26.0933 1.63417 26.8105 0.996996C27.5277 0.35982 28.4969 0.00154904 29.5076 0H159.264C160.282 0 161.258 0.361702 161.977 1.00554C162.697 1.64937 163.101 2.52259 163.101 3.43311V166.599C163.101 167.51 162.697 168.383 161.977 169.027C161.258 169.671 160.282 170.032 159.264 170.032ZM29.5076 0.12025C28.5357 0.121842 27.6042 0.468409 26.9175 1.08388C26.2309 1.69935 25.8452 2.53344 25.8452 3.40305V166.599C25.8452 167.469 26.2309 168.303 26.9175 168.918C27.6042 169.534 28.5357 169.88 29.5076 169.882H159.264C160.237 169.88 161.169 169.534 161.857 168.919C162.544 168.303 162.931 167.469 162.933 166.599V3.40305C162.931 2.53288 162.544 1.69881 161.857 1.08351C161.169 0.468214 160.237 0.121839 159.264 0.12025H29.5076Z" fill="#EBEBEB"/>
<path d="M304.624 170.032H174.861C173.844 170.031 172.869 169.668 172.15 169.025C171.431 168.381 171.026 167.509 171.024 166.599V3.40305C171.035 2.49824 171.443 1.63363 172.162 0.99662C172.88 0.35961 173.85 0.00153215 174.861 0H304.624C305.634 0.00312918 306.601 0.3621 307.317 0.999106C308.033 1.63611 308.439 2.49983 308.448 3.40305V166.599C308.448 167.508 308.046 168.379 307.329 169.022C306.612 169.666 305.64 170.029 304.624 170.032ZM174.861 0.12025C173.888 0.121839 172.956 0.468214 172.269 1.08351C171.581 1.69881 171.194 2.53288 171.192 3.40305V166.599C171.194 167.469 171.581 168.303 172.269 168.919C172.956 169.534 173.888 169.88 174.861 169.882H304.624C305.597 169.88 306.529 169.534 307.217 168.919C307.904 168.303 308.292 167.469 308.293 166.599V3.40305C308.292 2.53288 307.904 1.69881 307.217 1.08351C306.529 0.468214 305.597 0.121839 304.624 0.12025H174.861Z" fill="#EBEBEB"/>
<path d="M53.7263 114.357L284.572 114.357V13.3417L53.7263 13.3417V114.357Z" fill="#E6E6E6"/>
<path d="M51.4214 114.357L282.267 114.357V13.3417L51.4214 13.3417V114.357Z" fill="#F5F5F5"/>
<path d="M278.127 110.9V16.7927L55.5543 16.7927V110.9L278.127 110.9Z" fill="#FAFAFA"/>
<path d="M174.619 110.9L222.459 16.7927H182.374L134.534 110.9H174.619Z" fill="white"/>
<path d="M209.026 110.9L256.865 16.7927H232.942L185.096 110.9H209.026Z" fill="white"/>
<path d="M89.544 110.9L137.384 16.7927H125.422L77.5757 110.9H89.544Z" fill="white"/>
<path d="M57.3081 110.9L57.3081 16.7927H55.5676L55.5676 110.9H57.3081Z" fill="#E6E6E6"/>
<path d="M53.1418 104.063L280.56 104.063V102.789L53.1418 102.789V104.063Z" fill="#F5F5F5"/>
<path d="M53.1418 100.703L280.56 100.703V99.428L53.1418 99.428V100.703Z" fill="#F5F5F5"/>
<g opacity="0.4">
<path d="M58.5985 7.47949H45.8103V73.4842H58.5985V7.47949Z" fill="#EBEBEB"/>
<path d="M64.9825 7.47949H58.5918V69.6062H64.9825V7.47949Z" fill="#E6E6E6"/>
<path d="M77.7774 7.47949H64.9893V73.4842H77.7774V7.47949Z" fill="#EBEBEB"/>
<path d="M84.1612 7.47949H77.7705V69.6062H84.1612V7.47949Z" fill="#E6E6E6"/>
<path d="M96.9561 7.47949H84.168V73.4842H96.9561V7.47949Z" fill="#EBEBEB"/>
<path d="M103.34 7.47949H96.9495V69.6062H103.34V7.47949Z" fill="#E6E6E6"/>
<path d="M116.135 7.47949H103.347V73.4842H116.135V7.47949Z" fill="#EBEBEB"/>
<path d="M122.519 7.47949H116.128V69.6062H122.519V7.47949Z" fill="#E6E6E6"/>
<path d="M135.307 7.47949H122.519V73.4842H135.307V7.47949Z" fill="#EBEBEB"/>
<path d="M141.698 7.47949H135.307V69.6062H141.698V7.47949Z" fill="#E6E6E6"/>
<path d="M154.486 7.47949H141.698V73.4842H154.486V7.47949Z" fill="#EBEBEB"/>
<path d="M160.877 7.47949H154.486V69.6062H160.877V7.47949Z" fill="#E6E6E6"/>
<path d="M173.665 7.47949H160.877V73.4842H173.665V7.47949Z" fill="#EBEBEB"/>
<path d="M180.056 7.47949H173.665V69.6062H180.056V7.47949Z" fill="#E6E6E6"/>
<path d="M192.844 7.47949H180.056V73.4842H192.844V7.47949Z" fill="#EBEBEB"/>
<path d="M199.234 7.47949H192.844V69.6062H199.234V7.47949Z" fill="#E6E6E6"/>
<path d="M212.023 7.47949H199.235V73.4842H212.023V7.47949Z" fill="#EBEBEB"/>
<path d="M218.413 7.47949H212.023V69.6062H218.413V7.47949Z" fill="#E6E6E6"/>
<path d="M231.201 7.47949H218.413V73.4842H231.201V7.47949Z" fill="#EBEBEB"/>
<path d="M237.592 7.47949H231.202V69.6062H237.592V7.47949Z" fill="#E6E6E6"/>
<path d="M250.38 7.47949H237.592V73.4842H250.38V7.47949Z" fill="#EBEBEB"/>
<path d="M256.771 7.47949H250.38V69.6062H256.771V7.47949Z" fill="#E6E6E6"/>
<path d="M269.559 7.47949H256.771V73.4842H269.559V7.47949Z" fill="#EBEBEB"/>
<path d="M288.738 7.47949H275.95V73.4842H288.738V7.47949Z" fill="#EBEBEB"/>
<path d="M275.95 7.47949H269.559V69.6062H275.95V7.47949Z" fill="#E6E6E6"/>
</g>
<path d="M273.86 120.381H40.2258V124.656H273.86V120.381Z" fill="#F5F5F5"/>
<path d="M273.86 124.662H287.428V120.387H273.86V124.662Z" fill="#EBEBEB"/>
<path d="M280.063 140.89H275.601L275.493 140.18C275.4 139.517 275.039 138.906 274.479 138.463C273.918 138.021 273.197 137.776 272.449 137.775H249.655C249.217 137.775 248.784 137.859 248.385 138.021C247.986 138.183 247.631 138.419 247.342 138.714C247.054 139.009 246.84 139.356 246.713 139.731C246.587 140.106 246.552 140.501 246.61 140.89L247.222 144.918C247.274 145.272 247.469 145.597 247.77 145.831C248.07 146.066 248.456 146.194 248.855 146.193H281.669C281.903 146.193 282.135 146.148 282.348 146.062C282.562 145.975 282.752 145.849 282.907 145.691C283.062 145.534 283.177 145.348 283.245 145.147C283.313 144.947 283.332 144.735 283.302 144.527L283.107 143.247C283.002 142.592 282.636 141.993 282.077 141.56C281.517 141.127 280.802 140.889 280.063 140.89Z" fill="#EBEBEB"/>
<path d="M272.234 148.856H258.72L258.176 146.217H271.69L272.234 148.856Z" fill="#F5F5F5"/>
<path d="M266.475 147.54H263.935V196.848H266.475V147.54Z" fill="#F5F5F5"/>
<path d="M275.177 196.848H255.091L262.288 195.182H267.98L275.177 196.848Z" fill="#F5F5F5"/>
<path d="M214.664 140.89H210.195L210.087 140.18C209.997 139.517 209.638 138.906 209.079 138.462C208.519 138.019 207.797 137.775 207.05 137.775H184.249C183.812 137.776 183.379 137.861 182.981 138.023C182.583 138.185 182.229 138.422 181.941 138.717C181.654 139.011 181.44 139.358 181.314 139.733C181.188 140.107 181.153 140.502 181.212 140.89L181.823 144.918C181.875 145.271 182.069 145.595 182.368 145.829C182.667 146.064 183.052 146.193 183.449 146.193H216.27C216.504 146.193 216.736 146.148 216.949 146.062C217.162 145.975 217.352 145.849 217.506 145.691C217.66 145.533 217.775 145.348 217.842 145.147C217.909 144.946 217.928 144.735 217.896 144.527L217.708 143.247C217.603 142.592 217.237 141.993 216.678 141.56C216.118 141.127 215.403 140.889 214.664 140.89Z" fill="#EBEBEB"/>
<path d="M206.828 148.856H193.314L192.777 146.217H206.291L206.828 148.856Z" fill="#F5F5F5"/>
<path d="M201.076 147.54H198.536V196.848H201.076V147.54Z" fill="#F5F5F5"/>
<path d="M209.772 196.848H189.686L196.883 195.182H202.575L209.772 196.848Z" fill="#F5F5F5"/>
<path d="M149.265 140.89H144.796L144.688 140.18C144.597 139.517 144.237 138.907 143.678 138.464C143.119 138.021 142.398 137.776 141.651 137.775H118.85C118.412 137.776 117.98 137.861 117.582 138.023C117.184 138.185 116.83 138.422 116.542 138.717C116.254 139.011 116.041 139.358 115.915 139.733C115.789 140.107 115.754 140.502 115.812 140.89L116.417 144.918C116.471 145.271 116.666 145.595 116.966 145.83C117.267 146.064 117.652 146.193 118.05 146.193H150.864C151.099 146.194 151.331 146.15 151.545 146.064C151.759 145.977 151.95 145.851 152.105 145.693C152.26 145.535 152.375 145.35 152.442 145.148C152.51 144.947 152.529 144.735 152.497 144.527L152.302 143.247C152.198 142.592 151.834 141.993 151.276 141.56C150.718 141.127 150.003 140.889 149.265 140.89Z" fill="#EBEBEB"/>
<path d="M141.429 148.856H127.915L127.371 146.217H140.885L141.429 148.856Z" fill="#F5F5F5"/>
<path d="M135.67 147.54H133.13V196.848H135.67V147.54Z" fill="#F5F5F5"/>
<path d="M144.372 196.848H124.286L131.484 195.182H137.175L144.372 196.848Z" fill="#F5F5F5"/>
<path d="M83.8655 140.89H79.3967L79.2892 140.18C79.1959 139.517 78.8352 138.906 78.2748 138.463C77.7144 138.021 76.9926 137.776 76.245 137.775H53.4508C53.0096 137.774 52.5733 137.858 52.1715 138.021C51.7698 138.184 51.412 138.422 51.1225 138.72C50.833 139.018 50.6186 139.368 50.4939 139.746C50.3692 140.125 50.3371 140.523 50.3999 140.914L51.0114 144.942C51.0637 145.296 51.2584 145.621 51.559 145.855C51.8596 146.09 52.2455 146.219 52.6444 146.217H85.4581C85.6925 146.217 85.9243 146.172 86.1378 146.086C86.3514 145.999 86.5418 145.873 86.6964 145.715C86.851 145.558 86.9662 145.372 87.0343 145.172C87.1023 144.971 87.1217 144.759 87.0911 144.551L86.8962 143.271C86.7973 142.614 86.4359 142.01 85.8789 141.573C85.3219 141.135 84.6068 140.893 83.8655 140.89Z" fill="#EBEBEB"/>
<path d="M76.0302 148.856H62.5162L61.9719 146.217H75.4858L76.0302 148.856Z" fill="#F5F5F5"/>
<path d="M70.2711 147.54H67.731V196.848H70.2711V147.54Z" fill="#F5F5F5"/>
<path d="M78.9735 196.848H58.8875L66.0846 195.182H71.7764L78.9735 196.848Z" fill="#F5F5F5"/>
<path d="M168 224C239.959 224 298.294 220.953 298.294 217.194C298.294 213.435 239.959 210.388 168 210.388C96.0405 210.388 37.7058 213.435 37.7058 217.194C37.7058 220.953 96.0405 224 168 224Z" fill="#F5F5F5"/>
<path d="M242.592 52.579C242.591 53.1852 242.389 53.7774 242.011 54.2809C241.634 54.7844 241.098 55.1764 240.472 55.4076C239.846 55.6388 239.157 55.6986 238.492 55.5796C237.828 55.4606 237.218 55.1681 236.739 54.7391C236.261 54.31 235.935 53.7636 235.803 53.169C235.671 52.5743 235.74 51.9581 235.999 51.3981C236.259 50.8382 236.698 50.3596 237.262 50.023C237.825 49.6863 238.487 49.5066 239.165 49.5066C239.616 49.5066 240.062 49.5861 240.478 49.7406C240.894 49.8951 241.272 50.1215 241.591 50.4068C241.909 50.6922 242.161 51.0309 242.333 51.4037C242.505 51.7764 242.593 52.1758 242.592 52.579Z" fill="#263238"/>
<path d="M240.24 55.3567C240.242 55.9232 240.055 56.4774 239.704 56.9489C239.353 57.4205 238.853 57.7882 238.269 58.0056C237.684 58.2229 237.04 58.2801 236.419 58.1699C235.798 58.0596 235.227 57.787 234.78 57.3863C234.332 56.9857 234.027 56.4752 233.904 55.9195C233.781 55.3638 233.845 54.7879 234.088 54.2647C234.33 53.7415 234.742 53.2946 235.269 52.9806C235.796 52.6665 236.415 52.4995 237.048 52.5007C237.894 52.5023 238.705 52.8037 239.303 53.339C239.902 53.8742 240.238 54.5997 240.24 55.3567Z" fill="#263238"/>
<path d="M259.594 188.268L256.422 191.455L247.76 185.292L250.932 182.105L259.594 188.268Z" fill="#7F3E3B"/>
<path d="M255.844 191.292L259.405 187.685C259.465 187.624 259.548 187.586 259.638 187.578C259.728 187.571 259.818 187.594 259.889 187.643L263.249 189.994C263.416 190.126 263.517 190.313 263.531 190.512C263.545 190.711 263.47 190.907 263.323 191.058C262.06 192.26 261.388 192.819 259.815 194.389C258.854 195.363 256.375 197.539 255.037 198.88C253.7 200.221 252.269 199 252.699 198.327C254.628 195.321 255.427 193.517 255.535 191.99C255.552 191.734 255.66 191.489 255.844 191.292Z" fill="#263238"/>
<path opacity="0.2" d="M250.938 182.105L247.76 185.292L252.229 188.466L255.4 185.28L250.938 182.105Z" fill="black"/>
<path d="M222.882 105.218C222.882 105.218 215.968 138.287 215.692 150.498C215.383 163.906 249.964 189.14 249.964 189.14L255.481 183.073C255.481 183.073 234.427 163.232 229.891 150.829C231.699 136.525 239.871 103.931 239.871 103.931L222.882 105.218Z" fill="#263238"/>
<path opacity="0.3" d="M229.266 126.983C227.983 132.785 228.836 140.289 230.644 145.85C232.089 137.343 234.676 125.757 236.732 116.924C234.468 117.002 230.872 119.708 229.266 126.983Z" fill="black"/>
<path d="M255.817 183.055L249.769 189.447L246.503 187.919L253.969 180.999L255.817 183.055Z" fill="#279EFF"/>
<path d="M255.36 192.916C255.636 192.622 255.877 192.304 256.079 191.966C256.091 191.949 256.097 191.931 256.097 191.912C256.097 191.892 256.091 191.874 256.079 191.858C256.065 191.843 256.048 191.832 256.028 191.826C256.007 191.819 255.986 191.818 255.965 191.821C255.79 191.864 254.198 192.212 253.949 192.741C253.924 192.801 253.917 192.866 253.928 192.929C253.938 192.992 253.966 193.051 254.01 193.102C254.066 193.185 254.146 193.253 254.242 193.3C254.338 193.346 254.445 193.369 254.554 193.367C254.875 193.309 255.162 193.149 255.36 192.916ZM255.757 192.074C255.313 192.747 254.876 193.15 254.561 193.168C254.489 193.167 254.419 193.149 254.358 193.117C254.297 193.084 254.246 193.037 254.211 192.982C254.189 192.958 254.174 192.929 254.168 192.899C254.162 192.868 254.165 192.837 254.178 192.807C254.272 192.525 255.105 192.236 255.737 192.074H255.757Z" fill="#279EFF"/>
<path d="M256.032 191.984C256.036 191.97 256.036 191.956 256.032 191.942C256.042 191.928 256.047 191.913 256.047 191.897C256.047 191.881 256.042 191.865 256.032 191.852C255.992 191.816 255.038 190.926 254.372 190.968C254.287 190.973 254.203 190.996 254.129 191.034C254.054 191.073 253.99 191.126 253.942 191.19C253.882 191.257 253.85 191.339 253.85 191.425C253.85 191.51 253.882 191.593 253.942 191.659C254.258 192.044 255.475 192.164 255.999 192.014L256.032 191.984ZM254.151 191.268C254.211 191.208 254.295 191.171 254.386 191.166C254.782 191.166 255.394 191.581 255.73 191.864C255.162 191.946 254.581 191.832 254.104 191.545C254.063 191.497 254.03 191.425 254.104 191.304L254.151 191.268Z" fill="#279EFF"/>
<path d="M224.744 72.1856C224.609 72.6606 224.502 73.0153 224.381 73.4181C224.26 73.821 224.119 74.1937 223.984 74.5725C223.707 75.3381 223.411 76.0957 223.097 76.8452C222.466 78.3551 221.741 79.8324 220.927 81.2704C219.271 84.3036 217.033 87.053 214.314 89.3932C213.567 90.0001 212.772 90.5587 211.935 91.0647C211.72 91.191 211.378 91.3593 211.109 91.5036C210.84 91.6479 210.524 91.7441 210.229 91.8643C209.933 91.9846 209.637 92.0507 209.341 92.1349L208.468 92.3153C206.407 92.6167 204.298 92.5266 202.279 92.0507C200.486 91.6645 198.743 91.1123 197.077 90.4033C196.264 90.0666 195.478 89.6938 194.705 89.303C193.933 88.9122 193.193 88.5094 192.414 88.0284L194.094 85.1965C194.806 85.401 195.606 85.6354 196.365 85.8338C197.125 86.0323 197.918 86.2066 198.684 86.381C200.172 86.7152 201.686 86.9483 203.213 87.0784C204.495 87.2123 205.794 87.1308 207.043 86.8379L207.386 86.7177C207.48 86.6696 207.588 86.6335 207.682 86.5854L207.924 86.4471C208.004 86.387 208.038 86.375 208.165 86.2848C208.691 85.9147 209.187 85.5129 209.651 85.0823C211.631 83.1021 213.253 80.8562 214.455 78.4265C215.127 77.1819 215.712 75.8772 216.277 74.5665C216.552 73.9112 216.814 73.2438 217.056 72.5764L217.406 71.5783C217.52 71.2597 217.641 70.8929 217.721 70.6404L224.744 72.1856Z" fill="#7F3E3B"/>
<path d="M211.129 81.3306L219.126 85.7678C219.126 85.7678 219.388 85.4611 219.798 84.932C220.107 84.5472 220.51 84.0302 220.974 83.4289C223.588 80.0259 227.297 73.8872 227.062 71.0373C226.706 66.7985 221.726 66.552 216.619 71.3138C214.415 73.3641 213.474 76.5687 212.446 78.5889C212.103 79.2503 211.821 79.8335 211.599 80.2844L211.129 81.3306Z" fill="#279EFF"/>
<path d="M245.556 211.807H240.784L240.166 201.922H244.937L245.556 211.807Z" fill="#7F3E3B"/>
<path d="M240.536 211.314H245.912C245.956 211.312 246 211.318 246.041 211.332C246.083 211.346 246.121 211.366 246.153 211.393C246.186 211.42 246.212 211.452 246.231 211.488C246.249 211.524 246.259 211.563 246.261 211.602L246.523 215.402C246.523 215.601 246.436 215.792 246.28 215.934C246.124 216.075 245.912 216.157 245.69 216.16C243.822 216.16 242.928 216.034 240.569 216.034C239.125 216.034 234.924 216.166 232.922 216.166C230.919 216.166 230.98 214.392 231.827 214.236C235.63 213.514 238.379 212.522 239.729 211.578C239.959 211.414 240.242 211.321 240.536 211.314Z" fill="#263238"/>
<path opacity="0.2" d="M244.937 201.922H240.166L240.489 207.021H245.26L244.937 201.922Z" fill="black"/>
<path d="M232.142 104.298C232.142 104.298 230.126 136.567 231.746 148.724C233.493 162.042 238.466 205.788 238.466 205.788H247.202C247.202 205.788 246.288 162.432 245.918 149.175C245.522 134.787 248.573 103.035 248.573 103.035L232.142 104.298Z" fill="#263238"/>
<path d="M247.518 205.788H237.794L237.256 202.331L247.988 202.872L247.518 205.788Z" fill="#279EFF"/>
<path d="M238.842 212.059C239.271 212.049 239.697 211.997 240.112 211.903C240.134 211.9 240.155 211.891 240.171 211.877C240.187 211.863 240.197 211.845 240.2 211.825C240.203 211.806 240.2 211.788 240.192 211.77C240.184 211.753 240.17 211.739 240.153 211.729C239.998 211.632 238.647 210.803 238.069 211.007C238.003 211.031 237.945 211.07 237.899 211.119C237.853 211.168 237.822 211.227 237.807 211.29C237.775 211.383 237.772 211.482 237.796 211.577C237.821 211.672 237.874 211.76 237.948 211.831C238.204 212.005 238.523 212.086 238.842 212.059ZM239.81 211.759C238.956 211.915 238.325 211.891 238.103 211.693C238.056 211.645 238.024 211.587 238.01 211.525C237.996 211.463 238 211.398 238.022 211.338C238.027 211.306 238.042 211.275 238.064 211.25C238.087 211.225 238.116 211.205 238.15 211.194C238.459 211.085 239.232 211.446 239.81 211.759Z" fill="#279EFF"/>
<path d="M240.092 211.909H240.139C240.156 211.901 240.17 211.89 240.18 211.877C240.191 211.863 240.197 211.847 240.2 211.831C240.2 211.777 240.314 210.55 239.83 210.135C239.77 210.08 239.696 210.038 239.614 210.014C239.532 209.99 239.445 209.984 239.36 209.997C239.264 209.997 239.171 210.027 239.097 210.082C239.024 210.137 238.974 210.213 238.957 210.298C238.849 210.761 239.555 211.651 240.032 211.903L240.092 211.909ZM239.42 210.178C239.508 210.178 239.592 210.208 239.655 210.262C239.92 210.673 240.031 211.149 239.971 211.621C239.524 211.296 239.231 210.832 239.151 210.322C239.151 210.268 239.205 210.196 239.366 210.178H239.42Z" fill="#279EFF"/>
<path opacity="0.3" d="M227.176 71.5483C225.382 70.6765 224.394 73.3521 221.249 75.8232C219.852 76.9174 217.184 83.5552 217.587 84.9381L219.126 85.7918C219.126 85.7918 227.62 75.757 227.176 71.5483Z" fill="black"/>
<path d="M195.028 85.6414L191.157 82.1482L188.812 86.3569C188.812 86.3569 193.032 89.1166 194.235 88.1606L195.028 85.6414Z" fill="#7F3E3B"/>
<path d="M186.245 82.4007L185.472 85.7256L188.812 86.381L191.157 82.1482L186.245 82.4007Z" fill="#7F3E3B"/>
<path d="M222.882 105.218L248.304 103.264C248.304 101.22 247.128 94.648 246.711 86.2005C246.352 79.944 246.602 73.6715 247.457 67.4537C247.525 66.9847 247.598 66.5218 247.679 66.0528C247.679 66.0528 246.369 65.9205 244.494 65.8183C242.941 65.7341 240.999 65.68 239.118 65.7401C235.501 65.8355 231.893 66.1146 228.312 66.5759C226.666 66.8404 225.066 67.2132 223.796 67.5319C222.17 67.9587 221.216 68.2894 221.216 68.2894C221.216 68.2894 216.176 81.6491 222.882 105.218Z" fill="#279EFF"/>
<path opacity="0.3" d="M246.712 86.2187C246.356 79.9602 246.605 73.6859 247.457 67.4658C245.744 67.4658 242.854 67.8386 242.606 70.3338C242.344 73.0093 243.593 79.166 246.712 86.2187Z" fill="black"/>
<path d="M249.406 68.6743C249.977 69.3297 250.461 69.9069 250.945 70.5382C251.429 71.1695 251.893 71.7828 252.356 72.4141C253.27 73.6827 254.137 74.9814 254.943 76.3161C256.635 79.0289 257.987 81.9002 258.975 84.8779L259.07 85.1605L259.117 85.3048L259.184 85.5393C259.268 85.8578 259.326 86.1813 259.359 86.5073C259.404 87.0503 259.39 87.5959 259.318 88.1366C259.192 89.0302 258.967 89.9103 258.646 90.7641C258.066 92.2641 257.342 93.7165 256.482 95.1051C254.854 97.7369 252.958 100.229 250.817 102.548L247.814 100.799C249.158 98.2556 250.441 95.6281 251.496 93.0608C252.023 91.8355 252.45 90.5776 252.773 89.297C252.909 88.7641 252.986 88.2203 253.001 87.6737C253.006 87.496 252.988 87.3185 252.948 87.1446C252.948 87.0905 252.914 87.0484 252.901 87.0424L252.854 86.9281L252.753 86.6997C252.224 85.4697 251.623 84.2655 250.952 83.0922C250.28 81.8897 249.52 80.6872 248.741 79.5148C247.961 78.3423 247.128 77.1699 246.281 76.0095C245.435 74.8491 244.527 73.6827 243.701 72.6365L249.406 68.6743Z" fill="#7F3E3B"/>
<path d="M242.108 74.2959C243.58 77.1531 245.236 79.9315 247.068 82.6172C247.464 83.2184 247.834 83.7595 248.136 84.1924C248.66 84.956 248.99 85.3949 248.99 85.3949L258.162 79.8815L257.726 78.9375C257.517 78.4926 257.242 77.9094 256.906 77.236C254.89 73.2678 250.932 66.2212 247.679 66.0468C242.814 65.8123 239.669 69.2875 242.108 74.2959Z" fill="#279EFF"/>
<path d="M237.834 54.9299L235.146 57.2988L231.491 60.5275C231.652 60.987 231.782 61.4548 231.88 61.9284C232.277 63.8224 231.88 65.602 228.809 66.5099C228.809 66.5099 224.972 69.5943 230.51 69.4079C232.212 69.3774 233.889 69.0369 235.44 68.4074C236.99 67.7779 238.381 66.8725 239.528 65.7463C236.974 63.8524 237.33 58.1045 237.834 54.9299Z" fill="#7F3E3B"/>
<path d="M238.668 64.5979C236.74 66.7843 234.161 68.4391 231.229 69.3718C231.978 69.5168 232.681 69.8117 233.285 70.2344C233.889 70.6572 234.378 71.1968 234.716 71.8128C234.716 71.8128 239.998 69.6303 240.193 65.7282C239.728 65.3064 239.217 64.9277 238.668 64.5979Z" fill="white"/>
<path d="M229.226 66.3115C229.226 66.3115 227.768 68.4039 230.328 69.414C229.285 69.9655 228.477 70.8115 228.03 71.8189C228.03 71.8189 225.9 68.939 227.519 66.6302C228.48 66.4017 229.226 66.3115 229.226 66.3115Z" fill="white"/>
<path opacity="0.2" d="M231.491 60.5275C231.652 60.987 231.782 61.4548 231.88 61.9284C233.325 61.5496 235.153 60.0044 235.24 58.6456C235.269 58.1954 235.242 57.7437 235.16 57.2988L231.491 60.5275Z" fill="black"/>
<path d="M231.351 48.4945C234.009 46.1159 234.009 42.2596 231.351 39.881C228.692 37.5025 224.382 37.5025 221.724 39.881C219.065 42.2596 219.065 46.1159 221.724 48.4945C224.382 50.873 228.692 50.873 231.351 48.4945Z" fill="#263238"/>
<path d="M232.19 48.3041C234.869 48.3041 237.042 46.3605 237.042 43.9631C237.042 41.5656 234.869 39.6221 232.19 39.6221C229.51 39.6221 227.338 41.5656 227.338 43.9631C227.338 46.3605 229.51 48.3041 232.19 48.3041Z" fill="#263238"/>
<path d="M240.428 45.4662C240.428 46.1369 240.206 46.7925 239.79 47.3502C239.373 47.9078 238.781 48.3425 238.089 48.5991C237.396 48.8558 236.634 48.9229 235.899 48.7921C235.164 48.6612 234.488 48.3383 233.958 47.864C233.428 47.3898 233.067 46.7856 232.921 46.1278C232.775 45.47 232.85 44.7882 233.137 44.1685C233.424 43.5489 233.909 43.0193 234.533 42.6467C235.156 42.2741 235.889 42.0752 236.638 42.0752C237.643 42.0752 238.607 42.4325 239.318 43.0684C240.029 43.7043 240.428 44.5669 240.428 45.4662Z" fill="#263238"/>
<path d="M230.328 49.8133C230.327 50.4837 230.103 51.1387 229.686 51.6956C229.269 52.2525 228.677 52.6862 227.984 52.9419C227.291 53.1976 226.529 53.2639 225.795 53.1324C225.06 53.0009 224.385 52.6775 223.856 52.203C223.326 51.7285 222.966 51.1243 222.82 50.4666C222.675 49.809 222.75 49.1275 223.037 48.5082C223.324 47.8889 223.81 47.3597 224.433 46.9873C225.056 46.615 225.789 46.4163 226.538 46.4163C227.036 46.4163 227.53 46.5042 227.99 46.675C228.45 46.8458 228.868 47.0961 229.221 47.4116C229.573 47.7271 229.852 48.1017 230.042 48.5138C230.232 48.9259 230.329 49.3675 230.328 49.8133Z" fill="#263238"/>
<path d="M239.528 52.1642C241.539 52.1642 243.17 50.7052 243.17 48.9055C243.17 47.1057 241.539 45.6467 239.528 45.6467C237.516 45.6467 235.885 47.1057 235.885 48.9055C235.885 50.7052 237.516 52.1642 239.528 52.1642Z" fill="#263238"/>
<path d="M238.594 50.3544C237.989 54.5631 237.875 57.0583 235.321 59.1506C234.502 59.841 233.487 60.3176 232.386 60.5289C231.286 60.7402 230.142 60.678 229.078 60.3492C228.014 60.0203 227.071 59.4373 226.351 58.6633C225.631 57.8893 225.161 56.9537 224.993 55.958C224.26 52.1341 225.382 45.8871 230.133 44.3419C231.152 43.9836 232.258 43.8712 233.34 44.0159C234.423 44.1606 235.443 44.5574 236.3 45.1664C237.157 45.7754 237.82 46.5753 238.223 47.4859C238.625 48.3964 238.753 49.3857 238.594 50.3544Z" fill="#7F3E3B"/>
<path d="M238.338 53.4086C240.101 53.4086 241.53 52.13 241.53 50.5527C241.53 48.9754 240.101 47.6968 238.338 47.6968C236.576 47.6968 235.146 48.9754 235.146 50.5527C235.146 52.13 236.576 53.4086 238.338 53.4086Z" fill="#263238"/>
<path d="M232.815 49.1277C233.45 49.4827 234.157 49.7221 234.896 49.8323C235.635 49.9425 236.39 49.9213 237.12 49.77C237.849 49.6187 238.539 49.3402 239.148 48.9504C239.757 48.5606 240.274 48.0672 240.67 47.4984L231.007 42.0872C230.608 42.6555 230.339 43.2886 230.214 43.9502C230.089 44.6117 230.111 45.2888 230.279 45.9427C230.447 46.5966 230.758 47.2145 231.193 47.761C231.628 48.3075 232.179 48.772 232.815 49.1277Z" fill="#263238"/>
<path d="M226.108 47.1558C227.499 47.5434 229.005 47.4211 230.295 46.8157C231.586 46.2103 232.555 45.1713 232.989 43.9271L222.506 40.999C222.29 41.6149 222.213 42.2627 222.277 42.9055C222.341 43.5483 222.547 44.1734 222.881 44.7452C223.216 45.3169 223.673 45.8241 224.227 46.2377C224.78 46.6514 225.42 46.9633 226.108 47.1558Z" fill="#263238"/>
<path d="M240.079 54.5932C239.409 55.4636 238.424 56.1007 237.29 56.397C235.859 56.7277 235.408 55.5492 236.04 54.3227C236.605 53.2224 238.056 51.7193 239.367 51.9177C240.677 52.1161 240.926 53.511 240.079 54.5932Z" fill="#7F3E3B"/>
<path d="M231.343 51.3285C231.343 51.6712 231.094 51.9297 230.839 51.9297C230.583 51.9297 230.402 51.6411 230.429 51.2924C230.456 50.9437 230.684 50.6912 230.933 50.6912C231.182 50.6912 231.37 50.9858 231.343 51.3285Z" fill="#263238"/>
<path d="M226.995 51.2023C226.995 51.545 226.74 51.8035 226.491 51.8035C226.242 51.8035 226.054 51.5089 226.081 51.1662C226.108 50.8235 226.337 50.5649 226.585 50.5649C226.834 50.5649 227.022 50.8596 226.995 51.2023Z" fill="#263238"/>
<path d="M228.366 51.4126C227.823 52.4517 227.129 53.4221 226.303 54.2986C226.557 54.4748 226.851 54.5985 227.165 54.6609C227.478 54.7233 227.804 54.7227 228.117 54.6593L228.366 51.4126Z" fill="#630F0F"/>
<path d="M229.622 55.6333C230.067 55.6007 230.499 55.4893 230.895 55.3055C231.291 55.1218 231.642 54.8694 231.927 54.5631C231.938 54.5541 231.946 54.5434 231.952 54.5315C231.957 54.5196 231.96 54.5069 231.96 54.494C231.96 54.4811 231.957 54.4683 231.952 54.4564C231.946 54.4445 231.938 54.4338 231.927 54.4248C231.906 54.4057 231.877 54.395 231.847 54.395C231.817 54.395 231.788 54.4057 231.766 54.4248C231.451 54.754 231.056 55.0145 230.611 55.1864C230.166 55.3583 229.683 55.4371 229.199 55.4169C229.174 55.4224 229.152 55.4351 229.137 55.4531C229.121 55.4711 229.112 55.4933 229.112 55.5161C229.112 55.5389 229.121 55.5611 229.137 55.5791C229.152 55.597 229.174 55.6098 229.199 55.6153C229.34 55.6293 229.481 55.6353 229.622 55.6333Z" fill="#263238"/>
<path d="M232.781 50.1139C232.819 50.1082 232.856 50.096 232.888 50.0778C232.937 50.0463 232.97 49.9997 232.981 49.9472C232.992 49.8947 232.981 49.8404 232.949 49.7952C232.755 49.5288 232.492 49.3086 232.181 49.1535C231.871 48.9985 231.523 48.9133 231.168 48.9053C231.135 48.9003 231.102 48.9016 231.07 48.9094C231.037 48.9172 231.007 48.9312 230.982 48.9504C230.957 48.9695 230.936 48.9935 230.922 49.0205C230.908 49.0475 230.901 49.077 230.901 49.1068C230.901 49.1366 230.908 49.166 230.922 49.193C230.936 49.22 230.957 49.244 230.982 49.2632C231.007 49.2824 231.037 49.2963 231.07 49.3041C231.102 49.3119 231.135 49.3133 231.168 49.3082C231.448 49.3173 231.72 49.3873 231.963 49.5119C232.205 49.6366 232.41 49.8123 232.559 50.0237C232.583 50.0554 232.617 50.0805 232.656 50.0964C232.695 50.1123 232.738 50.1184 232.781 50.1139Z" fill="#263238"/>
<path d="M225.228 49.8073C225.264 49.8035 225.298 49.7923 225.328 49.7745C225.359 49.7568 225.384 49.7331 225.402 49.7051C225.537 49.477 225.728 49.2793 225.961 49.1272C226.194 48.9751 226.462 48.8725 226.746 48.8273C226.806 48.8213 226.86 48.7946 226.898 48.753C226.936 48.7113 226.954 48.6582 226.948 48.6048C226.945 48.5788 226.937 48.5534 226.924 48.5302C226.91 48.5069 226.891 48.4863 226.869 48.4696C226.846 48.4528 226.82 48.4402 226.793 48.4324C226.765 48.4247 226.735 48.422 226.706 48.4245C226.348 48.4757 226.008 48.5999 225.712 48.7876C225.416 48.9753 225.172 49.2213 224.999 49.5067C224.97 49.5538 224.963 49.6093 224.979 49.6611C224.996 49.7128 225.034 49.7568 225.086 49.7833C225.128 49.8077 225.179 49.8163 225.228 49.8073Z" fill="#263238"/>
<path d="M248.969 99.7588L244.165 99.386L247.068 104.1C247.068 104.1 251.382 103.745 250.992 101.767L248.969 99.7588Z" fill="#7F3E3B"/>
<path d="M240.872 102.122L243.472 105.909L247.061 104.1L244.165 99.386L240.872 102.122Z" fill="#7F3E3B"/>
<path d="M158.982 61.4532C154.5 68.7824 156.623 78.727 163.363 82.4968C170.426 86.459 183.953 78.8893 187.831 75.366C181.682 75.4863 180.197 70.7064 179.941 66.0407C179.646 60.6716 176.77 55.4528 172.98 57.2385C167.073 53.5107 161.986 56.5531 158.982 61.4532Z" fill="#263238"/>
<path d="M184.975 74.3139C183.864 74.356 182.776 74.0258 181.924 73.388C180.68 72.402 180.17 70.6463 180.452 68.3195C181.077 63.0827 178.799 58.5553 176.333 57.3588C175.845 57.102 175.278 56.9921 174.716 57.0451C174.153 57.0981 173.625 57.3114 173.208 57.6534L173 57.4189C173.465 57.0373 174.055 56.7997 174.683 56.7412C175.311 56.6827 175.944 56.8065 176.487 57.0943C179.054 58.3328 181.426 62.9925 180.788 68.3496C180.519 70.5802 180.99 72.2396 182.132 73.1595C183.18 73.9892 184.766 74.2177 186.728 73.8149L186.802 74.1095C186.203 74.2376 185.59 74.3061 184.975 74.3139Z" fill="#263238"/>
<path d="M159.015 85.4369C158.153 86.4972 157.226 87.5148 156.24 88.4852C155.261 89.4582 154.218 90.3778 153.115 91.2389C151.985 92.1348 150.768 92.9396 149.48 93.6439C148.801 94.0161 148.091 94.3417 147.356 94.6179C146.577 94.9275 145.761 95.1555 144.924 95.2973C144.018 95.4671 143.087 95.5037 142.168 95.4055C141.258 95.3015 140.372 95.0639 139.548 94.7021C138.126 94.0612 136.828 93.2209 135.704 92.2129C133.65 90.3742 131.913 88.273 130.55 85.978L132.619 84.7755C134.324 86.5374 136.214 88.1481 138.264 89.5855C139.18 90.2282 140.194 90.7506 141.275 91.1367C141.704 91.2859 142.158 91.3712 142.619 91.3892C143.073 91.4109 143.527 91.3621 143.963 91.2449C145.021 90.9758 146.02 90.549 146.919 89.9823C147.946 89.3687 148.917 88.6831 149.823 87.9321C150.757 87.1685 151.637 86.3267 152.511 85.473C153.384 84.6192 154.231 83.6692 154.963 82.8335L159.015 85.4369Z" fill="#FFC3BD"/>
<path d="M159.607 80.5067C155.131 80.4045 153.821 82.9117 153.821 82.9117L158.377 90.283C159.789 89.0843 160.874 87.6114 161.549 85.978C162.369 83.537 162.624 80.5668 159.607 80.5067Z" fill="#279EFF"/>
<path d="M132.888 85.1302L131.255 81.6069L128.352 85.4369C128.352 85.4369 130.045 86.9941 132.061 86.7897L132.888 85.1302Z" fill="#FFC3BD"/>
<path d="M127.713 79.5266L126.134 82.7252L128.352 85.4369L131.255 81.6069L127.713 79.5266Z" fill="#FFC3BD"/>
<path d="M184.733 211.801L179.861 212.216L178.376 202.139L183.248 201.724L184.733 211.801Z" fill="#FFC3BD"/>
<path d="M223.917 201.291L220.181 203.918L213.756 195.146L217.499 192.513L223.917 201.291Z" fill="#FFC3BD"/>
<path d="M218.642 202.343L222.244 198.549C222.303 198.482 222.388 198.438 222.482 198.423C222.577 198.409 222.673 198.426 222.754 198.471L226.464 200.509C226.554 200.566 226.63 200.639 226.687 200.724C226.744 200.808 226.78 200.902 226.794 201C226.808 201.098 226.799 201.197 226.768 201.292C226.736 201.387 226.683 201.474 226.612 201.549C225.328 202.854 224.636 203.425 223.05 205.091C222.076 206.119 220.087 208.512 218.743 209.931C217.399 211.35 215.779 210.267 216.202 209.57C218.091 206.456 218.306 204.586 218.333 203.077C218.334 202.807 218.444 202.546 218.642 202.343Z" fill="#263238"/>
<path d="M179.424 210.905H185.23C185.335 210.906 185.437 210.938 185.521 210.996C185.604 211.053 185.665 211.133 185.694 211.224L186.957 215.336C186.987 215.434 186.992 215.536 186.97 215.635C186.949 215.735 186.901 215.828 186.832 215.908C186.763 215.988 186.674 216.052 186.572 216.096C186.47 216.14 186.358 216.162 186.245 216.16C184.229 216.16 183.227 216.021 180.667 216.021C179.095 216.021 175.036 216.166 172.865 216.166C170.695 216.166 170.298 214.248 171.172 214.073C175.11 213.292 177.381 212.216 178.564 211.193C178.797 210.999 179.106 210.895 179.424 210.905Z" fill="#263238"/>
<path opacity="0.2" d="M178.376 202.139L179.142 207.333H184.081L183.254 201.724L178.376 202.139Z" fill="black"/>
<path opacity="0.2" d="M217.499 192.519L213.756 195.146L217.069 199.668L220.812 197.04L217.499 192.519Z" fill="black"/>
<path d="M156.159 81.0959C156.159 81.0959 153.996 82.2262 163.592 106.589L183.221 103.12C181.487 96.0849 180.614 91.6959 181.554 76.4843C178.702 76.4672 175.852 76.634 173.027 76.9834C170.016 77.3171 167.036 77.8436 164.109 78.5586C160.346 79.5447 156.159 81.0959 156.159 81.0959Z" fill="#279EFF"/>
<path d="M175.069 76.7549C174.397 76.815 173.725 76.8932 173.053 76.9833C170.043 77.3171 167.063 77.8435 164.136 78.5586C163.343 78.7691 162.523 79.0035 161.737 79.238C161.401 80.8854 161.676 83.6512 165.036 87.3609L166.515 88.9962L168.094 87.439C173.248 82.3705 175.56 78.8352 175.069 76.7549Z" fill="white"/>
<path d="M170.379 68.2292C170.318 70.8747 170.681 75.6366 173.027 76.9834C173.027 76.9834 174.297 78.6428 166.575 86.2245C161.992 81.162 164.109 78.5587 164.109 78.5587C167.173 77.3141 166.676 75.2217 165.729 73.3398L170.379 68.2292Z" fill="#FFC3BD"/>
<path opacity="0.2" d="M169.875 68.7825C170.133 70.3131 170.02 71.8754 169.546 73.364C169.216 74.3921 167.879 75.0715 166.434 75.4202C166.331 74.7 166.104 73.9983 165.762 73.3399L169.875 68.7825Z" fill="black"/>
<path d="M174.774 65.4213C173.43 69.63 172.959 71.4338 170.016 73.1714C165.601 75.8169 160.144 73.5381 160.064 69.0949C159.997 65.0906 162.207 58.8738 167.274 58.032C168.377 57.8281 169.521 57.885 170.592 58.1971C171.662 58.5092 172.624 59.0657 173.381 59.8117C174.138 60.5578 174.665 61.4675 174.909 62.4512C175.153 63.4349 175.107 64.4587 174.774 65.4213Z" fill="#FFC3BD"/>
<path d="M173.537 58.9219C175.836 60.7557 159.593 62.1927 161.058 59.9621C162.523 57.7315 169.653 55.8135 173.537 58.9219Z" fill="#263238"/>
<path d="M174.552 67.7904C169.68 68.9929 169.216 56.968 171.965 57.7977C174.713 58.6274 179.565 66.5518 174.552 67.7904Z" fill="#263238"/>
<path d="M175.667 68.7224C175.363 69.5269 174.722 70.1948 173.88 70.5862C172.751 71.0913 171.971 70.2616 172.099 69.2094C172.213 68.2654 172.932 66.8585 174.115 66.8044C174.379 66.7879 174.644 66.8319 174.884 66.9322C175.124 67.0325 175.331 67.1859 175.486 67.3778C175.642 67.5697 175.74 67.7939 175.772 68.0291C175.803 68.2644 175.767 68.503 175.667 68.7224Z" fill="#FFC3BD"/>
<path d="M163.592 106.589C163.592 106.589 164.358 148.117 167.12 161.188C170.003 174.794 176.81 205.824 176.81 205.824L185.99 205.427C185.99 205.427 181.178 169.172 180.372 158.657C179.256 144.167 177.966 104.045 177.966 104.045L163.592 106.589Z" fill="#279EFF"/>
<path opacity="0.4" d="M163.592 106.589C163.592 106.589 164.358 148.117 167.12 161.188C170.003 174.794 176.81 205.824 176.81 205.824L185.99 205.427C185.99 205.427 181.178 169.172 180.372 158.657C179.256 144.167 177.966 104.045 177.966 104.045L163.592 106.589Z" fill="white"/>
<path opacity="0.5" d="M178.335 114.886C176.877 114.02 174.552 109.517 173.631 118.704C172.959 125.384 176.931 133.531 179.155 136.435C178.853 128.799 178.557 120.946 178.335 114.886Z" fill="#279EFF"/>
<path d="M186.628 205.824L176.165 206.275L174.928 202.854L186.272 202.061L186.628 205.824Z" fill="#279EFF"/>
<path d="M168.773 105.669C168.773 105.669 181.312 142.345 188.832 157.977C194.88 170.603 214.966 199.09 214.966 199.09L220.47 195.483C220.47 195.483 206.506 164.218 202.326 155.674C188.886 128.276 191.07 109.781 183.241 103.114L168.773 105.669Z" fill="#279EFF"/>
<path opacity="0.4" d="M168.773 105.669C168.773 105.669 181.312 142.345 188.832 157.977C194.88 170.603 214.966 199.09 214.966 199.09L220.47 195.483C220.47 195.483 206.506 164.218 202.326 155.674C188.886 128.276 191.07 109.781 183.241 103.114L168.773 105.669Z" fill="white"/>
<path d="M221.048 195.326L214.879 199.547L212.13 197.503L220.167 192.332L221.048 195.326Z" fill="#279EFF"/>
<path d="M183.315 102.043L184.504 103.45C184.598 103.558 184.464 103.709 184.236 103.751L163.645 107.388C163.471 107.388 163.309 107.388 163.276 107.268L162.792 105.741C162.758 105.633 162.893 105.518 163.088 105.482L182.965 101.971C183.026 101.957 183.089 101.956 183.15 101.968C183.211 101.981 183.268 102.007 183.315 102.043Z" fill="white"/>
<path d="M181.03 104.49L181.568 104.394C181.669 104.394 181.742 104.316 181.722 104.256L181.05 102.272C181.05 102.218 180.929 102.181 180.829 102.2L180.291 102.296C180.19 102.296 180.116 102.38 180.136 102.434L180.808 104.418C180.822 104.478 180.929 104.508 181.03 104.49Z" fill="#279EFF"/>
<path opacity="0.4" d="M181.03 104.49L181.568 104.394C181.669 104.394 181.742 104.316 181.722 104.256L181.05 102.272C181.05 102.218 180.929 102.181 180.829 102.2L180.291 102.296C180.19 102.296 180.116 102.38 180.136 102.434L180.808 104.418C180.822 104.478 180.929 104.508 181.03 104.49Z" fill="black"/>
<path d="M165.178 107.292L165.708 107.196C165.816 107.196 165.883 107.118 165.863 107.058L165.191 105.073C165.191 105.013 165.07 104.983 164.963 105.001L164.432 105.097C164.324 105.097 164.25 105.176 164.27 105.236L164.942 107.22C164.969 107.274 165.07 107.31 165.178 107.292Z" fill="#279EFF"/>
<path opacity="0.4" d="M165.178 107.292L165.708 107.196C165.816 107.196 165.883 107.118 165.863 107.058L165.191 105.073C165.191 105.013 165.07 104.983 164.963 105.001L164.432 105.097C164.324 105.097 164.25 105.176 164.27 105.236L164.942 107.22C164.969 107.274 165.07 107.31 165.178 107.292Z" fill="black"/>
<path d="M173.107 105.891L173.638 105.795C173.746 105.795 173.813 105.717 173.793 105.657L173.121 103.673C173.121 103.618 172.993 103.582 172.892 103.6L172.355 103.697C172.254 103.697 172.18 103.781 172.2 103.835L172.872 105.819C172.899 105.879 173 105.909 173.107 105.891Z" fill="#279EFF"/>
<path opacity="0.4" d="M173.107 105.891L173.638 105.795C173.746 105.795 173.813 105.717 173.793 105.657L173.121 103.673C173.121 103.618 172.993 103.582 172.892 103.6L172.355 103.697C172.254 103.697 172.18 103.781 172.2 103.835L172.872 105.819C172.899 105.879 173 105.909 173.107 105.891Z" fill="black"/>
<path d="M166.394 65.2651C166.313 65.6138 166.038 65.8663 165.782 65.8122C165.527 65.7581 165.393 65.4514 165.48 65.1027C165.567 64.754 165.843 64.5015 166.092 64.5616C166.34 64.6217 166.481 64.9344 166.394 65.2651Z" fill="#263238"/>
<path d="M162.026 64.4896C161.945 64.8383 161.67 65.0908 161.414 65.0367C161.159 64.9826 161.025 64.67 161.112 64.3273C161.199 63.9846 161.475 63.726 161.724 63.7801C161.972 63.8342 162.113 64.1409 162.026 64.4896Z" fill="#263238"/>
<path d="M161.831 63.8222L160.964 63.4133C160.964 63.4133 161.28 64.1468 161.831 63.8222Z" fill="#263238"/>
<path d="M163.921 65.3494C163.378 66.078 162.729 66.7391 161.992 67.3154C162.163 67.4794 162.372 67.6072 162.604 67.6894C162.837 67.7716 163.087 67.8061 163.336 67.7904L163.921 65.3494Z" fill="#ED847E"/>
<path d="M164.29 69.3776C164.273 69.3662 164.26 69.3503 164.253 69.3321C164.246 69.3138 164.245 69.2941 164.25 69.2754C164.253 69.2619 164.258 69.2489 164.266 69.2373C164.274 69.2257 164.285 69.2157 164.297 69.2079C164.31 69.2 164.324 69.1945 164.339 69.1916C164.354 69.1888 164.37 69.1886 164.385 69.1912C164.866 69.2873 165.365 69.2831 165.844 69.1788C166.323 69.0746 166.769 68.8731 167.146 68.59C167.157 68.5796 167.169 68.5712 167.184 68.5653C167.198 68.5594 167.213 68.5561 167.229 68.5557C167.244 68.5553 167.26 68.5577 167.274 68.5629C167.289 68.568 167.302 68.5758 167.313 68.5856C167.324 68.5955 167.332 68.6072 167.338 68.6202C167.344 68.6331 167.347 68.647 167.346 68.6609C167.346 68.6748 167.342 68.6885 167.335 68.7011C167.329 68.7137 167.319 68.725 167.308 68.7343C166.909 69.0513 166.432 69.2788 165.915 69.398C165.399 69.5171 164.858 69.5246 164.338 69.4197L164.29 69.3776Z" fill="#263238"/>
<path d="M169.277 63.8222C169.243 63.8023 169.215 63.7755 169.196 63.744C169.082 63.5072 168.905 63.2983 168.682 63.1351C168.459 62.9719 168.195 62.8591 167.913 62.8061C167.882 62.8024 167.853 62.7934 167.827 62.7796C167.801 62.7657 167.778 62.7473 167.76 62.7255C167.742 62.7037 167.729 62.6788 167.721 62.6524C167.714 62.6259 167.713 62.5985 167.718 62.5716C167.728 62.5178 167.76 62.4696 167.809 62.4371C167.858 62.4046 167.919 62.3903 167.98 62.3972C168.34 62.4542 168.679 62.5907 168.965 62.7944C169.251 62.9981 169.476 63.2625 169.619 63.5636C169.645 63.6139 169.647 63.6711 169.625 63.7228C169.604 63.7746 169.561 63.8167 169.505 63.8402C169.469 63.8555 169.428 63.8619 169.388 63.8587C169.348 63.8555 169.31 63.8429 169.277 63.8222Z" fill="#263238"/>
<path d="M161.28 62.3612H161.246C161.203 62.3218 161.179 62.2689 161.179 62.2139C161.179 62.1588 161.203 62.1059 161.246 62.0665C161.507 61.8326 161.825 61.6564 162.175 61.552C162.525 61.4476 162.897 61.4179 163.262 61.4653C163.322 61.4782 163.373 61.5111 163.405 61.557C163.438 61.603 163.449 61.6585 163.437 61.7118C163.423 61.7663 163.385 61.8136 163.333 61.8439C163.28 61.8741 163.216 61.885 163.155 61.8741C162.864 61.8404 162.568 61.8686 162.291 61.9564C162.014 62.0441 161.765 62.189 161.562 62.3792C161.519 62.404 161.469 62.4156 161.418 62.4124C161.367 62.4091 161.319 62.3912 161.28 62.3612Z" fill="#263238"/>
<path d="M182.401 78.3662C183.174 78.8292 183.799 79.25 184.464 79.719C185.129 80.188 185.754 80.657 186.379 81.15C187.626 82.1405 188.811 83.1923 189.927 84.3005C191.065 85.4201 192.105 86.6161 193.039 87.8779C194.005 89.1695 194.818 90.5478 195.464 91.9904L195.7 92.5135L195.639 92.9524C195.469 94.245 195.084 95.5075 194.497 96.6982C193.927 97.8592 193.183 98.9454 192.286 99.9269C191.414 100.87 190.434 101.728 189.363 102.488C188.834 102.857 188.284 103.202 187.716 103.522C187.136 103.853 186.529 104.147 185.902 104.4L184.699 102.458C185.096 102.176 185.573 101.821 185.983 101.472C186.392 101.123 186.809 100.745 187.192 100.372C187.954 99.634 188.63 98.8281 189.208 97.9668C189.771 97.1439 190.222 96.2639 190.552 95.3454C190.871 94.4616 191.057 93.5436 191.103 92.6157L191.271 93.5777C189.973 91.2643 188.28 89.1464 186.251 87.3007C185.237 86.3387 184.141 85.4308 183.019 84.547C182.455 84.1081 181.877 83.6812 181.299 83.2603C180.721 82.8395 180.096 82.4246 179.565 82.0879L182.401 78.3662Z" fill="#FFC3BD"/>
<path d="M186.326 102.212L182.777 102.56L184.484 106.09C184.484 106.09 187.004 105.272 187.656 103.528L186.326 102.212Z" fill="#FFC3BD"/>
<path d="M179.558 103.384L180.64 106.222L184.484 106.06L182.777 102.53L179.558 103.384Z" fill="#FFC3BD"/>
<path d="M181.554 76.4842C183.624 76.6646 184.726 78.6186 184.726 78.6186L180.58 85.8336C180.58 85.8336 177.516 83.8555 177.892 81.4565C178.288 78.9734 179.189 76.2738 181.554 76.4842Z" fill="#279EFF"/>
<path d="M216.928 204.375C216.877 204.344 216.832 204.305 216.794 204.261C216.744 204.218 216.708 204.163 216.69 204.102C216.672 204.042 216.673 203.978 216.693 203.918C216.874 203.377 218.575 202.902 218.77 202.848C218.791 202.842 218.814 202.842 218.835 202.847C218.857 202.852 218.876 202.863 218.891 202.878C218.902 202.896 218.908 202.915 218.908 202.935C218.908 202.955 218.902 202.975 218.891 202.992C218.588 203.516 217.99 204.405 217.372 204.484C217.214 204.499 217.056 204.46 216.928 204.375ZM218.561 203.125C217.889 203.335 217.016 203.69 216.922 203.972C216.912 203.999 216.911 204.027 216.919 204.054C216.927 204.081 216.945 204.105 216.969 204.123C217.013 204.176 217.072 204.218 217.141 204.245C217.209 204.271 217.284 204.281 217.358 204.273C217.728 204.231 218.131 203.822 218.561 203.125Z" fill="#279EFF"/>
<path d="M216.707 202.92C216.668 202.897 216.634 202.869 216.606 202.836C216.547 202.773 216.515 202.693 216.515 202.611C216.515 202.528 216.547 202.449 216.606 202.385C216.656 202.319 216.721 202.263 216.796 202.22C216.871 202.176 216.955 202.147 217.043 202.133C217.755 202.036 218.823 202.83 218.87 202.866C218.886 202.878 218.898 202.892 218.905 202.909C218.912 202.926 218.914 202.945 218.911 202.962C218.906 202.98 218.896 202.997 218.882 203.011C218.868 203.025 218.85 203.035 218.83 203.04C218.129 203.231 217.375 203.188 216.707 202.92ZM218.521 202.884C218.117 202.572 217.614 202.38 217.083 202.337C217.027 202.344 216.974 202.362 216.927 202.389C216.879 202.416 216.839 202.452 216.807 202.493C216.72 202.608 216.754 202.668 216.807 202.704C217.016 202.944 217.983 203.01 218.568 202.902L218.521 202.884Z" fill="#279EFF"/>
<path d="M176.843 211.765C176.446 211.791 176.05 211.707 175.708 211.524C175.618 211.469 175.544 211.396 175.489 211.312C175.434 211.228 175.401 211.134 175.392 211.037C175.388 210.983 175.399 210.928 175.425 210.879C175.451 210.83 175.491 210.787 175.54 210.755C176.071 210.436 178.046 211.242 178.436 211.404C178.458 211.412 178.476 211.426 178.489 211.444C178.502 211.461 178.509 211.482 178.509 211.503C178.509 211.524 178.502 211.545 178.489 211.562C178.476 211.58 178.458 211.594 178.436 211.602C177.913 211.706 177.379 211.76 176.843 211.765ZM175.916 210.869C175.839 210.864 175.762 210.878 175.694 210.911C175.694 210.911 175.64 210.947 175.647 211.013C175.648 211.08 175.667 211.146 175.702 211.206C175.737 211.266 175.787 211.317 175.849 211.356C176.192 211.584 176.991 211.614 178.033 211.446C177.365 211.157 176.651 210.962 175.916 210.869Z" fill="#279EFF"/>
<path d="M178.409 211.584H178.362C177.69 211.344 176.387 210.382 176.461 209.907C176.461 209.798 176.561 209.66 176.857 209.63C178.006 209.51 178.503 211.386 178.524 211.464C178.527 211.483 178.526 211.502 178.519 211.52C178.512 211.538 178.499 211.554 178.483 211.566C178.462 211.581 178.436 211.587 178.409 211.584ZM176.965 209.834H176.884C176.763 209.834 176.696 209.883 176.689 209.931C176.649 210.219 177.563 210.965 178.228 211.295C178.08 210.839 177.657 209.834 176.965 209.834Z" fill="#279EFF"/>
<path d="M166.199 64.5977L165.332 64.1948C165.332 64.1948 165.648 64.9344 166.199 64.5977Z" fill="#263238"/>
<path d="M112.426 211.686L107.412 211.885L107.332 201.339L112.345 201.141L112.426 211.686Z" fill="#FF8B7B"/>
<path d="M107.332 210.977L113.01 211.043C113.105 211.042 113.197 211.073 113.266 211.132C113.336 211.19 113.376 211.271 113.38 211.356L113.595 215.372C113.595 215.477 113.572 215.581 113.527 215.677C113.482 215.774 113.416 215.862 113.333 215.935C113.25 216.009 113.151 216.068 113.043 216.107C112.934 216.147 112.818 216.167 112.701 216.166C110.725 216.112 109.785 215.997 107.291 215.973C105.753 215.973 102.063 215.973 99.9465 215.973C97.8297 215.973 97.9305 214.073 98.8108 213.917C102.843 213.202 105.02 212.252 106.458 211.266C106.705 211.085 107.013 210.983 107.332 210.977Z" fill="#263238"/>
<path opacity="0.2" d="M112.345 201.147L107.332 201.339L107.379 206.774L112.392 206.841L112.345 201.147Z" fill="black"/>
<path d="M102.729 106.06C102.729 106.06 100.377 134.354 100.041 147.311C99.6844 161.501 105.524 204.171 105.524 204.171L114.26 204.616C114.26 204.616 112.99 163.587 114.778 149.644C116.72 134.505 120.664 104.617 120.664 104.617L102.729 106.06Z" fill="#263238"/>
<path opacity="0.3" d="M114.684 116.131C112.957 122.293 114.462 131.895 116.263 138.467C117.412 129.653 118.722 119.738 119.623 112.932C117.681 112.607 115.477 113.287 114.684 116.131Z" fill="black"/>
<path d="M114.952 205.512L105.047 205.626L104.146 202.241L115.913 202.031L114.952 205.512Z" fill="#263238"/>
<path d="M105.504 211.741C105.957 211.737 106.407 211.688 106.848 211.596C106.871 211.593 106.892 211.582 106.907 211.567C106.923 211.552 106.933 211.533 106.935 211.512C106.941 211.493 106.94 211.472 106.931 211.454C106.923 211.435 106.908 211.42 106.888 211.41C106.734 211.308 105.316 210.418 104.691 210.622C104.621 210.648 104.559 210.689 104.511 210.742C104.463 210.794 104.43 210.856 104.415 210.923C104.383 211.021 104.378 211.125 104.403 211.225C104.428 211.325 104.481 211.418 104.556 211.494C104.826 211.681 105.165 211.769 105.504 211.741ZM106.532 211.44C105.625 211.59 104.96 211.56 104.731 211.344C104.681 211.294 104.647 211.233 104.633 211.168C104.619 211.102 104.625 211.034 104.651 210.971C104.656 210.938 104.671 210.906 104.694 210.879C104.718 210.853 104.749 210.833 104.785 210.821C105.141 210.713 105.981 211.097 106.559 211.44H106.532Z" fill="#279EFF"/>
<path d="M106.848 211.597H106.902C106.919 211.588 106.934 211.575 106.946 211.561C106.957 211.546 106.965 211.53 106.969 211.512C106.969 211.452 107.103 210.16 106.599 209.709C106.535 209.652 106.456 209.609 106.37 209.583C106.284 209.557 106.192 209.548 106.102 209.558C106.002 209.561 105.906 209.593 105.828 209.65C105.75 209.706 105.696 209.784 105.672 209.871C105.551 210.364 106.29 211.314 106.788 211.591C106.807 211.598 106.828 211.6 106.848 211.597ZM106.176 209.763C106.271 209.762 106.363 209.794 106.431 209.853C106.7 210.293 106.808 210.798 106.741 211.296C106.304 210.959 105.813 210.238 105.894 209.913C105.894 209.853 105.948 209.781 106.122 209.763H106.176Z" fill="#279EFF"/>
<path d="M108.192 71.2658C107.749 72.336 107.325 73.2679 106.848 74.2419C106.371 75.2159 105.894 76.1539 105.39 77.1038C104.368 78.9918 103.273 80.8556 102.03 82.6774C100.805 84.5441 99.4419 86.3357 97.9508 88.0405C96.3957 89.8834 94.5897 91.5457 92.5748 92.9887L92.3598 93.1391C92.1359 93.2945 91.8865 93.4182 91.6206 93.5058C90.6716 93.8256 89.6836 94.0436 88.6772 94.1552C87.7032 94.2453 86.7213 94.2453 85.7473 94.1552C83.9681 93.9591 82.2403 93.4892 80.6401 92.7663C79.1961 92.1077 77.8429 91.3006 76.6081 90.3613C76.01 89.9044 75.4455 89.4234 74.9012 88.9243C74.3465 88.4109 73.8259 87.8689 73.3422 87.301C73.0284 86.9389 72.8653 86.4903 72.8809 86.0324C72.8965 85.5744 73.0899 85.1356 73.4278 84.7913C73.7657 84.447 74.227 84.2188 74.7326 84.1457C75.2381 84.0726 75.7563 84.1593 76.1982 84.3909L76.4401 84.5172C76.9038 84.7637 77.5086 85.0884 78.0529 85.3529C78.5972 85.6175 79.1818 85.882 79.7463 86.1225C80.8249 86.585 81.9499 86.9554 83.1063 87.2288C84.0949 87.4711 85.1199 87.5726 86.1438 87.5294C86.9631 87.4845 87.7613 87.2792 88.4823 86.9282L87.5281 87.4513C88.9114 86.2667 90.1482 84.9524 91.2174 83.5312C91.7953 82.7856 92.353 82.012 92.8906 81.2104C93.435 80.4167 93.9658 79.605 94.4698 78.7693C95.4846 77.1099 96.4455 75.3963 97.3662 73.6587C97.8298 72.7929 98.2801 71.9151 98.7102 71.0373C99.1402 70.1595 99.5838 69.2335 99.9534 68.4399L99.987 68.3738C100.485 67.4927 101.332 66.8097 102.364 66.4584C103.395 66.1072 104.536 66.1131 105.562 66.475C106.589 66.8368 107.428 67.5286 107.914 68.4147C108.4 69.3009 108.5 70.3176 108.192 71.2658Z" fill="#279EFF"/>
<path opacity="0.3" d="M97.366 83.1523C97.17 84.996 97.17 86.8521 97.366 88.6958L97.944 88.0404C99.4359 86.3375 100.796 84.5457 102.016 82.6773C102.527 81.9197 103.018 81.1502 103.481 80.3806C103.723 79.5689 103.938 78.7632 104.153 77.9455L104.335 77.1459C101.976 76.4003 98.0649 77.7651 97.366 83.1523Z" fill="black"/>
<path d="M74.1889 83.7775L70.2039 82.3706L69.6125 87.5353C71.0207 87.8612 72.4612 88.0625 73.9133 88.1365C74.254 88.1575 74.5954 88.1059 74.9094 87.9858C75.2233 87.8658 75.501 87.6807 75.7195 87.4459C75.9379 87.2111 76.091 86.9333 76.166 86.6353C76.2411 86.3372 76.236 86.0275 76.1511 85.7316C76.0212 85.2898 75.7754 84.882 75.4341 84.5422C75.0929 84.2024 74.666 83.9402 74.1889 83.7775Z" fill="#FF8B7B"/>
<path d="M66.2458 83.3628L67.4151 87.6016L69.6126 87.5294L70.2039 82.3647L66.2458 83.3628Z" fill="#FF8B7B"/>
<path d="M147.101 206.997L142.168 207.965L139.01 197.87L143.942 196.902L147.101 206.997Z" fill="#FF8B7B"/>
<path d="M141.792 206.949L147.108 205.181C147.151 205.164 147.198 205.156 147.246 205.156C147.293 205.155 147.34 205.164 147.384 205.18C147.428 205.196 147.467 205.22 147.501 205.25C147.534 205.28 147.56 205.316 147.578 205.355L149.406 209.035C149.489 209.233 149.481 209.452 149.384 209.645C149.287 209.837 149.109 209.988 148.888 210.063C147.027 210.664 146.1 210.845 143.761 211.626C142.323 212.101 138.385 213.556 136.423 214.218C134.461 214.879 133.735 213.1 134.541 212.661C138.022 210.689 140.139 208.867 141.086 207.484C141.248 207.24 141.497 207.052 141.792 206.949Z" fill="#263238"/>
<path opacity="0.2" d="M143.949 196.902L139.01 197.876L140.643 203.077L145.575 202.103L143.949 196.902Z" fill="black"/>
<path d="M112.553 105.272C112.553 105.272 117.707 135.016 120.221 147.774C122.976 161.753 138.21 202.223 138.21 202.223L147.249 200.419C147.249 200.419 136.497 161.446 135.206 147.455C133.809 132.274 129.635 103.877 129.635 103.877L112.553 105.272Z" fill="#263238"/>
<path d="M148.142 200.245L137.128 202.415L135.831 199.457L147.974 197.563L148.142 200.245Z" fill="#263238"/>
<path d="M140.448 208.247C140.869 208.098 141.271 207.906 141.644 207.676C141.663 207.665 141.677 207.649 141.686 207.63C141.695 207.611 141.698 207.591 141.695 207.571C141.691 207.551 141.681 207.532 141.667 207.516C141.652 207.501 141.632 207.49 141.611 207.484C141.422 207.442 139.736 207.069 139.245 207.484C139.19 207.529 139.147 207.585 139.123 207.648C139.098 207.711 139.092 207.779 139.104 207.845C139.112 207.948 139.15 208.047 139.213 208.134C139.277 208.22 139.364 208.29 139.467 208.338C139.795 208.416 140.144 208.384 140.448 208.247ZM141.281 207.646C140.495 208.079 139.863 208.247 139.561 208.139C139.495 208.107 139.44 208.061 139.401 208.004C139.362 207.947 139.341 207.881 139.339 207.815C139.33 207.782 139.331 207.749 139.342 207.717C139.353 207.685 139.373 207.657 139.4 207.634C139.642 207.43 140.576 207.502 141.254 207.634L141.281 207.646Z" fill="#279EFF"/>
<path d="M141.597 207.688C141.613 207.682 141.627 207.671 141.637 207.658C141.647 207.644 141.652 207.627 141.652 207.61C141.652 207.593 141.647 207.577 141.637 207.562C141.637 207.508 141.221 206.251 140.576 205.999C140.494 205.963 140.404 205.945 140.314 205.945C140.223 205.945 140.133 205.963 140.052 205.999C139.958 206.033 139.88 206.094 139.83 206.172C139.78 206.251 139.761 206.342 139.776 206.432C139.857 206.931 140.932 207.58 141.503 207.676L141.597 207.688ZM140.253 206.185C140.297 206.169 140.344 206.16 140.391 206.16C140.438 206.16 140.485 206.169 140.529 206.185C140.912 206.335 141.241 207.021 141.396 207.43C140.858 207.255 140.105 206.738 140.052 206.414C140.052 206.347 140.052 206.269 140.206 206.197L140.253 206.185Z" fill="#279EFF"/>
<path d="M101.176 69.3237C101.36 68.5486 101.774 67.8323 102.375 67.2502C102.976 66.6682 103.741 66.2421 104.59 66.0169C105.803 65.6487 107.042 65.3554 108.299 65.139C112.084 64.6358 115.899 64.3287 119.723 64.2191C121.739 64.141 123.755 64.2191 125.429 64.2793H125.489C125.919 64.3003 126.34 64.3986 126.726 64.5682C127.112 64.7378 127.457 64.9753 127.738 65.2665C128.02 65.5577 128.233 65.8967 128.365 66.2632C128.497 66.6297 128.545 67.0162 128.507 67.3997C127.837 73.527 127.612 79.6866 127.835 85.8399C128.332 94.7804 129.568 101.731 129.595 103.877L102.715 106.036C98.9116 84.457 100.034 74.4042 101.176 69.3237Z" fill="white"/>
<path d="M99.8055 69.5402C100.012 68.6777 100.465 67.8777 101.12 67.2182C101.774 66.5586 102.609 66.0619 103.542 65.7764C105.313 65.3783 107.108 65.0672 108.918 64.8445C107.466 71.5544 105.336 91.5759 107.876 106.571C107.896 106.685 107.889 106.801 107.857 106.913C107.825 107.024 107.767 107.128 107.687 107.219C107.608 107.31 107.509 107.385 107.396 107.44C107.282 107.495 107.158 107.529 107.029 107.539L102.084 107.936C101.751 107.964 101.419 107.876 101.157 107.692C100.894 107.507 100.721 107.239 100.672 106.944C96.9158 85.0163 98.6429 73.773 99.8055 69.5402Z" fill="#279EFF"/>
<path d="M108.864 65.0548C112.116 64.0868 112.513 62.1989 112.09 60.1968C111.988 59.694 111.849 59.1978 111.673 58.7117L115.53 55.2786L118.359 52.7654C117.842 56.1263 117.492 62.2109 120.201 64.189C118.149 66.3609 115.503 68.0185 112.52 68.999C108.192 67.0269 108.864 65.0548 108.864 65.0548Z" fill="#FF8B7B"/>
<path opacity="0.2" d="M111.646 58.7117C111.822 59.1978 111.961 59.6939 112.063 60.1967C113.588 59.7879 115.517 58.1405 115.591 56.7035C115.618 56.2271 115.588 55.7495 115.503 55.2786L111.646 58.7117Z" fill="black"/>
<path d="M110.988 46.9272C110.988 49.0556 109.926 50.7872 108.589 50.7872C107.251 50.7872 106.169 49.0736 106.163 46.9452C106.156 44.8168 107.224 43.0912 108.562 43.0852C109.899 43.0792 110.981 44.7988 110.988 46.9272Z" fill="#263238"/>
<path d="M120.799 48.3942C119.858 52.8134 119.562 55.4348 116.72 57.5091C115.804 58.1903 114.698 58.635 113.521 58.795C112.344 58.9551 111.14 58.8245 110.04 58.4173C108.939 58.0102 107.984 57.3419 107.277 56.4846C106.57 55.6274 106.138 54.6137 106.028 53.5529C105.531 49.4704 107.144 42.9289 112.278 41.564C113.379 41.2432 114.556 41.1869 115.69 41.4008C116.823 41.6148 117.874 42.0915 118.737 42.7832C119.6 43.4749 120.245 44.3573 120.606 45.342C120.968 46.3268 121.035 47.3793 120.799 48.3942Z" fill="#FF8B7B"/>
<path d="M110.524 44.3058C112.284 45.4542 116.841 45.8751 118.836 45.4001C118.164 45.8089 118.084 47.0655 118.675 48.9354C117.995 49.7536 117.469 50.6654 117.116 51.635L120.926 51.0337C120.926 51.0337 130.811 45.1355 123.527 42.6163C124.044 37.656 112.674 37.3193 108.575 40.536C104.832 43.44 107.446 45.2377 110.524 44.3058Z" fill="#263238"/>
<path d="M123.157 43.0853C123.157 43.0853 124.401 41.7986 123.829 39.4778C125.341 41.0591 124.932 42.3638 123.157 43.0853Z" fill="#263238"/>
<path d="M121.632 51.9236C121.075 52.763 120.207 53.4013 119.179 53.7273C117.876 54.1121 117.392 53.0419 117.889 51.8815C118.339 50.8353 119.562 49.3743 120.805 49.4765C122.049 49.5787 122.371 50.8774 121.632 51.9236Z" fill="#FF8B7B"/>
<path d="M112.943 49.0857C112.896 49.4465 112.641 49.723 112.372 49.687C112.103 49.6509 111.935 49.3563 111.989 48.9955C112.043 48.6348 112.291 48.3582 112.56 48.3943C112.829 48.4304 112.997 48.7009 112.943 49.0857Z" fill="#263238"/>
<path d="M108.36 48.7009C108.306 49.0616 108.051 49.3382 107.789 49.3021C107.527 49.266 107.352 48.9654 107.399 48.6047C107.446 48.2439 107.708 47.9673 107.977 48.0034C108.246 48.0395 108.414 48.3461 108.36 48.7009Z" fill="#263238"/>
<path d="M109.912 48.9355C109.269 50.0038 108.469 50.9905 107.533 51.8696C107.79 52.0697 108.093 52.217 108.421 52.3011C108.748 52.3853 109.092 52.4042 109.428 52.3566L109.912 48.9355Z" fill="#FF5652"/>
<path d="M110.94 53.4689C111.414 53.4613 111.88 53.3691 112.313 53.1977C112.746 53.0263 113.136 52.7792 113.46 52.4709C113.482 52.4507 113.494 52.4237 113.494 52.3957C113.494 52.3677 113.482 52.3407 113.46 52.3205C113.45 52.3102 113.437 52.3019 113.422 52.2962C113.408 52.2905 113.392 52.2876 113.376 52.2876C113.361 52.2876 113.345 52.2905 113.331 52.2962C113.316 52.3019 113.303 52.3102 113.292 52.3205C112.937 52.652 112.501 52.9061 112.019 53.0635C111.537 53.2209 111.021 53.2773 110.51 53.2284C110.484 53.2341 110.46 53.2476 110.444 53.2667C110.427 53.2858 110.418 53.3093 110.418 53.3336C110.418 53.3579 110.427 53.3815 110.444 53.4006C110.46 53.4197 110.484 53.4332 110.51 53.4389L110.94 53.4689Z" fill="#263238"/>
<path d="M115.241 47.7992C115.281 47.7967 115.32 47.7864 115.356 47.7691C115.409 47.7392 115.448 47.6916 115.463 47.6365C115.478 47.5814 115.469 47.5233 115.436 47.4745C115.252 47.1801 114.989 46.9311 114.672 46.7496C114.354 46.5682 113.991 46.4598 113.615 46.4343C113.559 46.4428 113.507 46.4689 113.471 46.508C113.434 46.5471 113.413 46.5966 113.413 46.6478C113.413 46.6989 113.434 46.7485 113.471 46.7875C113.507 46.8266 113.559 46.8527 113.615 46.8612C113.909 46.8874 114.191 46.9764 114.438 47.1209C114.684 47.2653 114.889 47.4608 115.033 47.6909C115.054 47.7237 115.084 47.7509 115.121 47.7699C115.158 47.7889 115.199 47.799 115.241 47.7992Z" fill="#263238"/>
<path d="M106.566 47.1917C106.605 47.1896 106.643 47.1793 106.677 47.1615C106.711 47.1438 106.739 47.1191 106.761 47.0895C106.92 46.8557 107.136 46.6574 107.393 46.5094C107.65 46.3615 107.942 46.2679 108.246 46.2357C108.277 46.2358 108.308 46.2301 108.336 46.2191C108.365 46.2081 108.391 46.1919 108.412 46.1717C108.434 46.1514 108.45 46.1274 108.461 46.1012C108.471 46.075 108.476 46.0471 108.474 46.0193C108.472 45.9629 108.446 45.9094 108.401 45.8701C108.356 45.8308 108.295 45.8088 108.232 45.8088C107.85 45.8419 107.481 45.9542 107.156 46.1368C106.83 46.3194 106.557 46.5674 106.357 46.861C106.324 46.9083 106.312 46.9655 106.324 47.0205C106.337 47.0754 106.373 47.1239 106.425 47.1556C106.467 47.1786 106.516 47.191 106.566 47.1917Z" fill="#263238"/>
<path d="M128.648 86.6154C128.405 80.1258 128.63 73.6289 129.32 67.1651C129.358 66.7601 129.306 66.3523 129.165 65.9658C129.024 65.5794 128.799 65.222 128.501 64.9149C128.204 64.6077 127.84 64.357 127.433 64.1776C127.025 63.9982 126.581 63.8937 126.128 63.8703H126.067C124.334 63.7861 122.17 63.726 120.019 63.8041C117.392 75.1857 117.694 89.8681 119.018 105.705C119.027 105.818 119.062 105.928 119.119 106.029C119.176 106.129 119.255 106.219 119.351 106.292C119.448 106.366 119.559 106.421 119.68 106.455C119.8 106.49 119.927 106.502 120.053 106.493L129.206 105.753C129.549 105.727 129.867 105.58 130.09 105.345C130.313 105.109 130.423 104.804 130.395 104.496C130.16 101.406 129.111 94.8043 128.648 86.6154Z" fill="#279EFF"/>
<path opacity="0.3" d="M126.443 67.0269C124.952 67.7664 123.668 70.6343 125.53 74.2839C126.296 75.8201 127.325 77.2401 128.58 78.4926C128.627 76.8392 128.708 75.2278 128.809 73.7187C127.855 71.1755 127.062 68.8607 126.443 67.0269Z" fill="black"/>
<path d="M128.789 64.9707L129.461 65.4337L130.072 65.8605C130.469 66.1491 130.852 66.4618 131.235 66.7504C131.992 67.3436 132.733 67.9589 133.459 68.5962C134.919 69.8725 136.28 71.2365 137.532 72.6787C138.836 74.1568 139.989 75.7364 140.979 77.3984C142.049 79.1489 142.847 81.0221 143.351 82.966C143.496 83.5146 143.601 84.0708 143.667 84.6314L143.734 85.4912V86.3209C143.684 87.3654 143.529 88.4038 143.27 89.4233C142.782 91.2756 142.056 93.0712 141.107 94.7744C140.212 96.382 139.188 97.9292 138.042 99.404C136.923 100.87 135.685 102.26 134.34 103.565C133.976 103.906 133.487 104.121 132.962 104.168C132.437 104.216 131.91 104.094 131.477 103.825C131.044 103.556 130.732 103.156 130.599 102.7C130.466 102.243 130.52 101.758 130.751 101.334L130.798 101.244C132.424 98.4417 133.792 95.5261 134.891 92.5258C135.905 89.6338 136.389 86.6877 135.563 84.7998C135.333 84.1805 135.053 83.5776 134.723 82.996C134.387 82.3763 134.012 81.7741 133.6 81.1923C132.726 79.957 131.754 78.7796 130.691 77.669C129.609 76.5266 128.433 75.4203 127.203 74.3501C126.591 73.815 125.966 73.2919 125.321 72.7869L124.36 72.0353L123.883 71.6746L123.46 71.3619L123.278 71.2297C122.408 70.5638 121.86 69.6221 121.749 68.6024C121.638 67.5826 121.973 66.5641 122.683 65.7604C123.393 64.9568 124.424 64.4307 125.559 64.2924C126.694 64.1541 127.844 64.4144 128.769 65.0188L128.789 64.9707Z" fill="#279EFF"/>
<path d="M129.394 101.569L126.665 102.17L131.369 106C131.369 106 135.556 104.316 134.407 102.458L133.614 102.062C132.327 101.427 130.819 101.251 129.394 101.569Z" fill="#FF8B7B"/>
<path d="M124.441 104.605L127.693 106.679L131.376 106.006L126.665 102.176L124.441 104.605Z" fill="#FF8B7B"/>
<path d="M106.351 34.4573C96.8957 39.5559 85.7808 32.7137 76.3258 37.8123C75.488 31.7998 74.6458 25.7674 73.7991 19.7148C83.2541 14.6163 94.3757 21.4584 103.824 16.3599C104.666 22.3964 105.509 28.4289 106.351 34.4573Z" fill="#279EFF"/>
<path opacity="0.3" d="M73.8057 19.715L75.8217 34.4034C82.3132 34.68 88.9861 36.2552 94.9871 33.0265L92.9644 18.3381C86.4729 18.0375 79.7999 16.4803 73.8057 19.715Z" fill="black"/>
<path d="M81.2045 13.931C79.3363 13.931 77.4681 13.7747 75.4857 13.6063C73.5033 13.438 71.4537 13.2636 69.4377 13.2636V12.6624C71.4941 12.6624 73.5437 12.8367 75.5261 13.0051C77.5085 13.1734 79.3565 13.3297 81.191 13.3297L81.2045 13.931Z" fill="#279EFF"/>
<path d="M84.9676 13.6483L84.8467 13.0471C86.357 12.804 87.8052 12.3171 89.1206 11.6101L89.47 12.1272C88.0855 12.8757 86.5596 13.3913 84.9676 13.6483Z" fill="#279EFF"/>
<path d="M92.8638 31.5233C83.4155 36.6218 72.2939 29.7797 62.8388 34.8782L60.3188 16.7807C69.7672 11.6822 80.8888 18.5243 90.3371 13.4258C91.1793 19.4583 92.0216 25.4908 92.8638 31.5233Z" fill="#279EFF"/>
<path d="M83.6507 185.039C83.3315 185.068 83.0124 184.985 82.7613 184.806C82.5102 184.627 82.3471 184.368 82.3067 184.083L58.8001 15.8369C58.7695 15.5517 58.8637 15.2669 59.063 15.0426C59.2623 14.8184 59.5511 14.672 59.8686 14.6344C60.1877 14.6101 60.505 14.6964 60.7551 14.8754C61.0052 15.0544 61.169 15.3125 61.2126 15.5964L84.6923 183.837C84.7218 184.118 84.6306 184.399 84.4372 184.622C84.2437 184.846 83.9625 184.995 83.6507 185.039Z" fill="#279EFF"/>
</svg>
