<svg width="336" height="300" viewBox="0 0 336 300" fill="none" xmlns="http://www.w3.org/2000/svg">
<path d="M168 300C260.784 300 336 259.046 336 208.527C336 158.007 260.784 117.053 168 117.053C75.2162 117.053 0 158.007 0 208.527C0 259.046 75.2162 300 168 300Z" fill="#F5F5F5"/>
<path d="M166.681 172.748C186.845 172.748 203.192 163.846 203.192 152.866C203.192 141.886 186.845 132.984 166.681 132.984C146.516 132.984 130.169 141.886 130.169 152.866C130.169 163.846 146.516 172.748 166.681 172.748Z" fill="#E0E0E0"/>
<path d="M254.967 272.483C279.022 272.483 298.522 261.304 298.522 247.515C298.522 233.726 279.022 222.547 254.967 222.547C230.912 222.547 211.411 233.726 211.411 247.515C211.411 261.304 230.912 272.483 254.967 272.483Z" fill="#E0E0E0"/>
<path d="M60.8737 251.214C82.8263 251.214 100.622 241.524 100.622 229.571C100.622 217.618 82.8263 207.928 60.8737 207.928C38.9211 207.928 21.125 217.618 21.125 229.571C21.125 241.524 38.9211 251.214 60.8737 251.214Z" fill="#E0E0E0"/>
<path d="M245.716 78.7042L234.123 67.383L227.634 67.8522L245.716 78.7042Z" fill="#279EFF"/>
<path d="M245.716 78.7042L236.235 66.7575L239.588 64.4865L245.716 78.7042Z" fill="#279EFF"/>
<path d="M236.236 66.7575L235.695 68.9197L245.717 78.7042L236.236 66.7575Z" fill="#279EFF"/>
<path opacity="0.3" d="M236.236 66.7575L235.695 68.9197L245.717 78.7042L236.236 66.7575Z" fill="black"/>
<path d="M80.4272 96.9335L94.3281 84.8169L101.632 85.7416L80.4272 96.9335Z" fill="#279EFF"/>
<path d="M80.4272 96.9336L91.9704 83.9874L88.3366 81.2132L80.4272 96.9336Z" fill="#279EFF"/>
<path d="M91.9704 83.9874L92.4391 86.4624L80.4272 96.9336L91.9704 83.9874Z" fill="#279EFF"/>
<path opacity="0.3" d="M91.9704 83.9874L92.4391 86.4624L80.4272 96.9336L91.9704 83.9874Z" fill="black"/>
<path d="M211.967 138.961L226.791 130.013L233.316 131.992L211.967 138.961Z" fill="#279EFF"/>
<path d="M211.967 138.961L224.779 128.891L221.931 125.791L211.967 138.961Z" fill="#279EFF"/>
<path d="M224.779 128.891V131.23L211.967 138.961L224.779 128.891Z" fill="#279EFF"/>
<path opacity="0.3" d="M224.779 128.891V131.23L211.967 138.961L224.779 128.891Z" fill="black"/>
<path d="M117.068 175.406L99.851 165.01L92.2661 167.301L117.068 175.406Z" fill="#279EFF"/>
<path d="M117.068 175.406L102.187 163.705L105.496 160.101L117.068 175.406Z" fill="#279EFF"/>
<path d="M102.187 163.704V166.418L117.068 175.406L102.187 163.704Z" fill="#279EFF"/>
<path opacity="0.3" d="M102.187 163.704V166.418L117.068 175.406L102.187 163.704Z" fill="black"/>
<path d="M77.8754 136.207C77.7992 136.206 77.7257 136.18 77.6668 136.135C77.608 136.089 77.5671 136.026 77.5509 135.956L77.3563 135.024C77.34 134.942 77.359 134.857 77.409 134.789C77.459 134.72 77.536 134.672 77.623 134.657C77.71 134.642 77.7999 134.66 77.873 134.707C77.946 134.754 77.9961 134.827 78.0124 134.909C78.0773 135.215 78.1349 135.521 78.207 135.827C78.2242 135.909 78.2066 135.994 78.1581 136.063C78.1096 136.133 78.034 136.183 77.9475 136.201L77.8754 136.207Z" fill="#E0E0E0"/>
<path d="M95.4677 161.508C95.4011 161.507 95.3362 161.488 95.2802 161.454C94.7082 161.087 94.1458 160.706 93.5931 160.312C93.5583 160.286 93.5291 160.255 93.5074 160.219C93.4856 160.183 93.4716 160.143 93.4663 160.102C93.4609 160.061 93.4642 160.019 93.4761 159.979C93.488 159.939 93.5081 159.902 93.5354 159.87C93.5896 159.804 93.669 159.761 93.7565 159.749C93.8441 159.738 93.9329 159.759 94.0041 159.808C94.5376 160.196 95.0928 160.577 95.6551 160.93C95.7122 160.969 95.755 161.024 95.7774 161.087C95.7997 161.151 95.8007 161.219 95.7801 161.282C95.7594 161.346 95.7182 161.402 95.6622 161.442C95.6062 161.483 95.5382 161.506 95.4677 161.508ZM92.2016 159.162C92.1225 159.162 92.0462 159.135 91.9853 159.088C91.4661 158.673 90.947 158.231 90.4423 157.782C90.404 157.755 90.3722 157.721 90.3489 157.682C90.3256 157.642 90.3114 157.599 90.3072 157.554C90.303 157.509 90.3089 157.464 90.3246 157.421C90.3402 157.379 90.3653 157.34 90.398 157.307C90.4308 157.274 90.4705 157.248 90.5146 157.231C90.5587 157.214 90.6062 157.205 90.654 157.206C90.7017 157.208 90.7487 157.218 90.7917 157.238C90.8348 157.257 90.8729 157.285 90.9038 157.32C91.4012 157.769 91.9132 158.197 92.4179 158.605C92.4511 158.632 92.4784 158.664 92.4982 158.701C92.518 158.738 92.5299 158.778 92.5332 158.819C92.5366 158.86 92.5313 158.901 92.5177 158.94C92.5041 158.979 92.4824 159.016 92.4539 159.047C92.4234 159.082 92.3849 159.111 92.3413 159.131C92.2977 159.151 92.25 159.162 92.2016 159.162ZM89.2166 156.504C89.1716 156.504 89.127 156.495 89.086 156.477C89.045 156.459 89.0084 156.434 88.9787 156.402C88.51 155.946 88.0414 155.457 87.58 154.96C87.522 154.896 87.4933 154.813 87.5 154.729C87.5068 154.645 87.5485 154.567 87.616 154.512C87.6487 154.484 87.687 154.463 87.7286 154.449C87.7702 154.436 87.8142 154.431 87.8581 154.434C87.9019 154.437 87.9446 154.449 87.9835 154.468C88.0225 154.487 88.0569 154.513 88.0847 154.546C88.5389 155.028 89.0003 155.511 89.4618 155.96C89.5243 156.02 89.5593 156.1 89.5593 156.184C89.5593 156.268 89.5243 156.349 89.4618 156.409C89.4295 156.439 89.3913 156.463 89.3492 156.479C89.3072 156.496 89.2621 156.504 89.2166 156.504ZM86.5273 153.58C86.4758 153.581 86.4249 153.57 86.3786 153.549C86.3323 153.527 86.2919 153.496 86.2605 153.458C85.8423 152.955 85.4242 152.431 85.0204 151.901C84.9941 151.868 84.975 151.83 84.9644 151.791C84.9537 151.751 84.9517 151.709 84.9584 151.669C84.9652 151.628 84.9805 151.589 85.0035 151.554C85.0266 151.519 85.0568 151.489 85.0925 151.465C85.1278 151.44 85.1681 151.422 85.2109 151.412C85.2538 151.402 85.2983 151.4 85.342 151.406C85.3857 151.413 85.4275 151.427 85.4652 151.449C85.5028 151.471 85.5354 151.5 85.5612 151.533C85.9577 152.057 86.3687 152.574 86.7869 153.07C86.8141 153.103 86.8343 153.14 86.8461 153.18C86.858 153.22 86.8614 153.261 86.856 153.302C86.8506 153.344 86.8367 153.383 86.8149 153.419C86.7931 153.455 86.764 153.487 86.7292 153.512C86.6729 153.557 86.6011 153.581 86.5273 153.58ZM84.1264 150.432C84.0715 150.432 84.0174 150.42 83.9694 150.395C83.9214 150.37 83.8811 150.333 83.8524 150.289C83.4775 149.752 83.1314 149.194 82.7637 148.63C82.7188 148.559 82.7058 148.474 82.7274 148.393C82.749 148.313 82.8036 148.244 82.879 148.202C82.9172 148.18 82.9596 148.166 83.0037 148.16C83.0478 148.154 83.0927 148.156 83.1358 148.167C83.1789 148.178 83.2192 148.197 83.2544 148.223C83.2895 148.248 83.3188 148.281 83.3405 148.317C83.6866 148.868 84.0615 149.412 84.4076 149.949C84.4548 150.019 84.4714 150.103 84.4539 150.185C84.4364 150.266 84.3862 150.337 84.3138 150.384C84.2574 150.417 84.1924 150.433 84.1264 150.432ZM82.0499 147.1C81.9888 147.1 81.9289 147.084 81.8767 147.054C81.8245 147.024 81.7822 146.981 81.7543 146.93C81.437 146.352 81.1198 145.767 80.8314 145.183C80.8121 145.146 80.8009 145.106 80.7984 145.064C80.796 145.023 80.8023 144.982 80.8172 144.944C80.832 144.905 80.8549 144.869 80.8846 144.839C80.9143 144.809 80.9502 144.785 80.99 144.768C81.0705 144.733 81.1623 144.729 81.2459 144.757C81.3295 144.785 81.3981 144.842 81.437 144.918C81.7254 145.489 82.0283 146.067 82.3455 146.638C82.3863 146.711 82.3948 146.796 82.3692 146.875C82.3435 146.954 82.2857 147.02 82.2085 147.059C82.1601 147.085 82.1056 147.099 82.0499 147.1ZM80.3051 143.592C80.2392 143.593 80.1745 143.575 80.1193 143.541C80.0641 143.507 80.0208 143.458 79.995 143.401C79.7355 142.81 79.4831 142.198 79.274 141.579C79.2592 141.54 79.2526 141.499 79.2548 141.458C79.2569 141.416 79.2676 141.376 79.2864 141.339C79.3052 141.301 79.3316 141.268 79.3641 141.24C79.3966 141.213 79.4346 141.192 79.4759 141.178C79.5592 141.151 79.65 141.156 79.7294 141.192C79.8088 141.227 79.8704 141.291 79.9013 141.368C80.132 141.973 80.3844 142.579 80.6223 143.156C80.6564 143.233 80.6574 143.32 80.6251 143.397C80.5928 143.474 80.5297 143.537 80.4493 143.571C80.4029 143.586 80.354 143.593 80.3051 143.592ZM78.9063 139.954C78.8349 139.954 78.7654 139.932 78.7082 139.891C78.6511 139.851 78.6093 139.794 78.5891 139.73C78.3872 139.111 78.1925 138.478 78.0195 137.86C77.9996 137.778 78.0139 137.692 78.0596 137.619C78.1053 137.547 78.1787 137.494 78.2646 137.472C78.3497 137.451 78.44 137.463 78.5157 137.506C78.5914 137.548 78.6463 137.616 78.6684 137.696C78.8342 138.315 79.0217 138.934 79.2236 139.546C79.237 139.585 79.2421 139.627 79.2384 139.668C79.2348 139.709 79.2226 139.749 79.2025 139.786C79.1824 139.822 79.1548 139.855 79.1213 139.881C79.0878 139.908 79.049 139.928 79.0073 139.94L78.9063 139.954Z" fill="#E0E0E0"/>
<path d="M98.0774 163.004C98.0216 163.004 97.9668 162.99 97.9188 162.963C97.6231 162.814 97.3275 162.657 97.0391 162.494C97.0004 162.474 96.9664 162.447 96.9391 162.415C96.9118 162.382 96.8918 162.345 96.8803 162.305C96.8689 162.265 96.8662 162.223 96.8724 162.182C96.8786 162.141 96.8937 162.101 96.9166 162.066C96.9382 162.03 96.9672 161.999 97.0018 161.973C97.0364 161.948 97.076 161.93 97.1182 161.919C97.1604 161.908 97.2045 161.905 97.2478 161.911C97.2912 161.916 97.333 161.93 97.3708 161.95C97.6592 162.113 97.9476 162.263 98.236 162.406C98.3009 162.44 98.3521 162.494 98.3815 162.558C98.411 162.622 98.4172 162.694 98.3992 162.762C98.3812 162.83 98.3399 162.891 98.2817 162.934C98.2236 162.978 98.1517 163.003 98.0774 163.004Z" fill="#E0E0E0"/>
<path d="M126.983 72.0747C126.895 72.0747 126.81 72.0417 126.748 71.9831C126.686 71.9244 126.651 71.8449 126.651 71.7619C126.651 71.679 126.686 71.5994 126.748 71.5407C126.81 71.4821 126.895 71.4491 126.983 71.4491C127.321 71.4491 127.653 71.4015 127.992 71.3879C128.079 71.386 128.164 71.4161 128.229 71.4718C128.293 71.5276 128.332 71.6048 128.338 71.6871C128.341 71.7279 128.335 71.7687 128.321 71.8074C128.307 71.846 128.285 71.8815 128.256 71.9119C128.227 71.9424 128.192 71.967 128.153 71.9845C128.114 72.0019 128.071 72.0118 128.028 72.0135L127.033 72.0747H126.983Z" fill="#E0E0E0"/>
<path d="M97.9478 81.6347C97.8946 81.635 97.8421 81.6234 97.7945 81.601C97.7469 81.5785 97.7055 81.5458 97.6738 81.5055C97.6229 81.4368 97.6027 81.3519 97.6175 81.2692C97.6324 81.1865 97.6811 81.1127 97.7531 81.0635C98.2867 80.71 98.8274 80.3836 99.3754 80.03C99.4495 79.9855 99.539 79.9698 99.625 79.9863C99.7111 80.0028 99.7871 80.0502 99.8368 80.1184C99.8608 80.1531 99.8772 80.192 99.8851 80.2328C99.893 80.2736 99.8923 80.3154 99.8829 80.3559C99.8735 80.3964 99.8557 80.4347 99.8304 80.4687C99.8052 80.5026 99.7731 80.5315 99.7359 80.5536C99.1951 80.8868 98.6616 81.2335 98.1353 81.5803C98.0793 81.6144 98.0144 81.6333 97.9478 81.6347ZM101.207 79.6357C101.133 79.6377 101.06 79.6162 101 79.5748C100.941 79.5334 100.898 79.4743 100.878 79.4071C100.858 79.3398 100.862 79.2682 100.891 79.2037C100.919 79.1391 100.969 79.0853 101.034 79.0509C101.596 78.7313 102.158 78.4253 102.728 78.1262C102.806 78.0868 102.897 78.0776 102.981 78.1004C103.066 78.1233 103.138 78.1764 103.182 78.2486C103.205 78.2844 103.22 78.3243 103.225 78.3656C103.231 78.407 103.228 78.4491 103.215 78.4892C103.203 78.5293 103.183 78.5666 103.155 78.5989C103.127 78.6312 103.092 78.6578 103.052 78.6769C102.49 78.9761 101.928 79.2753 101.38 79.5881C101.328 79.6194 101.268 79.6359 101.207 79.6357ZM104.61 77.861C104.548 77.8613 104.487 77.8447 104.435 77.8134C104.382 77.7821 104.34 77.7372 104.314 77.6842C104.276 77.61 104.269 77.5246 104.296 77.446C104.323 77.3674 104.381 77.3017 104.458 77.2626C105.042 76.9839 105.626 76.7187 106.225 76.4603C106.304 76.4254 106.395 76.4215 106.477 76.4496C106.56 76.4776 106.627 76.5352 106.665 76.6099C106.702 76.6857 106.706 76.7724 106.677 76.8512C106.647 76.93 106.586 76.9947 106.506 77.0315C105.922 77.283 105.338 77.5482 104.761 77.827C104.714 77.8486 104.662 77.8602 104.61 77.861ZM108.143 76.3175C108.076 76.3161 108.012 76.2968 107.957 76.2618C107.902 76.2268 107.859 76.1777 107.833 76.1203C107.799 76.0437 107.8 75.9577 107.833 75.8812C107.867 75.8047 107.932 75.744 108.013 75.7124C108.614 75.4676 109.219 75.2409 109.83 75.0324C109.912 75.0038 110.003 75.007 110.083 75.0414C110.162 75.0758 110.224 75.1386 110.255 75.216C110.273 75.2538 110.281 75.2945 110.281 75.3356C110.281 75.3768 110.272 75.4175 110.254 75.4551C110.237 75.4928 110.211 75.5266 110.179 75.5545C110.147 75.5823 110.109 75.6037 110.068 75.6172C109.462 75.8415 108.864 76.0659 108.273 76.2971C108.231 76.3103 108.187 76.3172 108.143 76.3175ZM111.748 74.9984C111.678 74.9981 111.611 74.9778 111.554 74.9401C111.497 74.9024 111.454 74.8492 111.43 74.7876C111.416 74.7484 111.41 74.7067 111.412 74.6652C111.415 74.6236 111.426 74.5829 111.446 74.5456C111.465 74.5082 111.492 74.4749 111.526 74.4476C111.559 74.4202 111.598 74.3995 111.64 74.3865C112.25 74.1825 112.87 73.9921 113.5 73.8153C113.541 73.8026 113.585 73.7979 113.629 73.8013C113.673 73.8047 113.715 73.8162 113.754 73.8352C113.793 73.8541 113.827 73.8802 113.855 73.9118C113.884 73.9434 113.905 73.9799 113.918 74.0193C113.943 74.0995 113.933 74.1858 113.892 74.2595C113.85 74.3332 113.779 74.3885 113.694 74.4136C113.074 74.5972 112.462 74.7808 111.856 74.9848L111.748 74.9984ZM115.461 73.9173C115.388 73.9167 115.318 73.8938 115.261 73.852C115.204 73.8103 115.163 73.752 115.144 73.6861C115.132 73.6464 115.128 73.6048 115.133 73.5637C115.138 73.5227 115.152 73.483 115.173 73.447C115.195 73.4109 115.224 73.3792 115.258 73.3538C115.293 73.3283 115.332 73.3095 115.374 73.2985C116.002 73.1353 116.636 72.9858 117.271 72.843C117.357 72.8244 117.447 72.8381 117.522 72.8813C117.598 72.9245 117.652 72.9936 117.674 73.0741C117.685 73.1143 117.687 73.1562 117.681 73.1971C117.674 73.2381 117.659 73.2775 117.636 73.3129C117.613 73.3483 117.583 73.3791 117.548 73.4035C117.512 73.4279 117.472 73.4454 117.429 73.4549C116.802 73.5977 116.175 73.7473 115.555 73.9037L115.461 73.9173ZM119.246 73.0674C119.17 73.0659 119.096 73.0403 119.038 72.9947C118.979 72.949 118.938 72.886 118.922 72.8158C118.905 72.7346 118.922 72.6505 118.971 72.5817C119.02 72.5129 119.095 72.465 119.181 72.4486C119.823 72.3262 120.465 72.2106 121.106 72.1086C121.193 72.0967 121.281 72.117 121.353 72.1651C121.424 72.2133 121.473 72.2857 121.488 72.367C121.497 72.4073 121.496 72.4487 121.487 72.4888C121.478 72.5289 121.461 72.5668 121.436 72.6005C121.411 72.6341 121.379 72.6626 121.342 72.6844C121.306 72.7062 121.265 72.7208 121.222 72.7274C120.58 72.8294 119.945 72.945 119.318 73.0606L119.246 73.0674ZM123.089 72.4554C123.008 72.4561 122.93 72.4288 122.869 72.3787C122.807 72.3286 122.768 72.2591 122.757 72.1834C122.745 72.1014 122.768 72.0181 122.82 71.9518C122.873 71.8855 122.952 71.8416 123.039 71.8298C123.687 71.7482 124.336 71.6735 124.985 71.6055C125.069 71.6065 125.149 71.6366 125.21 71.6898C125.272 71.7431 125.31 71.8159 125.318 71.8942C125.326 71.9726 125.303 72.0509 125.254 72.1143C125.204 72.1777 125.132 72.2217 125.05 72.2378C124.408 72.299 123.767 72.367 123.132 72.4554H123.089Z" fill="#E0E0E0"/>
<path d="M95.5467 83.3006C95.4972 83.3 95.4484 83.2893 95.4036 83.2694C95.3588 83.2494 95.3191 83.2207 95.2871 83.185C95.2589 83.1529 95.2379 83.1157 95.2255 83.0757C95.2131 83.0357 95.2094 82.9937 95.2148 82.9523C95.2202 82.9109 95.2345 82.871 95.2569 82.835C95.2793 82.799 95.3092 82.7677 95.3448 82.743L96.1379 82.1583C96.2087 82.1078 96.2978 82.0859 96.3857 82.0973C96.4736 82.1088 96.553 82.1527 96.6066 82.2195C96.6601 82.2862 96.6833 82.3702 96.6712 82.4531C96.659 82.536 96.6124 82.6109 96.5417 82.6614L95.7558 83.2326C95.6964 83.2772 95.6226 83.3012 95.5467 83.3006Z" fill="#E0E0E0"/>
<path d="M228.802 127.042C228.75 127.041 228.699 127.029 228.653 127.006C228.606 126.984 228.566 126.952 228.535 126.912C228.509 126.879 228.489 126.841 228.479 126.801C228.468 126.76 228.466 126.718 228.473 126.677C228.479 126.636 228.495 126.597 228.518 126.561C228.541 126.526 228.571 126.495 228.607 126.471L229.083 126.137C229.118 126.112 229.158 126.094 229.201 126.084C229.243 126.073 229.287 126.071 229.331 126.076C229.374 126.082 229.416 126.096 229.454 126.117C229.492 126.138 229.525 126.165 229.552 126.199C229.578 126.232 229.598 126.269 229.609 126.309C229.62 126.349 229.622 126.391 229.616 126.432C229.61 126.473 229.596 126.513 229.574 126.548C229.551 126.584 229.522 126.615 229.487 126.64L229.004 126.98C228.945 127.021 228.874 127.042 228.802 127.042ZM230.871 125.553C230.821 125.553 230.771 125.542 230.726 125.52C230.681 125.499 230.642 125.468 230.612 125.43C230.558 125.365 230.533 125.282 230.542 125.2C230.551 125.117 230.594 125.041 230.662 124.988C231.181 124.601 231.7 124.206 232.205 123.798C232.239 123.772 232.278 123.751 232.319 123.739C232.361 123.726 232.405 123.721 232.449 123.725C232.493 123.728 232.536 123.74 232.575 123.759C232.614 123.778 232.649 123.804 232.677 123.836C232.706 123.867 232.727 123.904 232.741 123.944C232.754 123.983 232.759 124.025 232.755 124.066C232.752 124.107 232.739 124.148 232.719 124.185C232.699 124.222 232.671 124.254 232.638 124.281C232.128 124.689 231.609 125.09 231.08 125.485C231.02 125.527 230.947 125.551 230.871 125.553ZM233.935 123.112C233.888 123.111 233.841 123.101 233.797 123.082C233.754 123.063 233.715 123.036 233.683 123.003C233.621 122.944 233.586 122.865 233.586 122.782C233.586 122.699 233.621 122.619 233.683 122.561C234.173 122.139 234.656 121.718 235.125 121.283C235.156 121.252 235.193 121.228 235.234 121.211C235.275 121.195 235.319 121.186 235.364 121.186C235.408 121.186 235.452 121.194 235.494 121.21C235.535 121.227 235.572 121.251 235.603 121.281C235.634 121.311 235.658 121.347 235.674 121.386C235.69 121.425 235.698 121.467 235.696 121.509C235.695 121.551 235.684 121.593 235.665 121.631C235.646 121.669 235.62 121.703 235.587 121.731C235.103 122.173 234.613 122.608 234.145 123.03C234.087 123.079 234.013 123.108 233.935 123.112ZM236.819 120.487C236.777 120.487 236.734 120.48 236.695 120.464C236.655 120.449 236.619 120.427 236.589 120.399C236.527 120.34 236.492 120.26 236.492 120.178C236.492 120.095 236.527 120.015 236.589 119.957C237.05 119.508 237.512 119.045 237.959 118.597C238.018 118.535 238.101 118.499 238.188 118.495C238.276 118.491 238.362 118.52 238.427 118.576C238.492 118.632 238.531 118.71 238.535 118.793C238.539 118.876 238.508 118.957 238.449 119.018C237.995 119.487 237.533 119.95 237.072 120.378C237.042 120.416 237.005 120.448 236.961 120.472C236.918 120.495 236.869 120.51 236.819 120.514V120.487ZM239.516 117.686C239.476 117.687 239.437 117.682 239.4 117.669C239.363 117.656 239.329 117.636 239.3 117.611C239.266 117.585 239.238 117.552 239.218 117.516C239.197 117.479 239.185 117.439 239.18 117.398C239.176 117.357 239.181 117.316 239.194 117.276C239.207 117.237 239.228 117.2 239.256 117.169C239.689 116.693 240.107 116.203 240.511 115.714C240.565 115.648 240.645 115.605 240.733 115.595C240.821 115.585 240.91 115.608 240.98 115.659C241.049 115.711 241.095 115.786 241.105 115.869C241.116 115.952 241.092 116.035 241.037 116.101C240.626 116.598 240.201 117.094 239.768 117.577C239.738 117.612 239.699 117.64 239.655 117.659C239.612 117.677 239.564 117.687 239.516 117.686ZM241.975 114.707C241.905 114.706 241.837 114.685 241.78 114.646C241.709 114.597 241.662 114.524 241.649 114.443C241.635 114.361 241.657 114.278 241.708 114.211C242.097 113.703 242.472 113.187 242.833 112.661C242.884 112.592 242.961 112.544 243.048 112.528C243.135 112.512 243.226 112.527 243.301 112.572C243.374 112.619 243.424 112.691 243.441 112.772C243.459 112.853 243.442 112.938 243.395 113.008C243.02 113.538 242.638 114.061 242.249 114.578C242.217 114.619 242.176 114.651 242.128 114.674C242.08 114.696 242.028 114.708 241.975 114.707ZM244.181 111.552C244.119 111.553 244.059 111.536 244.008 111.505C243.932 111.462 243.878 111.393 243.856 111.313C243.835 111.233 243.848 111.148 243.892 111.076C244.231 110.539 244.563 109.995 244.88 109.445C244.901 109.408 244.929 109.376 244.963 109.351C244.997 109.325 245.036 109.305 245.078 109.294C245.12 109.282 245.164 109.278 245.207 109.283C245.25 109.287 245.292 109.299 245.331 109.319C245.369 109.338 245.403 109.365 245.43 109.397C245.458 109.429 245.478 109.466 245.491 109.505C245.503 109.545 245.507 109.586 245.503 109.627C245.498 109.668 245.485 109.708 245.464 109.744C245.147 110.301 244.815 110.852 244.469 111.396C244.44 111.444 244.398 111.483 244.347 111.511C244.297 111.538 244.239 111.553 244.181 111.552ZM246.084 108.227C246.028 108.226 245.974 108.212 245.925 108.187C245.877 108.161 245.835 108.124 245.805 108.08C245.775 108.035 245.758 107.984 245.753 107.932C245.749 107.88 245.759 107.827 245.781 107.779C246.07 107.214 246.351 106.636 246.603 106.065C246.64 105.989 246.706 105.93 246.788 105.899C246.87 105.869 246.962 105.87 247.043 105.902C247.084 105.918 247.122 105.941 247.153 105.97C247.184 106 247.209 106.035 247.226 106.074C247.243 106.112 247.251 106.154 247.251 106.195C247.25 106.237 247.241 106.279 247.223 106.317C246.957 106.895 246.675 107.48 246.387 108.051C246.358 108.103 246.315 108.148 246.262 108.179C246.208 108.21 246.147 108.227 246.084 108.227ZM247.649 104.753H247.533C247.451 104.723 247.384 104.663 247.348 104.586C247.311 104.51 247.308 104.423 247.339 104.345C247.57 103.753 247.786 103.162 247.98 102.57C248.007 102.491 248.066 102.425 248.145 102.387C248.184 102.368 248.226 102.356 248.27 102.353C248.313 102.349 248.357 102.354 248.399 102.366C248.44 102.379 248.479 102.399 248.512 102.426C248.546 102.452 248.573 102.485 248.593 102.521C248.613 102.558 248.626 102.598 248.629 102.639C248.633 102.68 248.628 102.721 248.615 102.761C248.42 103.359 248.197 103.964 247.966 104.563C247.941 104.616 247.901 104.662 247.85 104.696C247.799 104.729 247.74 104.749 247.678 104.753H247.649ZM248.846 101.142H248.759C248.675 101.119 248.603 101.065 248.559 100.993C248.514 100.921 248.501 100.836 248.521 100.755C248.687 100.15 248.831 99.5378 248.961 98.9326C248.978 98.8505 249.029 98.7783 249.103 98.7318C249.177 98.6852 249.267 98.6682 249.354 98.6844C249.441 98.7007 249.518 98.7488 249.567 98.8183C249.616 98.8878 249.634 98.9729 249.617 99.055C249.487 99.6737 249.336 100.292 249.17 100.911C249.149 100.977 249.106 101.035 249.048 101.077C248.989 101.118 248.919 101.141 248.846 101.142ZM249.632 97.4435H249.588C249.545 97.4386 249.503 97.4254 249.465 97.4047C249.427 97.3841 249.394 97.3564 249.368 97.3233C249.341 97.2903 249.323 97.2526 249.312 97.2125C249.302 97.1724 249.3 97.1307 249.307 97.0899C249.401 96.4712 249.48 95.8456 249.538 95.2337C249.55 95.1514 249.595 95.0765 249.663 95.0237C249.731 94.9708 249.818 94.9439 249.906 94.9481C249.993 94.9567 250.073 94.997 250.13 95.0604C250.186 95.1238 250.214 95.2054 250.208 95.2881C250.143 95.9136 250.064 96.5528 249.963 97.1783C249.951 97.2528 249.911 97.3206 249.85 97.3693C249.789 97.418 249.711 97.4444 249.632 97.4435ZM250.006 93.6834C249.963 93.6816 249.92 93.6718 249.881 93.6545C249.841 93.6371 249.806 93.6126 249.776 93.5823C249.747 93.5519 249.724 93.5164 249.709 93.4778C249.694 93.4392 249.687 93.3981 249.689 93.357C249.689 92.8743 249.689 92.3915 249.689 91.9019V91.4872C249.687 91.4459 249.694 91.4046 249.71 91.3659C249.725 91.3272 249.749 91.2918 249.779 91.262C249.809 91.2321 249.846 91.2083 249.886 91.1921C249.926 91.1759 249.97 91.1675 250.014 91.1676C250.101 91.1693 250.184 91.2028 250.246 91.2611C250.308 91.3194 250.344 91.398 250.345 91.4804V91.8951C250.345 92.3983 250.345 92.8947 250.309 93.3842C250.308 93.4608 250.276 93.534 250.22 93.5894C250.164 93.6448 250.088 93.6783 250.006 93.6834ZM249.963 89.9097C249.878 89.91 249.796 89.8801 249.733 89.8259C249.67 89.7717 249.632 89.6973 249.624 89.6173C249.588 88.9986 249.531 88.3662 249.451 87.7474C249.445 87.6651 249.472 87.5835 249.527 87.5192C249.582 87.4548 249.66 87.4125 249.747 87.4007C249.791 87.396 249.835 87.3995 249.877 87.4109C249.919 87.4224 249.958 87.4417 249.993 87.4677C250.027 87.4936 250.055 87.5257 250.076 87.562C250.097 87.5984 250.11 87.6383 250.115 87.6795C250.194 88.305 250.252 88.9442 250.295 89.5765C250.299 89.6591 250.269 89.7399 250.211 89.802C250.153 89.8642 250.072 89.9027 249.985 89.9097H249.963ZM249.516 86.1564C249.436 86.1572 249.359 86.1309 249.298 86.0822C249.237 86.0335 249.197 85.9657 249.185 85.8912C249.084 85.286 248.954 84.6673 248.817 84.0485C248.8 83.9666 248.817 83.8815 248.866 83.8116C248.914 83.7417 248.99 83.6925 249.076 83.6746C249.12 83.6656 249.164 83.6649 249.207 83.6724C249.251 83.6799 249.292 83.6955 249.329 83.7183C249.366 83.7411 249.398 83.7707 249.423 83.8052C249.447 83.8397 249.464 83.8785 249.473 83.9193C249.61 84.5449 249.74 85.1772 249.841 85.7892C249.848 85.8298 249.846 85.8714 249.837 85.9116C249.827 85.9517 249.809 85.9896 249.783 86.0231C249.758 86.0566 249.725 86.085 249.688 86.1067C249.651 86.1284 249.61 86.143 249.567 86.1496L249.516 86.1564Z" fill="#E0E0E0"/>
<path d="M229.804 63.514C229.74 63.5152 229.678 63.4986 229.624 63.4664C229.061 63.1332 228.492 62.7864 227.922 62.5009C227.884 62.481 227.85 62.4541 227.822 62.4217C227.795 62.3893 227.774 62.3521 227.762 62.3123C227.75 62.2724 227.747 62.2307 227.752 62.1895C227.757 62.1484 227.771 62.1086 227.792 62.0725C227.838 61.9997 227.911 61.9467 227.998 61.925C228.084 61.9034 228.176 61.9149 228.254 61.9569C228.831 62.2697 229.408 62.5961 229.977 62.936C230.052 62.9808 230.105 63.0515 230.125 63.1328C230.145 63.2142 230.131 63.2997 230.085 63.3712C230.055 63.4154 230.013 63.4517 229.964 63.4766C229.915 63.5016 229.86 63.5144 229.804 63.514ZM226.329 61.6373C226.276 61.6467 226.223 61.6467 226.17 61.6373C225.586 61.345 224.988 61.0662 224.389 60.801C224.31 60.7656 224.249 60.7022 224.219 60.6244C224.19 60.5467 224.194 60.4611 224.231 60.3862C224.27 60.3111 224.338 60.253 224.421 60.2239C224.504 60.1947 224.596 60.1969 224.678 60.2298C225.283 60.5018 225.882 60.7874 226.48 61.0798C226.547 61.1117 226.6 61.1638 226.631 61.2277C226.662 61.2916 226.67 61.3636 226.652 61.4319C226.635 61.5003 226.593 61.5612 226.535 61.6046C226.476 61.648 226.403 61.6716 226.329 61.6713V61.6373ZM222.724 60.0259C222.681 60.0323 222.637 60.0323 222.594 60.0259C221.981 59.7811 221.368 59.5431 220.748 59.3459C220.701 59.3359 220.656 59.3164 220.618 59.2888C220.579 59.2611 220.547 59.2259 220.524 59.1856C220.501 59.1453 220.487 59.1007 220.484 59.055C220.481 59.0093 220.488 58.9635 220.505 58.9207C220.523 58.8779 220.549 58.839 220.584 58.8068C220.618 58.7746 220.66 58.7498 220.706 58.734C220.751 58.7182 220.8 58.7119 220.848 58.7154C220.897 58.7189 220.944 58.7322 220.986 58.7543C221.614 58.9787 222.241 59.2167 222.854 59.4343C222.927 59.4605 222.989 59.5106 223.027 59.5756C223.065 59.6405 223.077 59.7161 223.062 59.7889C223.046 59.8617 223.003 59.9268 222.941 59.9727C222.88 60.0186 222.803 60.0423 222.724 60.0394V60.0259ZM218.982 58.666H218.874C218.246 58.462 217.612 58.2784 216.977 58.1016C216.935 58.0899 216.896 58.0704 216.861 58.0442C216.827 58.0179 216.799 57.9855 216.778 57.9487C216.757 57.912 216.744 57.8717 216.74 57.8302C216.736 57.7888 216.741 57.7469 216.754 57.7072C216.765 57.6675 216.785 57.6304 216.813 57.5981C216.84 57.5658 216.873 57.539 216.912 57.5193C216.95 57.4996 216.992 57.4875 217.036 57.4835C217.079 57.4796 217.123 57.484 217.165 57.4964C217.814 57.6732 218.448 57.8636 219.09 58.0676C219.174 58.0954 219.242 58.153 219.281 58.228C219.32 58.303 219.327 58.3894 219.299 58.4688C219.276 58.535 219.23 58.5921 219.169 58.6314C219.107 58.6707 219.034 58.69 218.96 58.6864L218.982 58.666ZM215.139 57.5984H215.06C214.418 57.442 213.769 57.2993 213.12 57.1701C213.033 57.1506 212.958 57.0998 212.911 57.0285C212.864 56.9573 212.848 56.8713 212.868 56.7893C212.877 56.7491 212.895 56.711 212.92 56.6772C212.945 56.6435 212.977 56.6147 213.014 56.5926C213.05 56.5705 213.092 56.5555 213.135 56.5484C213.178 56.5413 213.222 56.5423 213.264 56.5513C213.92 56.6873 214.569 56.8301 215.225 56.9865C215.31 57.0103 215.382 57.0637 215.426 57.1357C215.47 57.2078 215.484 57.293 215.463 57.3741C215.446 57.4472 215.402 57.5121 215.338 57.557C215.275 57.6019 215.196 57.6238 215.117 57.6188L215.139 57.5984ZM211.231 56.7893H211.166C210.517 56.6737 209.861 56.5785 209.205 56.4901C209.162 56.4843 209.12 56.4705 209.082 56.4494C209.044 56.4283 209.011 56.4004 208.984 56.3673C208.958 56.3341 208.939 56.2964 208.928 56.2562C208.917 56.216 208.914 56.1742 208.92 56.1331C208.926 56.0921 208.941 56.0525 208.963 56.0168C208.986 55.9811 209.015 55.9499 209.051 55.9249C209.086 55.9 209.126 55.8818 209.168 55.8715C209.211 55.8611 209.255 55.8588 209.299 55.8646C209.962 55.9507 210.625 56.0527 211.289 56.1705C211.332 56.1771 211.373 56.1917 211.41 56.2135C211.446 56.2353 211.478 56.2638 211.503 56.2975C211.528 56.3311 211.545 56.3691 211.554 56.4092C211.563 56.4493 211.564 56.4907 211.556 56.5309C211.546 56.6102 211.506 56.6833 211.441 56.7351C211.377 56.787 211.294 56.8136 211.209 56.8097L211.231 56.7893ZM207.266 56.2589H207.23C206.566 56.1909 205.903 56.1365 205.247 56.089C205.203 56.0864 205.161 56.0757 205.121 56.0575C205.082 56.0393 205.047 56.0141 205.018 55.9831C204.99 55.9521 204.968 55.9161 204.954 55.8771C204.94 55.8381 204.934 55.7969 204.937 55.7558C204.938 55.714 204.947 55.6729 204.966 55.635C204.985 55.5971 205.011 55.5633 205.045 55.5358C205.078 55.5082 205.117 55.4876 205.159 55.4751C205.202 55.4626 205.246 55.4586 205.29 55.4634C205.963 55.5042 206.634 55.5586 207.302 55.6266C207.382 55.6411 207.454 55.6827 207.505 55.7435C207.555 55.8044 207.581 55.8804 207.576 55.9576C207.572 56.0347 207.538 56.1078 207.481 56.1632C207.424 56.2186 207.347 56.2526 207.266 56.2589Z" fill="#E0E0E0"/>
<path d="M259.935 70.2523L265.602 67.1653C265.715 67.1217 265.809 67.0424 265.868 66.9409L266.907 65.2275L263.54 63.3984L263.641 63.6772L259.935 70.2523Z" fill="#279EFF"/>
<g opacity="0.1">
<path d="M259.935 70.2523L265.602 67.1653C265.715 67.1217 265.809 67.0424 265.868 66.9409L266.907 65.2275L263.54 63.3984L263.641 63.6772L259.935 70.2523Z" fill="black"/>
</g>
<path d="M264.023 63.6568L260.101 70.0619C260.045 70.154 259.962 70.2289 259.862 70.2777C259.762 70.3265 259.65 70.3472 259.538 70.3371C259.426 70.327 259.32 70.2868 259.231 70.2211C259.143 70.1554 259.077 70.067 259.041 69.9667L254.888 58.6864L264.023 63.6568Z" fill="#279EFF"/>
<path d="M223.755 17.8419C223.806 16.9463 224.081 16.0746 224.555 15.2974C225.03 14.5202 225.692 13.8592 226.487 13.3678C227.337 12.9622 228.275 12.7508 229.227 12.7508C230.179 12.7508 231.118 12.9622 231.967 13.3678L276.323 37.4924C277.12 37.983 277.783 38.6437 278.259 39.421C278.735 40.1982 279.01 41.0702 279.063 41.9664V63.1536C279.011 64.0499 278.736 64.9222 278.26 65.6995C277.784 66.4768 277.12 67.1374 276.323 67.6277C275.474 68.0333 274.535 68.2447 273.583 68.2447C272.631 68.2447 271.693 68.0333 270.843 67.6277L226.235 43.3263C223.777 42.0004 223.755 40.6745 223.755 39.0291V17.8419Z" fill="#279EFF"/>
<path d="M264.318 48.9563L232.638 31.6176C231.722 31.1213 230.979 31.3524 230.979 32.1276C231.046 32.6089 231.231 33.069 231.519 33.4714C231.806 33.8739 232.19 34.2076 232.638 34.4462L264.318 51.7781C265.234 52.2812 265.977 52.0501 265.977 51.2749C265.91 50.7936 265.726 50.3335 265.438 49.9311C265.15 49.5287 264.767 49.1949 264.318 48.9563Z" fill="#455A64"/>
<path d="M254.722 49.7519L232.638 37.676C231.722 37.1796 230.979 37.4108 230.979 38.1859C231.046 38.6673 231.231 39.1273 231.519 39.5298C231.806 39.9322 232.19 40.2659 232.638 40.5046L254.722 52.5736C255.638 53.0768 256.38 52.8456 256.38 52.0705C256.314 51.5891 256.129 51.1291 255.841 50.7266C255.553 50.3242 255.17 49.9905 254.722 49.7519Z" fill="#455A64"/>
<path d="M264.318 42.8435L232.638 25.5116C231.722 25.0085 230.979 25.2397 230.979 26.0216C231.047 26.5026 231.232 26.9623 231.52 27.3646C231.808 27.7668 232.19 28.1008 232.638 28.3402L264.318 45.6721C265.234 46.1685 265.977 45.9441 265.977 45.1622C265.909 44.6812 265.724 44.2215 265.436 43.8192C265.149 43.4169 264.766 43.083 264.318 42.8435Z" fill="#455A64"/>
<path opacity="0.1" d="M279.063 63.1468C279.011 64.0432 278.736 64.9154 278.26 65.6927C277.784 66.4701 277.12 67.1306 276.323 67.6209C275.547 67.9955 274.695 68.2088 273.824 68.2463C272.954 68.2838 272.085 68.1448 271.276 67.8385C272.566 68.3008 273.547 67.6073 273.547 66.1318V44.9378C273.516 44.0395 273.24 43.1639 272.747 42.3948L278.226 39.4166C278.716 40.187 278.992 41.0619 279.027 41.9596L279.063 63.1468Z" fill="black"/>
<path opacity="0.3" d="M223.841 17.0939C224.159 15.9992 225.218 15.6524 226.487 16.3392L270.85 40.4705C271.66 40.9418 272.324 41.6054 272.776 42.3948L278.248 39.4234C277.794 38.6336 277.131 37.9682 276.323 37.4924L231.974 13.361C231.123 12.9584 230.183 12.7488 229.231 12.7488C228.278 12.7488 227.339 12.9584 226.487 13.361C225.801 13.7814 225.212 14.3292 224.757 14.9709C224.303 15.6127 223.991 16.335 223.841 17.0939Z" fill="white"/>
<path d="M55.3586 54.0422L49.9367 51.0912C49.8297 51.0499 49.7408 50.9756 49.6843 50.8805L48.6821 49.235L51.8978 47.4875L51.7968 47.7527L55.3586 54.0422Z" fill="#279EFF"/>
<g opacity="0.55">
<path d="M55.3586 54.0422L49.9367 51.0912C49.8297 51.0499 49.7408 50.9756 49.6843 50.8805L48.6821 49.235L51.8978 47.4875L51.7968 47.7527L55.3586 54.0422Z" fill="white"/>
</g>
<path d="M51.4146 47.7595L55.1637 53.879C55.2163 53.9671 55.2949 54.039 55.3898 54.0859C55.4848 54.1328 55.5921 54.1528 55.6988 54.1435C55.8056 54.1341 55.9072 54.0958 55.9913 54.0332C56.0755 53.9706 56.1386 53.8863 56.1731 53.7906L60.1386 42.9998L51.4146 47.7595Z" fill="#279EFF"/>
<path opacity="0.7" d="M51.4146 47.7595L55.1637 53.879C55.2163 53.9671 55.2949 54.039 55.3898 54.0859C55.4848 54.1328 55.5921 54.1528 55.6988 54.1435C55.8056 54.1341 55.9072 54.0958 55.9913 54.0332C56.0755 53.9706 56.1386 53.8863 56.1731 53.7906L60.1386 42.9998L51.4146 47.7595Z" fill="white"/>
<path d="M65.6687 16.9307C65.6223 16.0725 65.3609 15.2368 64.906 14.4923C64.4511 13.7477 63.8156 13.1153 63.0515 12.647C62.2408 12.2577 61.344 12.0548 60.4343 12.0548C59.5246 12.0548 58.6277 12.2577 57.8171 12.647L15.3935 35.7313C14.6291 36.1981 13.9927 36.8291 13.5366 37.5724C13.0804 38.3158 12.8174 39.1505 12.769 40.0081V60.2706C12.8174 61.1283 13.0804 61.9629 13.5366 62.7063C13.9927 63.4497 14.6291 64.0806 15.3935 64.5475C16.2042 64.9368 17.101 65.1397 18.0107 65.1397C18.9204 65.1397 19.8173 64.9368 20.6279 64.5475L63.2967 41.3C65.6471 40.0353 65.6687 38.7638 65.6687 37.2204V16.9307Z" fill="#279EFF"/>
<path opacity="0.7" d="M65.676 16.9307V37.1863C65.676 38.7638 65.676 40.0353 63.2967 41.266L20.628 64.5475C20.4833 64.6236 20.334 64.6917 20.181 64.7514H20.1233H20.0512L19.9502 64.7854H19.9935C18.8543 65.0914 18.0107 64.4251 18.0107 63.0924V42.8299C18.0438 41.9707 18.3067 41.1334 18.775 40.3957C19.2062 39.6362 19.843 38.9981 20.6208 38.5462L63.0516 15.4688C64.2628 14.7888 65.2722 15.1492 65.5823 16.1895C65.4998 15.7797 65.3667 15.3803 65.1857 14.9996C65.4975 15.6016 65.6649 16.2608 65.676 16.9307Z" fill="white"/>
<path opacity="0.55" d="M12.7764 60.2705C12.8239 61.1276 13.0858 61.9619 13.5407 62.7052C13.9956 63.4485 14.6305 64.0798 15.3936 64.5474C16.1307 64.8991 16.9383 65.0996 17.7634 65.136C18.5885 65.1723 19.4124 65.0436 20.181 64.7582C18.9481 65.2002 18.018 64.5338 18.018 63.1263V42.8639C18.0511 42.0047 18.314 41.1673 18.7823 40.4297L13.5406 37.5603C13.0668 38.3006 12.8035 39.1437 12.7764 40.0081V60.2705Z" fill="white"/>
<path opacity="0.85" d="M65.5821 16.2236C65.2793 15.1765 64.2627 14.8637 63.0586 15.5029L20.6278 38.5803C19.8536 39.0333 19.2176 39.6683 18.7821 40.423L13.5476 37.5604C13.9829 36.8038 14.6189 36.1665 15.3934 35.7109L57.8097 12.6335C58.6229 12.2478 59.5204 12.047 60.4306 12.047C61.3407 12.047 62.2383 12.2478 63.0514 12.6335C63.7104 13.0377 64.2748 13.5647 64.71 14.182C65.1452 14.7994 65.442 15.4942 65.5821 16.2236Z" fill="white"/>
<path d="M25.0476 47.6915L55.3296 31.1076C56.2092 30.6316 56.9158 30.8492 56.9158 31.5972C56.8524 32.0575 56.676 32.4976 56.4006 32.8824C56.1253 33.2672 55.7585 33.5861 55.3296 33.8138L25.0476 50.3909C24.1752 50.8669 23.4614 50.6493 23.4614 49.9082C23.5265 49.4483 23.7035 49.0089 23.9787 48.6243C24.2539 48.2397 24.6197 47.9205 25.0476 47.6915Z" fill="#455A64"/>
<path d="M25.0476 53.5526L46.1729 41.9935C47.0453 41.5176 47.7591 41.7351 47.7591 42.4831C47.6925 42.9425 47.5148 43.3813 47.2398 43.7656C46.9647 44.15 46.5997 44.4696 46.1729 44.6997L25.0476 56.2588C24.1752 56.7416 23.4614 56.524 23.4614 55.7761C23.5254 55.315 23.702 54.8742 23.9772 54.4884C24.2524 54.1026 24.6189 53.7823 25.0476 53.5526Z" fill="#455A64"/>
<path d="M25.0476 41.844L55.3296 25.2668C56.2092 24.7908 56.9158 25.0084 56.9158 25.7564C56.8513 26.2164 56.6745 26.656 56.3992 27.0407C56.124 27.4253 55.7578 27.7445 55.3296 27.973L25.0476 44.5501C24.1752 45.0261 23.4614 44.8085 23.4614 44.0606C23.5265 43.6007 23.7035 43.1613 23.9787 42.7767C24.2539 42.3922 24.6197 42.0729 25.0476 41.844Z" fill="#455A64"/>
<path d="M144.056 7.64264C143.945 7.58559 143.821 7.55522 143.695 7.55424H137.127L134.416 9.00254V17.8419L137.127 16.3664L139.47 13.8098V20.6093L142.181 19.1338L149.29 11.3892C149.359 11.3138 149.409 11.2253 149.437 11.1297C149.465 11.0342 149.471 10.934 149.454 10.8362C149.436 10.7384 149.397 10.6453 149.337 10.5635C149.278 10.4816 149.2 10.413 149.11 10.3624L144.056 7.64264Z" fill="#455A64"/>
<path d="M139.47 20.6296L142.181 19.1541L149.29 11.4095C149.377 11.311 149.433 11.1914 149.451 11.0643C149.469 10.9373 149.449 10.808 149.392 10.6915C149.335 10.5749 149.245 10.4758 149.131 10.4055C149.018 10.3353 148.885 10.2967 148.749 10.2944H142.181L139.47 11.7699V20.6296Z" fill="#37474F"/>
<path d="M142.181 5.08601C142.136 4.29493 141.893 3.52506 141.474 2.83873C141.054 2.1524 140.469 1.56891 139.766 1.13551C139.017 0.776633 138.19 0.589569 137.35 0.589569C136.511 0.589569 135.683 0.776633 134.935 1.13551L95.8353 22.4111C95.1326 22.8434 94.5478 23.4257 94.1281 24.1109C93.7085 24.796 93.4659 25.5648 93.4199 26.3548V45.0398C93.4653 45.8299 93.7077 46.5989 94.1274 47.2841C94.5471 47.9693 95.1322 48.5516 95.8353 48.9835C96.5847 49.3387 97.4118 49.5237 98.2506 49.5237C99.0894 49.5237 99.9165 49.3387 100.666 48.9835L139.996 27.5583C142.159 26.3888 142.159 25.2193 142.159 23.7642L142.181 5.08601Z" fill="#37474F"/>
<path d="M93.4198 45.0398C93.4652 45.83 93.7076 46.5989 94.1273 47.2841C94.547 47.9694 95.1321 48.5516 95.8352 48.9835C96.5161 49.3069 97.2619 49.4911 98.0235 49.5239C98.7851 49.5567 99.5455 49.4374 100.255 49.1739C99.1157 49.5751 98.2505 48.9631 98.2505 47.6644V28.9863C98.2821 28.1923 98.5305 27.4194 98.9715 26.7424L94.1048 24.111C93.6678 24.7897 93.4198 25.5616 93.3838 26.3548L93.4198 45.0398Z" fill="#263238"/>
<path d="M142.102 4.43328C141.821 3.46775 140.891 3.16178 139.773 3.75333L100.666 25.0425C99.9487 25.4564 99.3614 26.0432 98.9645 26.7424L94.105 24.1178C94.5081 23.4229 95.0941 22.8375 95.8065 22.4179L134.906 1.14233C135.657 0.787048 136.485 0.602036 137.325 0.602036C138.165 0.602036 138.994 0.787048 139.744 1.14233C140.355 1.51011 140.879 1.99181 141.284 2.55779C141.69 3.12377 141.968 3.76203 142.102 4.43328Z" fill="#455A64"/>
<path d="M106.131 32.8008L134.07 17.5223C134.877 17.0804 135.512 17.2775 135.512 17.9711C135.454 18.3927 135.293 18.7961 135.043 19.1498C134.793 19.5036 134.46 19.7982 134.07 20.0109L106.131 35.3098C105.323 35.7449 104.689 35.5477 104.689 34.861C104.744 34.4358 104.903 34.0284 105.153 33.6708C105.403 33.3133 105.738 33.0155 106.131 32.8008Z" fill="#279EFF"/>
<path d="M114.596 33.5895L134.063 22.9483C134.87 22.5064 135.505 22.7103 135.505 23.3971C135.448 23.819 135.288 24.2228 135.038 24.5767C134.788 24.9306 134.454 25.225 134.063 25.4369L114.596 36.0781C113.788 36.5201 113.154 36.3229 113.154 35.6294C113.212 35.2077 113.372 34.8044 113.622 34.4506C113.872 34.0969 114.205 33.8022 114.596 33.5895Z" fill="#279EFF"/>
<path d="M106.131 27.4292L134.07 12.1439C134.877 11.7088 135.512 11.9059 135.512 12.5927C135.454 13.0143 135.293 13.4177 135.043 13.7714C134.793 14.1252 134.46 14.4198 134.07 14.6325L106.131 29.9178C105.323 30.3597 104.689 30.1625 104.689 29.469C104.747 29.0474 104.907 28.644 105.157 28.2903C105.407 27.9365 105.741 27.6419 106.131 27.4292Z" fill="#279EFF"/>
<path d="M270.093 108.098C273.806 107.316 278.024 108.778 280.829 114.394C283.54 119.752 291.384 135.52 291.565 139.301C291.752 143.224 274.816 155.443 275.292 155.232C275.436 155.164 271.506 147.678 271.506 147.678L280.122 137.581L275.248 128.531L270.093 108.098Z" fill="#279EFF"/>
<g opacity="0.35">
<path d="M270.093 108.098C273.806 107.316 278.024 108.778 280.829 114.394C283.54 119.752 291.384 135.52 291.565 139.301C291.752 143.224 274.816 155.443 275.292 155.232C275.436 155.164 271.506 147.678 271.506 147.678L280.122 137.581L275.248 128.531L270.093 108.098Z" fill="black"/>
</g>
<path d="M276.576 235.242C277.066 235.419 277.347 236.296 277.571 238.437C277.7 239.797 278.183 241.524 276.035 242.599C275.253 242.979 274.385 243.174 273.505 243.165C272.626 243.157 271.761 242.946 270.988 242.551C269.128 241.463 268.183 239.451 266.006 237.839C264.088 236.425 261.68 235.378 260.137 232.801C258.594 230.224 258.839 228.51 262.011 228.51C267.116 228.51 268.645 231.162 271.269 231.23C272.704 231.244 276.078 235.072 276.576 235.242Z" fill="#263238"/>
<path d="M276.568 234.188V236.35C276.568 237.404 271.803 238.981 270.469 236.568C270.368 236.357 269.849 233.392 269.849 233.392L276.568 234.188Z" fill="#FFA8A7"/>
<path d="M254.462 247.834C254.462 247.834 255.371 247.834 255.724 251.322C255.861 252.682 256.2 255.402 255.724 256.368C255.248 257.333 252.638 257.789 249.711 258.034C247.548 258.217 245.558 259.217 243.539 260.291C241.625 261.307 239.477 261.868 237.281 261.923C234.512 261.923 232.169 261.658 230.201 260.189C229.155 259.407 227.821 257.762 228.795 256.517C229.2 256.14 229.714 255.885 230.273 255.783C231.506 255.348 232.746 254.953 234 254.579C235.876 254.055 237.706 253.393 239.473 252.601C242.054 251.397 244.931 250.058 246.885 248.004L254.462 247.834Z" fill="#263238"/>
<path d="M254.448 246.033C254.448 246.033 254.448 247.637 254.448 248.555C254.448 249.473 253.323 250.84 250.345 250.758C248.262 250.697 246.798 250.173 246.87 248.548V246.216L254.448 246.033Z" fill="#FFA8A7"/>
<path d="M277.902 205.508C277.372 201.682 276.445 197.915 275.133 194.261C275.133 194.261 275.898 184.538 276.244 175.318C276.544 165.873 276.264 156.419 275.407 147.005C275.407 147.005 242.198 144.04 241.65 155.545C241.102 167.05 241.895 196.342 242.328 201.387C242.761 206.432 243.186 211.172 244.325 220.575C245.298 228.673 246.877 246.25 246.877 246.25C248.058 246.81 249.366 247.085 250.687 247.053C252.008 247.021 253.3 246.682 254.448 246.066C254.448 246.066 256.95 222.465 257.238 216.638C257.613 209.077 255.746 204.909 255.746 204.909C255.746 204.909 256.467 200.15 257.685 190.372C258.558 183.47 259.718 175.603 259.718 175.603C259.718 175.603 260.858 185.34 261.543 190.766C262.184 195.798 263.266 199.776 264.866 209.159C266.258 217.318 270.05 234.521 270.05 234.521C273.951 236.486 276.539 234.222 276.539 234.222C276.539 234.222 278.991 212.538 277.902 205.508Z" fill="#37474F"/>
<path d="M259.718 175.59L261.29 165.975C261.29 165.975 267.779 164.031 271.038 160.407C271.038 160.407 269.286 164.629 263.266 166.9L260.85 174.998L260.439 181.675L259.718 175.59Z" fill="black"/>
<path d="M254.268 105.297L255.818 115.571L265.623 115.251L264.679 103.243L254.268 105.297Z" fill="#FFA8A7"/>
<path d="M247.231 92.6361C247.231 92.6361 244.599 96.2738 244.887 96.641C245.176 97.0082 247.05 97.355 247.05 97.355L247.231 92.6361Z" fill="#F28F8F"/>
<path d="M248.088 94.9819C247.456 94.9711 246.841 94.7837 246.321 94.4434C245.801 94.103 245.4 93.625 245.168 93.0698C244.936 92.5145 244.884 91.9069 245.018 91.3237C245.152 90.7405 245.467 90.2078 245.921 89.793C246.376 89.3782 246.951 89.0999 247.574 88.9932C248.197 88.8864 248.839 88.9561 249.419 89.1934C250 89.4307 250.493 89.825 250.836 90.3264C251.179 90.8278 251.357 91.4139 251.347 92.0106C251.332 92.8119 250.981 93.5748 250.37 94.1319C249.759 94.689 248.938 94.9947 248.088 94.9819ZM248.182 89.6171C247.69 89.6105 247.207 89.7415 246.794 89.9937C246.382 90.2458 246.057 90.6078 245.862 91.0338C245.668 91.4598 245.611 91.9307 245.7 92.387C245.789 92.8433 246.019 93.2645 246.362 93.5973C246.705 93.93 247.145 94.1595 247.626 94.2566C248.107 94.3537 248.608 94.3141 249.065 94.1428C249.522 93.9715 249.915 93.6762 250.194 93.2943C250.474 92.9123 250.626 92.4608 250.634 91.997C250.638 91.6889 250.579 91.383 250.458 91.0966C250.338 90.8103 250.158 90.5492 249.931 90.3282C249.703 90.1072 249.431 89.9307 249.131 89.8087C248.831 89.6867 248.509 89.6216 248.182 89.6171Z" fill="#263238"/>
<path d="M254.534 82.5457C249.314 83.5044 247.778 85.6326 247.158 93.4249C246.509 101.55 247.346 104.12 248.463 105.236C249.22 105.983 253.467 106.181 255.623 105.657C258.319 104.977 264.419 103.06 267.332 99.014C270.757 94.2544 271.744 87.7337 268.204 85.0003C263.237 81.1518 256.654 82.1581 254.534 82.5457Z" fill="#FFA8A7"/>
<path d="M254.347 105.854C252.104 106.092 249.091 105.854 248.463 105.229C250.375 105.213 252.268 104.863 254.044 104.195L254.347 105.854Z" fill="#F28F8F"/>
<path d="M245.284 84.4768C245.269 85.1877 245.525 85.8801 246.005 86.4282C246.449 86.8746 247.011 87.2013 247.633 87.3746C248.255 87.5479 248.915 87.5616 249.545 87.4142C249.396 87.7944 249.357 88.2054 249.433 88.6044C249.509 89.0034 249.697 89.376 249.978 89.6834C250.258 89.9908 250.62 90.2218 251.027 90.3524C251.434 90.4831 251.871 90.5086 252.292 90.4263C252.04 90.4807 252.703 92.2962 252.768 92.4662C252.867 92.8037 253.04 93.1178 253.276 93.3883C253.512 93.6588 253.806 93.8797 254.138 94.0369C254.138 94.0369 255.053 90.9023 257.858 91.3171C260.663 91.7318 261.009 95.1656 259.192 97.2054C257.375 99.2453 255.724 98.4293 255.724 98.4293C255.724 98.4293 255.724 102.931 257.8 105.508C257.8 105.508 260.194 106.283 264.635 105.453C267.361 104.95 271.261 101.802 272.934 98.4361C276.474 91.3035 276.82 84.8372 271.99 82.8381C271.802 82.7565 271.73 81.8726 271.672 81.6822C271.539 81.1775 271.328 80.694 271.045 80.2475C270.39 79.2805 269.454 78.5112 268.349 78.0309C266.721 77.3802 264.976 77.0294 263.208 76.9974C261.447 76.9632 259.691 76.7949 257.959 76.4942C256.409 76.1542 254.952 75.5287 253.438 75.0663C251.946 74.5256 250.328 74.373 248.752 74.6243C247.969 74.7647 247.244 75.1103 246.66 75.6214C246.076 76.1325 245.657 76.7885 245.45 77.5141C245.111 79.1664 246.127 80.5399 247.187 81.7502C246.612 81.9677 246.121 82.3436 245.776 82.8288C245.431 83.314 245.25 83.886 245.255 84.47L245.284 84.4768Z" fill="#263238"/>
<path d="M271.326 84.4768L274.463 82.7905C274.345 82.5963 274.188 82.4258 274.001 82.2887C273.814 82.1517 273.6 82.0507 273.371 81.9917C273.143 81.9327 272.904 81.9167 272.669 81.9447C272.433 81.9726 272.206 82.044 272 82.1547C271.794 82.2655 271.614 82.4133 271.468 82.59C271.323 82.7666 271.216 82.9685 271.153 83.1841C271.091 83.3997 271.074 83.6248 271.104 83.8466C271.133 84.0684 271.209 84.2825 271.326 84.4768Z" fill="#263238"/>
<path d="M254.116 95.7911L254.268 92.3913C254.02 92.363 253.768 92.3833 253.529 92.451C253.29 92.5186 253.068 92.6323 252.878 92.7847C252.688 92.9371 252.533 93.1249 252.423 93.3365C252.314 93.5481 252.252 93.7787 252.241 94.014C252.231 94.2492 252.272 94.4839 252.362 94.7034C252.453 94.9229 252.59 95.1224 252.767 95.2893C252.943 95.4562 253.153 95.587 253.386 95.6733C253.618 95.7597 253.867 95.7998 254.116 95.7911Z" fill="#263238"/>
<path d="M245.248 91.2898L254.902 92.6157L254.498 93.248L245.241 91.9765L245.248 91.2898Z" fill="#263238"/>
<path d="M276.446 113.789C275.299 109.574 273.684 108.193 269.791 108.098C267.782 108.222 265.784 108.463 263.806 108.819C263.395 110.6 258.514 111.811 253.568 110.859C252.126 111.26 248.211 112.259 246.986 112.674C243.489 113.871 241.794 117.298 241.564 128.177C241.564 128.177 240.893 153.961 241.564 158.414C250.381 161.658 259.538 161.515 264.592 160.454C275.112 158.231 276.359 154.103 276.359 154.103C276.359 154.103 275.811 143.755 275.451 135.881C275.977 130.87 276.77 127.103 277.058 123.105C277.314 119.988 277.108 116.852 276.446 113.789Z" fill="#279EFF"/>
<g opacity="0.2">
<path d="M276.446 113.789C275.299 109.574 273.684 108.193 269.791 108.098C267.782 108.222 265.784 108.463 263.806 108.819C263.395 110.6 258.514 111.811 253.568 110.859C252.126 111.26 248.211 112.259 246.986 112.674C243.489 113.871 241.794 117.298 241.564 128.177C241.564 128.177 240.893 153.961 241.564 158.414C250.381 161.658 259.538 161.515 264.592 160.454C275.112 158.231 276.359 154.103 276.359 154.103C276.359 154.103 275.811 143.755 275.451 135.881C275.977 130.87 276.77 127.103 277.058 123.105C277.314 119.988 277.108 116.852 276.446 113.789Z" fill="black"/>
</g>
<path d="M264.91 106.147L264.982 107.139C264.982 107.139 264.47 108.499 261.492 109.057C256.496 109.934 254.744 108.465 254.744 108.465L254.621 107.615C254.621 107.615 254.138 107.432 253.323 108.023C252.091 109.23 250.937 110.506 249.87 111.845C249.87 111.845 250.821 111.58 253.943 112.831C257.061 113.979 260.498 114.102 263.698 113.177C264.591 112.899 265.39 112.404 266.016 111.743C266.643 111.082 267.074 110.278 267.267 109.41C267.39 108.547 265.768 105.8 264.91 106.147Z" fill="#279EFF"/>
<path opacity="0.35" d="M264.91 106.147L264.982 107.139C264.982 107.139 264.47 108.499 261.492 109.057C256.496 109.934 254.744 108.465 254.744 108.465L254.621 107.615C254.621 107.615 254.138 107.432 253.323 108.023C252.091 109.23 250.937 110.506 249.87 111.845C249.87 111.845 250.821 111.58 253.943 112.831C257.061 113.979 260.498 114.102 263.698 113.177C264.591 112.899 265.39 112.404 266.016 111.743C266.643 111.082 267.074 110.278 267.267 109.41C267.39 108.547 265.768 105.8 264.91 106.147Z" fill="black"/>
<path d="M245.882 113.089C241.708 113.851 238.045 115.646 238.117 120.31C238.142 126.268 237.091 132.186 235.01 137.812C233.712 141.681 223.019 153.253 220.381 153.974C217.742 154.695 213.956 153.138 213.041 154.389C212.125 155.64 215.759 157.17 215.925 157.789C216.091 158.408 211.462 160.121 208.657 159.665C205.852 159.21 206.537 162.446 210.762 164.228C214.987 166.009 220.215 163.963 225.226 160.427C230.237 156.891 240.266 149.344 242.854 144.108C245.99 137.798 247.742 131.869 248.125 127.313C248.788 117.978 245.882 113.089 245.882 113.089Z" fill="#FFA8A7"/>
<path d="M246.38 112.851C246.38 112.851 242.054 112.851 239.473 115.278C237.266 117.318 236.978 120.664 236.365 127.218C236.059 130.671 235.392 134.088 234.375 137.417C233.856 139.083 226.523 148.684 226.523 148.684C226.523 148.684 229.508 152.873 232.501 155.11C232.501 155.11 239.227 149.881 242.652 145.495C246.077 141.11 248.399 128.673 248.399 128.673C248.399 128.673 250.151 119.154 246.38 112.851Z" fill="#279EFF"/>
<path opacity="0.35" d="M246.38 112.851C246.38 112.851 242.054 112.851 239.473 115.278C237.266 117.318 236.978 120.664 236.365 127.218C236.059 130.671 235.392 134.088 234.375 137.417C233.856 139.083 226.523 148.684 226.523 148.684C226.523 148.684 229.508 152.873 232.501 155.11C232.501 155.11 239.227 149.881 242.652 145.495C246.077 141.11 248.399 128.673 248.399 128.673C248.399 128.673 250.151 119.154 246.38 112.851Z" fill="black"/>
<path d="M226.87 148.249C228.358 150.829 230.473 153.04 233.041 154.702C233.041 154.702 230.662 156.606 229.379 157.367C229.379 157.367 225.839 156.177 223.69 151.594L226.87 148.249Z" fill="#279EFF"/>
<path opacity="0.5" d="M226.87 148.249C228.358 150.829 230.473 153.04 233.041 154.702C233.041 154.702 230.662 156.606 229.379 157.367C229.379 157.367 225.839 156.177 223.69 151.594L226.87 148.249Z" fill="black"/>
<path d="M225.579 151.35C225.648 151.456 225.756 151.534 225.882 151.569C226.008 151.605 226.144 151.595 226.263 151.542C226.382 151.489 226.476 151.396 226.527 151.281C226.578 151.167 226.582 151.039 226.538 150.921C226.513 150.855 226.474 150.794 226.423 150.742C226.372 150.691 226.309 150.65 226.24 150.623C226.171 150.596 226.097 150.583 226.022 150.584C225.947 150.586 225.874 150.602 225.806 150.633C225.738 150.663 225.678 150.706 225.63 150.76C225.581 150.813 225.545 150.876 225.523 150.943C225.502 151.011 225.496 151.082 225.505 151.152C225.515 151.222 225.54 151.289 225.579 151.35Z" fill="#263238"/>
<path d="M155.346 27.2727H166.385C170.655 27.2727 174.75 25.6731 177.769 22.8257C180.788 19.9783 182.485 16.1163 182.485 12.0895C182.485 8.88315 181.134 5.80815 178.73 3.54093C176.326 1.27371 173.065 0 169.665 0H168.166C164.766 0 161.505 1.27371 159.101 3.54093C156.697 5.80815 155.346 8.88315 155.346 12.0895V27.2727Z" fill="#263238"/>
<path d="M154.077 35.6157C151.359 40.4977 148.785 46.4541 146.774 48.4259C142.952 50.1054 134.228 53.2331 130.724 53.6683C130.104 53.7392 129.478 53.5994 128.958 53.2739C127.581 52.424 126.514 52.2812 125.057 51.8121C123.918 51.4381 123.435 50.9213 123.226 51.1321C123.004 51.3726 122.891 51.6861 122.913 52.0044C122.934 52.3227 123.088 52.6201 123.341 52.832C123.885 53.3249 124.491 53.7541 125.144 54.1103C123.586 54.4689 121.962 54.4945 120.392 54.1851C117.357 53.4303 115.922 54.8106 117.977 57.918C118.698 59.0331 121.582 60.8146 127.48 60.3386C129.571 60.2301 131.654 60.003 133.716 59.6587C139.347 58.5299 145.361 56.8709 149.211 55.7897C150.638 55.2545 151.916 54.417 152.945 53.3419C159.434 46.3861 162.6 40.2189 165.433 35.7109L163.371 28.9862C158.786 28.823 156.413 31.4408 154.077 35.6157Z" fill="#B16668"/>
<path d="M163.371 28.9522C159.838 28.7074 158.497 29.333 156.882 30.8221C153.024 34.3986 147.141 48.0112 147.047 48.1199C146.954 48.2287 142.678 50.0646 142.678 50.0646C142.678 50.0646 144.956 53.6615 144.43 57.0681C144.43 57.0681 148.605 56.1977 150.097 55.6606C151.59 55.1234 152.123 54.7494 153.529 53.2128C154.935 51.6761 162.794 42.8911 162.794 42.8911L163.371 28.9522Z" fill="#263238"/>
<path d="M155.786 44.1761C156.314 46.558 156.517 48.9938 156.392 51.4243C156.161 54.6201 153.753 60.4744 153.753 60.4744C153.753 60.4744 155.649 62.0995 160.811 61.338C165.015 60.7192 163.529 48.7657 161.114 46.4471C159.71 45.0778 157.804 44.2655 155.786 44.1761Z" fill="#37474F"/>
<path d="M184.878 146.155C185.175 147.726 185.334 149.318 185.354 150.914C185.419 153.818 185.982 154.844 186.075 157.224C186.162 159.944 185.664 160.964 184.496 162.494C183.328 164.024 180.25 165.411 178.952 162.82C177.654 160.23 177.82 158.543 178.231 155.878C178.642 153.213 178.714 151.594 178.952 149.493C179.168 147.637 179.428 146.23 179.428 146.23L184.878 146.155Z" fill="#263238"/>
<path d="M176.147 123.349L186.241 123.179C186.09 129.557 185.016 140.178 184.842 146.155C184.842 147.283 184.842 154.912 184.417 157.231C183.739 160.712 179.37 160.243 179.125 158.156C178.88 156.068 179.406 147.168 179.392 146.25C179.435 142.415 177.524 132.399 176.508 125.505C176.515 125.172 176.19 123.682 176.147 123.349Z" fill="#B16668"/>
<path d="M161.251 141.191C161.251 141.191 161.778 141.225 161.864 141.626C161.951 142.027 161.98 142.857 162.196 143.666C162.535 144.899 162.656 146.176 162.556 147.447C162.376 148.337 160.22 149.67 158.749 149.901C157.279 150.132 155.195 151.506 154.034 152.533C152.182 153.979 149.888 154.83 147.487 154.96C145.029 154.96 143.313 154.192 142.498 152.92C141.683 151.649 143.219 151.526 146.053 149.806L148.216 148.446C152.671 145.726 154.301 144.23 155.563 141.483L161.251 141.191Z" fill="#263238"/>
<path d="M155.548 139.702C155.62 137.723 154.553 123.179 154.553 123.179L163.263 124.104C161.208 135.697 161.035 139.654 161.273 141.341C161.316 141.498 161.336 141.661 161.33 141.823C161.33 144.081 158.62 145.291 156.521 146.794C155.685 147.385 153.551 149.214 151.049 150.024C149.434 150.54 146.435 150.738 146.052 149.813C148.612 147.97 152.094 145.556 154.135 143.455C155.101 142.449 155.476 141.674 155.548 139.702Z" fill="#B16668"/>
<path d="M179.024 54.5045C182 58.1936 184.167 62.4052 185.397 66.8932C188.281 77.8471 183.753 101.285 183.753 101.285C183.898 102.869 185.823 105.997 186.544 112.994C187.387 121.255 184.979 143.381 184.979 143.381C184.979 143.381 182.658 145.012 179.305 143.489C179.305 143.489 173.169 110.988 172.095 102.774C171.136 95.6006 169.211 80.7029 169.211 80.7029L164.762 102.733C164.762 102.733 165.375 106.752 165.685 109.812C166.183 114.639 161.193 138.9 161.193 138.9C160.294 139.251 159.328 139.423 158.355 139.404C157.382 139.385 156.424 139.177 155.541 138.791C155.541 138.791 153.334 107.459 152.866 101.639C152.39 95.6482 154.041 81.682 155.26 70.5649C155.627 67.2127 157.314 58.3258 157.942 55.4292L179.024 54.5045Z" fill="#455A64"/>
<path opacity="0.6" d="M169.161 80.7029L168.115 73.9034C165.106 73.7323 162.191 72.8457 159.643 71.3264C161.403 73.3955 163.947 74.7369 166.738 75.0662L167.394 81.1313L165.303 100.054L169.161 80.7029Z" fill="#263238"/>
<path d="M157.552 47.27C157.661 49.2622 157.963 55.4293 157.963 55.4293C166.615 60.9369 179.038 54.5046 179.038 54.5046L180.834 42.9455C180.834 42.9455 176.327 37.0027 180.552 30.7064L173.811 29.4485L165.772 28.823L163.385 28.925C160.747 30.754 156.702 34.7521 155.851 36.7988C155 38.8454 153.702 42.9999 157.552 47.27Z" fill="#279EFF"/>
<g opacity="0.6">
<path d="M157.552 47.27C157.661 49.2622 157.963 55.4293 157.963 55.4293C166.615 60.9369 179.038 54.5046 179.038 54.5046L180.834 42.9455C180.834 42.9455 176.327 37.0027 180.552 30.7064L173.811 29.4485L165.772 28.823L163.385 28.925C160.747 30.754 156.702 34.7521 155.851 36.7988C155 38.8454 153.702 42.9999 157.552 47.27Z" fill="white"/>
</g>
<path d="M174.236 29.5572C174.236 29.5572 181.872 29.8768 183.321 30.5295C184.77 31.1823 187.185 35.1124 185.022 40.8376C182.859 46.5627 180.905 53.2738 181.129 54.6269C181.352 55.98 186.5 62.9631 186.5 62.9631C185.077 63.955 183.467 64.684 181.756 65.1117L179.117 59.6721L179.737 65.4585C179.737 65.4585 174.979 66.5464 171.583 66.2676C171.583 66.2608 168.843 44.3597 174.236 29.5572Z" fill="#37474F"/>
<path d="M178.692 0L177.812 3.16856C178.032 3.23699 178.263 3.26233 178.493 3.24301C178.723 3.2237 178.946 3.16014 179.149 3.05626C179.351 2.95239 179.529 2.8104 179.672 2.63909C179.814 2.46777 179.917 2.27076 179.975 2.06025C180.084 1.62704 180.012 1.17091 179.773 0.787038C179.533 0.403165 179.146 0.121205 178.692 0Z" fill="#263238"/>
<path d="M181.576 2.88293L178.108 2.99852C178.104 3.21351 178.147 3.42703 178.233 3.62606C178.319 3.8251 178.448 4.00549 178.61 4.15626C178.773 4.30702 178.966 4.425 179.179 4.50301C179.391 4.58102 179.618 4.61742 179.846 4.61C180.315 4.58727 180.756 4.39511 181.078 4.07347C181.4 3.75183 181.579 3.32544 181.576 2.88293Z" fill="#263238"/>
<path d="M160.379 5.74559C158.937 6.54113 157.177 9.94087 157.35 17.0667C157.502 23.1047 159.571 24.6006 160.617 25.0289C161.662 25.4573 163.666 25.1989 165.62 24.8861V28.5103C165.62 28.5103 162.924 31.468 163.09 33.1339C163.255 34.7998 166.99 35.1738 169.521 33.5623C171.158 32.4553 172.564 31.0721 173.667 29.4826V20.0789C173.667 20.0789 174.734 21.1464 176.63 19.9225C177.034 19.6766 177.38 19.3546 177.647 18.9768C177.913 18.5989 178.094 18.1733 178.178 17.7266C178.262 17.2798 178.247 16.8216 178.134 16.3804C178.022 15.9393 177.814 15.5248 177.524 15.1629C177.249 14.9203 176.922 14.7374 176.564 14.6268C176.206 14.5163 175.827 14.4808 175.454 14.523C175.08 14.5651 174.721 14.6837 174.401 14.8706C174.081 15.0575 173.808 15.3081 173.602 15.6048C173.602 15.6048 170.977 15.3873 166.824 13.2386C163.709 11.6441 161.391 8.94949 160.379 5.74559Z" fill="#B16668"/>
<path d="M165.217 15.5504C165.215 15.6998 165.261 15.8463 165.347 15.9715C165.433 16.0968 165.557 16.1954 165.702 16.2549C165.848 16.3144 166.008 16.3323 166.164 16.3064C166.32 16.2804 166.465 16.2117 166.58 16.1089C166.695 16.006 166.775 15.8736 166.811 15.728C166.847 15.5824 166.836 15.4301 166.781 15.2901C166.725 15.1502 166.627 15.0286 166.499 14.9407C166.371 14.8528 166.218 14.8023 166.06 14.7956C165.952 14.7929 165.845 14.8103 165.744 14.8468C165.643 14.8832 165.551 14.9381 165.473 15.0082C165.394 15.0783 165.331 15.1622 165.287 15.2553C165.243 15.3483 165.219 15.4486 165.217 15.5504Z" fill="#263238"/>
<path d="M164.286 20.6704L162.412 21.228C162.446 21.3462 162.505 21.4569 162.585 21.5534C162.665 21.6499 162.765 21.7303 162.878 21.7899C162.992 21.8495 163.117 21.887 163.246 21.9002C163.375 21.9135 163.506 21.9022 163.63 21.8671C163.882 21.7861 164.091 21.6163 164.214 21.3933C164.336 21.1702 164.362 20.9112 164.286 20.6704Z" fill="#9A4A4D"/>
<path d="M158.079 13.2182L159.716 12.1506C159.646 12.0479 159.556 11.9593 159.449 11.8903C159.343 11.8213 159.223 11.7733 159.096 11.7492C158.97 11.7251 158.839 11.7253 158.713 11.7499C158.586 11.7745 158.466 11.8229 158.36 11.8923C158.143 12.0378 157.993 12.2562 157.94 12.5026C157.888 12.749 157.938 13.005 158.079 13.2182Z" fill="#263238"/>
<path d="M158.453 14.9997C158.451 15.1494 158.495 15.2965 158.58 15.4226C158.666 15.5488 158.789 15.6484 158.934 15.7089C159.079 15.7695 159.24 15.7884 159.397 15.7632C159.553 15.738 159.698 15.6699 159.814 15.5673C159.93 15.4648 160.011 15.3324 160.047 15.1866C160.083 15.0409 160.073 14.8883 160.018 14.7479C159.963 14.6075 159.865 14.4856 159.737 14.3973C159.609 14.3091 159.456 14.2584 159.297 14.2517C159.08 14.2462 158.87 14.3217 158.712 14.4618C158.554 14.6019 158.461 14.7953 158.453 14.9997Z" fill="#263238"/>
<path d="M162.924 14.5645L162.794 19.1406L160.242 18.3926L162.924 14.5645Z" fill="#9A4A4D"/>
<path d="M165.62 24.8861C167.682 24.6345 171.922 23.4854 172.578 21.9079C172.319 22.7165 171.8 23.4292 171.093 23.9478C169.831 24.9745 165.62 26.1236 165.62 26.1236V24.8861Z" fill="#9A4A4D"/>
<path d="M197.207 55.6538C195.873 50.7514 190.221 40.015 188.613 36.0849C186.782 31.5836 183.624 29.9653 180.213 29.9653C178.959 31.4884 178.432 39.1514 182.297 43.5643C183.941 46.8349 188.872 55.9734 188.872 55.9734C188.75 56.8573 185.304 68.2124 183.825 71.2314C183.561 71.7592 183.099 72.1759 182.528 72.4009C181.006 73.0265 179.218 74.5971 178.007 75.4879C177.055 76.1678 176.327 76.2834 176.392 76.5622C176.507 76.8684 176.74 77.1227 177.044 77.2751C177.349 77.4274 177.702 77.4666 178.036 77.3849C179.069 77.0714 180.076 76.6873 181.05 76.2358C180.142 77.5968 179.135 78.8964 178.036 80.1251C175.988 82.3554 176.06 84.2592 180.047 84.3204C183.061 84.3612 184.655 82.7633 187.33 77.8881C188.094 76.4874 188.945 74.3728 189.867 72.5709C192.196 68.0084 193.667 66.1114 194.914 63.1944C196.962 58.5504 197.726 57.544 197.207 55.6538Z" fill="#B16668"/>
<path d="M178.692 29.8362C182.47 29.8362 185.26 30.1217 187.438 33.1339C189.615 36.1461 196.349 51.9957 197.099 54.0491C197.849 56.1026 198.339 57.782 195.203 62.5893C192.522 62.3506 189.944 61.4936 187.697 60.0939L188.454 55.9734L181.857 43.9179C179.135 39.7 178.018 34.7329 178.692 29.8362Z" fill="#263238"/>
<path d="M62.4531 91.1198C66.7791 92.4797 67.7957 92.7585 70.7662 97.117C73.6502 101.299 76.5342 109.036 79.1082 115.238C83.8307 113.973 93.8454 111.777 97.1332 109.968C100.421 108.159 100.111 106.901 101.459 105.745C103.017 104.386 104.646 101.163 105.915 102.937C106.766 104.134 104.999 104.936 105.107 106.453C105.216 107.969 110.075 104.413 112.116 103.053C113.464 102.162 116.593 104.957 115.338 107.983C114.228 110.702 112.454 112.368 109.253 113.64C105.886 115 104.127 115.68 99.8802 117.447C95.4605 119.324 77.2408 126.926 75.4383 125.865C71.3358 123.955 67.5794 111.981 65.092 106.827C62.6045 101.673 64.2556 96.2874 62.4531 91.1198Z" fill="#FFA8A7"/>
<path d="M61.4219 90.5962C63.2604 92.874 62.5034 91.9561 63.0658 95.4782C63.5272 98.3136 69.8504 125.641 75.5823 126.756C78.0914 127.252 96.2245 119.426 100.623 117.141C98.9621 114.979 97.7802 112.523 97.1474 109.92C91.8769 111.858 82.7923 113.776 79.5334 114.734C78.0193 110.763 76.1735 106.684 74.4431 102.679C71.1482 95.0975 69.2808 89.6715 61.4219 90.5962Z" fill="#37474F"/>
<path d="M36.8287 225.845H43.8945V214.442H36.8287V225.845Z" fill="#FFA8A7"/>
<path d="M63.0802 218.76L70.7876 219.011L71.1698 205.834L62.4385 205.562L63.0802 218.76Z" fill="#FFA8A7"/>
<path d="M37.6939 136.833C37.6939 142.898 37.2469 178.153 37.2469 178.153C37.0955 179.901 35.3146 183.001 35.1704 189.284C34.9758 198.402 36.461 219.882 36.461 219.882C37.624 220.421 38.8984 220.713 40.1942 220.736C41.4899 220.76 42.7753 220.514 43.9594 220.018C43.9594 220.018 49.2443 189.651 50.4484 180.635C51.501 172.761 54.5148 152.159 54.5148 152.159L59.0571 178.922C58.5624 182.127 58.4367 185.373 58.6822 188.604C58.9994 192.772 62.3449 213.517 62.3449 213.517C65.261 214.422 68.4032 214.448 71.3357 213.592C71.3357 213.592 72.0567 181.274 72.1144 177.446C72.2009 173.081 70.1821 135.534 70.1821 135.534L37.6939 136.833Z" fill="#263238"/>
<path d="M43.8871 222.561V221.609C44.2693 221.609 44.5 221.955 44.6442 222.812C44.7523 223.431 44.8461 223.893 45.0624 224.702C45.3744 225.866 45.7868 227.003 46.2953 228.102C47.2903 230.421 48.1338 231.291 50.4194 233.997C51.1903 234.751 51.9126 235.548 52.5824 236.384C53.0078 237.098 53.1592 239.104 52.431 239.553C49.7705 241.225 45.7185 241.273 42.8489 240.484C41.7888 240.202 40.8365 239.64 40.1044 238.864C39.3723 238.088 38.8911 237.131 38.7176 236.105C38.6166 235.486 38.6527 234.861 38.5806 234.242C38.3291 232.838 37.7232 231.511 36.8141 230.373C36.2814 229.719 35.8246 229.012 35.4515 228.265C34.8602 226.906 35.3361 225.355 35.7182 223.995C36.0427 222.812 36.396 221.52 36.8214 221.629C36.8214 221.772 36.8214 222.357 36.8214 222.357C37.8275 223.102 39.075 223.498 40.3542 223.479C41.3925 223.499 43.8944 223.309 43.8871 222.561Z" fill="#263238"/>
<path d="M70.867 216.767C71.2708 216.767 71.588 217.311 72.4749 218.216C73.7978 219.471 75.3329 220.509 77.0172 221.289C79.9012 222.649 85.5177 224.75 88.0629 225.831C89.6491 226.511 89.5698 228.313 87.9331 229.346C86.2964 230.38 82.3309 231.114 77.5723 230.115C74.9767 229.564 71.6097 227.307 69.4683 227.429C67.3269 227.551 63.3398 227.524 61.7608 226.498C60.1818 225.471 60.8163 223.281 61.2633 221.405C61.7464 219.365 62.2367 216.155 62.9577 216.291V217.06C63.8878 218.379 68.7257 218.862 70.7949 217.889L70.867 216.767Z" fill="#263238"/>
<path d="M54.5146 152.159C54.5146 152.159 60.5206 150.309 64.5149 146.672C64.5149 146.672 62.7052 149.867 57.3049 152.839L58.6171 176.27L54.5146 152.159Z" fill="black"/>
<path d="M49.3022 90.5146C47.8602 90.841 44.421 91.2354 41.8903 91.9221C40.0302 92.4253 39.2443 94.5671 38.8549 96.1854C37.6076 101.353 37.4129 112.198 37.4129 112.198L37.3408 137.451C41.9841 140.634 61.0401 142.252 70.7952 135.534C70.7952 135.534 69.6055 105.453 69.6055 100.775C69.6055 96.097 66.8441 90.467 59.2304 90.0522L49.3022 90.5146Z" fill="#455A64"/>
<path d="M28.9551 126.022C28.9551 126.022 34.8673 134.487 35.8839 135.588C36.9005 136.69 37.5927 136.33 38.6886 135.84C40.0197 135.294 41.3907 134.84 42.7911 134.48C44.6008 134.025 44.9541 135.711 43.202 136.908C41.9042 137.771 40.4262 138.152 41.039 138.866C42.2898 140.004 43.7576 140.908 45.365 141.531C49.691 143.265 49.8785 144.319 49.071 145.747C48.35 146.984 45.776 150.37 37.9748 147.216C34.7591 145.91 30.2962 141.307 28.162 138.92C25.0761 135.473 20.8511 128.769 20.8511 128.769L28.9551 126.022Z" fill="#FFA8A7"/>
<path d="M41.8902 91.9561C34.7811 91.3782 32.9498 94.8255 27.9028 103.27C23.447 110.641 17.679 119.834 17.4915 123.669C17.4411 124.906 23.1442 133.501 27.225 137.866C30.7579 137.71 33.3175 136.425 34.9902 134.467C34.0168 132.937 28.768 123.975 28.768 123.975L38.141 110.335C39.9764 108.236 41.283 105.772 41.9623 103.128C43.1735 98.0757 42.6977 93.0849 41.8902 91.9561Z" fill="#37474F"/>
<path d="M50.9312 70.3677C50.9297 72.0356 51.4529 73.6664 52.4344 75.0538C53.4159 76.4412 54.8117 77.5229 56.4452 78.1621C58.0787 78.8013 59.8766 78.9693 61.6113 78.6447C63.346 78.3202 64.9397 77.5177 66.1908 76.3388C67.4419 75.1599 68.2941 73.6576 68.6396 72.0219C68.9852 70.3862 68.8085 68.6906 68.1321 67.1496C67.4556 65.6085 66.3097 64.2913 64.8393 63.3646C63.3689 62.4378 61.6401 61.9432 59.8715 61.9432C57.5016 61.9432 55.2287 62.8305 53.5523 64.4103C51.8758 65.99 50.9331 68.1328 50.9312 70.3677Z" fill="#263238"/>
<path d="M44.4209 76.3581C44.4209 76.3581 45.8629 82.7768 46.4469 83.8376C46.8335 84.4896 47.4711 84.9765 48.2278 85.1975L48.1268 80.6826L44.4209 76.3581Z" fill="#263238"/>
<path d="M46.1509 66.2405C45.6536 66.2428 45.1619 66.3404 44.7058 66.5275C44.2497 66.7145 43.8387 66.987 43.4977 67.3284C42.308 68.4775 42.9353 72.836 44.4205 76.3581L47.1459 76.6573L46.1509 66.2405Z" fill="#263238"/>
<path d="M47.9607 76.6573C47.4128 76.9701 46.6341 75.9774 45.9564 75.2974C45.2786 74.6175 43.0724 73.7199 41.9837 75.9026C40.8949 78.0852 42.9498 81.0702 44.6874 81.5802C47.6723 82.4641 48.1194 80.6554 48.1194 80.6554L48.3429 91.1334C50.4049 93.6288 55.0482 96.573 57.55 96.1446C59.54 95.8115 59.9798 92.6361 58.0691 90.5555V87.4617C59.4013 87.6628 60.7527 87.7266 62.0995 87.6521C64.2625 87.3325 65.7045 85.7006 66.3462 83.4568C67.4133 79.8531 67.7882 76.9429 66.9086 69.8578C65.9136 62.0928 56.3387 62.0112 51.1692 65.0982C45.9996 68.1852 47.9607 76.6573 47.9607 76.6573Z" fill="#FFA8A7"/>
<path d="M67.8749 66.7165C67.4431 67.4351 66.8027 68.0224 66.0291 68.4096C64.1016 69.4037 61.8972 69.8167 59.7132 69.5927C57.442 69.3547 55.3872 68.3212 53.354 67.3625C53.2304 68.1576 52.8733 68.9043 52.3229 69.5179C51.6316 70.1844 50.7952 70.7017 49.8715 71.0342C49.6841 72.4281 49.6913 74.2232 49.5976 75.6307C49.5976 76.1066 49.5976 78.5748 48.3791 77.8677C47.9828 77.5455 47.6337 77.175 47.3408 76.7662C46.9106 76.2641 46.4508 75.7851 45.9637 75.3315C45.6104 75.0255 45.6321 74.3251 45.6176 73.924C45.5887 73.0822 45.6176 72.2396 45.7042 71.4014C45.7835 70.531 45.9349 69.6675 46.0142 68.804C45.9899 68.3058 45.8651 67.8166 45.6465 67.3625C45.4761 66.8293 45.3982 66.2736 45.4158 65.717C45.5167 63.9763 46.9299 62.5009 48.5882 61.7325C50.9946 60.7502 53.6341 60.3866 56.238 60.6786C58.5019 60.8554 60.8379 61.1002 62.9937 60.4338C63.8229 60.1754 64.6088 59.7539 65.4523 59.5635C65.8672 59.4282 66.3063 59.3718 66.7444 59.3975C67.1824 59.4232 67.6108 59.5304 68.0047 59.7131C69.6341 60.6038 69.7351 63.344 68.1272 64.2755C68.0191 64.3367 67.8893 64.4047 67.8533 64.5203C67.8287 64.6552 67.8596 64.7938 67.9398 64.9079C68.0772 65.1937 68.1429 65.5057 68.1317 65.8194C68.1204 66.1331 68.0325 66.4401 67.8749 66.7165Z" fill="#263238"/>
<path d="M45.6107 67.1448L42.3013 65.4722C42.4077 65.2621 42.558 65.0746 42.7432 64.9207C42.9284 64.7668 43.1447 64.6499 43.3791 64.5768C43.6134 64.5038 43.861 64.4762 44.107 64.4957C44.3529 64.5152 44.5922 64.5813 44.8103 64.6902C45.2522 64.9244 45.5816 65.3098 45.7306 65.7667C45.8795 66.2236 45.8366 66.717 45.6107 67.1448Z" fill="#263238"/>
<path d="M58.0548 87.4753C58.0548 87.4753 53.152 86.5438 51.4361 85.6802C50.428 85.185 49.6014 84.4149 49.064 83.4704C49.3246 84.4167 49.783 85.3044 50.4122 86.0814C51.6668 87.5909 58.0548 88.706 58.0548 88.706V87.4753Z" fill="#F28F8F"/>
<path d="M57.5717 75.0186C57.5632 75.213 57.4944 75.4008 57.3737 75.5586C57.253 75.7164 57.0858 75.8373 56.8928 75.9062C56.6999 75.9751 56.4897 75.989 56.2885 75.9462C56.0872 75.9035 55.9037 75.8058 55.7608 75.6655C55.6178 75.5252 55.5218 75.3484 55.4846 75.157C55.4473 74.9656 55.4706 74.7681 55.5513 74.5891C55.6321 74.4101 55.7669 74.2574 55.939 74.15C56.111 74.0426 56.3127 73.9853 56.5191 73.9851C56.6604 73.9869 56.8 74.0151 56.9297 74.0682C57.0594 74.1212 57.1767 74.1981 57.2746 74.2942C57.3725 74.3904 57.4492 74.504 57.5003 74.6283C57.5513 74.7527 57.5756 74.8853 57.5717 75.0186Z" fill="#263238"/>
<path d="M56.5191 71.6529L54.3561 72.7884C54.2015 72.5074 54.1677 72.181 54.2617 71.8771C54.3557 71.5732 54.5702 71.3151 54.8608 71.1565C55.0039 71.0849 55.1607 71.041 55.322 71.0272C55.4834 71.0134 55.646 71.0301 55.8004 71.0764C55.9548 71.1226 56.0979 71.1974 56.2213 71.2964C56.3447 71.3954 56.4459 71.5166 56.5191 71.6529Z" fill="#263238"/>
<path d="M57.6583 81.7569L60.0881 82.6137C60.0355 82.7677 59.9504 82.9101 59.8381 83.0324C59.7257 83.1547 59.5884 83.2543 59.4342 83.3254C59.2801 83.3965 59.1123 83.4376 58.941 83.4461C58.7697 83.4547 58.5983 83.4306 58.437 83.3752C58.11 83.2534 57.846 83.0165 57.7007 82.7145C57.5554 82.4126 57.5402 82.0692 57.6583 81.7569Z" fill="#F28F8F"/>
<path d="M66.2528 72.4824L64.27 71.0409C64.3631 70.9147 64.4824 70.8075 64.6207 70.7261C64.7589 70.6446 64.9133 70.5905 65.0744 70.5669C65.2356 70.5434 65.4001 70.551 65.558 70.5892C65.716 70.6274 65.864 70.6955 65.9932 70.7893C66.2593 70.9857 66.4348 71.2714 66.4831 71.5868C66.5315 71.9022 66.449 72.223 66.2528 72.4824Z" fill="#263238"/>
<path d="M65.8057 74.8283C65.7973 75.0159 65.7305 75.1971 65.6138 75.3493C65.497 75.5015 65.3355 75.6181 65.1491 75.6844C64.9628 75.7507 64.7599 75.764 64.5656 75.7225C64.3713 75.6811 64.1943 75.5867 64.0564 75.4511C63.9185 75.3156 63.8259 75.1448 63.79 74.96C63.7542 74.7752 63.7767 74.5846 63.8547 74.4118C63.9328 74.2389 64.063 74.0916 64.2291 73.9879C64.3952 73.8843 64.5899 73.8289 64.7891 73.8287C64.9255 73.8314 65.0599 73.8594 65.1848 73.911C65.3097 73.9627 65.4226 74.0371 65.517 74.1299C65.6114 74.2227 65.6855 74.3322 65.735 74.452C65.7846 74.5718 65.8086 74.6997 65.8057 74.8283Z" fill="#263238"/>
<path d="M60.355 74.0395L60.7083 80.0843L64.0537 79.01L60.355 74.0395Z" fill="#F28F8F"/>
<path d="M61.5661 95.4987C60.9389 96.8586 59.7853 97.4637 57.7016 97.6881C56.654 97.7568 55.6026 97.6242 54.6111 97.2981C53.6195 96.972 52.7086 96.4592 51.9336 95.791L54.5292 93.35L57.8242 95.6958L58.1053 93.0848L61.5661 95.4987Z" fill="#279EFF"/>
<path opacity="0.2" d="M61.5661 95.4987C60.9389 96.8586 59.7853 97.4637 57.7016 97.6881C56.654 97.7568 55.6026 97.6242 54.6111 97.2981C53.6195 96.972 52.7086 96.4592 51.9336 95.791L54.5292 93.35L57.8242 95.6958L58.1053 93.0848L61.5661 95.4987Z" fill="black"/>
<path d="M59.9296 94.7303C60.2309 95.5743 60.3462 96.4674 60.2685 97.3549C60.1733 98.1472 59.8546 98.9009 59.3456 99.5375C59.0143 99.7356 58.6393 99.8595 58.2493 99.8995C57.8594 99.9396 57.4649 99.8949 57.0961 99.7687C56.4218 99.2279 55.8794 98.5559 55.506 97.799C55.1327 97.042 54.9373 96.2179 54.9331 95.3831L57.8171 95.6958L59.9296 94.7303Z" fill="#279EFF"/>
<path d="M59.3455 99.5376C59.3455 99.5376 62.727 117.128 62.864 118.576C63.001 120.024 60.9173 125.036 59.6339 125.083C58.3506 125.131 55.8126 120.562 55.7766 119.27C55.7405 117.978 57.096 99.796 57.096 99.796L59.3455 99.5376Z" fill="#279EFF"/>
<path d="M57.0961 99.7688C57.4596 99.9197 57.8588 99.9778 58.2537 99.9372C58.6485 99.8966 59.0251 99.7588 59.3456 99.5376L59.3961 99.8163C59.073 100.061 58.6916 100.229 58.2848 100.305C57.878 100.381 57.4578 100.362 57.0601 100.252L57.0961 99.7688Z" fill="#37474F"/>
<path d="M57.8168 95.6959L48.2996 88.8488V87.0605C48.2996 87.0605 46.0717 87.6181 45.5742 91.2966C47.1033 94.4964 49.7152 97.1271 53.0005 98.776L54.9977 95.3763L57.8168 95.6959Z" fill="#37474F"/>
<path d="M58.0551 87.9173C59.3192 88.4792 60.4164 89.3271 61.2491 90.3855C62.2008 91.8678 62.1936 96.6818 62.1936 96.6818L59.9153 94.7304L57.8027 95.6959C58.0046 93.8056 58.0623 90.5691 58.0623 90.5691L58.0551 87.9173Z" fill="#37474F"/>
</svg>
