<svg width="336" height="224" viewBox="0 0 336 224" fill="none" xmlns="http://www.w3.org/2000/svg">
<path d="M302.333 208.757H280.076V208.908H302.333V208.757Z" fill="#EBEBEB"/>
<path d="M222.58 210.401H216.74V210.552H222.58V210.401Z" fill="#EBEBEB"/>
<path d="M279.404 203.148H266.508V203.299H279.404V203.148Z" fill="#EBEBEB"/>
<path d="M64.2769 204.163H35.2532V204.314H64.2769V204.163Z" fill="#EBEBEB"/>
<path d="M74.5179 204.163H70.2642V204.314H74.5179V204.163Z" fill="#EBEBEB"/>
<path d="M151.301 206.714H88.3479V206.865H151.301V206.714Z" fill="#EBEBEB"/>
<path d="M159.264 172.074H29.5141C28.4965 172.074 27.5205 171.711 26.8009 171.064C26.0813 170.416 25.677 169.538 25.677 168.623V4.56563C25.6859 3.65556 26.094 2.78547 26.8127 2.14476C27.5313 1.50405 28.5022 1.14459 29.5141 1.14462H159.264C160.282 1.14462 161.258 1.50823 161.977 2.15547C162.697 2.8027 163.101 3.68053 163.101 4.59586V168.623C163.101 169.538 162.697 170.416 161.977 171.064C161.258 171.711 160.282 172.074 159.264 172.074ZM29.5141 1.26551C28.5416 1.2671 27.6093 1.61531 26.9216 2.23386C26.2339 2.8524 25.8468 3.69088 25.845 4.56563V168.623C25.8468 169.498 26.2339 170.336 26.9216 170.955C27.6093 171.573 28.5416 171.922 29.5141 171.923H159.264C160.236 171.922 161.169 171.573 161.856 170.955C162.544 170.336 162.931 169.498 162.933 168.623V4.56563C162.931 3.69088 162.544 2.8524 161.856 2.23386C161.169 1.61531 160.236 1.2671 159.264 1.26551H29.5141Z" fill="#EBEBEB"/>
<path d="M304.624 172.074H174.861C173.844 172.073 172.869 171.709 172.15 171.062C171.431 170.415 171.026 169.538 171.024 168.623V4.56563C171.035 3.65605 171.443 2.78688 172.162 2.1465C172.88 1.50613 173.85 1.14616 174.861 1.14462H304.624C305.634 1.14777 306.601 1.50863 307.317 2.149C308.033 2.78937 308.439 3.65765 308.448 4.56563V168.623C308.448 169.536 308.046 170.412 307.329 171.059C306.612 171.706 305.64 172.071 304.624 172.074ZM174.861 1.26551C173.888 1.2671 172.956 1.61531 172.269 2.23386C171.581 2.8524 171.194 3.69088 171.192 4.56563V168.623C171.194 169.498 171.581 170.336 172.269 170.955C172.956 171.573 173.888 171.922 174.861 171.923H304.624C305.597 171.922 306.529 171.573 307.217 170.955C307.904 170.336 308.292 169.498 308.293 168.623V4.56563C308.292 3.69088 307.904 2.8524 307.217 2.23386C306.529 1.61531 305.597 1.2671 304.624 1.26551H174.861Z" fill="#EBEBEB"/>
<path d="M336 199.031H0V199.183H336V199.031Z" fill="#EBEBEB"/>
<path d="M204.207 30.5255H202.998V115.368H204.207V30.5255Z" fill="#E0E0E0"/>
<path d="M279.505 30.5255H278.295V115.368H279.505V30.5255Z" fill="#E0E0E0"/>
<path d="M284.243 35.8625H198.26L196.446 32.0546H286.057L284.243 35.8625Z" fill="#EBEBEB"/>
<path d="M284.243 41.0907H198.26L196.446 37.2828H286.057L284.243 41.0907Z" fill="#EBEBEB"/>
<path d="M284.243 46.3189H198.26L196.446 42.5111H286.057L284.243 46.3189Z" fill="#EBEBEB"/>
<path d="M284.243 51.5411H198.26L196.446 47.7393H286.057L284.243 51.5411Z" fill="#EBEBEB"/>
<path d="M284.243 56.7693H198.26L196.446 52.9675H286.057L284.243 56.7693Z" fill="#EBEBEB"/>
<path d="M284.243 61.9975H198.26L196.446 58.1897H286.057L284.243 61.9975Z" fill="#EBEBEB"/>
<path d="M284.243 67.2258H198.26L196.446 63.4179H286.057L284.243 67.2258Z" fill="#EBEBEB"/>
<path d="M284.243 72.454H198.26L196.446 68.6461H286.057L284.243 72.454Z" fill="#EBEBEB"/>
<path d="M284.243 77.6822H198.26L196.446 73.8744H286.057L284.243 77.6822Z" fill="#EBEBEB"/>
<path d="M284.243 82.9104H198.26L196.446 79.1026H286.057L284.243 82.9104Z" fill="#EBEBEB"/>
<path d="M284.243 88.1387H198.26L196.446 84.3308H286.057L284.243 88.1387Z" fill="#EBEBEB"/>
<path d="M284.243 93.3669H198.26L196.446 89.5591H286.057L284.243 93.3669Z" fill="#EBEBEB"/>
<path d="M284.243 98.5951H198.26L196.446 94.7873H286.057L284.243 98.5951Z" fill="#EBEBEB"/>
<path d="M284.243 103.823H198.26L196.446 100.016H286.057L284.243 103.823Z" fill="#EBEBEB"/>
<path d="M284.243 109.052H198.26L196.446 105.244H286.057L284.243 109.052Z" fill="#EBEBEB"/>
<path d="M284.243 114.28H198.26L196.446 110.472H286.057L284.243 114.28Z" fill="#EBEBEB"/>
<path d="M286.057 114.28H196.446V116.456H286.057V114.28Z" fill="#E0E0E0"/>
<path d="M289.182 27.2857H193.321V32.3629H289.182V27.2857Z" fill="#E0E0E0"/>
<path d="M194.309 78.3954C194.18 78.3962 194.053 78.3742 193.934 78.3305C193.815 78.2868 193.707 78.2223 193.615 78.1409C193.524 78.0594 193.452 77.9625 193.402 77.8558C193.353 77.7491 193.328 77.6346 193.328 77.519V47.9025C193.328 47.7869 193.353 47.6724 193.402 47.5657C193.452 47.459 193.524 47.3621 193.615 47.2806C193.707 47.1992 193.815 47.1347 193.934 47.091C194.053 47.0474 194.18 47.0253 194.309 47.0261C194.567 47.0261 194.815 47.1184 194.998 47.2828C195.18 47.4471 195.283 47.6701 195.283 47.9025V77.519C195.283 77.7515 195.18 77.9744 194.998 78.1387C194.815 78.3031 194.567 78.3954 194.309 78.3954Z" fill="#E0E0E0"/>
<path d="M194.658 31.3414H193.953V48.93H194.658V31.3414Z" fill="#E0E0E0"/>
<path d="M44.2041 12.9792H144.574C145.72 12.9791 146.82 13.3874 147.632 14.1146C148.444 14.8418 148.903 15.8287 148.908 16.8595V37.5427H39.8765V16.8595C39.8818 15.8298 40.3399 14.8437 41.1507 14.1167C41.9615 13.3897 43.0592 12.9807 44.2041 12.9792Z" fill="#F5F5F5"/>
<path d="M39.8763 39.223H148.908V42.7649C148.908 43.7989 148.452 44.7905 147.639 45.5216C146.826 46.2527 145.724 46.6634 144.574 46.6634H44.204C43.0545 46.6634 41.952 46.2527 41.1391 45.5216C40.3263 44.7905 39.8696 43.7989 39.8696 42.7649V39.223H39.8763Z" fill="#F0F0F0"/>
<path d="M55.6213 29.3045H45.6892C44.8355 29.3045 44.1436 29.9269 44.1436 30.6947V32.9068C44.1436 33.6746 44.8355 34.297 45.6892 34.297H55.6213C56.4749 34.297 57.1669 33.6746 57.1669 32.9068V30.6947C57.1669 29.9269 56.4749 29.3045 55.6213 29.3045Z" fill="#E0E0E0"/>
<path d="M142.948 29.3045H139.85C138.996 29.3045 138.304 29.9269 138.304 30.6947V32.9068C138.304 33.6746 138.996 34.297 139.85 34.297H142.948C143.801 34.297 144.493 33.6746 144.493 32.9068V30.6947C144.493 29.9269 143.801 29.3045 142.948 29.3045Z" fill="#E0E0E0"/>
<path d="M146.207 41.411H42.2217L43.9286 40.6374H144.5L146.207 41.411Z" fill="#E0E0E0"/>
<path d="M146.207 43.3331H42.2217L43.9286 42.5594H144.5L146.207 43.3331Z" fill="#E0E0E0"/>
<path d="M146.207 45.2551H42.2217L43.9286 44.4815H144.5L146.207 45.2551Z" fill="#E0E0E0"/>
<path d="M79.249 167.124H46.368C45.4234 167.124 44.5175 166.787 43.8496 166.186C43.1816 165.585 42.8064 164.77 42.8064 163.921C42.8055 163.5 42.897 163.082 43.0756 162.693C43.2542 162.304 43.5164 161.95 43.8472 161.652C44.178 161.354 44.5709 161.117 45.0035 160.956C45.436 160.794 45.8997 160.711 46.368 160.711H79.2422C80.1886 160.711 81.0962 161.049 81.7654 161.651C82.4346 162.253 82.8106 163.07 82.8106 163.921C82.8106 164.77 82.4353 165.585 81.7674 166.186C81.0995 166.787 80.1936 167.124 79.249 167.124Z" fill="#EBEBEB"/>
<path d="M40.5754 149.832L38.8013 127.015C38.7367 126.166 39.0494 125.329 39.6706 124.688C40.2918 124.046 41.1707 123.653 42.1143 123.594C43.0568 123.536 43.9865 123.816 44.6995 124.374C45.4125 124.931 45.8506 125.72 45.9178 126.568L47.712 149.384C47.7786 150.233 47.4677 151.071 46.8477 151.714C46.2277 152.356 45.3494 152.751 44.4058 152.812C43.9366 152.843 43.4651 152.79 43.0185 152.658C42.5718 152.525 42.1587 152.314 41.8028 152.037C41.447 151.76 41.1554 151.423 40.9447 151.044C40.7341 150.666 40.6086 150.254 40.5754 149.832Z" fill="#EBEBEB"/>
<path d="M60.4799 168.907H43.821C42.3839 168.907 41.0055 168.394 39.9887 167.481C38.9719 166.567 38.3997 165.328 38.3979 164.036V142.119C38.3979 142.002 38.4237 141.886 38.4738 141.778C38.5238 141.67 38.5972 141.572 38.6897 141.489C38.7821 141.406 38.8918 141.341 39.0124 141.297C39.133 141.252 39.2622 141.23 39.3925 141.231C39.5222 141.231 39.6507 141.254 39.7705 141.298C39.8904 141.343 39.9993 141.409 40.091 141.491C40.1827 141.574 40.2555 141.672 40.3052 141.779C40.3548 141.887 40.3803 142.003 40.3803 142.119V164.036C40.3803 164.856 40.7428 165.643 41.3881 166.224C42.0333 166.804 42.9085 167.13 43.821 167.13H60.4799V168.907Z" fill="#E0E0E0"/>
<path d="M65.251 189.911V169.506L66.595 169.131C67.3245 168.922 67.9615 168.511 68.4144 167.956C68.8673 167.401 69.1126 166.731 69.115 166.042H56.5285C56.5309 166.731 56.7762 167.401 57.2291 167.956C57.682 168.511 58.319 168.922 59.0485 169.131L60.3925 169.506V189.911L49.9429 194.142V195.925L62.8251 191.869L75.7141 195.925V194.136L65.251 189.911Z" fill="#E0E0E0"/>
<path d="M52.1807 197.17C52.1861 197.573 52.058 197.968 51.8129 198.305C51.5677 198.643 51.2166 198.907 50.8041 199.064C50.3916 199.221 49.9365 199.264 49.4965 199.188C49.0566 199.112 48.6518 198.92 48.3336 198.636C48.0154 198.353 47.7982 197.99 47.7096 197.595C47.621 197.2 47.6651 196.791 47.8362 196.418C48.0073 196.046 48.2977 195.728 48.6705 195.504C49.0433 195.281 49.4815 195.162 49.9295 195.163C50.5231 195.163 51.0927 195.374 51.5143 195.75C51.9359 196.126 52.1754 196.636 52.1807 197.17Z" fill="#E0E0E0"/>
<path d="M77.9519 197.17C77.9519 197.572 77.8195 197.964 77.5713 198.298C77.3232 198.632 76.9706 198.892 76.558 199.046C76.1454 199.2 75.6915 199.24 75.2535 199.162C74.8155 199.083 74.4131 198.89 74.0974 198.606C73.7816 198.322 73.5665 197.96 73.4794 197.566C73.3923 197.172 73.437 196.764 73.6079 196.393C73.7788 196.022 74.0682 195.704 74.4395 195.481C74.8108 195.258 75.2474 195.139 75.694 195.139C75.9907 195.138 76.2847 195.19 76.5591 195.292C76.8334 195.394 77.0827 195.543 77.2925 195.732C77.5024 195.921 77.6687 196.145 77.7818 196.392C77.895 196.638 77.9528 196.903 77.9519 197.17Z" fill="#E0E0E0"/>
<path d="M156.22 167.124H189.094C189.562 167.125 190.026 167.043 190.459 166.882C190.892 166.721 191.285 166.486 191.617 166.188C191.948 165.891 192.211 165.537 192.39 165.148C192.57 164.759 192.662 164.342 192.662 163.921C192.662 163.07 192.286 162.253 191.617 161.651C190.948 161.049 190.04 160.711 189.094 160.711H156.22C155.273 160.711 154.366 161.049 153.696 161.651C153.027 162.253 152.651 163.07 152.651 163.921C152.651 164.342 152.744 164.759 152.923 165.148C153.103 165.537 153.365 165.891 153.697 166.188C154.028 166.486 154.422 166.721 154.855 166.882C155.288 167.043 155.751 167.125 156.22 167.124Z" fill="#EBEBEB"/>
<path d="M194.88 149.832L196.654 127.015C196.719 126.167 196.407 125.331 195.787 124.69C195.167 124.048 194.29 123.654 193.348 123.594C192.404 123.534 191.473 123.814 190.758 124.371C190.044 124.929 189.605 125.719 189.538 126.568L187.763 149.384C187.699 150.234 188.011 151.072 188.632 151.714C189.253 152.356 190.132 152.751 191.076 152.812C192.02 152.87 192.951 152.588 193.664 152.03C194.377 151.471 194.814 150.68 194.88 149.832Z" fill="#EBEBEB"/>
<path d="M174.989 168.907H191.648C192.36 168.908 193.065 168.783 193.722 168.538C194.38 168.294 194.978 167.935 195.482 167.482C195.986 167.03 196.385 166.493 196.658 165.901C196.93 165.31 197.071 164.676 197.071 164.036V142.119C197.071 142.003 197.045 141.887 196.996 141.779C196.946 141.672 196.873 141.574 196.781 141.491C196.69 141.409 196.581 141.343 196.461 141.298C196.341 141.254 196.213 141.231 196.083 141.231C195.953 141.23 195.823 141.252 195.703 141.297C195.582 141.341 195.472 141.406 195.38 141.489C195.288 141.572 195.214 141.67 195.164 141.778C195.114 141.886 195.088 142.002 195.088 142.119V164.036C195.088 164.856 194.726 165.643 194.081 166.224C193.435 166.804 192.56 167.13 191.648 167.13H174.989V168.907Z" fill="#E0E0E0"/>
<path d="M170.224 189.911V169.506L168.88 169.131C168.151 168.922 167.515 168.51 167.064 167.955C166.612 167.4 166.368 166.73 166.367 166.042H178.933C178.932 166.73 178.688 167.4 178.237 167.955C177.785 168.51 177.149 168.922 176.42 169.131L175.076 169.506V189.911L185.532 194.142V195.925L172.643 191.869L159.754 195.925V194.136L170.224 189.911Z" fill="#E0E0E0"/>
<path d="M183.288 197.17C183.288 197.571 183.421 197.964 183.669 198.298C183.917 198.632 184.269 198.892 184.682 199.046C185.095 199.2 185.549 199.24 185.987 199.162C186.424 199.083 186.827 198.89 187.143 198.606C187.458 198.322 187.673 197.96 187.761 197.566C187.848 197.172 187.803 196.764 187.632 196.393C187.461 196.022 187.172 195.704 186.8 195.481C186.429 195.258 185.993 195.139 185.546 195.139C184.947 195.139 184.373 195.353 183.949 195.734C183.526 196.115 183.288 196.631 183.288 197.17Z" fill="#E0E0E0"/>
<path d="M157.517 197.17C157.517 197.572 157.649 197.965 157.898 198.299C158.146 198.633 158.499 198.893 158.912 199.047C159.325 199.2 159.779 199.24 160.218 199.161C160.656 199.082 161.058 198.888 161.374 198.604C161.689 198.319 161.904 197.957 161.99 197.562C162.076 197.168 162.031 196.759 161.859 196.388C161.687 196.017 161.396 195.701 161.024 195.478C160.652 195.256 160.215 195.138 159.768 195.139C159.472 195.139 159.178 195.192 158.905 195.294C158.631 195.396 158.383 195.546 158.174 195.734C157.964 195.923 157.799 196.147 157.686 196.393C157.573 196.639 157.516 196.903 157.517 197.17Z" fill="#E0E0E0"/>
<path d="M158.283 145.196H78.3149V152.781H158.283V145.196Z" fill="#EBEBEB"/>
<path d="M174.868 142.935H62.0256V147.456H174.868V142.935Z" fill="#F5F5F5"/>
<path d="M164.378 199.866H169.479L160.655 147.462H154.681L164.378 199.866Z" fill="#E6E6E6"/>
<path d="M82.2056 147.462H76.2248L67.4082 199.866H72.502L82.2056 147.462Z" fill="#E6E6E6"/>
<path d="M164.761 224C236.72 224 295.055 220.937 295.055 217.158C295.055 213.379 236.72 210.316 164.761 210.316C92.8014 210.316 34.4668 213.379 34.4668 217.158C34.4668 220.937 92.8014 224 164.761 224Z" fill="#F5F5F5"/>
<path d="M235.697 148.333H103.784V154.625H235.697V148.333Z" fill="#263238"/>
<path d="M235.697 148.333H103.784V154.625H235.697V148.333Z" fill="#263238"/>
<path d="M235.697 152.715H103.784V154.625H235.697V152.715Z" fill="black"/>
<path d="M208.683 191.343H130.792L132.424 184.864H207.05L208.683 191.343Z" fill="#263238"/>
<path d="M203.784 184.864L205.417 191.343H208.683L207.05 184.864H203.784Z" fill="black"/>
<path d="M132.424 184.864L130.792 191.343H134.064L135.697 184.864H132.424Z" fill="black"/>
<path d="M125.261 215.109C124.219 215.109 123.466 213.948 123.762 212.788L138.432 154.625H141.698L126.779 213.797C126.73 214.139 126.553 214.455 126.277 214.694C126.001 214.932 125.642 215.079 125.261 215.109Z" fill="#263238"/>
<path d="M137.619 157.774H140.892L141.684 154.625H138.412L137.619 157.774Z" fill="black"/>
<path d="M214.213 215.109C215.262 215.109 216.014 213.948 215.719 212.788L201.062 154.625H197.796L212.708 213.797C212.758 214.137 212.933 214.451 213.207 214.689C213.48 214.927 213.835 215.075 214.213 215.109Z" fill="#263238"/>
<path d="M201.062 154.625H197.796L198.589 157.774H201.855L201.062 154.625Z" fill="black"/>
<path d="M230.126 69.7885H109.354V151.796H230.126V69.7885Z" fill="#279EFF"/>
<path opacity="0.7" d="M230.126 69.7885H109.354V151.796H230.126V69.7885Z" fill="white"/>
<path opacity="0.7" d="M196.224 123.787C196.224 124.729 196.018 125.661 195.617 126.531C195.217 127.4 194.63 128.191 193.89 128.856C193.15 129.522 192.271 130.05 191.304 130.41C190.337 130.77 189.301 130.956 188.254 130.956V123.787H196.224Z" fill="white"/>
<path d="M143.385 96.1291V95.3917H127.055V96.1291H134.817V118.16H127.055V118.892H134.817V140.923H127.055V141.66H143.385V140.923H135.63V118.892H143.385V118.16H135.63V96.1291H143.385Z" fill="#263238"/>
<path d="M145.401 109.71H141.08V104.573H145.401C145.914 104.573 146.406 104.756 146.769 105.083C147.132 105.409 147.336 105.852 147.336 106.314V107.97C147.336 108.431 147.132 108.874 146.769 109.201C146.406 109.527 145.914 109.71 145.401 109.71Z" fill="#263238"/>
<path d="M145.401 132.479H141.08V127.335H145.401C145.914 127.335 146.406 127.519 146.769 127.845C147.132 128.172 147.336 128.614 147.336 129.076V130.732C147.337 130.961 147.287 131.188 147.191 131.4C147.094 131.612 146.951 131.805 146.771 131.967C146.592 132.129 146.378 132.258 146.143 132.346C145.908 132.434 145.655 132.479 145.401 132.479Z" fill="#263238"/>
<path d="M125.046 127.335H129.367V132.479H125.046C124.532 132.479 124.04 132.295 123.677 131.969C123.314 131.643 123.11 131.2 123.11 130.738V129.082C123.109 128.853 123.159 128.626 123.256 128.414C123.353 128.202 123.495 128.01 123.675 127.847C123.855 127.685 124.068 127.556 124.304 127.468C124.539 127.38 124.791 127.335 125.046 127.335Z" fill="#263238"/>
<path d="M125.046 104.573H129.367V109.71H125.046C124.532 109.71 124.04 109.527 123.677 109.201C123.314 108.874 123.11 108.431 123.11 107.97V106.314C123.11 105.852 123.314 105.409 123.677 105.083C124.04 104.756 124.532 104.573 125.046 104.573Z" fill="#263238"/>
<path d="M127.767 78.2564H132.088V83.4H127.767C127.254 83.4 126.762 83.2166 126.399 82.8902C126.036 82.5637 125.832 82.121 125.832 81.6593V80.0032C125.831 79.7741 125.881 79.5471 125.977 79.3352C126.074 79.1233 126.217 78.9307 126.397 78.7684C126.576 78.6061 126.79 78.4773 127.025 78.3895C127.26 78.3016 127.513 78.2564 127.767 78.2564Z" fill="#263238"/>
<path d="M203.589 136.982V133.095H209.308V136.982C209.308 137.443 209.104 137.886 208.741 138.213C208.378 138.539 207.886 138.723 207.372 138.723H205.531C205.276 138.723 205.024 138.679 204.789 138.592C204.553 138.505 204.339 138.377 204.158 138.215C203.978 138.053 203.835 137.861 203.737 137.649C203.639 137.438 203.589 137.211 203.589 136.982Z" fill="#263238"/>
<path d="M175.681 96.1291V95.3917H159.352V96.1291H167.113V118.16H159.352V118.892H167.113V140.923H159.352V141.66H175.681V140.923H167.926V118.892H175.681V118.16H167.926V96.1291H175.681Z" fill="#263238"/>
<path d="M177.697 109.71H173.376V104.573H177.697C178.21 104.573 178.703 104.756 179.065 105.083C179.428 105.409 179.632 105.852 179.632 106.314V107.97C179.632 108.431 179.428 108.874 179.065 109.201C178.703 109.527 178.21 109.71 177.697 109.71Z" fill="#263238"/>
<path d="M197.736 103.104H202.057V108.242H197.736C197.223 108.242 196.731 108.058 196.368 107.732C196.005 107.405 195.801 106.963 195.801 106.501V104.845C195.801 104.383 196.005 103.94 196.368 103.614C196.731 103.287 197.223 103.104 197.736 103.104Z" fill="#263238"/>
<path d="M197.736 90.913H202.057V96.0384H197.736C197.223 96.0384 196.731 95.855 196.368 95.5286C196.005 95.2021 195.801 94.7594 195.801 94.2977V92.6537C195.801 92.192 196.005 91.7493 196.368 91.4228C196.731 91.0964 197.223 90.913 197.736 90.913Z" fill="#263238"/>
<path d="M212.466 108.242H208.172V103.104H212.493C213.007 103.104 213.499 103.287 213.862 103.614C214.225 103.94 214.429 104.383 214.429 104.845V106.501C214.429 106.732 214.378 106.96 214.279 107.173C214.18 107.385 214.035 107.578 213.852 107.74C213.67 107.902 213.453 108.03 213.215 108.116C212.977 108.202 212.723 108.245 212.466 108.242Z" fill="#263238"/>
<path d="M202.581 115.313V111.427H208.3V115.313C208.3 115.775 208.096 116.218 207.733 116.544C207.37 116.871 206.878 117.054 206.364 117.054H204.523C204.268 117.055 204.016 117.01 203.78 116.923C203.545 116.836 203.331 116.708 203.15 116.546C202.97 116.385 202.827 116.192 202.729 115.981C202.631 115.769 202.581 115.542 202.581 115.313Z" fill="#263238"/>
<path d="M212.466 96.0505H208.172V90.9251H212.493C213.007 90.9251 213.499 91.1084 213.862 91.4349C214.225 91.7613 214.429 92.2041 214.429 92.6658V94.3098C214.429 94.5404 214.378 94.7688 214.279 94.9816C214.18 95.1944 214.035 95.3873 213.852 95.5493C213.67 95.7113 213.453 95.839 213.215 95.925C212.977 96.0111 212.723 96.0537 212.466 96.0505Z" fill="#263238"/>
<path d="M177.697 132.479H173.376V127.335H177.697C178.21 127.335 178.703 127.519 179.065 127.845C179.428 128.172 179.632 128.614 179.632 129.076V130.732C179.633 130.961 179.584 131.188 179.487 131.4C179.39 131.612 179.248 131.805 179.068 131.967C178.888 132.129 178.674 132.258 178.439 132.346C178.204 132.434 177.952 132.479 177.697 132.479Z" fill="#263238"/>
<path d="M157.342 127.335H161.663V132.479H157.342C156.829 132.479 156.337 132.295 155.974 131.969C155.611 131.643 155.407 131.2 155.407 130.738V129.082C155.406 128.853 155.455 128.626 155.552 128.414C155.649 128.202 155.791 128.01 155.971 127.847C156.151 127.685 156.365 127.556 156.6 127.468C156.835 127.38 157.087 127.335 157.342 127.335Z" fill="#263238"/>
<path d="M157.342 104.573H161.663V109.71H157.342C156.829 109.71 156.337 109.527 155.974 109.201C155.611 108.874 155.407 108.431 155.407 107.97V106.314C155.407 105.852 155.611 105.409 155.974 105.083C156.337 104.756 156.829 104.573 157.342 104.573Z" fill="#263238"/>
<path opacity="0.7" d="M151.355 74.3156C151.355 75.2567 151.148 76.1886 150.748 77.0579C150.347 77.9273 149.76 78.7171 149.02 79.3823C148.28 80.0475 147.401 80.5749 146.434 80.9345C145.467 81.2941 144.431 81.4788 143.385 81.478V74.3156H151.355Z" fill="white"/>
<path opacity="0.7" d="M151.354 74.3156C151.354 75.2567 151.561 76.1886 151.961 77.0579C152.362 77.9273 152.949 78.7171 153.689 79.3823C154.429 80.0475 155.308 80.5749 156.275 80.9345C157.242 81.2941 158.278 81.4788 159.324 81.478V74.3156H151.354Z" fill="white"/>
<path d="M195.794 75.2766H214.845V73.3606H195.794V75.2766Z" fill="#279EFF"/>
<path opacity="0.7" d="M187.192 87.3288C185.079 87.3288 183.051 86.5735 181.557 85.2292C180.062 83.8848 179.222 82.0615 179.222 80.1603H187.192V87.3288Z" fill="white"/>
<path opacity="0.7" d="M187.192 87.3287C185.08 87.3287 183.054 88.0832 181.559 89.4262C180.065 90.7692 179.224 92.591 179.222 94.4911H187.192V87.3287Z" fill="white"/>
<path d="M143.929 113.264V101.025H138.21V113.264H143.929Z" fill="#279EFF"/>
<path d="M143.936 136.033V123.793H138.217V136.033H143.936Z" fill="#279EFF"/>
<path d="M126.511 123.787V136.027H132.229V123.787H126.511Z" fill="#279EFF"/>
<path d="M126.511 101.025V113.264H132.229V101.025H126.511Z" fill="#279EFF"/>
<path d="M129.232 74.7085V84.7418H121.343V89.8855H134.951V74.7085H129.232Z" fill="#279EFF"/>
<path d="M176.225 113.264V101.025H170.507V113.264H176.225Z" fill="#279EFF"/>
<path d="M176.232 136.033V123.793H170.513V136.033H176.232Z" fill="#279EFF"/>
<path d="M158.807 123.787V136.027H164.519V123.787H158.807Z" fill="#279EFF"/>
<path d="M158.807 101.025V113.264H164.519V101.025H158.807Z" fill="#279EFF"/>
<path d="M195.216 130.521V142.76H200.935V135.658H211.956V142.76H217.674V130.521H195.216Z" fill="#279EFF"/>
<path d="M199.611 84.7902V113.264H211.277V84.7902H199.611Z" fill="#279EFF"/>
<g opacity="0.3">
<path d="M143.929 113.264V101.025H138.21V113.264H143.929Z" fill="white"/>
<path d="M143.936 136.033V123.793H138.217V136.033H143.936Z" fill="white"/>
<path d="M126.511 123.787V136.027H132.229V123.787H126.511Z" fill="white"/>
<path d="M126.511 101.025V113.264H132.229V101.025H126.511Z" fill="white"/>
<path d="M129.232 74.7085V84.7418H121.343V89.8855H134.951V74.7085H129.232Z" fill="white"/>
<path d="M176.225 113.264V101.025H170.507V113.264H176.225Z" fill="white"/>
<path d="M176.232 136.033V123.793H170.513V136.033H176.232Z" fill="white"/>
<path d="M158.807 123.787V136.027H164.519V123.787H158.807Z" fill="white"/>
<path d="M158.807 101.025V113.264H164.519V101.025H158.807Z" fill="white"/>
<path d="M195.216 130.521V142.76H200.935V135.658H211.955V142.76H217.674V130.521H195.216Z" fill="white"/>
<path d="M199.611 84.7902V113.264H211.277V84.7902H199.611Z" fill="white"/>
</g>
<path d="M159.627 72.1518H143.116V74.5574H159.627V72.1518Z" fill="#263238"/>
<path d="M189.592 79.9186H186.917V94.7692H189.592V79.9186Z" fill="#263238"/>
<path d="M196.493 122.585H187.965V124.99H196.493V122.585Z" fill="#263238"/>
<path d="M116.713 72.6232V149.33H222.311V72.6232H116.713ZM220.678 123.056H189.094V74.098H220.678V123.056ZM118.346 74.098H187.441V147.861H118.346V74.098ZM189.074 147.861V124.525H220.658V147.861H189.074Z" fill="#263238"/>
<path d="M213.306 82.9951L215.41 77.6762C214.477 76.0158 214.234 74.1106 214.723 72.3032C215.213 70.4957 216.403 68.9046 218.08 67.8158C219.757 66.727 221.81 66.2119 223.872 66.3631C225.933 66.5144 227.867 67.322 229.326 68.6409C230.784 69.9598 231.672 71.7034 231.829 73.5583C231.986 75.4131 231.403 77.2576 230.183 78.7601C228.964 80.2627 227.189 81.3247 225.177 81.7553C223.165 82.1859 221.048 81.9568 219.207 81.1093L213.306 82.9951Z" fill="#279EFF"/>
<path opacity="0.2" d="M213.306 82.9951L215.41 77.6762C214.477 76.0158 214.234 74.1106 214.723 72.3032C215.213 70.4957 216.403 68.9046 218.08 67.8158C219.757 66.727 221.81 66.2119 223.872 66.3631C225.933 66.5144 227.867 67.322 229.326 68.6409C230.784 69.9598 231.672 71.7034 231.829 73.5583C231.986 75.4131 231.403 77.2576 230.183 78.7601C228.964 80.2627 227.189 81.3247 225.177 81.7553C223.165 82.1859 221.048 81.9568 219.207 81.1093L213.306 82.9951Z" fill="black"/>
<path d="M222.217 73.6749C221.961 73.436 221.765 73.1506 221.642 72.8378C221.519 72.525 221.473 72.1922 221.505 71.8617C221.505 70.7072 221.995 69.7704 223.124 69.7704C224.253 69.7704 224.751 70.7072 224.751 71.8617C224.782 72.1926 224.734 72.5257 224.61 72.8385C224.486 73.1513 224.289 73.4366 224.032 73.6749C226.048 73.8684 227.607 74.7448 227.607 76.4915H218.642C218.642 74.7508 220.181 73.8744 222.217 73.6749Z" fill="white"/>
<path d="M146.066 97.888L148.169 92.5691C147.228 90.9001 146.98 88.9837 147.469 87.1647C147.959 85.3458 149.154 83.7438 150.84 82.647C152.527 81.5503 154.592 81.0309 156.666 81.1822C158.74 81.3336 160.686 82.1457 162.154 83.4726C163.621 84.7995 164.514 86.5538 164.671 88.42C164.828 90.2861 164.24 92.1415 163.011 93.6522C161.783 95.1628 159.996 96.2296 157.971 96.6604C155.946 97.0912 153.817 96.8578 151.966 96.0022L146.066 97.888Z" fill="#279EFF"/>
<path opacity="0.2" d="M146.066 97.888L148.169 92.5691C147.228 90.9001 146.98 88.9837 147.469 87.1647C147.959 85.3458 149.154 83.7438 150.84 82.647C152.527 81.5503 154.592 81.0309 156.666 81.1822C158.74 81.3336 160.686 82.1457 162.154 83.4726C163.621 84.7995 164.514 86.5538 164.671 88.42C164.828 90.2861 164.24 92.1415 163.011 93.6522C161.783 95.1628 159.996 96.2296 157.971 96.6604C155.946 97.0912 153.817 96.8578 151.966 96.0022L146.066 97.888Z" fill="black"/>
<path d="M154.977 88.5799C154.72 88.3415 154.522 88.0563 154.398 87.7435C154.274 87.4307 154.226 87.0976 154.258 86.7666C154.258 85.6062 154.755 84.6693 155.884 84.6693C157.013 84.6693 157.503 85.6062 157.503 86.7666C157.536 87.0971 157.489 87.43 157.366 87.7427C157.243 88.0555 157.047 88.341 156.791 88.5799C158.807 88.7673 160.366 89.6437 160.366 91.3904H151.402C151.402 89.6437 152.934 88.7854 154.977 88.5799Z" fill="white"/>
<path d="M192.562 133.325L190.465 128.006C191.318 126.487 191.597 124.759 191.258 123.085C190.92 121.411 189.983 119.881 188.591 118.73C187.198 117.578 185.425 116.866 183.542 116.703C181.659 116.54 179.768 116.934 178.156 117.826C176.545 118.718 175.301 120.058 174.614 121.644C173.927 123.229 173.834 124.973 174.349 126.611C174.864 128.248 175.96 129.69 177.469 130.716C178.978 131.742 180.818 132.298 182.71 132.298C184.084 132.297 185.439 132.003 186.662 131.439L192.562 133.325Z" fill="#263238"/>
<path opacity="0.5" d="M192.562 133.325L190.465 128.006C191.318 126.487 191.597 124.759 191.258 123.085C190.92 121.411 189.983 119.881 188.591 118.73C187.198 117.578 185.425 116.866 183.542 116.703C181.659 116.54 179.768 116.934 178.156 117.826C176.545 118.718 175.301 120.058 174.614 121.644C173.927 123.229 173.834 124.973 174.349 126.611C174.864 128.248 175.96 129.69 177.469 130.716C178.978 131.742 180.818 132.298 182.71 132.298C184.084 132.297 185.439 132.003 186.662 131.439L192.562 133.325Z" fill="white"/>
<path d="M183.651 124.011C183.908 123.773 184.105 123.487 184.229 123.175C184.353 122.862 184.401 122.529 184.37 122.198C184.37 121.043 183.879 120.1 182.744 120.1C181.608 120.1 181.124 121.043 181.124 122.198C181.092 122.528 181.139 122.861 181.262 123.174C181.384 123.487 181.58 123.772 181.836 124.011C179.82 124.204 178.268 125.075 178.268 126.821H187.226C187.226 125.051 185.694 124.204 183.651 124.011Z" fill="white"/>
<path d="M262.799 88.32H242.76C241.748 88.32 240.777 88.6817 240.061 89.3255C239.345 89.9694 238.943 90.8426 238.943 91.7531V92.0009L235.697 93.9895L238.943 95.978V96.2319C238.943 97.1424 239.345 98.0156 240.061 98.6594C240.777 99.3033 241.748 99.665 242.76 99.665H262.799C263.811 99.665 264.782 99.3033 265.498 98.6594C266.214 98.0156 266.616 97.1424 266.616 96.2319V91.7531C266.616 90.8426 266.214 89.9694 265.498 89.3255C264.782 88.6817 263.811 88.32 262.799 88.32Z" fill="#279EFF"/>
<path d="M258.176 91.9586H252.968C252.737 91.9586 252.516 91.8767 252.352 91.7306C252.189 91.5846 252.096 91.3863 252.094 91.1789C252.094 91.0757 252.117 90.9736 252.16 90.8782C252.204 90.7829 252.269 90.6963 252.35 90.6233C252.431 90.5504 252.527 90.4925 252.633 90.453C252.739 90.4135 252.853 90.3932 252.968 90.3932H258.176C258.406 90.3948 258.627 90.4783 258.789 90.6255C258.951 90.7726 259.042 90.9716 259.042 91.1789C259.042 91.3857 258.951 91.584 258.789 91.7303C258.626 91.8765 258.405 91.9586 258.176 91.9586Z" fill="#263238"/>
<path d="M261.522 94.6181H252.968C252.736 94.6181 252.514 94.5353 252.35 94.388C252.186 94.2406 252.094 94.0407 252.094 93.8323C252.094 93.624 252.186 93.4241 252.35 93.2767C252.514 93.1294 252.736 93.0466 252.968 93.0466H261.522C261.754 93.0466 261.976 93.1294 262.14 93.2767C262.304 93.4241 262.396 93.624 262.396 93.8323C262.396 94.0407 262.304 94.2406 262.14 94.388C261.976 94.5353 261.754 94.6181 261.522 94.6181Z" fill="#263238"/>
<path d="M259.479 97.2473H252.968C252.736 97.2473 252.514 97.1645 252.35 97.0172C252.186 96.8698 252.094 96.6699 252.094 96.4616C252.096 96.2542 252.189 96.0559 252.352 95.9098C252.516 95.7638 252.737 95.6818 252.968 95.6819H259.479C259.71 95.6818 259.931 95.7638 260.095 95.9098C260.258 96.0559 260.351 96.2542 260.353 96.4616C260.353 96.5647 260.33 96.6669 260.286 96.7622C260.242 96.8576 260.178 96.9442 260.097 97.0172C260.016 97.0901 259.92 97.148 259.814 97.1875C259.708 97.227 259.594 97.2473 259.479 97.2473Z" fill="#263238"/>
<g opacity="0.8">
<path d="M244.117 96.6429C244.18 96.857 244.32 97.0465 244.515 97.1816C244.71 97.3168 244.95 97.3901 245.196 97.3901C245.442 97.3901 245.682 97.3168 245.877 97.1816C246.072 97.0465 246.212 96.857 246.275 96.6429C245.556 96.6066 244.836 96.6066 244.117 96.6429Z" fill="white"/>
<path d="M248.472 95.9961C248.203 95.0714 247.8 93.7115 247.739 93.0949C247.706 92.567 247.484 92.0629 247.106 91.6578C246.728 91.2526 246.215 90.9681 245.643 90.8465C245.643 90.8465 245.643 90.8465 245.643 90.8042C245.643 90.6952 245.595 90.5906 245.509 90.5136C245.423 90.4365 245.307 90.3932 245.186 90.3932C245.065 90.3932 244.948 90.4365 244.863 90.5136C244.777 90.5906 244.729 90.6952 244.729 90.8042C244.727 90.8182 244.727 90.8325 244.729 90.8465C244.156 90.9678 243.642 91.2521 243.263 91.6572C242.884 92.0623 242.66 92.5665 242.626 93.0949C242.438 94.0728 242.193 95.0412 241.893 95.9961C241.871 96.0678 241.87 96.1432 241.89 96.2153C241.909 96.2874 241.948 96.354 242.004 96.4088C242.06 96.4637 242.13 96.505 242.208 96.529C242.286 96.553 242.37 96.5589 242.451 96.5462C244.257 96.3205 246.088 96.3205 247.894 96.5462C247.977 96.5626 248.063 96.5594 248.144 96.537C248.225 96.5146 248.298 96.4737 248.356 96.4183C248.414 96.363 248.456 96.295 248.476 96.221C248.496 96.147 248.495 96.0695 248.472 95.9961Z" fill="white"/>
</g>
<path d="M87.7026 29.3045H58.1346C57.3922 29.3029 56.6569 29.4334 55.9708 29.6883C55.2847 29.9433 54.6614 30.3177 54.1368 30.7902C53.6122 31.2626 53.1966 31.8236 52.9139 32.441C52.6313 33.0584 52.4871 33.72 52.4898 34.3877V41C52.4898 42.3434 53.0831 43.6317 54.1392 44.5815C55.1953 45.5314 56.6276 46.0651 58.1211 46.0651H72.3541L75.7141 50.5378L79.1077 46.0651H87.6757C89.1692 46.0651 90.6016 45.5314 91.6577 44.5815C92.7138 43.6317 93.3071 42.3434 93.3071 41V34.3877C93.3124 33.0454 92.7252 31.7561 91.6743 30.803C90.6235 29.8499 89.1949 29.3109 87.7026 29.3045Z" fill="#279EFF"/>
<path d="M68.8464 37.44C68.8464 38.7 68.431 39.9317 67.6527 40.9793C66.8745 42.0269 65.7683 42.8435 64.474 43.3257C63.1798 43.8078 61.7557 43.934 60.3817 43.6882C59.0078 43.4424 57.7458 42.8356 56.7552 41.9447C55.7646 41.0537 55.0901 39.9186 54.8168 38.6828C54.5435 37.4471 54.6837 36.1662 55.2198 35.0021C55.7559 33.838 56.6637 32.8431 57.8285 32.1431C58.9933 31.4431 60.3627 31.0694 61.7635 31.0694C62.6937 31.0694 63.6147 31.2342 64.474 31.5544C65.3334 31.8745 66.1142 32.3438 66.7719 32.9353C67.4296 33.5269 67.9513 34.2292 68.3073 35.0021C68.6632 35.775 68.8464 36.6034 68.8464 37.44Z" fill="#279EFF"/>
<path opacity="0.9" d="M68.8464 37.44C68.8464 38.7 68.431 39.9317 67.6527 40.9793C66.8745 42.0269 65.7683 42.8435 64.474 43.3257C63.1798 43.8078 61.7557 43.934 60.3817 43.6882C59.0078 43.4424 57.7458 42.8356 56.7552 41.9447C55.7646 41.0537 55.0901 39.9186 54.8168 38.6828C54.5435 37.4471 54.6837 36.1662 55.2198 35.0021C55.7559 33.838 56.6637 32.8431 57.8285 32.1431C58.9933 31.4431 60.3627 31.0694 61.7635 31.0694C62.6937 31.0694 63.6147 31.2342 64.474 31.5544C65.3334 31.8745 66.1142 32.3438 66.7719 32.9353C67.4296 33.5269 67.9513 34.2292 68.3073 35.0021C68.6632 35.775 68.8464 36.6034 68.8464 37.44Z" fill="white"/>
<path d="M67.4014 37.44C67.4014 38.4444 67.0702 39.4263 66.4496 40.2613C65.8291 41.0964 64.9471 41.7471 63.9152 42.1312C62.8834 42.5153 61.7481 42.6155 60.6529 42.4191C59.5577 42.2227 58.5519 41.7386 57.7628 41.0279C56.9736 40.3173 56.4365 39.4121 56.2195 38.4268C56.0024 37.4415 56.1152 36.4205 56.5434 35.4929C56.9717 34.5653 57.6963 33.7728 58.6254 33.2156C59.5546 32.6584 60.6466 32.3617 61.7633 32.3629C62.5043 32.3629 63.238 32.4943 63.9225 32.7495C64.607 33.0047 65.2288 33.3788 65.7524 33.8503C66.2761 34.3218 66.6912 34.8816 66.9742 35.4975C67.2571 36.1135 67.4023 36.7736 67.4014 37.44Z" fill="#279EFF"/>
<path opacity="0.5" d="M67.4014 37.44C67.4014 38.4444 67.0702 39.4263 66.4496 40.2613C65.8291 41.0964 64.9471 41.7471 63.9152 42.1312C62.8834 42.5153 61.7481 42.6155 60.6529 42.4191C59.5577 42.2227 58.5519 41.7386 57.7628 41.0279C56.9736 40.3173 56.4365 39.4121 56.2195 38.4268C56.0024 37.4415 56.1152 36.4205 56.5434 35.4929C56.9717 34.5653 57.6963 33.7728 58.6254 33.2156C59.5546 32.6584 60.6466 32.3617 61.7633 32.3629C62.5043 32.3629 63.238 32.4943 63.9225 32.7495C64.607 33.0047 65.2288 33.3788 65.7524 33.8503C66.2761 34.3218 66.6912 34.8816 66.9742 35.4975C67.2571 36.1135 67.4023 36.7736 67.4014 37.44Z" fill="white"/>
<path d="M65.3921 37.718H61.4475V33.4146H62.0725V37.1559H65.3921V37.718Z" fill="#263238"/>
<path d="M80.8749 34.6778H73.1805C72.8406 34.6762 72.5152 34.5541 72.2749 34.3379C72.0345 34.1218 71.8987 33.8291 71.897 33.5234C71.897 33.2166 72.032 32.9224 72.2725 32.7049C72.513 32.4875 72.8395 32.3645 73.1805 32.3629H80.8749C81.2159 32.3645 81.5424 32.4875 81.7829 32.7049C82.0234 32.9224 82.1584 33.2166 82.1584 33.5234C82.1566 33.8291 82.0209 34.1218 81.7805 34.3379C81.5402 34.5541 81.2148 34.6762 80.8749 34.6778Z" fill="#263238"/>
<path d="M85.8141 38.6186H73.1805C72.8401 38.6186 72.5136 38.497 72.2729 38.2805C72.0322 38.064 71.897 37.7704 71.897 37.4642C71.897 37.158 72.0322 36.8644 72.2729 36.6479C72.5136 36.4314 72.8401 36.3097 73.1805 36.3097H85.8141C85.9832 36.3089 86.1508 36.3382 86.3073 36.3959C86.4638 36.4535 86.6061 36.5384 86.726 36.6457C86.8459 36.753 86.9411 36.8805 87.006 37.021C87.0709 37.1615 87.1043 37.3121 87.1043 37.4642C87.1043 37.6163 87.0709 37.7669 87.006 37.9074C86.9411 38.0478 86.8459 38.1754 86.726 38.2826C86.6061 38.3899 86.4638 38.4748 86.3073 38.5325C86.1508 38.5901 85.9832 38.6194 85.8141 38.6186Z" fill="#263238"/>
<path d="M82.7968 42.5171H73.1805C72.8395 42.5155 72.513 42.3926 72.2725 42.1751C72.032 41.9576 71.897 41.6634 71.897 41.3566C71.8987 41.051 72.0345 40.7582 72.2749 40.5421C72.5152 40.3259 72.8406 40.2038 73.1805 40.2022H82.7968C83.1372 40.2022 83.4637 40.3238 83.7044 40.5403C83.9451 40.7568 84.0803 41.0505 84.0803 41.3566C84.0812 41.5088 84.0487 41.6595 83.9846 41.8003C83.9205 41.9411 83.8261 42.069 83.7068 42.1769C83.5875 42.2847 83.4457 42.3703 83.2896 42.4287C83.1334 42.4871 82.9659 42.5171 82.7968 42.5171Z" fill="#263238"/>
<path d="M66.9984 74.8838C66.9984 74.8838 62.2004 74.2068 62.9127 69.444C62.9127 69.444 61.4141 69.9275 61.1184 67.9813C60.8228 66.0351 62.4624 63.9801 62.4624 63.9801C62.4624 63.9801 61.8442 59.7491 65.8695 58.9332C68.4768 58.4073 68.3626 59.4409 68.3626 59.4409C68.3626 59.4409 69.4378 55.2462 74.881 56.2072C77.569 56.6726 77.0448 58.0809 77.0448 58.0809C77.0448 58.0809 79.3632 57.2287 81.3524 59.5557C82.8644 61.3327 80.472 61.369 80.472 61.369C80.472 61.369 84.84 66.3977 81.1911 67.2016C77.5421 68.0055 74.0544 61.5201 74.0544 61.5201L69.0816 65.346C69.0816 65.346 66.9984 69.2748 67.0656 69.444C67.1328 69.6132 66.9984 74.8838 66.9984 74.8838Z" fill="#263238"/>
<path d="M95.8744 204.405L86.9502 203.776L86.6814 213.296L94.1406 213.834L95.8744 204.405Z" fill="#B55B52"/>
<path opacity="0.2" d="M95.8677 204.411L86.9435 203.776L86.7957 209.107L94.9 209.687L95.8677 204.411Z" fill="black"/>
<path d="M85.4852 169.487C80.8282 157.738 73.0061 145.824 76.9642 133.633L101.721 130.611C101.721 130.611 103.737 157.314 104.476 168.575C105.276 180.282 96.0557 208.116 96.0557 208.116L85.848 207.336C85.848 207.336 85.0887 182.706 85.4852 169.487Z" fill="#263238"/>
<path opacity="0.4" d="M85.035 168.369C82.2327 161.582 78.5502 154.734 76.8298 147.819C84.867 137.496 86.4327 156.426 85.035 168.369Z" fill="black"/>
<path d="M65.3186 205.698L56.3608 205.777L55.9644 215.278L63.4504 215.224L65.3186 205.698Z" fill="#B55B52"/>
<path opacity="0.2" d="M65.3186 205.698L56.3541 205.777L56.1323 211.102L64.2702 211.035L65.3186 205.698Z" fill="black"/>
<path d="M55.5746 168.69C54.8488 156.492 53.8677 138.245 58.4104 132.636L86.3118 132.074C86.3118 132.074 78.557 158.783 75.6606 170.037C72.6501 181.739 65.2715 209.397 65.2715 209.397H55.5813C55.5813 209.397 51.9323 182.615 55.5746 168.69Z" fill="#263238"/>
<path d="M124.32 83.7264C123.711 83.1897 122.891 82.8916 122.039 82.8973C121.186 82.9029 120.371 83.2119 119.771 83.7567L119.468 84.0347C119.065 84.3973 118.608 84.8688 118.178 85.2858C117.748 85.7029 117.305 86.1441 116.874 86.5612C116.001 87.3953 115.134 88.2052 114.26 88.9365C113.446 89.6409 112.582 90.2971 111.673 90.9009C111.438 91.052 111.21 91.191 111.001 91.324C110.186 91.242 109.377 91.1229 108.575 90.9674C107.463 90.7307 106.372 90.4216 105.309 90.0426C104.236 89.656 103.192 89.2058 102.185 88.6948C101.674 88.4409 101.183 88.1629 100.706 87.8909C100.471 87.7579 100.242 87.6129 100.034 87.4799L99.725 87.2925L99.5974 87.2079H99.5436C99.5436 87.2079 99.5436 87.2079 99.5436 87.2442C98.9184 86.7417 98.1892 86.355 97.3978 86.106C96.6064 85.857 95.7682 85.7507 94.9311 85.793C94.094 85.8354 93.2743 86.0257 92.519 86.353C91.7636 86.6802 91.0873 87.1381 90.5287 87.7005C89.9701 88.2629 89.5401 88.9187 89.2633 89.6305C88.9865 90.3423 88.8682 91.0962 88.9154 91.8491C88.9625 92.6021 89.174 93.3393 89.5379 94.0187C89.9018 94.6981 90.4108 95.3063 91.0361 95.8088L91.4527 96.1412L91.7686 96.3769L92.3666 96.8061C92.7631 97.0781 93.1596 97.3319 93.5561 97.5737C94.3434 98.0523 95.1576 98.4941 95.9954 98.8974C97.6608 99.7001 99.4096 100.354 101.217 100.85C102.124 101.097 103.051 101.303 103.986 101.454C104.92 101.605 105.867 101.732 106.821 101.817C108.731 101.981 110.655 101.961 112.56 101.756L113.273 101.684C113.922 101.612 114.543 101.405 115.087 101.079C116.648 100.151 118.043 99.0163 119.226 97.7127C120.258 96.5806 121.173 95.3668 121.962 94.0862C122.7 92.8827 123.344 91.6346 123.89 90.3509C124.159 89.7465 124.394 89.0816 124.623 88.4349C124.851 87.7881 125.012 87.1656 125.201 86.4161C125.318 85.9374 125.299 85.4398 125.145 84.9695C124.991 84.4993 124.707 84.0717 124.32 83.7264Z" fill="#B65B52"/>
<path d="M123.48 87.7035L120.873 85.2496C119.334 81.9615 124.367 80.9099 124.367 80.9099L127.512 78.8548C127.918 78.6349 128.397 78.5507 128.866 78.617C129.334 78.6834 129.761 78.896 130.072 79.2175L131.907 80.922C132.306 81.2524 132.547 81.7096 132.579 82.1969C132.61 82.6842 132.429 83.1634 132.075 83.533L129.454 85.6787C128.97 86.108 128.374 86.4217 127.72 86.5914L123.48 87.7035Z" fill="#B55B52"/>
<path d="M88.0321 82.439C94.0801 82.1187 102.951 88.3805 102.951 88.3805C103.791 90.4657 101.728 98.2144 98.0248 101.599C98.0248 101.599 93.771 102.512 90.0481 98.4743C86.0161 94.0802 81.6078 82.7715 88.0321 82.439Z" fill="#279EFF"/>
<path d="M86.8157 82.2638C78.5385 81.5555 70.1995 81.6751 61.9517 82.6204C60.822 82.771 59.7384 83.1275 58.7672 83.6679C57.7959 84.2083 56.9576 84.9213 56.3033 85.7632C55.6491 86.6051 55.1927 87.5583 54.9623 88.5643C54.7318 89.5704 54.732 90.6081 54.9629 91.6141C58.8336 109.142 55.9373 128.719 58.4438 132.636C58.4438 132.636 86.0563 133.071 102.124 132.074C106.532 113.047 97.8633 101.394 93.5088 86.531C92.736 83.9924 89.7187 82.5358 86.8157 82.2638Z" fill="#279EFF"/>
<path d="M82.8978 83.5512C82.3494 82.6069 81.4643 81.8556 80.3846 81.4176C79.9783 80.4728 79.9475 79.4309 80.2972 78.468L68.0332 74.9563C69.021 78.5828 69.8006 81.4841 68.2953 83.255C70.701 84.5787 75.1228 86.9601 79.941 86.8332C84.7593 86.7062 83.6841 85.0803 82.8978 83.5512Z" fill="#B55B52"/>
<path opacity="0.2" d="M80.2035 78.8125L70.9971 78.3229C73.8732 81.0912 78.2345 82.1308 80.2303 81.0066C80.0153 80.289 80.006 79.5341 80.2035 78.8125Z" fill="black"/>
<path d="M80.2304 86.8211L78.2144 85.3342L75.5264 86.543C75.5264 86.543 77.2803 87.9816 80.2304 86.8211Z" fill="#279EFF"/>
<path opacity="0.3" d="M80.2304 86.8211L78.2144 85.3342L75.5264 86.543C75.5264 86.543 77.2803 87.9816 80.2304 86.8211Z" fill="black"/>
<path d="M65.641 69.3715C67.106 74.1222 68.2215 77.3196 72.0317 78.8488C79.6052 81.8709 82.992 78.6614 83.2608 73.6508C83.496 69.1418 81.0634 62.1306 74.9818 61.1151C68.9002 60.0997 64.176 64.6087 65.641 69.3715Z" fill="#B55B52"/>
<path d="M83.8388 66.5851C83.3416 66.1741 82.2529 66.156 81.3995 66.2829C80.6322 66.3491 79.9066 66.6279 79.323 67.0807L77.6363 67.3225C76.9232 67.0598 76.1387 66.9966 75.3851 67.1412C74.5316 67.2621 73.5035 67.5824 73.1675 68.1143C72.9963 68.5649 73.0203 69.057 73.2347 69.4924C73.4375 70.1464 73.8925 70.7142 74.5182 71.0941C75.0304 71.2343 75.5738 71.2551 76.0974 71.1545C76.6285 71.1029 77.1367 70.9326 77.5758 70.6589C78.0446 70.1234 78.2831 69.4539 78.2478 68.7731C78.2635 68.4355 78.2041 68.0985 78.0731 67.7819L79.0744 67.6368C79.0621 67.9767 79.1237 68.3155 79.2558 68.6341C79.4581 69.2884 79.9132 69.8563 80.5393 70.2358C80.9521 70.4362 81.4185 70.5298 81.8869 70.5063C82.3552 70.4829 82.8071 70.3432 83.1926 70.1029C83.5781 69.8626 83.8821 69.5309 84.0709 69.1447C84.2597 68.7585 84.3259 68.3328 84.2622 67.9149C84.3107 67.4396 84.1597 66.9652 83.8388 66.5851ZM77.8648 68.7671C77.8975 69.3503 77.7078 69.926 77.3272 70.399C76.5181 70.83 75.5564 70.9662 74.6392 70.7798C74.1155 70.4372 73.7365 69.945 73.564 69.3836C73.3868 69.0387 73.3558 68.6476 73.4766 68.2835C73.9894 67.8066 74.6824 67.5198 75.4187 67.4797C76.1325 67.3098 76.8914 67.3897 77.5422 67.7033C77.5864 67.7416 77.6228 67.7866 77.6497 67.8363C77.803 68.1266 77.8768 68.4458 77.8648 68.7671ZM83.8724 67.9088C83.905 68.4892 83.7179 69.0623 83.3416 69.5347C82.5342 69.9698 81.5706 70.1063 80.6536 69.9155C80.1305 69.5736 79.7534 69.0808 79.5851 68.5193C79.4514 68.2226 79.4006 67.9009 79.4372 67.5824C79.443 67.53 79.459 67.4788 79.4843 67.4313C79.9953 66.9512 80.6888 66.662 81.4264 66.6214C82.1427 66.4553 82.9021 66.535 83.5566 66.845C83.8039 67.1525 83.9164 67.5313 83.8724 67.9088Z" fill="#279EFF"/>
<path d="M75.936 68.7429C76.0234 69.166 76.3459 69.4682 76.6551 69.4138C76.9642 69.3594 77.1389 68.9726 77.0515 68.5495C76.9642 68.1264 76.6416 67.8302 76.3325 67.8846C76.0234 67.939 75.8419 68.3198 75.936 68.7429Z" fill="#263238"/>
<path d="M80.815 68.0418C80.9023 68.4649 81.2249 68.761 81.5273 68.7066C81.8297 68.6522 82.0178 68.2654 81.9238 67.8423C81.8297 67.4192 81.5205 67.1231 81.2114 67.1775C80.9023 67.2319 80.7276 67.6308 80.815 68.0418Z" fill="#263238"/>
<path d="M79.2961 68.6462L80.0017 72.2062C80.4751 72.216 80.9471 72.1568 81.3995 72.0309C81.4893 72.0013 81.5683 71.9501 81.6281 71.8829C81.6878 71.8157 81.726 71.7351 81.7385 71.6498C81.7509 71.5645 81.7372 71.4778 81.6988 71.399C81.6603 71.3202 81.5987 71.2524 81.5205 71.2029C80.6013 70.4888 79.8457 69.6204 79.2961 68.6462Z" fill="#A02724"/>
<path d="M73.1809 67.9571C73.1348 67.9687 73.086 67.9687 73.0398 67.9571C72.9732 67.9273 72.9224 67.8749 72.8985 67.8115C72.8746 67.7481 72.8795 67.6788 72.9121 67.6187C73.1003 67.256 73.3809 66.9384 73.7312 66.6916C74.0815 66.4448 74.4916 66.2758 74.9281 66.1983C74.9643 66.1941 75.0011 66.1964 75.0364 66.205C75.0716 66.2137 75.1045 66.2286 75.1333 66.2489C75.1621 66.2691 75.1861 66.2943 75.2039 66.323C75.2218 66.3517 75.2331 66.3832 75.2372 66.4159C75.2468 66.4824 75.2267 66.5495 75.1814 66.6028C75.1361 66.656 75.0692 66.6909 74.9953 66.6999C74.6475 66.7635 74.3213 66.9001 74.0433 67.0986C73.7654 67.2971 73.5436 67.552 73.396 67.8423C73.3723 67.875 73.3406 67.9024 73.3034 67.9223C73.2661 67.9422 73.2242 67.9541 73.1809 67.9571Z" fill="#263238"/>
<path d="M82.4478 66.573C82.4024 66.5796 82.3558 66.5759 82.3124 66.5622C82.2689 66.5485 82.23 66.5252 82.1992 66.4944C81.9656 66.2572 81.6723 66.0737 81.3438 65.9591C81.0154 65.8445 80.6612 65.8022 80.3109 65.8356C80.2379 65.8462 80.1632 65.8306 80.1029 65.7921C80.0426 65.7537 80.0014 65.6955 79.9883 65.6301C79.9783 65.5647 79.9963 65.4983 80.0388 65.4444C80.0812 65.3905 80.1448 65.3532 80.2168 65.34C80.6585 65.2927 81.1064 65.3415 81.5228 65.4825C81.9391 65.6235 82.3117 65.8524 82.6091 66.1499C82.6357 66.173 82.6569 66.2007 82.6714 66.2314C82.6858 66.262 82.6933 66.2949 82.6933 66.3282C82.6933 66.3615 82.6858 66.3945 82.6714 66.4251C82.6569 66.4557 82.6357 66.4834 82.6091 66.5065C82.5656 66.5449 82.5085 66.5684 82.4478 66.573Z" fill="#263238"/>
<path d="M80.2302 86.8211L82.4814 85.0078L85.3441 85.7633C85.3441 85.7633 83.187 87.9816 80.2302 86.8211Z" fill="#279EFF"/>
<path opacity="0.3" d="M80.2302 86.8211L82.4814 85.0078L85.3441 85.7633C85.3441 85.7633 83.187 87.9816 80.2302 86.8211Z" fill="black"/>
<path d="M119.905 84.4941C119.045 81.6835 121.249 79.9428 122.432 78.1235C122.64 77.8152 123.688 77.9845 123.742 78.6312C123.813 79.0287 123.793 79.435 123.684 79.8256C123.576 80.2161 123.381 80.5829 123.11 80.9038C123.742 81.617 124.683 84.1133 122.438 85.7392C121.454 85.6147 120.553 85.1721 119.905 84.4941Z" fill="#B55B52"/>
<path d="M82.2528 73.5178C82.2528 73.5178 80.2368 73.3727 74.6592 74.1222C75.5597 75.5366 76.9709 76.6003 79.8067 76.1954C80.1685 76.1777 80.5222 76.0925 80.8454 75.9453C81.1686 75.7981 81.4543 75.5921 81.6843 75.3403C81.9143 75.0885 82.0836 74.7965 82.1815 74.4828C82.2793 74.169 82.3036 73.8404 82.2528 73.5178Z" fill="#263238"/>
<path d="M78.2948 75.186C79.3772 74.9836 80.5029 75.0914 81.5136 75.4942C81.0428 75.8807 80.4472 76.1221 79.8135 76.1833C78.7336 76.3915 77.608 76.2835 76.6013 75.875C77.0711 75.4908 77.6637 75.2497 78.2948 75.186Z" fill="#A02724"/>
<path d="M81.9841 73.5117C81.9602 73.7029 81.8778 73.8843 81.7461 74.0358C81.6145 74.1873 81.4386 74.303 81.2382 74.37C79.5925 74.5911 77.9289 74.6862 76.2654 74.6541C76.0065 74.6674 75.748 74.6224 75.5133 74.5232C75.2787 74.424 75.0752 74.2737 74.9214 74.0859C77.2557 73.7314 79.6169 73.5394 81.9841 73.5117Z" fill="white"/>
<path d="M69.1019 73.5118C69.457 73.4407 69.7915 73.3033 70.0837 73.1084C70.3759 72.9135 70.6193 72.6655 70.798 72.3805C70.9767 72.0955 71.0868 71.7798 71.1211 71.4541C71.1553 71.1283 71.113 70.7998 70.9969 70.4897C70.3249 67.9753 70.0897 67.1654 70.0897 67.1654L75.2641 62.7954C75.2641 62.7954 74.6459 64.9411 75.8084 64.8021C76.971 64.6631 77.2331 62.7954 77.2331 62.7954C77.2331 62.7954 79.1819 64.8807 80.3847 64.3729C81.5876 63.8652 79.2692 62.058 79.2692 62.058C79.2692 62.058 78.7921 58.9755 73.4497 60.0453C68.1073 61.1151 59.7678 67.0445 67.3143 74.0618L69.1019 73.5118Z" fill="#263238"/>
<path d="M64.5523 74.9322C65.0503 75.4138 65.6492 75.8022 66.3147 76.075C66.9801 76.3478 67.6989 76.4996 68.4297 76.5218C70.392 76.5701 70.9094 74.8838 69.9753 73.4392C69.142 72.1458 67.1126 70.5562 65.3318 71.2029C63.551 71.8496 63.336 73.7354 64.5523 74.9322Z" fill="#B55B52"/>
<path d="M85.8615 105.6C84.9345 100.176 83.498 94.8318 81.5675 89.6256C81.6224 89.5681 81.6615 89.4997 81.6817 89.4261L81.7355 89.1904L85.3844 86.8392V85.7754L83.4625 84.7963L82.2731 86.537C82.2277 86.452 82.1494 86.3849 82.0529 86.3481C81.9564 86.3114 81.8483 86.3076 81.7489 86.3375C80.7341 86.6181 79.657 86.6638 78.6174 86.4705C78.5394 86.4567 78.4587 86.4644 78.3856 86.4924C78.3125 86.5204 78.2504 86.5675 78.2075 86.6277L76.6081 85.6848L74.9214 87.498L78.8795 89.2206L78.9467 89.4442C78.973 89.5182 79.0175 89.586 79.0768 89.6424C79.1361 89.6989 79.2088 89.7427 79.2894 89.7706V89.9701C79.276 90.0846 79.276 90.2001 79.2894 90.3146C79.5515 92.2246 81.8699 110.067 80.4251 128.296L84.2622 129.898L87.6692 128.296C87.6692 128.296 87.6491 115.555 85.8615 105.6Z" fill="#279EFF"/>
<path opacity="0.5" d="M85.8615 105.6C84.9345 100.176 83.498 94.8318 81.5675 89.6256C81.6224 89.5681 81.6615 89.4997 81.6817 89.4261L81.7355 89.1904L85.3844 86.8392V85.7754L83.4625 84.7963L82.2731 86.537C82.2277 86.452 82.1494 86.3849 82.0529 86.3481C81.9564 86.3114 81.8483 86.3076 81.7489 86.3375C80.7341 86.6181 79.657 86.6638 78.6174 86.4705C78.5394 86.4567 78.4587 86.4644 78.3856 86.4924C78.3125 86.5204 78.2504 86.5675 78.2075 86.6277L76.6081 85.6848L74.9214 87.498L78.8795 89.2206L78.9467 89.4442C78.973 89.5182 79.0175 89.586 79.0768 89.6424C79.1361 89.6989 79.2088 89.7427 79.2894 89.7706V89.9701C79.276 90.0846 79.276 90.2001 79.2894 90.3146C79.5515 92.2246 81.8699 110.067 80.4251 128.296L84.2622 129.898L87.6692 128.296C87.6692 128.296 87.6491 115.555 85.8615 105.6Z" fill="black"/>
<path d="M94.7319 106.64H79.6791L72.0183 123.219L72.4887 123.588H87.5482L95.209 107.009L94.7319 106.64Z" fill="#263238"/>
<path opacity="0.4" d="M94.7319 106.64H79.6791L72.0183 123.219L72.4887 123.588H87.5482L95.209 107.009L94.7319 106.64Z" fill="white"/>
<path d="M87.5483 123.588H72.4888L80.1496 107.009H95.2091L87.5483 123.588Z" fill="#263238"/>
<path d="M90.8342 106.398H85.102L84.2217 108.302L84.4166 108.453H90.1554L91.0358 106.549L90.8342 106.398Z" fill="#279EFF"/>
<path opacity="0.5" d="M90.8342 106.398H85.102L84.2217 108.302L84.4166 108.453H90.1554L91.0358 106.549L90.8342 106.398Z" fill="black"/>
<path d="M90.1556 108.453L91.0359 106.549H85.2971L84.4167 108.453H90.1556Z" fill="#279EFF"/>
<path opacity="0.2" d="M90.1556 108.453L91.0359 106.549H85.2971L84.4167 108.453H90.1556Z" fill="white"/>
<path d="M68.047 117.042L67.6841 120.421C68.719 123.86 73.4095 121.896 73.4095 121.896L76.0975 121.769C76.5679 121.717 77.0028 121.517 77.326 121.206C77.6492 120.894 77.84 120.49 77.8649 120.064L78.1404 117.707C78.2292 117.225 78.1056 116.73 77.7957 116.328C77.4858 115.927 77.014 115.649 76.4806 115.555L74.1554 115.319C73.471 115.25 72.7781 115.335 72.1394 115.567L68.047 117.042Z" fill="#B55B52"/>
<path d="M69.2161 116.843L68.954 116.794L66.4474 116.299C65.594 116.129 64.754 115.942 63.9207 115.749C62.3262 115.388 60.7556 114.946 59.2167 114.425C57.884 114 56.6154 113.427 55.4401 112.72C55.2032 112.563 54.9787 112.392 54.7681 112.207C54.8831 111.222 55.1082 110.25 55.4401 109.305C55.6766 108.599 55.9571 107.905 56.2801 107.226C56.5959 106.519 56.9521 105.806 57.3553 105.093C58.1549 103.666 59.0554 102.222 60.0433 100.807C60.5271 100.094 61.0513 99.393 61.562 98.6979L62.3482 97.6704L63.0673 96.7456L63.3092 96.4374C64.3224 95.2183 64.7557 93.6871 64.5137 92.1807C64.2717 90.6742 63.3743 89.316 62.0189 88.4047C60.6635 87.4933 58.9612 87.1036 57.2863 87.3213C55.6114 87.5389 54.1013 88.346 53.0881 89.5651L52.4161 90.2542L51.8717 90.8586C51.5223 91.2817 51.1997 91.7048 50.857 92.1279C50.185 92.9741 49.5802 93.8505 48.9821 94.739C47.7653 96.5401 46.6919 98.4164 45.77 100.354C44.781 102.399 44.0289 104.529 43.5255 106.713C42.9358 109.164 42.8424 111.69 43.25 114.171L43.3105 114.534C43.3871 114.979 43.5437 115.409 43.7741 115.809C44.543 117.129 45.6014 118.295 46.8855 119.236C47.9577 120.026 49.1391 120.689 50.4001 121.206C51.4821 121.65 52.6067 122.004 53.7601 122.264C54.8225 122.51 55.8994 122.701 56.9857 122.838C59.0265 123.073 61.0853 123.155 63.1412 123.086C64.1492 123.056 65.1572 122.983 66.1316 122.893C67.106 122.802 68.0669 122.663 69.1421 122.476C69.8641 122.35 70.516 122.005 70.988 121.498C71.46 120.99 71.7233 120.352 71.7335 119.691C71.7438 119.03 71.5004 118.385 71.0443 117.867C70.5882 117.348 69.9473 116.986 69.2295 116.843H69.2161Z" fill="#B65B52"/>
<path d="M59.8081 83.1583C54.0961 84.9716 48.7134 93.6933 48.7134 93.6933C48.9822 96.8605 54.5531 104.029 58.5246 105.576C61.2915 103.442 63.3417 100.656 64.4449 97.5314C66.219 92.0674 62.7111 83.9501 59.8081 83.1583Z" fill="#279EFF"/>
<path d="M69.1354 80.8011C69.1354 80.8011 73.0868 85.1106 78.2343 85.3342C75.2372 86.6095 74.7332 89.6377 74.7332 89.6377C74.7332 89.6377 68.3088 87.8788 67.0925 81.7258C67.3267 81.4366 67.6342 81.2018 67.9895 81.041C68.3448 80.8802 68.7377 80.7979 69.1354 80.8011Z" fill="white"/>
<path d="M80.3848 81.4176C80.3848 81.4176 82.4008 83.5028 82.4814 85.0078C84.8939 85.6122 86.0497 88.7975 86.0497 88.7975C86.0497 88.7975 86.4932 84.2523 82.6897 81.8044C81.981 81.4729 81.1787 81.3383 80.3848 81.4176Z" fill="white"/>
<path d="M70.4728 217.225L70.2242 216.016C70.1969 215.884 70.1307 215.761 70.0326 215.66C69.9345 215.559 69.808 215.484 69.6664 215.441L63.7999 213.713C61.1804 214.351 58.429 214.416 55.7762 213.9L54.5397 217.122C54.4921 217.237 54.4769 217.362 54.4955 217.484C54.5141 217.606 54.5659 217.722 54.6463 217.822C54.7267 217.922 54.8333 218.002 54.9565 218.056C55.0797 218.11 55.2159 218.136 55.3528 218.131H69.653C69.7781 218.133 69.902 218.109 70.0154 218.062C70.1288 218.014 70.2288 217.944 70.3077 217.857C70.3866 217.77 70.4425 217.667 70.4711 217.558C70.4997 217.448 70.5003 217.334 70.4728 217.225Z" fill="#263238"/>
<path d="M65.6477 214.293C64.9995 214.278 64.355 214.199 63.7258 214.057C63.6949 214.051 63.667 214.036 63.6465 214.014C63.6259 213.992 63.6137 213.965 63.6116 213.936C63.6099 213.907 63.6164 213.878 63.6305 213.852C63.6446 213.825 63.6658 213.802 63.6922 213.785C63.9409 213.64 66.1316 212.371 66.9917 212.685C67.0884 212.721 67.1723 212.78 67.2339 212.855C67.2956 212.931 67.3328 213.021 67.3412 213.114C67.3744 213.264 67.3654 213.419 67.3149 213.565C67.2644 213.71 67.1741 213.842 67.0522 213.949C66.6431 214.207 66.1462 214.329 65.6477 214.293ZM64.2164 213.834C65.4999 214.069 66.4609 214.033 66.8305 213.731C66.9078 213.659 66.9643 213.572 66.9947 213.476C67.0252 213.38 67.0288 213.278 67.0052 213.181C67.0025 213.135 66.9852 213.091 66.9555 213.053C66.9257 213.016 66.8847 212.987 66.8372 212.969C66.3735 212.8 65.1101 213.35 64.2164 213.834Z" fill="#279EFF"/>
<path d="M63.7662 214.063C63.742 214.07 63.7164 214.07 63.6922 214.063C63.6675 214.052 63.6469 214.035 63.6326 214.013C63.6184 213.992 63.6111 213.967 63.6116 213.943C63.6116 213.858 63.6116 211.972 64.4247 211.337C64.5236 211.254 64.642 211.192 64.771 211.156C64.9001 211.119 65.0366 211.109 65.1706 211.126C65.3114 211.128 65.4466 211.175 65.5516 211.26C65.6565 211.344 65.7241 211.46 65.7418 211.585C65.8359 212.299 64.6196 213.671 63.8535 214.057C63.8257 214.067 63.7953 214.069 63.7662 214.063ZM65.0228 211.404C64.881 211.403 64.744 211.45 64.6398 211.537C64.1626 211.918 63.9678 213 63.9678 213.622C64.6398 213.139 65.473 212.099 65.4058 211.634C65.4058 211.543 65.3521 211.434 65.1034 211.41L65.0228 211.404Z" fill="#279EFF"/>
<path d="M101.143 216.699L101.015 215.49C100.993 215.358 100.934 215.233 100.843 215.127C100.753 215.022 100.634 214.938 100.498 214.885L94.6849 212.649C91.9504 213.075 89.1423 212.91 86.4932 212.166L84.914 215.363C84.8609 215.473 84.8367 215.592 84.8434 215.711C84.8501 215.831 84.8874 215.947 84.9525 216.051C85.0176 216.155 85.1087 216.245 85.2186 216.312C85.3286 216.379 85.4543 216.423 85.586 216.439L100.189 217.587C100.321 217.604 100.457 217.593 100.584 217.554C100.711 217.515 100.825 217.449 100.918 217.363C101.012 217.276 101.081 217.17 101.12 217.055C101.159 216.939 101.167 216.817 101.143 216.699Z" fill="#263238"/>
<path d="M96.5127 213.296C95.8531 213.231 95.2038 213.1 94.5774 212.903C94.5455 212.895 94.5175 212.877 94.498 212.853C94.4785 212.829 94.4686 212.8 94.4698 212.77C94.4708 212.74 94.4806 212.711 94.4984 212.685C94.5161 212.66 94.541 212.639 94.5706 212.625C94.8394 212.492 97.1981 211.374 98.0449 211.767C98.1403 211.81 98.2203 211.877 98.2761 211.959C98.3318 212.041 98.3611 212.136 98.3607 212.232C98.3815 212.388 98.3572 212.546 98.2901 212.691C98.223 212.836 98.1154 212.963 97.9777 213.06C97.5363 213.293 97.0167 213.377 96.5127 213.296ZM95.0948 212.691C96.385 213.036 97.3729 213.078 97.7828 212.794C97.8699 212.729 97.9371 212.644 97.9782 212.549C98.0194 212.454 98.033 212.351 98.018 212.25C98.0209 212.203 98.0085 212.156 97.9822 212.115C97.956 212.075 97.917 212.042 97.8702 212.02C97.4401 211.851 96.0557 212.311 95.0948 212.734V212.691Z" fill="#279EFF"/>
<path d="M94.6178 212.927C94.5916 212.935 94.5633 212.935 94.5371 212.927C94.5133 212.914 94.4942 212.895 94.4822 212.873C94.4703 212.85 94.466 212.825 94.4699 212.8C94.4699 212.716 94.685 210.793 95.5653 210.207C95.6742 210.131 95.8006 210.077 95.9354 210.05C96.0702 210.023 96.21 210.023 96.3448 210.05C96.4882 210.063 96.6216 210.122 96.7203 210.217C96.8191 210.311 96.8767 210.434 96.8824 210.564C96.8824 211.307 95.5384 212.601 94.7051 212.939C94.6753 212.944 94.6445 212.94 94.6178 212.927ZM96.1634 210.316C96.0184 210.304 95.874 210.343 95.7602 210.425C95.236 210.775 94.9605 211.863 94.8597 212.498C95.5989 212.057 96.5464 211.065 96.5263 210.582C96.5263 210.485 96.4859 210.376 96.244 210.328L96.1634 210.316Z" fill="#279EFF"/>
<path d="M127.008 79.5741C127.008 79.5741 126.423 77.3196 126.208 76.1954C126.155 75.8992 126.04 75.7118 125.872 75.6574C125.704 75.603 125.268 75.7904 125.268 75.7904L125.1 75.591C125.222 75.5045 125.366 75.4444 125.518 75.4151C125.671 75.3858 125.829 75.388 125.98 75.4217C126.128 75.4934 126.252 75.5987 126.34 75.727C126.429 75.8553 126.478 76.0022 126.484 76.1531C126.692 77.2652 127.277 79.4895 127.284 79.5136L127.008 79.5741Z" fill="#263238"/>
<path d="M124.551 73.9079L124.104 73.9933L124.585 76.0271L125.032 75.9417L124.551 73.9079Z" fill="#263238"/>
<path d="M127.122 81.5929C128.05 85.5276 128.379 88.7915 127.862 88.8942C127.344 88.997 126.162 85.8721 125.227 81.9555C124.293 78.0389 123.971 74.7569 124.495 74.6541C125.019 74.5514 126.195 77.6641 127.122 81.5929Z" fill="#279EFF"/>
<path opacity="0.5" d="M127.122 81.5929C128.05 85.5276 128.379 88.7915 127.862 88.8942C127.344 88.997 126.162 85.8721 125.227 81.9555C124.293 78.0389 123.971 74.7569 124.495 74.6541C125.019 74.5514 126.195 77.6641 127.122 81.5929Z" fill="black"/>
<path opacity="0.5" d="M124.522 78.4015L126.161 78.0872C126.101 77.8999 126.047 77.7185 125.987 77.5372L124.434 77.8334C124.461 78.0207 124.488 78.2081 124.522 78.4015Z" fill="white"/>
<path d="M285.531 103.532L288.219 103.915L288.645 101.497L285.957 101.114L285.531 103.532Z" fill="#263238"/>
<path opacity="0.5" d="M285.531 103.532L288.219 103.915L288.645 101.497L285.957 101.114L285.531 103.532Z" fill="white"/>
<path opacity="0.3" d="M285.958 101.108L285.724 102.44L288.412 102.823L288.646 101.491L285.958 101.108Z" fill="black"/>
<path d="M285.515 101.742L288.86 102.218C289.234 102.272 289.585 102.042 289.644 101.706L289.845 100.566C289.904 100.229 289.649 99.9136 289.275 99.8603L285.93 99.3838C285.556 99.3305 285.205 99.5599 285.146 99.8962L284.945 101.036C284.886 101.373 285.141 101.689 285.515 101.742Z" fill="#263238"/>
<path opacity="0.5" d="M285.515 101.742L288.86 102.218C289.234 102.272 289.585 102.042 289.644 101.706L289.845 100.566C289.904 100.229 289.649 99.9136 289.275 99.8603L285.93 99.3838C285.556 99.3305 285.205 99.5599 285.146 99.8962L284.945 101.036C284.886 101.373 285.141 101.689 285.515 101.742Z" fill="white"/>
<path d="M279.683 104.951L282.041 104.343L281.365 102.222L279.007 102.83L279.683 104.951Z" fill="#263238"/>
<path opacity="0.5" d="M279.683 104.951L282.041 104.343L281.365 102.222L279.007 102.83L279.683 104.951Z" fill="white"/>
<path opacity="0.3" d="M281.369 102.238L279.011 102.846L279.384 104.014L281.741 103.406L281.369 102.238Z" fill="black"/>
<path d="M278.983 103.488L281.78 102.767C282.144 102.673 282.355 102.332 282.25 102.004L281.969 101.121C281.864 100.794 281.485 100.605 281.121 100.699L278.324 101.42C277.96 101.514 277.75 101.855 277.854 102.183L278.135 103.066C278.24 103.393 278.619 103.582 278.983 103.488Z" fill="#263238"/>
<path opacity="0.5" d="M278.983 103.488L281.78 102.767C282.144 102.673 282.355 102.332 282.25 102.004L281.969 101.121C281.864 100.794 281.485 100.605 281.121 100.699L278.324 101.42C277.96 101.514 277.75 101.855 277.854 102.183L278.135 103.066C278.24 103.393 278.619 103.582 278.983 103.488Z" fill="white"/>
<path d="M294.589 105.053L292.555 103.819L291.184 105.648L293.217 106.882L294.589 105.053Z" fill="#263238"/>
<path opacity="0.5" d="M294.589 105.053L292.555 103.819L291.184 105.648L293.217 106.882L294.589 105.053Z" fill="white"/>
<path opacity="0.3" d="M292.561 103.824L291.806 104.832L293.84 106.065L294.595 105.058L292.561 103.824Z" fill="black"/>
<path d="M295.731 103.895L293.319 102.432C293.005 102.241 292.579 102.316 292.367 102.598L291.796 103.36C291.585 103.642 291.667 104.025 291.981 104.216L294.394 105.679C294.707 105.87 295.133 105.795 295.345 105.513L295.916 104.751C296.128 104.469 296.045 104.086 295.731 103.895Z" fill="#263238"/>
<path opacity="0.5" d="M295.731 103.895L293.319 102.432C293.005 102.241 292.579 102.316 292.367 102.598L291.796 103.36C291.585 103.642 291.667 104.025 291.981 104.216L294.394 105.679C294.707 105.87 295.133 105.795 295.345 105.513L295.916 104.751C296.128 104.469 296.045 104.086 295.731 103.895Z" fill="white"/>
<path d="M286.823 121.48C292.375 120.744 296.211 116.099 295.392 111.106C294.574 106.112 289.41 102.662 283.858 103.398C278.307 104.135 274.47 108.779 275.289 113.773C276.107 118.766 281.272 122.217 286.823 121.48Z" fill="#279EFF"/>
<path d="M293.443 112.583C293.535 108.561 289.985 105.234 285.514 105.151C281.042 105.068 277.343 108.261 277.251 112.283C277.159 116.304 280.709 119.632 285.18 119.714C289.651 119.797 293.351 116.604 293.443 112.583Z" fill="#279EFF"/>
<path opacity="0.5" d="M293.443 112.583C293.535 108.561 289.985 105.234 285.514 105.151C281.042 105.068 277.343 108.261 277.251 112.283C277.159 116.304 280.709 119.632 285.18 119.714C289.651 119.797 293.351 116.604 293.443 112.583Z" fill="white"/>
<path d="M280.58 112.158L285.721 112.89L286.722 107.178C286.74 107.073 286.711 106.966 286.642 106.88C286.572 106.794 286.469 106.736 286.352 106.718C286.294 106.709 286.234 106.71 286.176 106.723C286.118 106.735 286.064 106.757 286.016 106.789C285.968 106.821 285.928 106.861 285.898 106.907C285.868 106.953 285.849 107.004 285.842 107.057L284.975 111.965L280.721 111.36C280.603 111.343 280.483 111.368 280.386 111.43C280.289 111.493 280.223 111.587 280.204 111.693C280.186 111.799 280.216 111.908 280.286 111.995C280.356 112.082 280.462 112.14 280.58 112.158Z" fill="#263238"/>
<path d="M289.215 120.88L289.773 122.863H291.312V119.581L289.215 120.711V120.88Z" fill="#279EFF"/>
<path d="M281.575 120.88L281.017 122.863H279.478V119.581L281.575 120.711V120.88Z" fill="#279EFF"/>
<path d="M288.328 122.863H245.683V199.11H288.328V122.863Z" fill="#279EFF"/>
<path opacity="0.4" d="M288.328 122.863H245.683V199.11H288.328V122.863Z" fill="white"/>
<path d="M296.459 122.863H288.328V199.11H296.459V122.863Z" fill="#279EFF"/>
<path opacity="0.4" d="M285.559 128.52H248.673V147.033H285.559V128.52Z" fill="white"/>
<path d="M262.308 128.52L262.47 130.986C262.523 131.802 263.027 132.424 263.639 132.424H270.594C271.206 132.424 271.71 131.82 271.763 130.986L271.925 128.52H262.308Z" fill="#279EFF"/>
<path opacity="0.4" d="M285.559 149.058H248.673V167.571H285.559V149.058Z" fill="white"/>
<path d="M262.308 149.058L262.47 151.524C262.523 152.34 263.027 152.963 263.639 152.963H270.594C271.206 152.963 271.71 152.358 271.763 151.524L271.925 149.058H262.308Z" fill="#279EFF"/>
<path opacity="0.4" d="M285.559 169.596H248.673V188.11H285.559V169.596Z" fill="white"/>
<path d="M262.308 169.596L262.47 172.062C262.523 172.878 263.027 173.501 263.639 173.501H270.594C271.206 173.501 271.71 172.896 271.763 172.062L271.925 169.596H262.308Z" fill="#279EFF"/>
</svg>
